<?xml version="1.0" encoding="utf-8"?>
<!-- Generator: Adobe Illustrator 26.4.1, SVG Export Plug-In . SVG Version: 6.00 Build 0)  -->
<svg version="1.1" id="Layer_1" xmlns="http://www.w3.org/2000/svg" xmlns:xlink="http://www.w3.org/1999/xlink" x="0px" y="0px"
	 viewBox="0 0 34 34" style="enable-background:new 0 0 34 34;" xml:space="preserve">
<style type="text/css">
	.st0{fill:#FFFFFF;}
</style>
<path class="st0" d="M21.9,33.6c-0.5,0-0.8-0.2-1.1-0.4c-0.4-0.3-0.6-0.8-0.6-1.3c0-0.2,0-0.5,0-0.9c0-0.8,0-2.1,0-3.5
	c0-1.5-0.6-2.2-0.8-2.4c-0.2-0.2-0.3-0.5-0.2-0.9c0.1-0.3,0.4-0.5,0.7-0.6c2.1-0.2,3.6-0.8,4.6-1.6c1.4-1.2,2.1-3,2.1-5.6
	c0-1.5-0.5-2.8-1.4-3.8c-0.2-0.2-0.3-0.6-0.2-0.8c0.1-0.4,0.5-1.6,0-3.2c-0.5,0.1-1.6,0.3-3.4,1.5c-0.2,0.1-0.4,0.2-0.7,0.1
	C19.7,10,18.4,9.8,17,9.8c-1.3,0-2.6,0.2-3.8,0.5c-0.2,0.1-0.5,0-0.7-0.1C10.8,9,9.7,8.8,9.1,8.7c-0.5,1.6-0.1,2.8,0,3.2
	c0.1,0.3,0.1,0.6-0.2,0.8c-1,1.1-1.4,2.3-1.4,3.8c0,2.6,0.7,4.4,2,5.5c1,0.9,2.5,1.4,4.6,1.6c0.3,0,0.6,0.3,0.7,0.6
	c0.1,0.3,0,0.6-0.2,0.9c-0.2,0.2-0.6,0.7-0.8,1.7c0,0.3-0.2,0.5-0.5,0.6c-0.5,0.2-1.5,0.6-2.6,0.5c-0.8-0.1-1.8-0.4-2.6-1.4
	c0.1,0.1,0.1,0.2,0.1,0.3c0,0,0,0,0,0c0.2,0.5,0.5,0.9,1,1.1c0.8,0.4,2,0.5,3.6,0.2c0.2,0,0.5,0,0.7,0.2c0.2,0.2,0.3,0.4,0.3,0.6
	c0,0.9,0,1.7,0,2.3c0,0.3,0,0.6,0,0.7c0,0.5-0.2,0.9-0.6,1.2c-0.3,0.2-0.8,0.5-1.5,0.3c0,0-0.1,0-0.1,0C10,33,8.4,32.2,7,31.1
	c-1.4-1-2.6-2.3-3.7-3.7C1.1,24.5,0,21,0,17.4c0-2.3,0.4-4.5,1.3-6.6c0.9-2,2.1-3.8,3.6-5.4c1.6-1.6,3.4-2.8,5.4-3.6
	c2.1-0.9,4.3-1.3,6.6-1.3c2.3,0,4.5,0.4,6.6,1.3c2,0.9,3.8,2.1,5.4,3.6c1.6,1.6,2.8,3.4,3.6,5.4c0.9,2.1,1.3,4.3,1.3,6.6
	c0,1.8-0.3,3.5-0.8,5.2c-0.5,1.7-1.3,3.3-2.4,4.7c-1,1.4-2.3,2.7-3.7,3.8c-1.4,1.1-3,1.9-4.7,2.4c0,0-0.1,0-0.1,0
	C22.2,33.6,22,33.6,21.9,33.6z M21.9,32c0,0,0.1,0,0.1,0c3-1,5.7-3,7.5-5.6c1.9-2.6,2.9-5.7,2.9-9c0-4.1-1.6-8-4.5-10.9
	C25,3.6,21.1,2,17,2S9,3.6,6.1,6.5c-2.9,2.9-4.5,6.8-4.5,10.9C1.6,24,5.8,29.9,12.1,32c0,0,0.1,0,0.1,0c0-0.1,0-0.4,0-0.7
	c0-0.4,0-0.9,0-1.4c-3.7,0.4-5-1.4-5.4-2.6c-0.2-0.5-0.9-1.6-1.3-1.9c-0.3-0.2-1.4-0.8-1.2-1.7c0-0.2,0.2-0.6,0.7-0.7
	c0.2-0.1,0.5-0.1,0.8-0.1c0,0,0,0,0,0c1.7,0,2.8,1.6,3.1,2c0,0,0,0,0,0c0.5,0.8,1.1,1.3,1.9,1.4c0.5,0,1-0.1,1.4-0.2
	c0.1-0.3,0.2-0.7,0.3-1c-1.3-0.3-2.9-0.8-4.1-1.8c-1.7-1.5-2.6-3.7-2.6-6.8c0-1.7,0.5-3.2,1.6-4.5C7.2,11.1,7,9.6,7.8,7.6
	c0.1-0.2,0.3-0.4,0.5-0.5c0.3-0.1,1.8-0.4,4.8,1.6c1.3-0.3,2.6-0.5,3.9-0.5c1.3,0,2.7,0.2,3.9,0.5c3.1-2,4.6-1.6,4.8-1.6
	c0.2,0.1,0.4,0.2,0.5,0.5c0.8,2,0.6,3.5,0.3,4.4c1,1.3,1.6,2.8,1.6,4.5c0,3-0.9,5.3-2.6,6.8c-1.3,1.1-2.8,1.6-4.1,1.8
	c0.3,0.6,0.5,1.4,0.5,2.4c0,1.4,0,2.7,0,3.5C21.9,31.5,21.9,31.8,21.9,32z"/>
</svg>
