<?xml version="1.0" standalone="no"?>
<!DOCTYPE svg PUBLIC "-//W3C//DTD SVG 20010904//EN"
 "http://www.w3.org/TR/2001/REC-SVG-20010904/DTD/svg10.dtd">
<svg version="1.0" xmlns="http://www.w3.org/2000/svg"
 width="700.000000pt" height="700.000000pt" viewBox="0 0 700.000000 700.000000"
 preserveAspectRatio="xMidYMid meet">
<metadata>
Created by potrace 1.14, written by Peter Selinger 2001-2017
</metadata>
<g transform="translate(0.000000,700.000000) scale(0.100000,-0.100000)"
fill="#000000" stroke="none">
<path d="M3437 6924 c-1 -1 -58 -4 -127 -8 -156 -7 -310 -25 -440 -51 -14 -3
-50 -10 -80 -16 -30 -6 -106 -24 -168 -40 -1196 -316 -2139 -1270 -2445 -2474
-45 -175 -73 -344 -93 -555 -10 -96 -10 -415 -1 -548 16 -241 75 -532 158
-789 363 -1118 1290 -1983 2429 -2268 136 -34 264 -59 355 -70 28 -4 60 -8 73
-10 122 -20 543 -27 702 -12 678 64 1272 300 1820 723 137 106 435 400 542
534 250 315 447 668 570 1020 17 47 31 90 33 95 1 6 5 17 8 25 30 71 104 414
126 580 36 274 34 639 -5 910 -55 375 -151 688 -314 1025 -400 823 -1127 1460
-1994 1750 -147 49 -329 96 -456 119 -47 9 -94 17 -105 20 -11 2 -54 7 -95 11
-41 4 -78 9 -81 11 -9 5 -406 23 -412 18z m173 -186 c0 -4 -5 -10 -11 -13 -6
-4 -24 -25 -40 -47 -27 -39 -29 -40 -29 -15 0 14 -4 37 -9 51 -7 17 -7 26 2
29 19 6 87 3 87 -5z m-180 -30 c23 -36 22 -83 -2 -117 -14 -20 -14 -20 -42 10
-15 16 -34 29 -42 29 -10 0 -14 12 -14 39 0 22 -3 46 -6 55 -5 13 2 16 40 16
41 0 48 -3 66 -32z m539 2 c124 -21 186 -69 265 -205 58 -101 61 -137 11 -166
-21 -13 -38 -32 -41 -48 -13 -51 -35 -81 -92 -123 -74 -54 -90 -72 -120 -138
-30 -64 -35 -162 -11 -201 8 -13 13 -39 11 -57 -3 -27 -7 -32 -20 -27 -55 21
-112 27 -168 17 -32 -5 -60 -9 -62 -7 -2 2 3 14 11 27 8 12 22 43 31 68 13 34
29 53 66 79 108 73 207 215 239 341 10 41 17 84 16 95 -2 11 -6 51 -10 88 -14
138 -77 224 -188 256 -44 13 -15 13 62 1z m-989 -40 c-11 -22 -17 -40 -14 -40
4 0 5 -3 1 -6 -3 -3 -24 9 -48 27 l-41 34 58 11 c33 7 60 12 62 13 1 1 -7 -17
-18 -39z m260 10 c0 -12 -21 -43 -46 -70 -68 -73 -74 -119 -21 -177 15 -17 17
-23 6 -23 -8 0 -41 -29 -74 -65 l-60 -66 -2 60 c-7 203 -7 215 14 256 34 65
91 105 151 105 26 0 32 -4 32 -20z m1192 -73 l77 -22 -64 -63 c-36 -35 -65
-70 -65 -78 0 -8 -5 -12 -10 -9 -7 4 -7 13 0 26 13 23 -13 66 -52 88 -12 7
-40 36 -60 66 l-37 53 67 -19 c37 -11 102 -30 144 -42z m-530 15 c75 -33 108
-91 102 -180 -4 -61 -47 -159 -93 -212 -29 -33 -30 -33 -21 -8 7 21 5 32 -8
47 -16 19 -19 20 -48 5 -18 -8 -41 -24 -52 -34 -19 -18 -20 -18 -48 12 -16 17
-43 37 -61 44 -47 20 -131 18 -173 -5 l-35 -18 0 92 c0 74 3 95 18 109 9 10
17 16 18 14 0 -2 2 -13 5 -26 10 -57 66 -120 119 -135 53 -16 83 -16 95 -2 10
12 6 22 -24 55 -60 67 -72 128 -37 186 40 65 161 93 243 56z m-1270 -64 c-19
-19 -14 -79 10 -114 36 -53 94 -70 130 -37 17 15 17 17 2 35 -10 10 -22 18
-27 18 -19 0 -47 33 -47 56 0 29 42 53 87 50 83 -6 130 -86 127 -217 -1 -46
-5 -100 -8 -119 -8 -37 -59 -145 -82 -171 -18 -20 -18 -48 1 -55 8 -3 29 1 46
10 18 9 33 16 33 16 1 0 0 -43 0 -97 -2 -110 13 -184 46 -238 l23 -37 -24 12
c-79 42 -172 140 -214 225 -33 68 -35 90 -13 165 24 80 25 172 4 225 -9 23
-48 71 -90 113 -73 71 -76 73 -143 84 -37 5 -69 11 -71 12 -4 4 98 58 126 66
15 5 43 9 62 9 26 1 31 -2 22 -11z m648 -6 c0 -5 -11 -14 -25 -20 -28 -13 -35
1 -7 17 21 13 32 14 32 3z m1497 -68 c55 -24 74 -73 69 -182 -4 -103 -38 -172
-129 -263 -77 -77 -182 -158 -151 -116 10 13 40 38 67 56 39 26 48 37 44 53
-4 12 6 45 23 79 69 135 82 261 37 351 -14 27 -19 47 -13 45 6 -3 30 -13 53
-23z m-170 -1 c49 -23 85 -80 85 -137 0 -98 -82 -213 -178 -250 -53 -21 -65
-32 -57 -53 6 -17 37 -16 87 2 39 14 39 13 20 -5 -25 -25 -96 -38 -158 -29
-77 12 -143 76 -118 115 12 19 69 44 99 44 46 0 101 19 107 37 9 23 -22 63
-72 91 -40 23 -41 23 -28 55 8 18 11 38 9 45 -3 6 0 12 5 12 6 0 32 18 59 39
44 34 66 46 96 50 5 0 25 -6 44 -16z m-2369 -21 c-7 -10 -31 -41 -52 -70 l-39
-54 -18 48 c-10 26 -17 48 -16 49 41 21 123 52 129 49 5 -3 3 -13 -4 -22z
m1062 -42 c0 -5 -7 -10 -15 -10 -8 0 -15 5 -15 10 0 6 7 10 15 10 8 0 15 -4
15 -10z m-795 -23 c16 -13 15 -14 -16 -15 -36 -1 -69 -33 -64 -61 2 -9 4 -22
4 -28 1 -7 12 -15 26 -19 20 -5 24 -11 19 -28 -16 -54 -67 -56 -124 -5 -38 35
-58 37 -66 4 -7 -30 25 -79 66 -100 38 -19 103 -19 141 1 l30 15 -15 -28 c-8
-15 -40 -57 -71 -92 -32 -36 -68 -82 -81 -102 -32 -52 -62 -164 -58 -223 2
-42 1 -46 -11 -30 -7 11 -21 42 -31 71 l-18 51 37 41 c20 22 39 51 42 63 11
46 12 113 2 126 -13 17 -48 15 -76 -4 l-23 -16 6 93 c7 107 16 151 39 194 26
47 53 74 89 90 42 18 129 19 153 2z m2454 1 c15 -9 17 -16 10 -30 -12 -23 2
-78 23 -91 25 -16 48 -1 48 32 0 39 10 44 40 21 24 -18 24 -18 5 -40 -20 -22
-108 -71 -152 -84 -20 -7 -21 -5 -13 24 11 38 10 28 10 110 0 39 2 70 5 70 3
0 14 -5 24 -12z m-2914 -27 c23 -26 23 -86 0 -134 -20 -43 -99 -109 -120 -101
-20 8 -28 40 -16 63 15 28 -12 55 -39 41 -43 -23 -55 -88 -24 -135 17 -26 70
-51 97 -47 16 3 17 -1 10 -35 -4 -21 -8 -64 -8 -95 0 -53 -2 -57 -20 -52 -42
13 -79 37 -117 76 -46 47 -64 45 -61 -7 2 -31 0 -35 -12 -25 -8 7 -14 15 -13
18 1 4 -8 37 -20 74 -12 37 -22 73 -22 80 0 7 -7 26 -15 42 -17 32 -18 30 27
61 l32 22 18 -38 c17 -38 40 -50 54 -28 4 6 8 34 9 63 3 39 8 54 25 66 29 20
183 109 191 109 3 1 14 -8 24 -18z m1225 -166 c52 -103 42 -184 -28 -232 -34
-22 -52 -23 -129 -5 l-32 7 31 45 c39 57 84 154 99 214 6 25 15 44 18 41 4 -2
23 -34 41 -70z m1911 20 c-16 -16 -34 -48 -41 -70 -6 -22 -13 -45 -15 -52 -3
-8 -15 -8 -50 2 -25 8 -47 14 -50 15 -3 0 -17 0 -32 1 l-28 0 25 11 c122 51
149 69 166 107 15 34 19 38 35 28 17 -11 17 -13 -10 -42z m-2053 8 c-5 -21
-38 -87 -73 -148 -34 -60 -65 -117 -68 -125 -11 -29 -7 41 5 87 15 61 49 121
101 177 23 26 42 46 43 46 1 0 -2 -17 -8 -37z m-964 -55 c-8 -46 -8 -222 0
-288 8 -65 25 -167 32 -195 3 -11 -26 14 -65 55 -113 120 -123 186 -50 333 30
59 75 127 85 127 2 0 2 -15 -2 -32z m1464 -36 c11 -20 23 -54 26 -75 7 -45
-15 -162 -40 -209 l-18 -33 -7 45 c-8 62 -22 93 -63 137 -44 49 -52 82 -31
123 17 33 66 60 95 53 9 -3 26 -21 38 -41z m1730 17 c23 -17 42 -32 42 -34 0
-2 -11 -16 -25 -31 -14 -15 -23 -34 -20 -43 3 -11 -5 -21 -26 -30 -17 -7 -50
-28 -74 -46 -50 -39 -50 -38 -54 67 -2 71 8 102 43 130 31 26 67 22 114 -13z
m-2821 -181 c-36 -79 -72 -170 -81 -203 -17 -65 -15 -195 3 -254 15 -50 8 -48
-27 6 -37 60 -51 103 -56 176 -8 110 30 196 133 307 33 36 65 78 72 93 6 15
14 26 16 23 3 -3 -24 -69 -60 -148z m1333 97 c-29 -30 -56 -52 -59 -49 -5 6
98 104 109 104 2 0 -20 -25 -50 -55z m338 25 c2 -72 96 -149 188 -153 24 -1
44 -4 44 -6 0 -19 -156 -94 -232 -111 -83 -19 -129 -4 -156 51 -33 66 -10 134
61 178 18 11 43 31 56 45 31 33 38 33 39 -4z m-2672 -60 c13 -60 58 -62 67 -2
2 15 4 -54 3 -153 0 -116 -5 -196 -13 -224 -12 -39 -11 -47 6 -75 20 -34 20
-37 -17 -116 -31 -65 -129 -168 -191 -199 -23 -12 -45 -20 -47 -18 -3 2 0 24
5 48 17 76 30 186 30 266 1 53 1 53 26 41 21 -9 29 -9 41 4 14 14 14 23 -5 89
-14 49 -29 81 -46 96 -22 19 -25 30 -25 87 l0 65 73 60 c39 33 75 60 80 61 4
0 10 -13 13 -30z m3951 24 c-3 -3 -12 -4 -19 -1 -8 3 -5 6 6 6 11 1 17 -2 13
-5z m-2065 -74 c5 0 8 -4 8 -10 0 -5 -16 -10 -35 -10 -19 0 -35 2 -35 4 0 1 5
18 11 36 l12 32 16 -26 c8 -14 19 -26 23 -26z m1658 25 c86 -45 84 -161 -3
-181 -37 -8 -118 -86 -146 -142 -23 -46 -30 -52 -69 -58 -59 -9 -72 -15 -83
-36 -10 -18 -8 -29 12 -64 l23 -42 -30 -43 c-25 -37 -29 -51 -29 -110 0 -50
-4 -73 -16 -85 -16 -15 -16 -13 -12 29 4 35 0 54 -18 86 -28 51 -96 98 -153
106 l-41 7 0 62 c0 147 -108 198 -236 112 -74 -50 -112 -47 -177 12 -26 24
-32 35 -27 55 6 24 10 25 69 24 54 -2 62 -4 58 -19 -2 -10 3 -20 12 -24 28
-11 175 22 276 60 119 46 124 47 159 35 44 -15 67 -71 48 -112 -7 -15 -16 -17
-48 -12 -24 4 -39 3 -39 -3 0 -6 -3 -17 -6 -25 -8 -23 35 -57 72 -57 37 0 90
46 100 86 10 39 -2 100 -26 134 l-21 30 31 0 c39 0 106 34 120 61 19 35 -5 51
-67 47 -29 -3 -53 -3 -53 0 0 17 90 72 135 82 46 11 152 2 185 -15z m380 -44
c5 -11 27 -25 47 -32 21 -6 47 -18 58 -25 26 -17 50 -3 42 25 -7 30 2 26 51
-17 35 -31 49 -56 82 -142 22 -58 40 -108 40 -112 0 -5 -11 -8 -25 -8 -23 0
-45 -24 -45 -49 0 -6 8 -19 19 -30 18 -18 18 -19 -29 -25 -34 -5 -58 -15 -81
-36 l-32 -31 -34 41 c-20 22 -56 52 -82 66 -66 35 -10 19 74 -21 76 -38 95
-34 95 17 0 140 -239 244 -402 175 -40 -17 -91 -64 -84 -76 4 -5 -15 -21 -40
-36 -50 -29 -154 -128 -155 -148 0 -7 -5 -1 -10 13 -9 22 -7 28 17 45 46 34
69 64 79 108 9 35 15 42 35 43 42 2 59 15 66 50 4 23 15 39 33 49 14 7 53 40
87 73 41 40 79 66 115 80 67 26 66 26 79 3z m-2764 -169 c22 -31 56 -73 76
-93 l38 -37 -31 -11 c-16 -6 -42 -20 -56 -31 l-26 -20 -24 22 c-32 30 -90 152
-96 202 -4 29 1 53 21 93 l26 53 17 -60 c9 -34 34 -87 55 -118z m431 87 c32
-15 56 -20 83 -16 l39 5 0 -42 c0 -22 5 -57 10 -76 14 -44 14 -101 1 -136 -10
-25 -13 -26 -53 -20 -102 17 -180 101 -180 196 0 26 9 71 19 100 16 45 20 49
28 31 5 -11 29 -30 53 -42z m317 -30 c19 -22 25 -38 20 -53 -10 -35 -22 -41
-42 -23 -25 23 -49 21 -55 -4 -9 -33 10 -70 43 -82 17 -6 30 -14 30 -17 0 -6
-59 -47 -80 -55 -12 -4 -15 6 -15 57 0 35 -4 86 -9 114 -7 46 -6 54 13 73 30
30 64 27 95 -10z m-2160 -66 c-1 -26 -5 -47 -10 -46 -5 1 -26 9 -47 16 l-38
14 43 41 c23 23 45 37 48 33 3 -5 5 -31 4 -58z m685 -19 c28 -14 87 -62 133
-105 52 -50 89 -78 100 -75 13 3 21 -13 39 -78 30 -113 34 -188 14 -265 -15
-58 -69 -181 -80 -181 -2 0 10 33 26 73 82 194 62 330 -56 387 -115 56 -287 1
-331 -106 -16 -38 -20 -98 -10 -131 10 -31 -8 -29 -33 3 -33 42 -27 90 23 187
55 107 79 195 74 274 l-3 60 27 -8 c15 -4 50 -20 77 -35z m3890 -79 c11 -45
41 -75 108 -109 19 -9 65 -59 108 -114 65 -84 75 -102 75 -138 0 -22 -6 -48
-13 -57 -11 -16 -15 -15 -45 16 -25 26 -35 46 -38 78 -6 74 -15 113 -30 137
-16 24 -53 29 -72 10 -9 -9 -12 -9 -12 0 0 7 -18 41 -40 75 -22 35 -51 90 -66
123 -23 52 -24 57 -6 41 11 -10 25 -38 31 -62z m-3249 -111 c21 -29 37 -54 34
-57 -3 -3 -6 -30 -6 -60 -1 -40 5 -69 24 -106 14 -28 23 -51 21 -51 -2 0 -17
6 -32 14 -29 15 -88 129 -109 211 -14 50 -21 141 -15 167 5 15 9 11 25 -24 10
-23 37 -66 58 -94z m-1385 102 c68 -45 75 -116 31 -341 -42 -216 -48 -261 -43
-318 3 -34 9 -72 13 -85 6 -21 6 -22 -22 -7 -40 21 -103 19 -141 -5 -71 -43
-102 -169 -64 -256 l21 -47 -41 7 c-76 12 -99 44 -104 141 -1 21 2 57 7 80 5
22 11 48 13 57 7 34 29 64 86 116 63 58 85 103 75 158 -6 30 -4 34 14 34 37 0
68 30 95 94 22 52 25 68 16 85 -10 17 -9 21 3 21 28 0 64 22 74 45 21 47 -52
77 -107 44 -17 -10 -31 -23 -31 -27 0 -14 -46 -31 -59 -22 -7 4 -12 16 -11 26
5 43 -1 61 -24 74 l-25 13 62 69 c59 67 63 70 100 65 21 -3 49 -12 62 -21z
m539 -13 c-4 -16 -31 -77 -60 -138 -52 -108 -66 -164 -51 -210 6 -18 2 -20
-31 -21 -20 0 -52 -3 -70 -7 l-32 -7 21 23 c50 52 98 127 128 202 29 70 90
185 98 185 2 0 0 -12 -3 -27z m2147 18 c30 -2 43 -54 30 -123 -7 -35 -13 -84
-14 -110 -1 -27 -5 -48 -9 -48 -4 0 -8 4 -8 10 0 14 -71 80 -105 97 -16 9 -59
17 -96 18 -192 8 -305 -134 -265 -329 7 -35 6 -38 -8 -27 -26 22 -48 95 -42
137 17 108 118 241 237 311 59 36 186 72 234 68 17 -1 37 -3 46 -4z m509 -91
c5 -10 10 -33 10 -50 0 -62 -95 -127 -128 -87 -6 6 -14 28 -19 47 -5 19 -16
36 -25 38 -43 8 -64 -74 -32 -124 19 -28 63 -54 91 -54 12 0 26 -17 40 -49 31
-65 91 -92 146 -64 15 7 27 9 27 4 0 -5 -16 -16 -35 -26 -27 -12 -72 -17 -173
-20 -105 -3 -158 -10 -227 -29 -49 -13 -91 -23 -93 -22 -1 2 4 19 12 38 8 19
17 46 20 59 3 13 7 33 10 45 6 27 14 99 22 194 3 41 8 78 10 82 2 3 18 -1 36
-9 17 -9 53 -16 78 -16 45 1 59 6 144 58 43 26 66 22 86 -15z m997 24 c-3 -3
-12 -4 -19 -1 -8 3 -5 6 6 6 11 1 17 -2 13 -5z m-2446 -50 c48 -22 62 -24 74
-14 8 7 12 16 9 21 -3 5 0 9 5 9 16 0 13 -16 -5 -31 -11 -9 -14 -22 -10 -41
l6 -28 -63 5 c-112 10 -217 40 -217 63 0 15 64 41 104 41 21 1 64 -11 97 -25z
m2204 6 c-18 -20 -14 -50 7 -50 7 0 42 9 78 20 35 11 68 16 73 11 4 -4 -12
-11 -37 -14 -25 -4 -70 -18 -98 -33 -48 -23 -82 -47 -197 -133 l-34 -25 23 44
c33 66 85 126 143 165 59 40 67 43 42 15z m-1918 -51 c-8 -5 -32 -12 -54 -17
-35 -8 -40 -7 -36 7 3 12 17 16 54 17 28 0 44 -3 36 -7z m119 -56 c-39 -59
-55 -115 -52 -185 4 -110 56 -177 191 -252 89 -49 115 -73 115 -105 -1 -25 -1
-25 -15 -6 -57 78 -119 108 -218 106 l-72 -1 -53 48 c-29 26 -54 57 -55 70 -2
13 -18 39 -35 58 -34 37 -34 38 -34 127 -1 69 15 90 75 106 23 6 71 24 107 40
36 16 66 29 68 30 1 1 -9 -16 -22 -36z m-2421 -12 c-5 -33 -3 -43 15 -61 21
-21 21 -50 0 -50 -20 0 -46 97 -35 131 12 36 27 20 20 -20z m1172 -20 c31 -46
29 -87 -11 -211 -104 -317 -107 -397 -28 -630 16 -47 32 -93 37 -104 7 -17 5
-18 -36 -11 -64 11 -132 48 -173 96 -20 24 -36 47 -36 51 0 5 -14 37 -32 71
-111 217 -109 212 -56 225 25 7 56 24 73 42 25 26 29 38 29 88 0 31 -4 71 -8
87 -7 28 -6 30 23 32 46 3 70 20 79 56 9 34 -1 76 -21 89 -7 4 -23 -4 -38 -18
-25 -24 -27 -24 -47 -7 -36 29 -37 71 -5 121 26 40 67 64 128 75 41 7 99 -18
122 -52z m3356 20 c61 -30 87 -63 87 -113 0 -33 -3 -39 -16 -34 -50 19 -386
28 -462 13 -18 -4 -31 -3 -28 1 3 5 43 34 90 66 137 95 232 114 329 67z m357
-11 c11 -21 20 -48 20 -59 0 -18 80 -91 99 -91 4 0 17 -20 29 -45 24 -49 54
-74 96 -77 35 -3 49 -24 81 -117 l24 -72 -78 73 c-86 81 -162 124 -326 186
-111 42 -121 53 -131 139 -5 42 -3 51 17 70 24 21 41 26 111 30 35 2 39 -1 58
-37z m-3045 -4 c59 -24 75 -28 165 -41 25 -4 45 -7 46 -8 0 -1 12 -38 25 -82
30 -97 28 -117 -9 -110 -148 26 -157 30 -235 114 -48 52 -59 71 -72 130 -6 27
-4 33 6 28 8 -3 41 -17 74 -31z m835 -32 c-53 -48 -71 -92 -73 -181 l-2 -72
-18 30 c-32 50 -23 155 17 202 21 24 106 71 114 62 2 -2 -15 -20 -38 -41z
m-1084 -114 c58 -41 177 -96 266 -124 l73 -23 -63 -41 c-34 -22 -70 -39 -80
-37 -9 2 -21 4 -26 4 -14 1 -193 181 -250 251 -86 105 -97 132 -27 62 34 -34
82 -76 107 -92z m-1646 18 c17 -37 17 -38 -6 -53 -29 -18 -34 -19 -34 -2 0 8
-9 22 -20 32 -25 23 -25 26 3 68 21 33 22 34 31 13 5 -11 17 -38 26 -58z
m2945 47 c27 -26 32 -65 15 -109 -13 -36 -49 -42 -96 -17 -35 19 -40 20 -51 5
-24 -33 6 -101 60 -134 18 -11 27 -20 21 -20 -6 0 -31 -16 -56 -35 l-46 -34
-17 45 c-37 98 -43 146 -26 215 13 53 22 67 50 86 48 32 114 31 146 -2z m797
-63 c1 -32 -23 -82 -48 -103 -11 -8 -8 -1 6 19 25 34 32 95 15 137 -6 17 -5
16 9 -3 10 -12 18 -35 18 -50z m-2281 20 c17 -26 18 -32 6 -32 -9 0 -21 -2
-29 -5 -9 -4 -13 6 -13 35 0 47 8 47 36 2z m-1286 -12 c-3 -5 -11 -10 -16 -10
-6 0 -7 5 -4 10 3 6 11 10 16 10 6 0 7 -4 4 -10z m5175 -98 c-4 -1 -19 2 -33
7 -24 9 -26 13 -15 36 l11 25 23 -33 c12 -17 19 -33 14 -35z m-830 33 c166
-13 316 -53 453 -121 77 -38 193 -119 222 -156 82 -104 119 -187 139 -318 6
-33 4 -32 -24 19 -60 108 -130 186 -244 272 -216 164 -428 223 -796 223 -203
0 -313 -13 -525 -59 -52 -11 157 75 230 95 104 29 169 40 280 47 55 3 101 6
102 7 3 3 70 -1 163 -9z m-4628 -63 c3 -44 5 -47 29 -45 23 1 29 -5 44 -43 16
-43 15 -54 -12 -86 -14 -15 -18 -14 -48 17 -19 18 -56 42 -84 52 l-50 19 46
76 c53 86 70 88 75 10z m817 35 c-47 -32 -72 -70 -74 -116 -2 -46 -2 -46 -46
-27 -49 21 -85 4 -94 -43 -5 -27 23 -60 55 -64 28 -4 29 -10 12 -51 -7 -15
-26 -61 -43 -101 -35 -84 -92 -171 -129 -194 l-25 -16 26 35 c56 75 61 153 19
280 -14 40 -23 93 -24 137 -1 63 2 74 24 98 14 15 47 38 74 51 45 22 50 22 61
7 11 -14 16 -14 68 3 32 11 73 20 93 21 l35 2 -32 -22z m827 -27 c38 -24 74
-92 74 -139 0 -59 -38 -110 -148 -194 -41 -31 -77 -56 -79 -54 -1 2 2 18 8 36
17 47 -2 65 -61 58 -25 -3 -53 -9 -62 -12 -17 -7 -17 -4 -4 32 8 22 24 59 36
83 l21 42 22 -20 c52 -47 95 -54 127 -20 37 40 21 71 -32 61 -59 -11 -79 68
-29 118 36 35 79 38 127 9z m-713 -50 c35 -28 43 -70 21 -115 l-17 -36 -26 25
c-15 15 -39 26 -53 26 -30 0 -42 29 -27 69 20 52 59 64 102 31z m2747 -4 c-43
-12 -250 -22 -240 -12 3 2 57 7 120 11 63 3 116 8 119 10 2 3 14 5 25 4 12 -1
1 -7 -24 -13z m1810 -21 c59 -30 94 -79 51 -70 -10 2 -31 -3 -46 -11 -35 -18
-32 -19 -38 14 -3 15 -9 42 -15 60 -6 17 -9 32 -6 32 3 0 27 -11 54 -25z
m-3160 -43 c14 -6 45 -29 70 -51 83 -75 161 -98 265 -78 27 5 58 -10 74 -36
46 -73 -16 -245 -126 -349 l-29 -28 0 113 c1 102 -1 117 -27 171 -74 158 -217
249 -402 256 -27 1 -25 3 20 19 51 18 76 15 155 -17z m-502 -63 c-8 -78 -50
-148 -150 -251 -104 -105 -157 -176 -182 -242 -14 -38 -21 -44 -34 -37 -9 5
-25 22 -34 38 -15 27 -15 32 1 81 10 29 20 54 22 56 2 2 60 48 129 103 189
151 215 182 226 268 9 60 28 46 22 -16z m2428 29 c3 -10 19 -25 35 -33 25 -13
29 -21 27 -56 -2 -53 13 -67 47 -45 34 22 48 61 42 115 l-5 44 122 -6 c118 -6
266 -32 266 -47 0 -4 -9 -15 -20 -25 -46 -42 -31 -138 27 -164 44 -20 49 -6
28 80 -15 61 83 94 129 44 30 -32 36 -73 21 -139 -15 -65 -12 -113 10 -160 29
-61 117 -115 190 -116 73 0 155 46 155 88 1 14 4 13 19 -6 27 -31 20 -54 -20
-74 -19 -9 -45 -28 -58 -42 -23 -24 -23 -26 -7 -51 15 -22 22 -25 69 -21 28 2
59 7 68 10 13 6 18 -1 22 -31 14 -84 8 -198 -19 -356 -20 -121 -117 -262 -219
-323 -61 -35 -159 -57 -235 -52 -101 8 -222 64 -259 121 -10 15 -7 23 19 48
26 26 30 39 32 87 1 31 2 66 3 77 3 44 -28 56 -79 30 -15 -8 -30 -15 -32 -15
-9 0 28 75 56 113 22 31 27 44 19 54 -17 20 -32 16 -77 -23 -58 -49 -72 -90
-79 -214 -9 -160 25 -256 120 -342 88 -80 257 -138 406 -139 182 -1 291 42
419 164 41 40 62 55 62 43 0 -54 80 -148 155 -182 77 -35 183 -31 234 10 11 9
12 -12 7 -129 -7 -142 -8 -153 -20 -260 -8 -69 -9 -77 -31 -205 -9 -52 -18
-97 -21 -101 -2 -4 -6 -24 -10 -45 -9 -56 -68 -256 -109 -371 -96 -263 -214
-491 -383 -738 -150 -219 -220 -296 -331 -361 -186 -109 -352 -146 -533 -120
-24 3 -65 8 -93 11 -142 15 -277 37 -340 54 -22 5 -67 13 -99 17 -33 3 -69 8
-80 10 -110 21 -232 24 -359 9 -123 -14 -358 -9 -462 11 -128 24 -205 50 -310
104 -75 39 -126 75 -305 215 -116 90 -149 122 -150 140 0 6 -13 35 -29 65 -16
30 -36 80 -44 110 -32 110 -121 218 -231 280 -31 18 -56 35 -57 38 -1 4 -3 27
-4 52 -9 104 -30 168 -113 330 -89 173 -124 231 -177 291 -31 35 -55 106 -70
205 -8 56 79 324 130 400 49 75 149 179 220 230 94 67 148 87 235 87 122 1
225 -55 363 -197 175 -181 200 -344 71 -469 -53 -52 -87 -64 -133 -47 -75 27
-141 106 -141 170 0 44 30 94 69 115 69 35 167 4 141 -45 -6 -11 -15 -20 -20
-20 -5 0 -14 -9 -20 -20 -8 -16 -6 -22 14 -35 21 -14 28 -14 59 -2 62 27 72
120 17 170 -23 21 -27 29 -16 33 25 10 27 35 5 55 -12 10 -50 35 -85 56 -35
20 -63 42 -63 48 5 45 -9 75 -37 79 -36 6 -54 -12 -52 -52 0 -20 -4 -53 -9
-72 -12 -43 -2 -75 33 -102 l25 -21 -39 -23 c-87 -52 -126 -172 -85 -265 58
-130 200 -210 348 -194 168 17 272 129 291 312 2 26 6 48 8 50 1 2 24 -6 50
-18 83 -36 110 -16 75 57 -25 54 -38 68 -98 108 -48 31 -56 42 -85 113 -64
160 -146 267 -251 328 -63 37 -66 40 -44 48 172 68 254 132 355 272 44 62 46
64 68 50 31 -21 105 -16 128 7 18 18 18 20 1 49 -10 17 -28 40 -40 51 l-22 21
22 18 c13 9 49 25 82 34 213 62 571 -89 707 -299 55 -86 71 -163 54 -261 -9
-54 -56 -153 -93 -195 -45 -53 -57 -78 -42 -96 16 -19 38 -18 104 7 33 12 77
41 111 72 44 40 59 49 72 41 10 -6 33 -20 53 -32 32 -19 38 -20 49 -7 30 36
-7 155 -53 171 -16 5 -17 15 -13 84 5 73 -5 137 -29 193 -6 13 -2 17 17 17 25
0 62 22 90 53 25 28 33 83 18 128 -14 43 -69 99 -98 100 -9 0 -27 2 -39 5 -25
4 -68 -30 -77 -62 -4 -13 1 -30 12 -44 l19 -23 21 21 c12 12 29 22 37 22 25 0
55 -38 55 -69 0 -55 -75 -79 -140 -46 -37 19 -38 41 -10 175 11 52 20 123 20
156 0 42 5 65 15 74 10 9 15 32 15 74 1 34 7 72 15 86 19 32 18 45 -1 64 -36
37 -110 7 -101 -41 3 -14 -1 -23 -9 -23 -22 0 -24 16 -9 59 16 46 8 83 -21 99
-16 9 -16 10 2 15 21 6 90 17 144 24 204 24 189 23 196 1z m-619 4 c-6 -2 -35
-13 -64 -24 -41 -16 -80 -21 -185 -23 -136 -2 -152 -4 -273 -32 -75 -17 -123
-38 -195 -85 l-45 -30 45 41 c73 66 222 132 336 150 46 7 408 10 381 3z
m-1681 -58 c-42 -39 -83 -109 -97 -165 -13 -50 -16 -53 -43 -43 -13 5 -12 11
8 37 32 43 55 90 72 148 14 47 16 49 52 49 l37 0 -29 -26z m-2020 -11 c44 -28
63 -89 79 -247 3 -32 12 -74 20 -93 l14 -33 -27 6 c-41 10 -131 44 -136 52 -2
4 19 5 46 3 l51 -3 -6 51 c-9 74 -34 121 -68 128 -20 4 -36 18 -54 49 -14 24
-32 44 -40 44 -19 0 -19 4 1 42 15 28 18 30 56 24 21 -4 51 -14 64 -23z m2345
-8 c61 -22 133 -70 149 -100 16 -31 17 -138 1 -177 -24 -63 -124 -85 -163 -37
-24 29 -22 48 7 71 33 26 19 58 -26 58 -71 0 -103 -91 -56 -161 27 -41 98 -79
147 -79 51 1 116 34 141 72 l21 33 -6 -50 c-3 -27 -19 -76 -35 -108 -46 -90
-27 -107 71 -64 30 13 80 45 112 72 32 26 56 43 53 39 -2 -5 -8 -35 -11 -66
-16 -135 -47 -186 -191 -313 -74 -65 -79 -64 -90 14 -4 25 -15 65 -26 89 -20
47 -24 85 -14 147 6 32 3 43 -12 56 -56 49 -97 18 -87 -67 6 -47 4 -53 -14
-58 -12 -4 -32 -29 -46 -60 -30 -64 -36 -69 -111 -97 -33 -12 -81 -37 -106
-55 -53 -39 -98 -59 -159 -73 -38 -8 -42 -7 -50 12 -4 12 -7 95 -6 183 1 144
3 164 20 183 57 62 159 -16 114 -88 -15 -24 -4 -51 21 -51 25 0 61 65 61 110
0 37 -13 65 -47 102 -20 20 -24 33 -19 53 6 25 8 26 60 20 60 -8 110 11 121
45 10 33 -3 40 -71 40 -55 0 -69 4 -89 24 -21 21 -23 31 -20 76 3 28 7 55 10
60 3 5 26 -6 51 -25 54 -42 74 -36 92 23 17 56 15 86 -8 115 l-20 25 42 14
c50 17 129 14 189 -7z m1541 0 c-2 -14 1 -38 8 -54 19 -48 4 -54 -47 -20 -25
18 -64 37 -85 44 l-40 11 64 18 c34 10 68 20 73 21 26 8 32 4 27 -20z m1744
-15 c20 -8 29 -8 35 2 5 8 11 3 20 -15 18 -39 1 -54 -40 -33 -17 9 -35 25 -41
36 -12 23 -11 24 26 10z m-2231 -38 c-6 -5 -55 -38 -110 -74 -55 -37 -132 -96
-172 -132 -39 -36 -74 -66 -78 -66 -15 0 52 104 97 151 59 62 152 106 268 128
2 1 0 -3 -5 -7z m1827 -73 l43 -37 -25 -10 c-38 -14 -52 -36 -48 -74 4 -40 25
-47 58 -18 30 26 32 26 53 -9 29 -49 -2 -81 -76 -76 -87 6 -134 76 -113 170 2
11 5 44 5 73 l1 53 30 -17 c16 -10 49 -35 72 -55z m-5362 25 c0 -37 -18 -64
-41 -64 -16 0 -19 4 -13 23 22 71 54 96 54 41z m1015 -24 c-22 -25 -18 -45 15
-83 43 -49 40 -66 -12 -65 -56 1 -92 -7 -140 -31 l-39 -19 16 24 c9 14 31 61
50 106 19 45 44 92 57 105 l22 23 23 -22 c21 -19 21 -23 8 -38z m2911 24 c64
-31 140 -126 127 -160 -3 -9 -14 -4 -36 16 -34 31 -57 43 -124 60 -31 8 -40
15 -38 28 1 9 -6 32 -17 51 l-19 34 35 -6 c19 -3 51 -13 72 -23z m1869 -47
c17 -2 40 0 53 4 18 7 25 4 33 -15 10 -21 6 -32 -30 -82 -57 -81 -62 -130 -26
-231 l28 -76 -17 -91 c-10 -50 -40 -159 -68 -242 -39 -118 -59 -163 -94 -210
-45 -60 -147 -156 -112 -104 45 66 79 131 101 200 27 84 39 155 52 320 4 41
11 104 16 139 14 93 9 207 -13 292 -10 41 -23 93 -27 115 l-8 41 41 -28 c23
-16 55 -30 71 -32z m-5201 31 c9 -12 16 -30 16 -39 0 -28 33 -33 52 -9 l18 22
0 -32 c0 -43 -26 -96 -60 -120 -36 -25 -91 -26 -121 -1 -21 17 -24 27 -23 87
0 60 3 69 28 91 34 29 70 30 90 1z m2574 -50 c-26 -37 -41 -63 -133 -235 -37
-68 -68 -123 -69 -123 -6 0 14 94 30 142 22 66 82 156 139 206 26 23 50 42 52
42 2 0 -6 -15 -19 -32z m424 -46 c15 -17 11 -19 -58 -25 -33 -3 -74 -9 -90
-13 -38 -9 -27 3 61 60 l70 46 3 -27 c2 -16 9 -34 14 -41z m167 43 c18 -18 7
-45 -19 -45 -13 0 -20 7 -20 20 0 15 -7 20 -25 20 -29 0 -34 16 -7 23 23 6 54
-2 71 -18z m-3759 -66 c0 -4 11 -18 25 -32 l26 -25 -33 7 c-18 4 -54 6 -80 4
-27 -2 -48 -1 -48 1 0 3 4 16 9 29 8 21 15 24 55 23 25 0 46 -4 46 -7z m3924
-46 c35 -18 72 -58 79 -85 7 -24 4 -24 -50 19 -27 20 -72 47 -100 60 -29 14
-53 27 -53 30 0 10 93 -8 124 -24z m-1877 -16 c28 -28 22 -86 -11 -110 -6 -4
-29 -5 -52 -2 -47 7 -76 -14 -55 -39 9 -11 6 -22 -14 -51 -14 -21 -25 -44 -25
-51 0 -18 -7 -17 -55 6 -22 11 -46 19 -54 20 -10 0 -12 9 -6 37 13 69 75 172
118 195 53 28 123 26 154 -5z m3898 -14 c9 -22 12 -40 6 -46 -5 -5 -13 4 -19
22 -6 17 -16 31 -23 31 -8 0 -8 4 1 15 17 20 18 20 35 -22z m-2241 -7 c105
-31 176 -74 259 -156 42 -43 77 -86 77 -96 0 -15 -4 -14 -27 8 -43 40 -161
113 -230 142 -204 85 -382 94 -518 24 -63 -33 -86 -58 -169 -184 -37 -56 -76
-110 -87 -120 -12 -11 -4 8 18 41 22 33 52 84 68 113 39 72 90 129 150 167 49
32 159 70 220 77 69 8 184 0 239 -16z m-2480 -79 c20 -26 31 -47 24 -46 -43 5
-54 -32 -15 -52 12 -7 24 -15 27 -19 6 -9 83 -44 134 -60 l39 -13 -29 -15
c-28 -15 -46 -36 -50 -59 -3 -16 35 -23 76 -14 159 35 276 -103 235 -277 -6
-23 -7 -22 -58 20 -29 23 -54 46 -57 49 -13 18 -238 163 -299 194 -77 38 -185
70 -271 80 -98 12 -190 67 -190 115 0 27 46 78 94 102 46 24 148 32 211 18 39
-9 85 4 85 23 0 12 -1 13 44 -46z m-1171 18 c26 -9 47 -18 47 -20 0 -2 -26
-18 -59 -35 -56 -30 -176 -142 -255 -238 -20 -24 -36 -41 -36 -37 0 13 31 120
41 140 5 11 11 31 14 44 14 73 37 131 57 142 60 32 109 33 191 4z m271 -84
c-116 -57 -188 -118 -228 -190 -54 -100 -13 -136 54 -47 23 31 70 75 104 99
94 67 97 65 21 -9 -97 -95 -146 -155 -191 -231 -26 -44 -40 -61 -48 -53 -5 5
-13 54 -17 107 -6 93 -32 175 -61 194 -15 10 74 84 136 113 77 36 175 60 261
64 l70 3 -101 -50z m387 2 c-15 -56 2 -110 51 -157 19 -18 18 -19 -34 -43 -44
-20 -72 -25 -163 -28 -96 -3 -212 -23 -292 -51 -21 -8 55 74 110 118 l38 30
-3 -34 c-4 -68 29 -77 85 -23 47 45 70 91 64 122 -4 23 2 28 67 58 39 19 74
34 78 34 4 1 3 -11 -1 -26z m5306 -58 c13 -44 27 -92 32 -107 10 -31 4 -43
-15 -27 -8 6 -20 9 -28 6 -10 -4 -15 7 -18 43 -3 33 -15 61 -37 92 l-32 43 22
18 c37 30 50 18 76 -68z m-4361 -120 c19 -8 40 -20 48 -27 41 -41 70 -126 55
-163 -7 -20 -8 -20 -8 1 -2 37 -51 122 -96 163 -50 46 -49 47 1 26z m234 -59
c13 -37 13 -76 0 -76 -5 0 -10 9 -10 20 0 12 -12 43 -26 71 l-25 51 25 -19
c14 -10 30 -31 36 -47z m-1975 10 l18 -34 -36 -74 c-39 -79 -45 -102 -51 -188
-2 -30 -7 -81 -11 -113 -7 -54 -10 -58 -29 -51 -12 4 -45 8 -74 8 l-54 0 7 65
c12 118 24 159 65 228 45 74 131 192 141 193 3 0 14 -15 24 -34z m1090 -10
c100 -10 203 -55 331 -142 82 -56 173 -127 173 -135 1 -3 -19 -3 -43 1 -31 5
-55 17 -83 43 -73 69 -98 88 -162 124 -109 62 -205 80 -316 59 -21 -4 -46 0
-76 13 -40 18 -41 20 -18 26 39 10 123 22 134 19 6 -2 33 -5 60 -8z m4875
-112 c-11 -43 -23 -86 -27 -94 -3 -8 -7 -21 -9 -27 -6 -31 -89 -183 -127 -233
-120 -159 -239 -225 -412 -228 -103 -1 -259 31 -290 60 -5 5 4 4 20 -2 57 -22
227 -31 325 -17 180 25 339 142 418 308 22 46 54 134 72 194 34 115 39 129 46
122 2 -2 -5 -39 -16 -83z m181 -51 c18 -11 29 -26 29 -39 0 -27 -23 -82 -47
-111 -20 -25 -195 -144 -201 -138 -5 5 16 55 73 179 35 77 65 171 65 211 1 12
10 0 26 -32 15 -31 38 -60 55 -70z m-1823 3 c20 -94 -13 -240 -64 -291 -34
-34 -36 -32 -10 18 55 104 62 263 15 361 -6 12 3 7 20 -13 17 -19 34 -53 39
-75z m-3678 79 c0 -2 -14 -26 -30 -52 -72 -112 -84 -270 -30 -373 88 -168 295
-205 424 -75 71 70 75 130 16 198 -22 25 -40 47 -40 49 0 2 13 5 30 6 23 2 32
-4 44 -27 22 -41 26 -42 241 -27 61 4 112 8 115 8 23 1 33 -7 46 -37 16 -40
18 -35 -44 -136 -62 -104 -74 -161 -78 -389 -1 -113 -5 -221 -7 -240 -5 -52
12 -110 33 -110 14 0 18 -12 23 -60 7 -67 21 -100 41 -100 12 0 38 47 42 78 4
22 45 100 60 113 8 6 -4 -28 -27 -77 -66 -142 -70 -159 -75 -301 -3 -104 -1
-141 12 -175 15 -41 16 -51 12 -80 0 -7 2 -39 6 -70 6 -49 5 -58 -8 -58 -25 0
-49 -60 -52 -125 -1 -33 -7 -75 -12 -93 -7 -22 -8 -49 -2 -75 4 -23 16 -77 25
-121 13 -59 14 -80 6 -86 -7 -4 -51 1 -99 11 -105 23 -251 27 -312 10 -25 -7
-54 -15 -64 -17 -11 -2 -30 -13 -43 -26 -13 -12 -36 -24 -51 -26 -15 -2 -71
-14 -124 -28 -96 -25 -98 -25 -163 -9 -106 27 -190 64 -303 133 -48 30 -82 82
-175 267 -142 286 -261 665 -302 965 -3 25 -8 56 -10 70 -5 29 -14 134 -20
238 -4 64 4 89 19 63 9 -14 68 -19 96 -9 39 15 71 48 96 103 24 50 25 91 11
247 -4 46 8 41 17 -7 18 -94 22 -209 11 -277 -10 -64 14 -127 61 -163 30 -23
39 -26 60 -16 26 11 28 23 26 110 -2 40 -10 69 -32 108 -17 29 -30 66 -30 81
l0 29 47 -23 c25 -13 64 -24 85 -24 193 0 249 277 74 364 -47 23 -112 23 -138
-1 -19 -17 -19 -17 -7 12 23 52 70 129 87 142 49 38 185 86 285 99 23 4 43 7
45 8 5 5 82 6 82 1z m174 -8 l29 -12 -45 -37 c-24 -19 -57 -60 -73 -89 -27
-48 -30 -63 -30 -139 0 -70 4 -93 24 -130 l24 -45 -23 20 c-96 84 -83 303 23
423 23 25 31 26 71 9z m1794 -54 l11 -33 -35 0 c-18 0 -34 4 -34 9 0 9 41 64
45 59 1 -2 7 -18 13 -35z m-1398 -3 c52 -20 170 -105 170 -121 0 -5 -12 -9
-27 -10 -16 0 -39 -2 -53 -4 -57 -7 -127 -8 -138 -1 -23 14 -12 27 19 22 35
-5 74 25 65 51 -3 8 -6 21 -6 28 0 7 -13 18 -29 23 -24 8 -37 7 -66 -8 l-36
-18 -29 28 c-17 16 -30 32 -30 36 0 12 108 -5 160 -26z m-249 -24 c35 -29 24
-42 -45 -55 -60 -11 -86 -35 -86 -78 0 -27 10 -44 53 -86 28 -29 63 -60 77
-69 l25 -15 -28 -37 c-24 -30 -32 -35 -55 -30 -34 8 -88 48 -103 75 -17 33
-22 114 -9 156 17 53 58 111 99 139 20 13 37 24 39 24 2 0 17 -11 33 -24z
m-954 -66 c-4 -35 -17 -53 -17 -22 0 21 9 52 16 52 2 0 2 -14 1 -30z m2002
-34 l21 -19 -30 -19 c-39 -23 -41 -23 -36 5 3 12 5 38 6 57 1 28 3 31 9 15 5
-11 18 -29 30 -39z m551 -55 c30 -12 66 -30 80 -41 22 -17 20 -17 -35 2 -36
13 -90 22 -135 23 -41 1 -83 6 -92 10 -10 4 -37 13 -60 21 -41 14 -38 14 72
10 87 -3 128 -9 170 -25z m3650 -25 c0 -7 -9 -16 -19 -19 -17 -4 -18 -2 -8 14
14 22 27 25 27 5z m-4026 -47 c-3 -5 -11 -9 -19 -9 -8 0 -48 -17 -89 -39 -67
-34 -73 -36 -60 -15 19 29 52 50 95 62 44 11 80 12 73 1z m731 -75 c38 -57 88
-178 83 -201 -2 -8 -20 8 -43 39 -56 73 -61 84 -86 163 -12 39 -24 75 -27 80
-16 30 44 -36 73 -81z m-2660 52 c37 -24 59 -76 51 -119 -7 -40 -55 -87 -88
-87 -28 0 -78 25 -111 56 -29 27 -29 33 -6 126 l12 46 58 -3 c33 -1 70 -10 84
-19z m5862 -17 c-3 -13 2 -28 14 -40 20 -20 20 -20 50 12 16 17 31 30 34 28 7
-8 14 -63 17 -138 2 -73 2 -74 -31 -102 -88 -73 -244 -30 -267 74 -8 40 15 70
107 134 41 29 76 52 78 53 2 0 1 -9 -2 -21z m-6257 -94 c57 -29 66 -138 14
-171 -20 -14 -29 -14 -55 -4 -85 36 -101 150 -24 180 28 12 33 12 65 -5z
m1864 -133 c-22 -20 -55 -49 -74 -64 -19 -15 -68 -52 -107 -83 -40 -31 -73
-54 -73 -51 0 3 8 22 17 42 14 28 46 55 143 119 69 46 127 81 130 79 2 -3 -14
-22 -36 -42z m151 5 c-8 -20 -15 -39 -15 -42 1 -65 1 -66 -19 -46 -17 17 -18
24 -7 62 11 36 43 76 53 65 2 -1 -4 -19 -12 -39z m1257 -228 c1 -133 -58 -229
-169 -275 l-38 -16 47 47 c56 55 109 155 133 254 9 40 19 70 22 68 2 -3 4 -38
5 -78z m-1377 61 c-7 -12 -91 -70 -100 -70 -4 0 17 18 46 40 56 42 64 46 54
30z m21 -348 c4 -22 -1 -36 -19 -54 -13 -13 -37 -66 -56 -123 -18 -55 -38
-107 -43 -115 -19 -30 4 114 28 178 24 63 75 155 82 147 2 -2 6 -17 8 -33z
m-361 -20 c-10 -10 -16 -12 -13 -7 3 6 8 19 13 30 5 14 9 16 12 7 3 -8 -3 -21
-12 -30z m473 -352 c33 -69 38 -172 13 -242 l-17 -48 -34 35 c-26 27 -30 35
-16 35 19 0 69 97 69 136 0 13 -19 54 -42 92 -22 37 -41 75 -41 83 1 22 40
-29 68 -91z m-128 75 c0 -8 -6 -32 -14 -52 -8 -21 -17 -47 -20 -58 -3 -11 -3
0 -1 25 5 60 15 100 26 100 5 0 9 -7 9 -15z m-193 -48 l1 -42 -12 30 c-7 17
-11 36 -8 43 9 24 17 11 19 -31z m10 -79 c-3 -8 -6 -5 -6 6 -1 11 2 17 5 13 3
-3 4 -12 1 -19z m246 -33 c-8 -22 -20 -9 -25 27 l-5 32 18 -23 c10 -12 16 -28
12 -36z m-169 -131 c11 -16 42 -50 70 -76 50 -46 86 -61 86 -35 1 27 79 -77
106 -141 16 -37 34 -71 40 -77 6 -5 14 -27 17 -48 10 -67 53 -142 163 -286
152 -199 155 -203 104 -156 -23 22 -62 70 -87 108 -29 45 -50 67 -63 67 -11 0
-20 -7 -20 -15 0 -67 -75 98 -96 213 -18 94 -62 169 -145 248 -164 155 -226
237 -244 319 -3 17 6 3 22 -31 15 -33 37 -73 47 -90z m463 -83 c-3 -25 -15
-73 -26 -106 l-20 -60 4 45 c3 25 9 63 15 85 5 22 10 58 10 80 1 34 2 37 12
21 6 -10 8 -39 5 -65z m-121 12 c-8 -80 -20 -121 -30 -104 -8 12 22 161 32
161 3 0 2 -26 -2 -57z m-270 -329 c45 -92 41 -197 -12 -299 -14 -28 -38 -72
-52 -100 -67 -129 -10 -287 136 -372 24 -14 41 -27 39 -29 -7 -7 -121 27 -156
47 -20 11 -46 35 -59 52 -40 59 -35 114 28 311 39 123 41 131 41 188 -1 61
-21 119 -91 258 -87 173 -86 178 14 80 54 -53 96 -104 112 -136z m448 168 c-6
-23 -11 -77 -14 -132 -1 -35 -3 -41 -10 -25 -13 29 -12 102 1 146 12 37 32 47
23 11z m-635 -179 c48 -95 56 -123 65 -205 5 -44 -9 -51 -19 -10 -3 15 -26 77
-50 138 -36 92 -64 196 -49 181 2 -2 26 -49 53 -104z m829 -329 c72 -44 194
-130 245 -173 12 -11 33 -29 47 -40 l25 -21 -25 4 c-136 24 -280 120 -376 250
-35 48 -25 46 84 -20z m-488 3 c0 -18 67 -105 118 -155 57 -55 104 -89 182
-129 25 -13 36 -21 25 -19 -11 3 -34 8 -51 11 -54 9 -158 44 -192 65 -37 23
-87 97 -102 150 -5 19 -10 55 -10 79 0 42 1 43 15 25 8 -10 15 -23 15 -27z
m-468 -110 l37 1 -16 -32 c-8 -17 -17 -32 -18 -34 -2 -2 -31 15 -65 37 l-63
41 44 -7 c24 -4 61 -6 81 -6z m97 -149 c0 -35 -2 -39 -9 -21 -8 19 -3 63 6 63
2 0 4 -19 3 -42z m1321 -95 c0 -3 -8 -2 -17 2 -10 3 -34 9 -53 11 -72 11 -154
32 -130 34 62 4 75 8 84 22 8 14 17 10 63 -24 29 -22 53 -43 53 -45z m-1593
63 c4 -3 -10 -6 -29 -6 -20 0 -71 -7 -114 -15 -44 -8 -106 -16 -139 -19 l-60
-6 75 20 c41 11 98 23 125 26 28 4 51 7 52 8 6 5 84 -2 90 -8z m-722 -46 c3
-6 -1 -7 -9 -4 -18 7 -21 14 -7 14 6 0 13 -4 16 -10z m1498 -50 c23 -6 76 -21
117 -33 73 -21 74 -21 40 -29 -59 -12 -225 46 -290 101 -23 20 -21 20 33 -4
33 -13 78 -30 100 -35z m320 -7 c23 -3 34 -9 27 -13 -7 -4 -38 -1 -69 7 -63
17 -84 29 -31 19 19 -4 52 -9 73 -13z m-1394 -62 c39 -16 93 -43 120 -61 50
-31 176 -158 168 -167 -13 -12 -164 81 -247 153 -14 12 -47 40 -73 63 -27 22
-46 41 -44 41 3 0 37 -13 76 -29z m219 -11 c43 -22 115 -69 162 -105 47 -36
109 -82 138 -102 28 -20 52 -39 52 -43 0 -13 -93 -3 -132 13 -21 9 -52 33 -70
53 -92 105 -127 139 -181 180 -32 24 -56 44 -52 44 4 0 41 -18 83 -40z m365
-67 c40 -25 119 -71 177 -101 l105 -54 -56 6 c-75 8 -117 26 -228 103 -102 70
-201 143 -201 149 0 9 140 -61 203 -103z m1147 77 c7 -3 -262 -59 -280 -59
-30 1 97 40 170 53 66 11 91 13 110 6z m216 -71 c-36 -19 -45 -20 -89 -10 -27
6 -61 12 -75 12 -56 3 30 15 118 17 l85 2 -39 -21z m-1130 -34 c15 -14 33 -25
41 -25 19 0 263 -80 263 -86 0 -5 -74 2 -122 11 -69 14 -277 111 -251 118 34
9 42 7 69 -18z m-1001 -35 c3 -6 -1 -7 -9 -4 -18 7 -21 14 -7 14 6 0 13 -4 16
-10z m2472 -50 c68 -44 73 -50 43 -44 -76 15 -152 -1 -281 -59 -82 -38 -156
-58 -215 -59 -63 -1 -144 5 -144 11 0 3 26 14 58 23 31 9 98 43 147 74 166
105 193 117 257 111 46 -4 70 -14 135 -57z m-481 38 c2 -3 -28 -21 -68 -41
-78 -39 -128 -48 -273 -49 -159 -1 -157 2 40 52 134 34 205 47 243 45 29 -1
55 -5 58 -7z m1598 -5 c-39 -30 -154 -83 -191 -88 -25 -4 -54 0 -88 14 l-50
19 45 12 c25 6 74 20 110 30 77 22 102 26 154 27 37 1 39 0 20 -14z m195 -60
c-107 -49 -212 -83 -256 -83 l-38 1 35 18 c19 10 67 34 105 54 68 35 180 60
214 48 8 -2 -19 -20 -60 -38z m671 37 c-8 -5 -19 -10 -25 -10 -5 0 -3 5 5 10
8 5 20 10 25 10 6 0 3 -5 -5 -10z m-1510 -60 c98 -33 91 -37 -28 -15 -9 2 -47
6 -84 10 -37 4 -76 14 -85 21 -29 22 119 9 197 -16z m1360 1 c72 -18 74 -19
48 -31 -22 -11 -37 -9 -105 13 -43 15 -98 29 -123 32 -76 11 -60 17 25 10 44
-3 114 -15 155 -24z m-4100 -52 c36 -10 56 -18 45 -18 -35 -1 -107 19 -129 36
-20 14 -20 15 -1 8 11 -4 49 -16 85 -26z m155 -19 c3 -5 1 -10 -4 -10 -6 0
-11 5 -11 10 0 6 2 10 4 10 3 0 8 -4 11 -10z m3582 4 c-3 -3 -12 -4 -19 -1 -8
3 -5 6 6 6 11 1 17 -2 13 -5z m222 -20 c10 -3 4 -13 -20 -34 -19 -16 -40 -27
-46 -25 -7 2 -28 -4 -45 -14 l-33 -19 -22 28 -23 28 53 -2 c50 -1 52 0 55 26
3 25 6 27 35 22 18 -3 38 -8 46 -10z m-2804 -10 c16 -3 31 -6 32 -8 1 -1 -37
-8 -85 -15 -79 -12 -94 -11 -152 5 -50 14 -59 19 -44 26 19 8 192 3 249 -8z
m1179 -9 c32 -21 29 -26 -19 -32 -19 -2 -90 -19 -158 -39 -113 -33 -184 -40
-204 -20 -9 9 -8 10 127 64 137 55 201 62 254 27z m455 -6 c35 -7 89 -21 121
-33 147 -54 390 -152 390 -157 0 -5 -67 1 -159 16 -81 12 -204 56 -338 120
-73 35 -133 66 -133 69 0 5 16 3 119 -15z m-1949 -37 c95 -24 87 -35 -25 -35
-25 0 -157 17 -213 28 -9 2 -21 4 -27 5 -5 1 4 6 20 10 45 12 183 8 245 -8z
m430 -64 c14 -7 59 -36 100 -65 162 -111 346 -184 505 -200 97 -9 91 -25 -9
-22 -196 4 -379 70 -549 197 -50 38 -104 77 -119 87 -56 35 2 38 72 3z m2490
18 c0 -11 -19 -15 -25 -6 -3 5 1 10 9 10 9 0 16 -2 16 -4z m-2185 -55 c37 -15
266 -144 262 -147 -7 -7 -166 39 -217 62 -90 41 -200 107 -200 120 0 12 85 -8
155 -35z m849 35 c44 -18 58 -39 17 -25 -52 18 -103 16 -189 -7 -50 -14 -92
-20 -104 -15 -17 6 -13 9 23 21 142 44 197 50 253 26z m1056 -12 c58 -3 116
-8 130 -9 14 -2 34 -4 45 -5 11 -1 -4 -10 -34 -21 -54 -19 -54 -19 -68 1 -11
15 -19 18 -32 11 -21 -11 -84 -6 -165 15 -73 18 -87 29 -26 20 25 -3 92 -9
150 -12z m-2329 -44 c41 -27 103 -72 139 -100 71 -54 212 -127 300 -155 30
-10 60 -22 65 -28 7 -7 7 -8 0 -5 -5 3 -37 9 -70 13 -125 14 -261 78 -399 189
-38 30 -96 69 -129 87 -51 27 -58 34 -42 40 40 15 64 8 136 -41z m1642 -81
c70 -22 196 -49 234 -49 22 0 25 -2 13 -10 -35 -23 -226 18 -334 71 -80 40
-95 56 -26 29 30 -12 81 -30 113 -41z m961 40 c-23 -26 -79 -64 -156 -108 -63
-35 -81 -37 -22 -2 23 14 34 27 32 39 -3 13 15 26 72 54 88 43 100 45 74 17z
m-1282 -38 c27 -19 46 -36 44 -39 -2 -2 -44 8 -93 23 -48 14 -96 29 -106 31
-35 11 -5 23 51 21 47 -2 65 -8 104 -36z m-1837 -31 c45 -2 39 -4 -56 -22
l-106 -21 -41 25 -41 24 97 -2 c53 -2 120 -4 147 -4z m2114 -41 c22 -8 20 -8
-9 -4 -19 3 -42 13 -50 21 -14 15 -13 15 9 4 14 -7 36 -17 50 -21z m640 -13
c-9 -9 -166 -123 -189 -137 -91 -58 -239 -124 -261 -117 -15 5 135 105 238
157 45 23 83 47 85 53 4 10 28 19 127 47 2 0 2 -1 0 -3z m141 -20 c0 -2 -7 -7
-16 -10 -8 -3 -12 -2 -9 4 6 10 25 14 25 6z m-2700 -50 c55 -15 174 -65 168
-71 -2 -2 -28 3 -58 12 -30 8 -88 14 -129 14 -59 -1 -86 4 -135 26 -34 14 -65
31 -71 36 -15 14 160 1 225 -17z m1145 14 c3 -5 1 -10 -4 -10 -6 0 -11 5 -11
10 0 6 2 10 4 10 3 0 8 -4 11 -10z m1055 -24 c0 -6 -168 -129 -230 -168 -64
-41 -133 -74 -175 -83 -42 -9 146 114 263 172 50 26 92 50 92 55 0 5 10 13 23
18 27 11 27 11 27 6z m-1853 -22 c53 -18 162 -70 178 -86 11 -10 -32 5 -170
63 -91 39 -96 52 -8 23z m1101 -10 c-21 -21 -157 -102 -225 -135 -91 -43 -126
-53 -48 -12 28 14 88 51 135 82 47 31 92 59 100 63 19 8 45 10 38 2z m261 -13
c6 -2 -172 -116 -229 -147 -96 -53 -293 -114 -360 -113 -16 0 -1 10 45 28 94
37 156 69 278 145 117 72 168 92 224 90 21 -1 40 -3 42 -3z m196 -28 c-16 -9
-64 -41 -105 -71 -103 -76 -224 -139 -285 -147 l-50 -7 90 57 c150 96 194 119
310 166 58 23 81 24 40 2z m-908 -49 c-9 -9 -178 -7 -187 2 -5 5 36 8 91 6 56
-2 99 -6 96 -8z m120 -90 c-3 -3 -12 -4 -19 -1 -8 3 -5 6 6 6 11 1 17 -2 13
-5z"/>
<path d="M5721 4351 c-20 -13 -18 -127 3 -166 24 -45 21 -75 -8 -75 -13 0 -34
-9 -47 -19 -23 -19 -23 -21 -9 -47 27 -48 65 -69 131 -70 46 0 64 -5 82 -22
13 -12 33 -22 45 -22 49 0 73 98 30 121 -13 7 -24 12 -25 11 -2 -1 -13 -2 -25
-2 l-21 0 21 23 c63 67 79 227 22 227 -13 0 -27 -15 -44 -47 l-24 -48 -21 45
c-23 50 -65 100 -84 100 -7 0 -18 -4 -26 -9z"/>
</g>
</svg>
