<?xml version="1.0" standalone="no"?>
<!DOCTYPE svg PUBLIC "-//W3C//DTD SVG 20010904//EN"
 "http://www.w3.org/TR/2001/REC-SVG-20010904/DTD/svg10.dtd">
<svg version="1.0" xmlns="http://www.w3.org/2000/svg"
 width="700.000000pt" height="700.000000pt" viewBox="0 0 700.000000 700.000000"
 preserveAspectRatio="xMidYMid meet">
<metadata>
Created by potrace 1.14, written by Peter Selinger 2001-2017
</metadata>
<g transform="translate(0.000000,700.000000) scale(0.100000,-0.100000)"
fill="#000000" stroke="none">
<path d="M3299 6996 c-2 -2 -42 -6 -89 -10 -85 -7 -107 -9 -190 -21 -41 -5
-59 -8 -130 -20 -61 -11 -222 -45 -229 -50 -4 -2 -21 -6 -37 -9 -16 -3 -93
-26 -172 -51 -1202 -380 -2121 -1394 -2376 -2620 -13 -66 -29 -156 -36 -200
-6 -44 -13 -93 -15 -110 -20 -141 -27 -535 -13 -715 38 -472 203 -999 443
-1415 55 -94 211 -334 225 -345 3 -3 17 -21 30 -40 139 -198 504 -556 725
-710 28 -19 52 -37 55 -40 10 -11 177 -117 260 -166 155 -92 407 -209 570
-266 234 -82 518 -152 706 -173 32 -4 68 -9 79 -11 133 -26 629 -25 820 1 148
20 237 35 349 61 611 137 1201 457 1651 894 570 554 932 1261 1040 2032 38
274 40 663 5 918 -19 139 -22 155 -46 270 -34 163 -33 158 -56 235 -11 39 -21
75 -22 80 -3 14 -36 116 -46 140 -4 11 -29 74 -55 140 -337 855 -1020 1555
-1875 1925 -185 80 -468 172 -593 194 -15 3 -35 7 -45 10 -27 8 -241 44 -307
51 -33 4 -71 9 -85 12 -28 5 -536 14 -541 9z m-744 -2376 c305 -1 366 -10 480
-65 88 -43 150 -93 207 -170 81 -109 129 -251 130 -384 0 -91 -5 -124 -34
-206 -35 -98 -135 -229 -222 -292 l-30 -20 76 -90 c148 -177 183 -247 205
-408 13 -94 9 -507 -5 -541 -24 -57 -110 -83 -160 -48 -47 33 -51 57 -52 297
-1 247 -11 321 -55 408 -70 139 -196 236 -356 275 -13 4 -319 8 -679 10 -360
1 -666 5 -680 7 -77 12 -115 82 -84 156 27 65 9 63 804 66 709 2 716 2 778 24
82 28 130 59 175 111 66 78 98 174 92 278 -10 158 -104 286 -252 343 -72 27
-94 28 -907 29 -565 1 -622 2 -649 18 -36 21 -48 43 -49 91 0 45 14 76 45 93
24 14 388 24 747 21 113 -1 327 -3 475 -3z m2623 -1 c231 -1 323 -31 421 -134
80 -84 119 -184 116 -295 -3 -101 -5 -108 -31 -139 -45 -53 -132 -51 -169 5
-14 22 -18 42 -29 156 -9 89 -60 154 -138 176 -21 6 -294 10 -684 10 l-649 0
-51 -23 c-60 -27 -98 -80 -118 -168 -25 -106 -83 -142 -163 -102 -52 26 -67
85 -46 183 17 81 55 152 113 212 88 90 172 117 365 119 77 1 140 3 141 4 2 2
258 1 922 -4z m448 -1014 c32 -5 66 -36 77 -68 7 -18 10 -788 4 -817 -23 -108
-94 -209 -191 -272 -111 -72 -84 -69 -826 -69 -366 1 -684 4 -707 7 -179 26
-324 168 -353 347 -12 73 -12 754 -1 795 29 100 157 112 204 20 11 -22 14
-103 16 -400 1 -205 6 -389 11 -409 14 -52 69 -108 122 -124 36 -10 179 -13
709 -11 l664 2 45 29 c83 55 84 63 86 431 l1 320 -496 0 c-447 0 -499 2 -528
17 -81 43 -79 154 2 192 11 6 103 12 205 15 228 6 914 3 956 -5z"/>
</g>
</svg>
