<?xml version="1.0" encoding="utf-8"?>
<!-- Generator: Adobe Illustrator 26.4.1, SVG Export Plug-In . SVG Version: 6.00 Build 0)  -->
<svg version="1.1" id="Layer_1" xmlns="http://www.w3.org/2000/svg" xmlns:xlink="http://www.w3.org/1999/xlink" x="0px" y="0px"
	 viewBox="0 0 800 800" style="enable-background:new 0 0 800 800;" xml:space="preserve">
<style type="text/css">
	.st0{fill:#FFFFFF;}
</style>
<path class="st0" d="M798,400.1c0,219.8-178.2,398-398,398S2,619.9,2,400.1S180.2,1.9,400,1.9S798,180.2,798,400.1L798,400.1z
	 M330.4,292.7h155.2v-76.3c0-8.8-7.2-15.9-15.9-15.9H150.3c-8.8,0-15.9,7.2-15.9,15.9v223.3c0,8.8,7.2,15.9,15.9,15.9h36.4v47.3
	c0,8.8,6.1,12.2,13.5,7.5l74.4-46.5V348.4C274.7,317.7,299.6,292.7,330.4,292.7L330.4,292.7z M665.6,348.4c0-8.7-7.2-15.9-15.9-15.9
	H330.4c-8.8,0-15.9,7-16,15.9v223.3c0,8.7,7.2,15.9,15.9,15.9h179.6c0.5,0.4,1,0.7,1.6,1.1l88.8,55.4c7.4,4.7,13.5,1.3,13.5-7.5v-49
	h35.8c8.7,0,15.9-7.2,15.9-15.9V348.4H665.6z"/>
</svg>
