<svg version="1.1" id="Layer_1" xmlns="http://www.w3.org/2000/svg" xmlns:xlink="http://www.w3.org/1999/xlink" x="0px" y="0px"
	 viewBox="0 0 800 800" style="enable-background:new 0 0 800 800;" xml:space="preserve">
<path d="M700,733.3H260c-59.3,0-92,0-120.5-14.5c-25.3-12.9-45.4-33-58.3-58.3C66.7,632,66.7,599.3,66.7,540V100
	c0-18.4,14.9-33.3,33.3-33.3s33.3,14.9,33.3,33.3v440c0,49,0,76,7.3,90.3c6.4,12.6,16.5,22.7,29.1,29.1c14.3,7.3,41.3,7.3,90.3,7.3
	h440c18.4,0,33.3,14.9,33.3,33.3S718.4,733.3,700,733.3z M633.3,600c-18.4,0-33.3-14.9-33.3-33.3V133.3c0-18.4,14.9-33.3,33.3-33.3
	s33.3,14.9,33.3,33.3v433.3C666.7,585.1,651.7,600,633.3,600z M233.3,600c-18.4,0-33.3-14.9-33.3-33.3V433.3
	c0-18.4,14.9-33.3,33.3-33.3c18.4,0,33.3,14.9,33.3,33.3v133.3C266.7,585.1,251.7,600,233.3,600z M366.7,433.3
	c-18.4,0-33.3-14.9-33.3-33.3V266.7c0-18.4,14.9-33.3,33.3-33.3c18.4,0,33.3,14.9,33.3,33.3V400C400,418.4,385.1,433.3,366.7,433.3z
	 M500,300c-18.4,0-33.3-14.9-33.3-33.3V133.3c0-18.4,14.9-33.3,33.3-33.3s33.3,14.9,33.3,33.3v133.3C533.3,285.1,518.4,300,500,300z
	"/>
</svg>
