<svg version="1.1" id="Layer_1" xmlns="http://www.w3.org/2000/svg" xmlns:xlink="http://www.w3.org/1999/xlink" x="0px" y="0px"
	 viewBox="0 0 800 800" style="enable-background:new 0 0 800 800;" xml:space="preserve">
<style type="text/css">
	.st0{fill:#1C274C;}
</style>
<path class="st0" d="M500,725H300c-48.9,0-84.2,0-113.1-3.9c-34-4.6-57.3-14.7-75.3-32.7s-28.2-41.3-32.7-75.3
	C75,584.2,75,548.9,75,500c0-13.8,11.2-25,25-25s25,11.2,25,25c0,87.3,0,131.1,22,153c22,22,65.8,22,153,22h200
	c87.3,0,131.1,0,153-22c22-22,22-65.8,22-153c0-13.8,11.2-25,25-25s25,11.2,25,25c0,48.9,0,84.2-3.9,113.1
	c-4.6,34-14.7,57.3-32.7,75.3s-41.3,28.2-75.3,32.7C584.2,725,548.9,725,500,725z"/>
<path class="st0" d="M400,558.3C400,558.3,400,558.3,400,558.3c0,0-0.1,0-0.1,0c-0.3,0-0.6,0-0.9,0c0,0,0,0,0,0c0,0-0.1,0-0.1,0
	c0,0-0.1,0-0.1,0c0,0-0.1,0-0.1,0c0,0,0,0,0,0c-2.7-0.1-5.2-0.7-7.6-1.6c0,0,0,0,0,0c0,0,0,0-0.1,0c-0.6-0.2-1.2-0.5-1.8-0.8
	c-2.4-1.2-4.7-2.8-6.7-4.8c-0.3-0.3-0.7-0.7-1-1.1L248.2,404.4c-9.3-10.2-8.6-26,1.6-35.3c10.2-9.3,26-8.6,35.3,1.6l89.9,98.3V100
	c0-13.8,11.2-25,25-25c13.8,0,25,11.2,25,25v368.9l89.9-98.3c9.3-10.2,25.1-10.9,35.3-1.6s10.9,25.1,1.6,35.3L418.7,550
	c-0.3,0.4-0.6,0.7-1,1c-2.1,2.1-4.4,3.7-6.9,4.9c-0.4,0.2-0.8,0.4-1.3,0.6c0,0,0,0,0,0c0,0-0.1,0-0.1,0c-2.5,1-5.2,1.6-8,1.8
	c0,0,0,0,0,0c0,0-0.1,0-0.1,0c0,0-0.1,0-0.1,0C400.8,558.3,400.5,558.3,400,558.3C400.1,558.3,400,558.3,400,558.3z"/>
</svg>
