<?xml version="1.0" encoding="utf-8"?>
<!-- Generator: Adobe Illustrator 26.4.1, SVG Export Plug-In . SVG Version: 6.00 Build 0)  -->
<svg version="1.1" id="Layer_1" xmlns="http://www.w3.org/2000/svg" xmlns:xlink="http://www.w3.org/1999/xlink" x="0px" y="0px"
	 viewBox="0 0 800 800" style="enable-background:new 0 0 800 800;" xml:space="preserve">
<style type="text/css">
	.st0{fill:#FFFFFF;}
</style>
<path class="st0" d="M800,400c0,220.9-179.1,400-400,400S0,620.9,0,400S179.1,0,400,0S800,179.1,800,400z M308.4,412.8L116.6,271.4
	v264.4L308.4,412.8z M166.2,258.2l187.2,138c28,18.3,64.3,18.3,92.2,0l187.3-138H166.2z M617.7,541.9L454.6,437.4
	c-34.9,16.9-75.7,16.9-110.6,0L180.9,541.9H617.7z M682.3,271.4L490.5,412.7l191.8,123V271.4z"/>
</svg>
