<svg id="a" xmlns="http://www.w3.org/2000/svg" viewBox="0 0 107.99 19" fill="#2f666d"><path d="M9.98,15.27l6.17,3.73-1.64-7.03,5.45-4.73-7.18-.61L9.98,0l-2.81,6.63L0,7.24l5.45,4.73-1.64,7.03,6.17-3.73Z"/><path d="M31.99,15.27l6.17,3.73-1.64-7.03,5.45-4.73-7.18-.61L31.99,0l-2.81,6.63-7.18,.61,5.45,4.73-1.64,7.03,6.17-3.73Z"/><path d="M53.99,15.27l6.17,3.73-1.64-7.03,5.45-4.73-7.18-.61-2.81-6.63-2.81,6.63-7.18,.61,5.45,4.73-1.64,7.03,6.17-3.73Z"/><path d="M76,15.27l6.17,3.73-1.64-7.03,5.45-4.73-7.18-.61-2.81-6.63-2.81,6.63-7.18,.61,5.45,4.73-1.64,7.03,6.17-3.73Z"/><path d="M98,15.27l6.17,3.73-1.64-7.03,5.45-4.73-7.18-.61-2.81-6.63-2.81,6.63-7.18,.61,5.45,4.73-1.64,7.03,6.17-3.73Z"/></svg>