<svg version="1.1" id="Layer_1" xmlns="http://www.w3.org/2000/svg" xmlns:xlink="http://www.w3.org/1999/xlink" x="0px" y="0px"
	 viewBox="0 0 1200 1200" style="enable-background:new 0 0 1200 1200;" xml:space="preserve">
<path d="M602.2,1200C270.8,1200,0.2,931.6,0,602.6C-0.2,270,269.4,0,602.1,0c329.2,0,598.2,271.4,597.6,603.1
	C1199.1,931,929.8,1200,602.2,1200z M529,603.1c3.5-2.7,7.9-5.6,11.8-9.1c31.7-28.1,43.9-63.2,34.4-104.4
	c-11.7-50.4-52.2-81.6-103.8-81.7c-75.7-0.2-151.5-0.1-227.2,0c-2.7,0-5.4-0.1-8,0.3c-9.5,1.5-15.1,7.2-15.8,16.7
	c-0.6,9.7,3.4,17.2,13.5,19.6c4.7,1.1,9.8,1.3,14.7,1.3c73.8,0.1,147.7-0.1,221.5,0.1c48.4,0.2,80.3,43.3,66.2,88.7
	c-8.7,28.1-35,45.8-68.6,45.9c-72.3,0.1-144.6,0-216.9,0.1c-5.7,0-11.6,0-17,1.4c-9.1,2.4-14.1,8.8-13.5,18.5
	c0.6,9.2,4.7,16.1,14.6,17.7c5.2,0.8,10.6,1.2,15.9,1.2c65.8,0.1,131.7,0.3,197.5,0c31-0.1,55.8,11.4,74.7,36.2
	c12.7,16.5,16.6,35.4,16.9,55.5c0.3,20.2-0.2,40.3,0.2,60.5c0.3,14.2,10.1,22.5,22.8,20.4c9.3-1.5,15.5-9.6,15.7-22
	c0.3-21.3,0.5-42.6,0-63.9c-0.6-22.2-4.2-44.2-17.1-62.8C552.1,629.2,540.4,616.8,529,603.1z M940.3,619.4
	c0,36.4,0.9,71.3-0.4,106.2c-0.6,16.1-14.2,27.5-30.8,27.7c-71.1,0.6-142.3,1-213.4,0.5c-23.6-0.2-35.9-14.3-36-38
	c-0.2-37.7,0.1-75.3-0.1-113c-0.1-15.8-11.4-25.1-25.1-20.8c-11.4,3.6-13.7,13.1-13.7,23.7c0,37.3-0.5,74.6,0.1,111.9
	c0.7,44.4,31.8,74.6,76.1,74.7c69.3,0.1,138.5-0.8,207.8,0.4c40.1,0.7,76.2-33.7,74.8-74.8c-1.2-36.5-0.2-73-0.3-109.6
	c0-21.7-5.7-27.5-27.8-27.5c-45.3-0.1-90.6,0-135.9,0c-12.9,0-25.9-0.2-38.8,0.3c-14.3,0.6-22.2,7.8-22,19.3s8.1,18.4,22.4,19.1
	c7.6,0.4,15.2,0.1,22.8,0.1C846.5,619.4,892.9,619.4,940.3,619.4z M800.9,407.8c-36.1,0-72.3-0.4-108.4,0.1
	c-37.9,0.5-66.9,27.7-70.7,65.3c-1.5,14.8,4.1,23.7,16,25.5c11.7,1.7,19.5-5.6,21.9-20.5c3.2-20.2,15.8-32.1,36.3-32.1
	c70.4-0.3,140.7-0.3,211.1,0c18.7,0.1,31.8,12.8,33.6,31.7c0.6,6,0.5,12.2,1.3,18.2c1.3,9.7,9.2,16.6,18.6,16.5
	c9.4,0,17.1-6.9,18.6-16.6c7.3-49.1-25.8-87.7-75.5-87.9C869.4,407.7,835.1,407.8,800.9,407.8z"/>
</svg>
