<?xml version="1.0" encoding="utf-8"?>
<!-- Generator: Adobe Illustrator 26.4.1, SVG Export Plug-In . SVG Version: 6.00 Build 0)  -->
<svg version="1.1" id="a" xmlns="http://www.w3.org/2000/svg" xmlns:xlink="http://www.w3.org/1999/xlink" x="0px" y="0px"
	 viewBox="0 0 320 320" style="enable-background:new 0 0 320 320;" xml:space="preserve">
<style type="text/css">
	.st0{fill:none;stroke:#000000;stroke-width:8.1394;stroke-linecap:round;stroke-linejoin:round;}
	.st1{stroke:#000000;stroke-width:2.387;stroke-linecap:round;stroke-linejoin:round;}
</style>
<g>
	<path class="st0" d="M312.6,160.2c0-84.6-69-152.6-152.5-152.6C76.2,7.4,7.8,75.7,7.4,159.3c-0.4,84,67.8,153,152.1,153.4
		S312.5,244.5,312.6,160.2L312.6,160.2L312.6,160.2z"/>
	<g>
		<path class="st1" d="M222.6,39c2.7-1.3,5.6-2.5,8.4-3.8c1.1-0.6,2-1.3,2.7-2.3c0.7-1,0.8-2.3,0.1-3.2c-0.7-1-2-1.4-3.2-1.1
			c-1.1,0.5-1.4,1.2-1.3,2.9c0,0.2-0.1,0.5-0.1,0.7c-0.2-0.1-0.5-0.1-0.6-0.2c-0.2-0.6-0.7-1.3-0.6-1.9c0.4-1.3,1.3-2.4,2.6-2.6
			c1.1-0.5,2.4-0.1,3.2,0.7c2,2,2,5.4,0,7.4c-0.2,0.2-0.5,0.4-0.7,0.6c-1.4,0.8-3,1.4-4.5,1.9c-1.9,0.6-3.6,1.4-5.1,2.7
			c-0.2,0.2-0.4,0.5-0.5,0.7h0.8c1.6,0,3.1-0.1,4.8,0c2.1,0,4.2,0.6,5.8,1.9c0.6,0.5,0.7,0.2,0.8-0.5c0.2-1.7,0.6-3.3,1.2-4.9
			c2.3-4.7,8.1-4.4,11-1.7c1.4,1.2,2,3.1,1.6,4.9c-0.2,1-1.1,1.7-1.9,1.8c-0.5,0-0.8,0-1.3-0.1c0.2-0.2,0.6-0.5,0.8-0.7
			c1.7-1.3,1.8-3,0.2-4.7c-2.3-2.4-6.1-2.4-8.5-0.1c-0.2,0.2-0.5,0.5-0.6,0.7c-0.8,1.2-1.3,2.6-1.3,4.1c0.1,2,0.2,4.1,0.5,6
			c0.1,0.4,0.1,0.7,0.1,1.1c0,0.8,0,1.6-0.1,2.4c0.6-0.6,1.2-1.2,1.7-1.8c2.6-2.9,6.2-4.8,10-5.5c1.7-0.4,3.2-0.5,4.9-0.5
			c3.6-0.1,6.8,1.9,8.4,5.1c0.8,1.6,1.4,3.1,1.9,4.9c1.1,4.3,3,8.5,5.6,12.1c0.7,1.1,1.2,2.1,1.6,3.3c0.2,0.7,0.5,0.7,1,0.2
			c1.7-1.8,2.5-1.6,3,0.7c0.4,1.8,0.6,3.6,0.6,5.4c0,0.8,0.4,1.7,1.1,2.3c1,0.8,1.9,1.8,2.7,2.7c0.6,0.7,1.2,0.6,1.6-0.1
			c0.6-1,1.1-2,1.3-3.1c0.5-4.4-0.8-8.8-3.5-12.4c-1.6-2.1-2.6-2.3-5.1-1.1l0,0c-1.1-0.7-2.1-1.3-3.2-2c-1-0.6-1.6-1.8-1.6-3
			c0-0.6-0.2-1.3-0.4-1.9c-0.1-0.4-0.4-0.6-0.5-1c0.4-0.1,0.8-0.1,1.2-0.1c2.4,0.7,4.3,2.6,5.1,4.9c0.2,0.8,0.5,1.3,1.6,1.2
			c1.3-0.1,2.6,0.6,3.3,1.7c2.6,3.2,4.2,7.2,4.3,11.3c0,2.1-0.7,4.3-2,6c-0.4,0.6-0.4,0.7,0.4,1c1.9,0.5,3.9,1,5.7,1.7
			c2.7,1.1,5,2.9,6.7,5.4c1.3,1.8,1.9,4.1,1.8,6.3c0,1.9-1.6,3.5-3.5,3.3c-0.2,0-0.6,0-0.8-0.1c-2-0.5-3.8-1.8-4.8-3.7
			c-0.5-0.8-0.6-2-0.1-3c0.4-1,1.3-1.6,2.4-1.4c1.1,0,1.9,0.7,2.1,1.8c0,0.2,0,0.4-0.1,0.6c-0.1,0-0.4-0.1-0.5-0.2
			c-0.2-0.2-0.5-0.4-0.7-0.6c-0.6-0.2-1.3-0.7-1.8-0.1c-0.4,0.5-0.5,1.2-0.4,1.8c0.2,1.6,2.7,3.6,4.4,3.7c1.2,0.1,2.3-0.7,2.4-1.8
			v-0.1c0.1-1.2,0-2.4-0.4-3.6c-0.8-2.3-2.4-4.3-4.4-5.6c-2.1-1.4-4.5-2.5-7-3.1h-0.8c0,0.2,0.1,0.4,0.2,0.6
			c2.6,4.5,3.1,9.5,3.5,14.6c0.1,1.3,0.4,2.5,0.8,3.8c1.6,4.4,1.9,9.2,1.3,13.8c-0.7,5-1,10.1-1.6,15.3c-0.5,3.7-1.4,7.3-3,10.5
			c-2,4.5-5.6,8.4-10.1,10.5c-0.2,0.1-0.5,0.2-0.6,0.5h0.8c7.6-1.7,13.8-7,16.8-14.2c0.7-1.7,1.2-3.6,1.8-5.4l1.9-5.5
			c0.2-0.5,0.4-1,0.4-1.4c0.1-2.3,0.5-4.5,1.2-6.8c0.4-1.4,0.1-2.9-0.6-4.2c-0.6-1.1-1-2.1-1.3-3.2c-0.6-2.1-0.2-4.5,1-6.4
			c0.5-0.7,1-1.4,1.6-2.1c1.8-2,2.4-4.3,1-6.7c-0.1-0.1-0.1-0.4-0.1-0.6c0.2,0,0.4,0.1,0.6,0.2c1,1,1.4,2.4,1.2,3.8
			c-0.2,1.8-1.1,3.5-2.4,4.8c-1.4,1.4-2,3.3-1.8,5.4c0,0.2,0.2,0.4,0.5,0.6c0.1-0.2,0.2-0.4,0.2-0.6c0-0.6-0.1-1.2,0.1-1.7
			s0.8-0.6,1.3-0.8c0.1,0.5,0.2,0.8,0.4,1.3c0,0.2-0.1,0.5-0.2,0.6c-0.2,0.4-0.5,0.8-0.7,1.2c0.6,0,1.1,0,1.6-0.1
			c0.4-0.1,0.8-0.2,1.2-0.4c2.4-0.7,2.5-0.8,2.7-3.5c0-0.2,0.1-0.4,0.1-0.6c0.1,0.1,0.2,0.4,0.4,0.5c0.8,1.6,0.2,3.5-1.3,4.3
			c-0.2,0.1-0.6,0.2-0.8,0.4c-0.6,0.1-1.2,0.2-1.7,0.5c-1.3,0.2-2.1,1.6-1.8,2.9c0.1,0.2,0.1,0.5,0.2,0.7s0.2,0.5,0.5,0.7
			c2.4,1.9,2.4,4.5,2.3,7.3c-0.2,4.2-1.2,8.2-2.9,11.9c-1.1,2.4-2.3,4.8-3.3,7.3c-0.8,1.6-1.2,3.5-1.2,5.3c0,0.2,0.1,0.4,0.2,0.6
			c0.2-0.1,0.4-0.1,0.5-0.2c1.4-1.7,3.2-3.1,5.1-4.2c1.7-1.1,3.2-2.1,4.8-3.3c2.1-1.8,3.5-4.3,3.7-7.2c0.2-0.8-0.2-1.7-1-2
			c-3-1.7-3.8-4.5-3.9-7.8c0-0.1,0.1-0.4,0.2-0.5l0.4,0.2l3.1,2.3c0.5,0.4,1,0.7,1.4,1c0-0.6,0-1.3,0.1-1.9l0.1-2.5
			c0.4,0.8,0.6,1.6,0.7,2.4c0.6,3.1,0.6,6.3,0,9.4c-0.5,3-2,5.6-4.3,7.5c-1.4,1.2-2.9,2.1-4.4,3.1c-1.2,0.8-2.5,1.7-3.7,2.6
			c-2.5,2.1-2.7,4.8-0.8,7.4c2.7,3.5,7.5,4.5,11.5,2.7c3.8-2.3,6-6.6,5.4-11c-0.1-1.4-1.1-2.6-2.4-3c-1.6-0.4-3.2,0.2-4.2,1.6
			c-0.1,0.2-0.2,0.4-0.5,0.6c-0.1-0.2-0.4-0.6-0.2-0.8c0.2-0.7,0.6-1.4,1.2-1.9c2-1.4,4.8-1.1,6.2,1c0.1,0.2,0.2,0.4,0.4,0.6
			c0.6,1.2,0.8,2.4,1,3.7c0.1,5-3.8,11.2-10.1,11.5c-6.2,0.1-11.3-4.7-11.8-10.7v-0.8c0-0.1-0.4-0.2-0.5-0.2
			c-0.2,0.2-0.5,0.6-0.7,0.8c-6.7,9.4-15.8,12.2-26.7,10.4c-3-0.5-5.8-1.4-8.6-2.9c-5.4-2.5-9-7.8-9.2-13.7c-0.1-2.6,0-5.1,0.4-7.8
			c0.4-2.3,1.7-4.4,3.7-5.6c0.4-0.2,0.7-0.4,1.1-0.5c-0.2,0.2-0.4,0.6-0.7,0.8c-2.5,2.6-3.7,6.1-3.3,9.7c0,0.2,0.1,0.6,0.1,0.8
			c0.1-0.2,0.2-0.5,0.4-0.7c0.6-1.8,2-3.2,3.9-3.7c0.6-0.2,1.1-0.4,1,0.7c-0.1,1.3-0.2,2.7-0.2,4.1c0.1,1.8-1.2,3.5-3,3.6
			c-0.8,0-0.7,0.5-0.4,1c1.9,3,4.7,5.3,7.9,6.4c10.6,4.2,22-0.8,26.5-11.7c1.3-3.2,2.1-6.6,2.5-10c0.6-4.5,0.5-9.2-0.2-13.8
			c-0.1-0.5-0.2-1-0.4-1.4c-0.1-0.5-0.4-0.8-0.7-0.2c-1.6,2.4-3.9,1.6-6.1,1.7c-0.1,0-0.5-0.6-0.4-0.7c0.4-0.6,0.8-1.1,1.4-1.6
			c0.6-0.4,1.3-0.6,1.9-0.8c2-1,2.5-2.4,1.4-4.4c-3.1-5.7-7.6-10.6-13.1-14.1c-1.1-0.6-2.3-1.2-3.5-1.7l-0.1-0.1l0.1,0.1
			c1,2.5,1.1,5.3,0.4,7.8c-0.4,1.4-0.4,2.9,0,4.3c1.1,3.9,5.8,6,9.7,4.4c1.6-0.6,2.4-2.3,1.8-3.8c0-0.1,0-0.1-0.1-0.1
			c-0.1-0.4-0.4-0.8-0.6-1.2c-1.3-2.4-2.7-2.4-4.3-0.2c-0.1,0.1-0.4,0.2-0.6,0.4c-0.1-0.2-0.1-0.4-0.1-0.6c0-1.4,1.2-2.5,2.6-2.5
			c0.5,0,1,0.1,1.3,0.4c1.9,1,3.2,2.9,3.3,5c0.1,1.8-1,3.3-2.6,3.8c-2.9,1.3-6.3,0.8-8.8-1.1c-2.6-1.8-3.8-4.9-3.1-8
			c0.1-0.8,0.4-1.7,0.6-2.5c0.4-1.6,0.2-3.2-0.4-4.7c-1-2.4-3.7-3.8-6.2-3.1c-2.1,0.6-3.5,2.9-2.9,5c0.1,0.4,0.2,0.6,0.4,1
			c0.2,0.4,0.4,0.7,0.5,1.2l0,0c-1.9-0.7-2.9-2.9-2.1-4.8c0.1-0.2,0.2-0.5,0.4-0.7c0.6-1.1,1.6-1.9,2.6-2.4c0.2-0.1,0.5-0.4,0.6-0.5
			l-0.7-0.4c-4.2-1.3-8.5-2.1-12.9-2.4c-2.6-0.2-5.4-0.2-8-0.2c-0.8,0-1,0.4-0.6,1.1c1.3,1.9,1.2,4.5-0.4,6.4
			c-0.2,0.1-0.5,0.2-0.7,0.2v-0.6c0.6-2.7,0.5-3-1.9-4.4c-0.5-0.2-1.1-0.8-1.1-1.2c0.2-1.7-0.8-1.3-1.8-1.2
			c-7.4,0.5-14.8,1.7-22,3.6c-8.5,2.3-16.6,6.1-23.8,11.1c-1.8,1.3-3.5,2.7-5.3,4.2c-0.1,0.2-0.2,0.4-0.4,0.6h0.6
			c4.9-1.6,9.9-2.4,15-2.5c1.6-0.1,3.1-0.4,4.7-0.8c1.1-0.2,1.9-1.1,2-2.3c0.1-1.1-0.8-2.1-2.3-2.6c-1.3-0.6-2.9-0.5-4.2,0.4
			c-0.5,0.4-0.8,1-1,1.7c0,0.8,0.8,1.1,1.7,1.1c0.2,0,0.6-0.1,0.8-0.1h0.4c-0.1,0.2-0.1,0.4-0.2,0.5c-1,0.8-2.4,0.8-3.3-0.1
			c-1-1-1-2.4,0-3.3c0.1-0.1,0.2-0.2,0.2-0.2c1.8-1.8,4.1-3,6.6-3.6c4.2-0.8,7.8,0.7,11,3.3c0.4,0.2,0.6,0.6,0.8,1
			c0.2,0.4,0.6,0.5,0.8-0.1c0.8-1.7,1.4-3.3,0.2-5.1c-0.5-0.6-0.5-1.4,0.1-1.9c0.1-0.1,0.2-0.1,0.2-0.1c1-0.5,2-0.2,2.6,0.6
			c0.5,0.8,0.4,2-0.2,2.7c-0.7,1.2-0.7,2.6-0.1,3.8c0.7,0.6,1.7,0.7,2.4,0.2c0.8-0.2,1.3-0.8,1-1.7c-0.4-0.6-0.2-1.3,0.4-1.8
			c0.2-0.1,0.4-0.2,0.6-0.2c0.6,0,1.2,0.1,1.7,0.5c0.2,0.1,0.1,1.1-0.1,1.3c-1.7,1.7-1.1,3.6-1,5.5c0.1,1,0.1,1.7-0.8,2.1
			c-0.4,0.2-0.7,0.6-0.7,1.1c0.6,5.3-1.2,10.3-1.9,15.4c-0.2,1.9,0,2.6,1.7,3.5c1.9,1.1,4.2,1.3,6.2,0.6c1.8-0.6,2.9-2.5,2.5-4.3
			c-0.4-2-2-3.6-4.1-3.9c-0.8-0.1-1.6,0.5-1.8,1.2c-0.1,0.2-0.2,0.5-0.4,0.7c-0.1-0.4-0.5-0.6-0.5-1c0-1.3,1.1-2.3,2.3-2.3h0.2
			c2.6,0.2,4.7,2.1,5.3,4.7c0.6,2.4-0.6,4.8-2.9,5.7c-0.8,0.4-1.7,0.6-2.5,0.7c-0.6,0.1-1.2,0.2-1.9,0.2c0.4,0.5,0.7,1.1,1.1,1.6
			c1.9,3.2,1.8,6.7,1.4,10.3c0,0.4-0.1,0.7-0.2,1.1c-0.2,1,0.2,1.6,1.2,2c1.2,0.5,2.1,1.6,2.4,2.9c0.1,0.7,0.2,1.4,0.2,2.1
			c0,0.4-0.1,0.8-0.2,1.2c-0.2-0.2-0.6-0.6-1-0.8c-0.6-0.5-1.3-0.8-2-1.2c-0.4-0.2-1-0.5-1.1-0.8c-0.4-1.3-0.6-1.2-1.3-0.1
			c-1.9,3.1-4.9,5.4-8.4,6.4c-0.6,0.1-1.1,0.4-1.7,0.4c-0.2,0-0.5,0-0.6-0.1c0-0.2,0.1-0.4,0.1-0.6c0.4-0.5,0.7-0.8,1.1-1.3
			c2.7-3.1,4.7-6.8,5.5-10.9c0.8-4.5-0.2-9.2-3-12.9c-2.6-3.8-6.2-6.9-10.3-9.1c-4.2-2.5-8.8-4.3-13.6-5.1
			c-4.2-0.8-8.6-0.4-12.4,1.4c-1.2,0.7-2.3,1.6-3.3,2.4c-0.4,0.2-0.7,0.7,0.1,0.8c2,0.4,2.6,2.3,3.7,3.7c0.4,0.6,0,0.7-0.5,0.8
			c-0.7,0.1-1.4,0.1-2.1,0.1c-1.3,0.4-2.6-0.4-3.1-1.7c-0.2-0.7-0.6-0.7-1,0c-0.6,1.1-1.3,2.1-1.9,3.1c-4.8,7.3-11.1,12.2-19.9,13.5
			c-0.2,0-0.4,0.2-0.6,0.4c0.1,0.1,0.4,0.2,0.5,0.4c1.1,0.5,2.3,1,3.3,1.6c6.9,3.5,11,9.3,13.6,16.4c0.2,0.5,0.4,1,0.5,1.4
			c0.2,1.4,1.2,2.6,2.5,3c2.7,1.2,4.8,3.6,5.7,6.4v0.6c-0.2,0-0.4,0-0.6-0.1c-1.8-0.8-3.7-1.6-5.5-2.5c-0.8-0.4-0.6,0.1-0.6,0.6
			c-0.1,1.8-0.1,3.6-0.4,5.4c-1.3,8.8-9.4,13.1-17.5,10.9c-3.6-0.8-6.6-3.1-8.5-6.2c-2.6-3.9-1.6-9.3,2.4-12.1
			c0.5-0.4,1-0.6,1.6-0.8c0.5-0.2,1.1-0.2,1.1-1.1c0.1-0.6-0.4-1.3-1-1.6c-1.9-1.1-2.4-2.3-1.8-4.5c0.4-1.2,1.7-2.4,0.4-3.8l0.2-0.5
			c0.5,0,1.1-0.1,1.3,0.1c0.4,0.5,0.5,1.1,0.5,1.6c-0.4,1.8,0.6,2.6,2,3.3c1.8,0.8,3.3,2,5,3c0.1,0.1,0.2,0.4,0.4,0.5
			c-0.2,0.1-0.4,0.2-0.6,0.2c-1.3,0.1-2.6,0.2-3.8,0.2c-0.6,0-1,0-1,0.8s0.5,0.8,1,0.8c1,0.1,2,0.4,3,0.6c2.1,0.7,3.2,2.9,2.6,5
			c-0.2,1.4-1.6,2.4-3,2.1c-0.2,0-0.4-0.2-0.5-0.4c0.1-0.1,0.2-0.4,0.4-0.4c1.6-0.2,1.9-1.3,1.9-2.7c0-1.3-0.8-2.4-2-2.7
			c-3.7-1.6-8,0.1-9.7,3.8c-0.8,2-0.7,4.4,0.4,6.4c1.4,2.7,4.1,4.8,7,5.7c1.8,0.4,3.6,0,4.9-1.2c4.5-3.1,7.2-8.2,5.3-14.3
			c-1.2-3.5-3.1-6.7-5.7-9.3c-3.5-3.8-7.2-7.3-12.1-9.3c-4.5-2-9.8-1.7-14.2,0.7c-4.9,2.6-8.6,6.4-12.2,10.6
			c-2.1,2.4-3.7,5.3-4.7,8.4c-0.8,3.2-2,6.4-3.1,9.7c-0.2,0.6-0.4,1.3-0.4,2c0.4,2.9,1,5.6,1.7,8.4c0.6,1.4,1.4,2.9,2.6,3.9
			c1.8,2,3.2,4.3,4.4,6.7c1.4,2.9,2.9,5.6,4.4,8.4c2.5,4.2,3.7,9,3.6,13.8c-0.1,0.8,0.4,1.7,1.2,1.9c5.3,2.3,9.3,6.6,11.3,11.9
			c1.2,3.1,2.6,6.1,3.9,9.1c0.8,1.7,2,3.2,3.6,4.3c4.2,3.1,8.1,6.4,12.3,9.5c6.8,5,14.9,8,23.3,8.8c4.3,0.4,8.6,0.6,12.9,0.6
			c2.1-0.1,4.3-0.2,6.4-0.6c5-0.7,10-0.5,15,0.5c2.6,0.6,5.4,0.4,7.9,1.1c7.9,2.1,15.9,2.4,23.9,3.5c4.3,0.6,8.4-0.5,12.3-1.7
			c5.3-1.8,10.3-4.4,14.6-7.9c2.5-1.9,4.8-3.9,6.8-6.3l0.2,0.2c-1.3,1.9-2.6,3.9-4.1,5.8c-10.7,13.6-24,24.9-39,33.4
			c-45.5,26.5-101.2,28.2-148.1,4.7c-17.5-9-33.2-21.1-46.1-35.9c-5.5-5.8-10.3-12.4-14.1-19.6c-1.9-3.6-3.2-7.5-4.9-11.3l0,0
			c1.3,1.4,2.6,2.9,3.9,4.2c6.2,6,14,10.1,22.3,11.9c1.6,0.4,3.2,0.2,4.8-0.2c5.6-1.9,11.6-2.7,17.7-2.6c5.6,0.2,11,2.4,15,6.2
			c0.6,0.6,1.2,0.4,1.6-0.4c0.7-1.7,1.6-3.2,2.5-4.8c2-3.2,2.4-7.3,0.7-10.7c-1.1-2.7-2.3-5.6-3.5-8.4c-0.8-2-0.5-4.3,0.7-6
			c0.1-0.1,0.4-0.2,0.5-0.4c0.1,0.1,0.2,0.4,0.2,0.5c-0.4,3.5,1.1,6.4,2.3,9.5c1,2.3,1.8,4.5,2.5,6.9c0.8,2.7,0.5,5.7-1,8.1
			c-0.6,1.2-1.3,2.3-1.9,3.5c-0.5,1-0.8,1.9-1.2,3c-0.6,1.3-0.4,3,0.6,4.1c1.1,1.4,2.1,3,3.2,4.3c1.3,1.7,2.9,3,4.8,4.1
			c0.4,0.2,0.7,0.6,1.1,1l0,0c-2.7-0.6-5.1-2.3-7.5-3.6c-1.9-1.1-3.8-2.1-5.7-3c-3.2-1.2-6.6-1.7-9.9-1.2c-0.1,0-0.2,0.1-0.4,0.2
			c0.1,0.1,0.2,0.2,0.4,0.2c1,0.2,1.8,0.5,2.7,0.7c4.4,1.2,8.7,3,12.7,5.4c3.9,2.3,8,4.5,12.2,6.4c3.7,1.8,7.8,2.9,11.8,3.1
			c4.4,0.2,8.7,1,13.1,1.2c3.3,0,6.8-0.1,10.1-0.4c4.3-0.2,7.8-2.6,11.1-4.9c0.7-0.5,0.4-0.7-0.2-0.8c-2.9-1.1-6-1.2-9-0.5
			c-3.3,0.7-6.7,1.7-10,2.5c-1.4,0.4-2.7,0.7-4.2,1c-3.2,0.8-6.7,0.6-9.8-0.7c-4.1-1.6-8.1-2.9-12.3-3.9c-0.2-0.1-0.5-0.2-0.7-0.2
			h0.8c6.4,1.3,13,1,19.6,0.5c5.6-0.6,11.2-1.6,16.7-2.9c5.1-1.2,10.4-1.6,15.6-0.8h0.8c-0.2-0.2-0.5-0.4-0.8-0.5
			c-7.2-2.4-14.3-3.2-21.8-0.7c-8.4,2.9-17.3,4.1-26.1,3.6c-3.2-0.1-6.3-0.8-9.2-2.1c-1.4-0.7-2.7-1.6-3.9-2.5
			c-3.2-3-3.6-6.8-2.7-10.7c0.5-1.9,1.1-3.7,1.7-5.6c0.4-1.1,0.8-2.1,1.2-3.2c1.9-4.7,1.4-10-1.1-14.3c-1.7-3-3-6.1-4.2-9.2
			c-0.5-1.6-0.7-3.2-0.8-4.9c0-0.2,0.2-0.4,0.4-0.6c0.1,0.1,0.2,0.4,0.2,0.5c0.5,2.6,1.3,5.1,2.6,7.5c0.8,1.8,1.9,3.5,2.7,5.1
			c1.1,2,1.9,4.2,2.6,6.4c1,3.5,0,6.8-1.1,10.1c-1.1,3-2,6-2.7,9.1c-1.1,5,1.1,8.7,5.7,10.7c3.5,1.3,7,2,10.7,2.1h3.7
			c0.2,0,0.4-0.1,0.6-0.1c-0.1-0.1-0.4-0.2-0.5-0.4c-1.2-0.4-2.5-0.7-3.7-1.1c-3-0.8-5.7-2.3-8.2-4.2c-1.9-1.6-3.3-3.8-4.1-6.2
			c-0.7-2.5-0.5-5.3,0.7-7.5c0.7-1.3,1.4-2.5,2.1-3.7c3.8-6.8,3.8-14.3-2.3-20.4c-2.4-2.3-4.8-4.5-7.2-6.8c-2.1-2-3.3-4.8-3.5-7.6
			c0-3.5,1-6.8,3-9.5c0.1-0.1,0.4-0.2,0.5-0.4c0.1,0.1,0.2,0.4,0.4,0.6c0.5,1.8,1,3.5,1.3,5.3c0.8,3.3,2.6,6.3,5,8.7
			c2.6,2.6,5.1,5.3,7.9,7.8c2.5,2.4,4.2,5.4,4.8,8.8c1.1,6.2,3.7,11.9,7.8,16.7c1.9,2.3,4.2,4.2,6.8,5.6c0.1,0.1,0.2,0.4,0.5,0.5
			c5.3,3.3,11.1,5.6,17.2,6.8c6,1,11.7,3.1,16.7,6.6c0.2,0.2,0.6,0.4,1,0.5c1,0.4,2,0.7,3,1h0.8l-0.6-0.6c-3.1-2-6.3-3.9-9.3-6.2
			c-4.8-3.6-9.4-7.5-14.2-11.3c-4.9-3.9-10.1-7.4-15.8-10.1c-0.5-0.2-1.1-0.4-1.6-0.5c0.1,0.6,0.2,1.1,0.4,1.6
			c2.7,5.1,6.9,9.3,11.9,12.1c2.9,1.7,6,2.7,9.1,3.1c0.2,0,0.5,0.2,0.7,0.4c-0.2,0.1-0.5,0.1-0.7,0.2c-3.8,0.2-7.6-0.1-11.3-1.2
			c-2.6-0.8-5.1-2-7.8-3.1c-1.1-1-2.1-1.9-3.2-2.9c-2.3-2.3-3.8-5-4.7-8.1c0-0.2,0-0.4,0.1-0.6c0.1,0.1,0.2,0.2,0.4,0.4
			c0.2,0.5,0.5,1.1,0.8,1.6c2.7,4.8,6.9,8.5,12.1,10.5c0.2,0.1,0.6,0.1,0.8,0.1c0,0,0,0.1,0.1,0.1h0.1l-0.2-0.1
			c-1.3-1.3-2.7-2.7-3.9-4.2c-1.8-2.1-3.5-4.3-5.3-6.6c-1.7-2.3-3.2-4.4-5-6.6c-4.3-5-5.7-11.9-3.8-18.3c1.4-5.4,1.1-11.1-0.8-16.4
			c-1-2.4-2.3-4.5-3.9-6.3c-2.6-3.5-4.2-7.6-4.8-11.9c-0.2-1.7,0.1-3.3,0.7-4.8c1.2-3.3,2.3-6.8,3.3-10.3c0.2-0.6,0.2-1.3,0.1-1.9
			c-0.5-2.1-0.2-4.5,0.8-6.6c2.7-5.6,7.4-8.8,13.4-10.4c0.8-0.1,1.7-0.1,2.5-0.1c0.4,0,0.7,0.1,1.1,0c0.7-0.2,1.4-0.6,2.1-1
			c-0.6-0.4-1.2-0.7-1.9-1c-2.4-0.7-4.9-0.8-7.3-0.4c-2.9,0.5-5.3,2.1-6.7,4.7c-0.6,1-1.1,1.9-1.7,2.7c-1.1,1.8-2.6,3.1-4.5,3.8
			c-0.7,0.2-1.2,0.8-1.2,1.6c-0.4,3.8-2.6,6.3-5.6,8.4c-1.3,1-2.7,1.9-4.2,2.7c-6.1,3.3-9.3,8.6-10.4,15.3c-0.1,0.6-0.2,1.2-0.4,1.8
			c-0.2-0.6-0.5-1.3-0.6-2c-0.1-1.3-0.1-2.7,0.1-4.1c0.7-3.6,0.8-7.2,0.4-10.7c-0.8-6.4,1-12.9,4.9-17.9c1.2-1.4,1.3-3.3,0.5-5
			c-0.7-1.6-1.4-2.4-3.3-2.3c-3.7,0.4-7.4,0.5-11.2,0.8c-0.6,0-1.3,0.1-1.9,0.1c-1.6,0-2-0.4-2.4-1.9c-0.2-1-0.7-1.3-1.7-1.1
			s-2.1,0.2-3.2,0.5c-1.1,0.2-1.4,1-0.6,1.8s1.7,1.6,2.5,2.4c1.8,1.4,2,4.1,0.5,5.8l0,0c-4.2,6.4-12.7,5.6-16.2,2
			c-3.2-3.2-4.8-7.8-3.9-12.3c0.5-3.9,2.3-7.6,5-10.5c0.1-0.2,0.4-0.5,0.5-0.7c-0.2-0.1-0.6-0.2-0.8-0.4c-6.7-0.2-13.4,1.2-19.5,4.2
			c-1.8,0.8-3.2,2.3-4.1,4.1c-2.4,4.2-4.1,8.7-4.8,13.4c-0.2,0.8,0.1,1.8,0.7,2.3c1.2,1.1,2.5,2,3.9,2.9c2.3,1.1,4.9,0.6,6.4-1.3
			c1.8-1.8,2.4-4.7,1.2-6.9c-1.1-2.3-4.3-4.7-7.3-3.8H30c1.9-1.6,4.5-1.7,6.6-0.2c2.4,1.6,3.8,4.3,3.5,7.2c-0.1,2.7-1.8,5.3-4.2,6.3
			c-2.6,1.3-5,0.6-7.3-0.8c-0.7-0.6-1.4-1.2-2.1-1.8c-0.1-0.1-0.4-0.2-0.6-0.2c-0.1,0.2-0.1,0.4-0.1,0.6c0,1.6,0,3,0.1,4.5
			c0.1,0.7,0.5,1.6,1,2.1c2,2.6,2.1,5.6,1.8,8.7c-0.1,0.7-0.5,0.8-1.1,0.5c-2.9-1.4-4.3-4.8-3.2-7.9c0.5-1.3,0.5-2.9,0.2-4.3
			c-0.1-0.2-0.1-0.5-0.1-0.6c0.1-3.5-0.4-7-1.6-10.4c-0.8-2.5-0.5-5.3,1.1-7.4c1.4-2,0.8-4.1,0.4-6.1c-0.2-0.8-0.8-0.6-1.2-0.1
			c-0.6,0.8-1.1,1.7-1.3,2.6c-0.2,1.7-0.4,3.3-0.4,4.9c0,1.1-0.1,2.1-0.2,3.2c-0.8,3-1,6.2-0.4,9.2c0.5,2,0.4,4.1-0.1,6
			c-0.2,0.7-0.5,1.6-0.8,2.3c-2.3,4.4-6.4,4.8-9.4,0.8c-0.2-0.2-0.4-0.6-0.6-1c-2.3-7-3.8-14-0.6-21.2c3.8-8.7,9.4-16.5,16.6-22.8
			c2.6-2.3,5.7-3.8,9.1-4.5c0.2-0.1,0.4-0.1,0.5-0.2c-0.1-0.1-0.4-0.2-0.6-0.4c-2.3-0.8-4.5-1.7-6.9-2.5c-2.5-1-5.3-0.7-7.5,0.6
			c-3,1.4-4.5,4.8-3.9,8c0.1,0.6,0.4,1.1-0.6,0.8l-0.1,0.1c-0.8,2.7-3.6,3.7-5.4,5.6c-0.4,0.4-0.4,0.1-0.5-0.1
			c-0.7-2.9,0.8-5.7,3.7-6.4c0.4-0.1,0.6-0.1,1-0.1c0.7-0.2,1.1-0.2,1.1-1c0.4-6.6,5.7-10.5,12.1-8.8c1.7,0.5,3.2,1.1,4.8,1.9
			c2.3,1,4.8,1.6,7.3,1.7c0.4,0,0.6-0.1,1-0.2c-0.1-0.2-0.2-0.5-0.5-0.6c-2.3-1.9-2.5-4.5-2.7-7.3c-0.2-2.4-0.6-4.8-1.2-7.2
			c-1.2-5.1-7.9-6.9-11.9-4.4c-2.6,1.7-3.8,4.8-3,7.8c0.2,1.8,1.9,2.9,3.7,2.6c1.6-0.2,2.7-1.7,2.6-3.2c0-0.5,0-1,0.1-1.6l0,0
			c1.1,0.6,0.5,2,1.1,2.5s1.9,0.2,2.6,0.6c0.7,0.5,1.2,1.1,1.3,1.8c0.4,1.3,0.7,2.7,1,4.1l0,0c-0.8-0.1-1.6-0.2-2.4-0.2
			c-1.8,0.1-3.5-1.2-3.7-3c-0.2-0.7-0.5-0.7-1.1-0.5c-2.6,1-5.5-0.4-6.4-3.1c-0.1-0.5-0.2-1-0.2-1.6c-0.4-3.5,1.6-6.8,4.8-8.2
			c0.5-0.2,1.1-0.5,1.7-0.6c1.2-0.1,1.1-0.6,0.7-1.6c-1.3-2.5-1.2-5.6,0.6-8c1.8-2.6,5.5-3.3,8.1-1.6c0.8,0.6,1.4,1.3,1.9,2.1
			c0.7,1.3,0.6,3.1-0.4,4.3c-0.1,0.1-0.4,0.2-0.5,0.5c0-0.2-0.1-0.5-0.1-0.7c0-0.2,0.1-0.4,0.1-0.6c0.4-2.5-1.3-4.8-3.8-5.1
			c-2.3-0.4-4.4,1.2-5,3.5c-0.2,1.6-0.1,3,0.1,4.5c0.2,1.3,1.2,2.4,2.5,2.6c3,0.5,5.5,2.4,6.8,5.1c0.2,0.6,0.5,0.2,0.7,0
			c0.7-1.1,1.4-2.1,2.3-3.1c0.7-0.6,0.8-1.6,0.4-2.3c-0.5-1.1-1-2.1-1.3-3.2c-1-1.8-0.1-4.1,1.7-5c0.1,0,0.1-0.1,0.2-0.1l0.7-0.4
			c0.9-0.5,1-1.1,0.4-1.9c-2-2.4-2.3-5.3-2.1-8.1c0.1-4.1,2.1-7.9,5.4-10.4c4.4-3.2,10-2.9,13.6,1.4l0,0c0-2.6-0.1-5.1-0.1-7.8
			c0-2.4,0.2-4.8,0.7-7c0.7-3.3,3.3-6,6.7-6.7c3.6-0.8,5.5,2.3,4.8,5.4c0,0.1-0.1,0.2-0.2,0.4c-0.1-0.1-0.2-0.1-0.2-0.2
			c-0.1-0.5-0.1-1-0.2-1.4c-0.4-1.6-1.8-2.6-3.3-2.5c-1.7,0.1-3.1,0.8-4.1,2.1c-1.4,1.6-2.3,3.6-2.4,5.7c-0.2,1.9-0.1,3.9-0.1,5.8
			c0,0.5,0,1,0.7,1.1c1,0.1,1.8,1,1.9,1.9c0.5,1.6,0.8,3.2,1.3,4.8c0.1,0.6-0.1,0.8-0.7,0.5c-0.6-0.4-1.1-0.5-1.6-0.7l-1.4-0.7v1.6
			c0.6,5.7-0.6,11.2-1.6,16.7c-0.1,0.8-0.4,1.8-0.5,2.7c0.8-0.4,1.7-0.7,2.5-1.1c2.3-1.1,4.4-2.4,6.3-4.1c3-2.7,5.3-6.3,6.6-10.3
			c0.4-0.8,0.1-1.8-0.6-2.4c-0.8-0.7-1.1-1.8-0.5-2.7c0.7-2,1-4.1,0.7-6.2c0-3.1,0.1-6.3,0.2-9.5c0-1,0.1-1.9,0-2.7
			c0-1.1-0.6-2-1.4-2.5c-0.4-0.2-0.7-0.5-1.1-0.7c-0.6-0.5-1.2-1.1-0.5-1.8c0.7-0.7,1.3-0.4,1.9,0.2c0.8,1,2.1,1.6,1.8,3.3
			c-0.1,0.5,0.4,1.2,0.5,1.8c0.6,1.7,1.2,3.3,1.7,5.1c0.1,1,0.7,1.7,1.6,2.1c0.6,0.4,1.2,0.7,1.9,1c2.1,0.8,3.5,3.1,3.2,5.4
			c-0.1,3.8-1.2,7.5-3,10.7c-0.7,1.2-1.3,2.4-1.9,3.6c-1.9,4.4-0.5,7.9,4.1,9.5c1.3,0.4,2.7,0.7,4.2,1c0.2,0,0.4-0.1,0.6-0.1
			c-0.2-0.1-0.4-0.2-0.6-0.4c-3.1-1.1-4.8-3.3-4.4-6.3c0.1-2,1.2-3.9,2.7-5.3c2.7-2.4,6.4-3.2,9.9-2.3c3.3,0.8,5.7,3.7,5.8,7.2
			c0.1,2.3-0.2,4.4-1.1,6.6c-0.7,2-1.7,4.1-2.4,6c-1.2,3.2-1.7,6.6-1.7,10c0,0.4,0.1,0.6,0.1,1c0.1-0.2,0.2-0.5,0.2-0.8
			c0.6-2.5,1.6-4.9,2.9-7.2c0.8-1.6,1.6-3.1,2.4-4.5c2.6-4.8,3.5-10.3,2.1-15.5c-0.7-3.3-1.8-6.6-2.5-9.8c-1.9-8.7-2.9-17.5-1-26.4
			c0.1-0.4,0.1-0.7,0.1-1.1c0-0.2-0.1-0.4-0.2-0.5c-0.1,0.1-0.2,0.1-0.4,0.2c-3.8,3.6-6.7,8.2-8.1,13.2c-1.2,3.7,0,7.9,2.9,10.5
			c1.6,1.6,3,3.1,4.3,4.8c0.4,0.6,0.7,1.3,1,2l0,0c-1.1-1.1-2.3-2-3.3-3.1C93.6,56.3,90,54.1,86,53c-2.6-0.5-4.7-2.5-5.1-5.1l0,0
			c0.2,0.1,0.5,0.4,0.6,0.5c1.6,2,3.7,3.5,6.2,4.1c1,0.2,1.9,0.6,2.9,0.8c-0.2-1-0.4-1.9-0.6-2.9c-0.2-2.1,0-4.4,0.7-6.4
			c0.4-1,0.7-2,1-3l0.1-0.4l-0.1,0.4c-0.6,0.2-1.2,0.5-1.8,0.7c-2.1,0.7-4.4-0.4-5.1-2.5c-0.1-0.2-0.1-0.5-0.2-0.7
			c-0.1-1.1,0.4-2.1,1.3-2.7c0.1,0,0.2-0.1,0.4-0.1c0,0.1,0.1,0.2,0,0.4s-0.2,0.5-0.4,0.7c-0.5,1-0.2,2.3,0.6,3c0.7,1,2,1.2,3.1,0.6
			c3.1-1.9,6.3-5,6-9.5c-0.4-3.3-2.7-5.1-6-4.4c-5,1.2-8.6,5.8-8.4,10.3v1.3l0,0c-1.2-1.8-1.3-4.1-0.2-6c1.6-3.3,4.5-5.7,8-6.7
			c4.4-1.2,7.8,1.3,7.9,6l0.1,1.7c0.5-0.4,1-0.7,1.4-1.2c1.4-1.9,2.9-3.8,4.2-5.7c1-1.2,1.9-2.5,2.9-3.7l0.1-0.1l-0.1,0.1
			c-1.4,0-3-0.1-4.4-0.4c-1.1-0.2-1.2-0.7-0.4-1.4c1.3-1.4,3.2-1.9,5-1.2c2.3,1,3.9,0.1,5.7-1.1c3-2,6.3-3.5,9.9-4.1
			c3.1-0.6,6.2-0.2,9.1,1.1c4.3,1.9,6.3,5.5,7.2,9.9c0.6,3.5,0.6,7-0.2,10.5v0.8l0.6-0.6c2.3-2.5,4.5-5,6.8-7.5
			c0.2-0.2,0.6-0.5,0.8-0.6c0.2,0.4,0.4,0.7,0.5,1.2c0.2,2.1,0,4.3-0.6,6.4c-1,3.1-2.3,6-4.2,8.6c-2,2.6-3.5,5.7-4.1,9
			c-0.7,5.1,2.4,10,7.4,11.5c1,0.2,1.8,0.5,2.7,0.6c1.2,0.4,2.5-0.4,2.9-1.7c0.7-1.8,0.8-3.7,0.4-5.5c-0.2-1.1-0.6-2-0.8-3.1
			c-0.7-2.5,0.5-5,2.9-6.2c2.3-1.1,5-0.5,6.7,1.4c1.7,2,1.9,4.9,0.5,7c-0.6,1.1-1.7,1.7-2.9,1.6c-1.1-0.1-1.9-0.8-2.1-1.9
			c0-0.2,0-0.6,0.1-0.8c0.2,0.1,0.4,0.2,0.5,0.4c0.6,0.8,1.7,1.1,2.5,0.7c1-0.5,1.7-1.4,1.7-2.6c0-2.5-1.9-4.7-4.4-5
			c-2.1-0.1-4.1,1.6-4.3,3.7l0,0c-0.1,0.7,0,1.4,0.2,2.1c0.8,2.6,1,5.4,0.2,8.1c-0.2,1.1,0,1.3,1.1,1.1c4.7-1.3,8.1-5.1,9-9.8
			c0.4-2.5-0.4-5.1-2.1-7c-0.7-0.8-1.6-1.6-2.3-2.4c-3-3.5-3.7-7.4-3-11.8c0.1-0.4,0.2-0.7,0.2-1.1c0.1-0.6-0.1-1-0.8-1l-2.7,0.1
			c0.2,0.8,0.6,1.7,0.8,2.5c1.6,2.7,2.1,5.8,1.8,9c-0.2,2.1-1.2,4.2-2.9,5.7c-2.4,2.3-6.2,2.4-8.6,0.1c-0.1-0.1-0.2-0.2-0.4-0.5h0.6
			c1.4,0.5,2.9,0.7,4.4,0.7c3.2-0.4,5.6-3.5,5.8-7c0.1-2.1-0.5-4.3-1.6-6.2c-0.6-1.2-1.3-2.1-2-3.3c-0.5-0.8-0.8-1.7-1.2-2.5
			c-0.6-1.9,0.1-2.6,2-2.1c1.2,0.2,2.4,0.5,3.6,0.7c0.2,0,0.5-0.1,0.7-0.2c-0.1-0.2-0.1-0.4-0.2-0.6c-0.7-0.8-1.6-1.7-2.3-2.6
			c-0.5-0.6-1.3-0.7-1.9-0.2c-1.8,1-2.9,0.7-3.9-0.2c-1.1-1.2-1.2-2.9-0.4-4.2c0.6-0.7,1.3-1.4,2-2.1c0.8-0.7,1.6-1.7,2.1-2.6
			c0.6-1.1,0.2-2.5-0.8-3.1c-0.2-0.1-0.5-0.2-0.8-0.2c-0.6-0.2-1.7-0.2-2.6,0c-3.9,1.1-6.8,4.4-7.3,8.5v0.6
			c-0.1,0.1-0.1,0.4-0.2,0.5c-0.1-0.1-0.4-0.2-0.4-0.5c-0.8-2.1-0.7-4.7,0.4-6.7c1.2-2.1,3-3.9,5.1-5.1c3.7-2.1,8.1-2.6,12.1-1.2
			c3.8,1.3,5.6,3.8,5.5,7.8c0,1.4-0.2,2.9-0.5,4.3c-0.1,1.3-1,2.5-2.1,3c-0.8,0.2-0.8,0.8-0.8,1.6v0.2c1.3,3.2,0.7,6.4-0.4,9.7
			c-0.1,0.6-0.2,1.3-0.2,1.9c0,0.7,0,1.4,0.1,2.1l0.7-1.8c1-3,3.7-4.9,6.8-4.9c3.2-0.2,6.2,1.6,7.5,4.5c0.2,0.5,0.5,1.1,0.7,1.6
			c0.2-0.5,0.5-1.1,0.7-1.6c0.7-1.8,2.4-2.4,3.8-3.3c0,0,0.5,0.4,0.4,0.5c-0.2,1.1-0.6,2.1-1.1,3.2c-0.7,1.1-1.6,1.9-2.6,2.6
			c-0.6,0.4-0.8,1.1-0.6,1.7c0.1,0.6,0.4,0.8,0.8,0.5l0.4-0.2c4.3-3.6,7.9-7.6,9.8-13c0.5-1.4,0.7-3,0.7-4.4
			c0.4-5.5-4.4-10-10.6-9.5c-1.1,0.1-2.1,0.4-3.1,0.7c-6.8,2.6-6.7,9.1-2.7,13.1c0.4,0.4,0.8,0.7,1.3,1.2c-0.6,0-1.2,0-1.8-0.1
			c-5.1-1.2-7-5.3-5.7-10.5s5.4-8.4,10.5-9.3c6.9-1.3,14.1,0.6,19.3,5.4c1.3,1.3,2.4,2.6,3.3,4.2c0.5,0.7,0.8,1.3,1.9,1.7
			c0.7,0.4,1.3,0.8,1.8,1.6c0.4,0.6,0.8,1.3-0.5,1.6c-0.8,0.2-0.6,0.8,0,1.3c0.6,0.5,1,0.6,1.4,0.8c0.7,0.4,1.1,1.1,0.7,1.8
			c0,0.1-0.1,0.2-0.2,0.4c-0.5,0.8-1,1.8-1.4,2.6c1,0.2,1.8,0.6,2.7,1.1c1.1,0.6,2,1.3,2.9,2.1c0.6,0.6,0.4,1.2-0.4,1.4
			c-1,0.2-1.8,0.4-2.7,0.4c-1.6,0-3,0.4-4.3,1.1c-1.8,0.7-2.6,2.7-1.9,4.4c0.1,0.4,0.4,0.8,0.7,1.1c1.7,2,4.1,3.2,6.6,3.3
			c0.7,0.1,1.4,0,2.1,0c3.9,0.2,6.3-1.9,7.8-5.3c0.1-0.2,0.1-0.4,0.2-0.6c-0.2,0-0.5,0.1-0.7,0.1c-1.3,0.6-2.5,1.2-3.8,1.8l0,0
			c0.6-0.5,1.1-0.8,1.7-1.3c3.3-2.4,5.6-6.1,6.3-10.1c0.6-3.8-1.6-7.4-5-9c-1.8-0.7-3.8-0.5-5.4,0.6c-1.2,0.8-2.1,1.8-3.3,2.7
			c-0.2,0.1-0.4,0.2-0.6,0.2c0-0.2,0.1-0.4,0.2-0.6c1.8-2.1,3.9-4.1,6.3-5.6c5.1-3,11.8-1.3,14.9,3.9c0.8,1.3,1.3,2.9,1.4,4.5
			C224.4,31.4,223.9,35.3,222.6,39L222.6,39L222.6,39z M158.6,36.4l0.5-0.4c0.4-0.1,0.7-0.2,1-0.4c1.2-0.7,2.7-1,4.2-0.7
			c1.9,0.5,3.5,1.9,4.2,3.7c1.1,2.6,1.4,5.6,0.8,8.5c-0.5,3.7-1.9,7.2-4.2,10c-0.1,0.2-0.2,0.5-0.4,0.7c0.2-0.1,0.5-0.2,0.7-0.5
			c1.7-1.6,3.1-3.3,4.2-5.5c2.3-4.7,2.7-9.5,0.6-14.3c-1.2-2.6-3.8-4.3-6.7-4.2c-1.8,0.1-3.6,0.7-4.4,2.5L158.6,36.4l-0.1,0.2
			L158.6,36.4C158.6,36.4,158.6,36.4,158.6,36.4z M105.1,24.6l0.4-0.4l0.5-0.4l0.4-0.4l0.5-0.5l0.5-0.5l0.4-0.1l-0.4,0.2l-0.5,0.5
			l-0.5,0.4l-0.4,0.5l-0.5,0.4l-0.5,0.4h-0.1C104.9,24.8,105.1,24.6,105.1,24.6z M140.5,12.7l-0.5,0.5h-0.1V13L140.5,12.7l0.4-0.5
			c0.6-0.2,1.2-0.5,1.8-0.6c1.4-0.5,2.9-0.8,4.4-0.8c4.5,0.4,4.8,4.1,3.2,6.7c-0.5,0.6-1.1,1.1-1.8,1.6c-0.7,0.5-1.3,1.1-1.9,1.7
			c-0.5,0.5-0.4,1.3,0.1,1.8c0.5,0.5,1.2,0.7,1.8,0.4c0.1,0,0.2-0.1,0.4-0.2c0.7-0.7,1.9-1,2.7-0.4c0.1,0.1,0.2,0.1,0.4,0.1
			c0.8,0,1.2-0.5,1.3-1.2c0.2-1-0.6-0.5-1-0.7c-0.5-0.2-0.8-0.5-1.3-0.7c-0.5-0.4-1-0.8-0.5-1.4c0.4-0.6,1.1-0.8,1.7-0.6
			c1.2,0.5,2.4,1.1,2.5,2.6c0,1.1,0.5,0.8,1.2,0.5c2.7-1.6,3.8-5,2.3-7.9c-0.4-0.7-0.8-1.3-1.4-1.8c-4.5-3.8-12.5-2.5-15.8,1.2
			L140.5,12.7C140.5,12.7,140.5,12.7,140.5,12.7z M157.7,128.7l-0.4,0.5l-0.1,0.1v-0.1L157.7,128.7l0.4-0.5c0.6-0.2,1.2-0.7,1.7-1.1
			c1.7-2.3,3.3-4.4,4.9-6.8c1.1-1.7,1.8-3.5,2.7-5.1c1.2-2.6,3.2-4.9,5.6-6.3c0.5-0.2,0.8-0.6,1.2-1c5.4-5.3,11.5-9.7,18.3-12.9
			c0.4-0.1,0.6-0.2,1-0.5c0.1-0.1,0.2-0.2,0.2-0.4c-0.1-0.1-0.4-0.2-0.5-0.2c-1.4,0-2.9,0-4.3,0.2c-6.7,0.7-12.3,3.6-16,9.4
			c-2.1,3.5-4.1,7.2-6,10.7c-2.6,4.9-5.1,9.9-8.8,14.1L157.7,128.7L157.7,128.7L157.7,128.7z M273.7,259.5l0.4-0.5l0.1-0.1v0.1
			L273.7,259.5l-0.4,0.5c-0.7,0.4-1.3,0.7-1.9,1.1c-4.4,3.5-9.5,6-15,7.2c-0.7,0.1-1.4,0.4-2.1,0.6c0.7,0.2,1.4,0.6,2.1,0.8
			c0.6,0.2,1.2,0.4,1.9,0.4c2.7,0.1,5.4-0.2,7.4-2.3c2.6-2.6,5-5.3,7.6-8L273.7,259.5z M153.4,130.8l-0.4,0.5h-0.1v0.1l0.1-0.2
			L153.4,130.8l0.5-0.6c1.6-0.6,2.9-1.8,3.5-3.5l0.5-0.4c0.7-0.6,1.3-1.3,1.8-2c1.8-2.9,3.5-5.6,5-8.6c2.4-4.3,4.7-8.8,7.2-13
			c1.8-3.1,4.4-5.5,7.6-7.2c0.2-0.1,0.5-0.4,0.7-0.6c-0.2,0-0.6,0-0.8,0.1c-9.2,2.3-16.1,9.8-17.7,19.1c-0.6,4.3-1.2,8.4-3.8,11.9
			v0.2l-0.5,0.4l-3.5,3.5L153.4,130.8L153.4,130.8z M32.5,240.4l0.5,0.5c3.5,3.7,7.4,6.9,11.7,9.7c3,1.7,6.3,2.4,9.8,2
			c0.2,0,0.4-0.1,0.6-0.2c-0.2-0.1-0.4-0.2-0.6-0.2c-2.3-0.6-4.5-1.3-6.7-2.3c-4.9-2.3-9.5-5.1-13.7-8.5c-0.4-0.2-0.7-0.4-1.1-0.6
			L32.5,240.4l-0.5-0.5l-1.3-1.3l-0.5-0.5V238h0.1l0.5,0.5c0,0.8,0.5,1.2,1.2,1.3L32.5,240.4C32.5,240.4,32.5,240.4,32.5,240.4z
			 M151.2,147.8l-0.4-0.5c-0.1-0.5-0.4-1-0.6-1.3c-2.6-3.8-6.4-6.4-10.9-7.8c-4.5-1.3-9.3-1.1-14-0.6c-1.2,0-2.4,0.2-3.6,0.7
			c-2.9,1.3-5.6,2.9-8.4,4.4c-1.2,0.8-2.3,1.9-3.2,3.1c-0.8,1-1.7,2-2.4,3c-0.4,0.4-0.4,2.5,0,2.5c0.6-0.1,1.2-0.4,1.6-0.7
			c1-1,1.9-2,2.7-3.1c1-1.2,1.7-2.5,2.6-3.7c1.6-2,3.8-3.5,6.3-3.8c3.6-0.7,7.4-0.2,10.7,1.3c0.6,0.4,1.3,0.5,2,0.5
			c5.7-0.7,10.7,1.2,15.4,4.4c0.6,0.4,1.2,0.7,1.8,1.1l0.5,0.4v0.1C151.6,147.8,151.2,147.8,151.2,147.8z M167.2,295l-0.8,0.4
			c-0.7,0.1-1.4,0.2-2,0.5c-7.6,2.6-15.8,3.5-23.8,2.5c-7.2-0.7-13.8-3.6-19.5-8.1c-3.8-3.2-8.2-5.7-13-7.4
			c-1.3-0.4-2.6-0.6-3.9-0.6c-0.2,0-0.6,0.1-0.8,0.2c0.2,0.2,0.5,0.5,0.8,0.6c7.4,3,14.2,7,21,11c3.7,2.3,7.5,4.2,11.6,5.7
			c3.7,1.4,7.6,2.1,11.6,1.9c6.3-0.5,12.4-2.5,17.8-6c0.1-0.1,0.2-0.4,0.4-0.5L167.2,295l0.1-0.2L167.2,295L167.2,295L167.2,295z
			 M178.1,88.9l-0.5,0.2h0.1C177.9,88.9,178,88.9,178.1,88.9l0.8-0.5c0.5,0,1,0,1.4-0.1c3.9-1.2,8.1-1.6,12.2-1.3
			c2.4,0.1,4.8,0.1,7.2,0.1c3,0,5.8-0.7,8.5-2c2-1,3.7-2.6,4.7-4.7c0.7-1.6,0.8-3.5,0.1-5c-1.7-3.8-7.9-4.8-10.4-3.5
			c-1.2,0.6-1.8,2-1.4,3.3c0.2,1.4,1.4,2.6,2.9,2.7c0.2,0,0.4-0.2,0.6-0.2c-0.1-0.1-0.2-0.2-0.4-0.4c-1.3-1.1-1.7-1.8-1.2-2.9
			c0.6-1.2,1.8-1.8,3-1.6c2,0.2,3.7,1.9,4.1,3.9c0.6,2.5-0.7,4.9-3,6c-2.3,1.2-4.9,1.2-7.4,1.3c-3,0.1-5.8,0.2-8.8,0.7
			c-4.2,0.6-8.2,1.8-12.1,3.8L178.1,88.9C178.1,88.9,178.1,88.9,178.1,88.9z M128.8,232.5l0.4,0.1L128.8,232.5
			c-0.8-1.6-2.4-2-3.8-2.9l-0.5,0.4c0.2,0.4,0.4,1,0.7,1.2C126.4,231.8,127.6,232.1,128.8,232.5L128.8,232.5L128.8,232.5z
			 M174.2,262.9l-0.6-0.1L174.2,262.9c2.7,1.4,5.8,2,8.8,1.7c0.2,0,0.5-0.1,0.6-0.1c-0.2-0.1-0.4-0.1-0.6-0.2L174.2,262.9
			L174.2,262.9L174.2,262.9z M174.6,265.4c-0.1-0.1-0.2-0.1-0.4-0.2c-0.1-0.1-0.1,0-0.1,0.1L174.6,265.4c1.8,2.1,3.1,2.6,5.5,1.6
			c0.1,0,0.1-0.2,0.2-0.2c-0.1-0.1-0.2-0.2-0.5-0.2C178.1,266.2,176.4,265.8,174.6,265.4L174.6,265.4L174.6,265.4z M19,159.3
			c-1.7,0.8-3.7,0.8-5.4,0c-0.4-0.1-0.7-0.5-1.1-0.6h-0.4c0,0.1,0,0.2,0.1,0.4c0.7,1.2,1.9,2,3.2,2.4
			C17.1,161.8,18.6,160.9,19,159.3C19,159.3,19,159.3,19,159.3z M104.6,69.5l-0.2-0.4L104.6,69.5c0.6,3.5,1.1,6.9,0,10.4
			c-0.1,0.6,0.2,0.6,0.6,0.4c1.6-0.8,3.2-1.2,5-1h0.6c0-0.2-0.1-0.5-0.2-0.7c-1.9-3-3.8-6-5.7-8.8C104.8,69.5,104.7,69.5,104.6,69.5
			L104.6,69.5z M145.2,281.5v-0.2l-0.1-0.1L145.2,281.5c3.9,2.1,7.8,4.5,11.6,6.6c3.7,2.1,8,3.2,12.3,3.2c0.1,0.1,0.1,0.2,0.2,0.2
			h0.1l-0.5-0.2c-0.1-0.1-0.2-0.2-0.5-0.4l-21.6-9.1C146.4,281.8,145.8,281.7,145.2,281.5L145.2,281.5L145.2,281.5z M155.2,140.8
			l-0.1-0.1L155.2,140.8c1.2,1.4,2.4,2.9,3.3,4.4c3.3,5,5.1,11.1,5,17.2c0,0.2,0,0.5,0.1,0.7c0-0.2,0.1-0.4,0.1-0.6
			c1-4.9,0.4-9.9-1.7-14.3C160.8,145,158.3,142.4,155.2,140.8L155.2,140.8L155.2,140.8z M243.7,285c4.3-1.8,8.1-4.3,11.3-7.6
			c0.6-0.6,1.2-1.3,1.8-2c-1-0.1-1.9-0.2-3-0.2c-0.6,0.1-1.1,0.4-1.6,0.7c-1,0.7-1.8,1.4-2.6,2.3c-1.9,2-3.7,4.1-5.5,6
			C244.1,284.3,244,284.7,243.7,285l-0.2,0.2L243.7,285L243.7,285L243.7,285z M89.9,159.8c1.7-1.3,3.2-2.9,5-4.1
			c2.6-1.8,5.5-3.3,8.2-5.1c1.7-1.2,3.2-2.5,4.9-3.8c0.1-0.1,0.2-0.4,0.4-0.6c-0.2,0-0.5,0.1-0.7,0.1c-1.9,1.1-3.7,2.1-5.6,3.1
			c-2.3,1.2-4.7,2.1-6.9,3.5C92.3,154.2,90.4,156.8,89.9,159.8l-0.2,0.2h0.1C89.9,160,89.9,159.9,89.9,159.8L89.9,159.8z
			 M93.8,152.1c3.3-1.6,6.7-3.1,9.9-4.8c1.7-1,3.3-2,4.8-3.2c1.1-0.8,1.8-2,2-3.5c0-0.2,0-0.6-0.1-0.8c-0.2,0.2-0.5,0.4-0.6,0.6
			c-0.8,1-1.7,1.8-2.6,2.5c-1.7,1-3.3,1.8-5,2.4c-3.1,1.1-5.8,3.1-7.8,5.8C94.1,151.3,94,151.7,93.8,152.1l-0.2,0.1h0.1
			C93.7,152.2,93.8,152.2,93.8,152.1C93.8,152.1,93.8,152.1,93.8,152.1z M107.1,122.7L107.1,122.7c0.4,0.5,0.7,1.1,1.1,1.7
			c3,6,2.4,12.3-3.9,16.1c-1.6,0.8-3,1.6-4.7,2.3c-1.4,0.7-3.1,1-4.1,2.5h-0.2c0,0,0,0.1-0.1,0.1l0.2-0.2c3.2-1.1,6.4-2.3,9.8-3.3
			c3-1,5.3-3.6,5.7-6.7c0.7-3.3,0.2-6.8-1.2-9.9c-0.5-0.8-1-1.6-1.7-2.3C107.9,122.8,107.4,122.8,107.1,122.7z M134.4,38.6
			c0.6-1.1,1.2-2.1,1.6-3.2c1-3.8,1-7.9-0.2-11.7c-1.2-5-5.7-8.5-10.9-8.5c-3.9-0.1-7.9,1-11.2,3.1l-0.1,0.1v-0.1
			c0.7-0.1,1.6-0.2,2.3-0.5c3.2-0.8,6.6-1.2,9.9-0.8c4.5,0.4,8.4,3.6,9.4,8c1,3.8,0.8,7.8-0.2,11.6C134.8,37.1,134.7,38,134.4,38.6
			l-0.2,0.2h0.1C134.3,38.8,134.4,38.7,134.4,38.6L134.4,38.6L134.4,38.6z M101.1,284.5l0.5,0.1L101.1,284.5
			c-0.6-0.2-1.2-0.6-1.8-0.8c-2.5-0.8-5.3-1.1-7.9-0.8c-4.4,0.4-8.8-0.1-13-1.6c-1.4-0.5-3-1-4.5-1.4c-0.6-0.1-1.3-0.2-1.9-0.2
			c-0.2,0-0.5,0.2-0.7,0.2c0.1,0.2,0.4,0.4,0.6,0.5c5.1,2.7,10.9,4.2,16.7,4.3C92.9,284.5,96.9,284.5,101.1,284.5L101.1,284.5z
			 M187.5,291.1l0.2,0.2h0.1L187.5,291.1c0,0,0-0.2-0.1-0.2c-2.5-1.8-5-3.7-7.4-5.5c-1.7-1.2-3.7-1.7-5.7-1.3
			c-1.7,0.2-3.3,0.7-5,1.2c-0.2,0.1-0.5,0.4-0.8,0.6c0.2,0.1,0.5,0.2,0.7,0.4c4.1,1.3,8.2,2.6,12.3,3.8
			C183.5,290.3,185.5,290.6,187.5,291.1L187.5,291.1L187.5,291.1z M136.2,57.6l0.1,0.6l0.1-0.1C136.4,58.1,136.2,57.8,136.2,57.6
			v-1.2c-0.5-2.1-0.2-4.5,0.7-6.6c0.8-2,1.9-4.1,3-6c1.2-2.4,2.9-4.5,3.8-6.9c0.6-1.8,1-3.7,1.1-5.6c0-0.2-0.2-0.5-0.4-0.7
			c-0.2,0.1-0.4,0.2-0.6,0.4c-1.3,1.4-2.7,3-4.1,4.5c-2.7,3-4.3,6.8-4.7,10.7c-0.1,3.3,0,6.6,0.2,9.9C135.5,56.6,136,57,136.2,57.6
			L136.2,57.6L136.2,57.6z M149.1,137.8l-0.1-0.2v0.1L149.1,137.8c1.7,2,2.9,4.4,3.5,7c0.4,1.4,1,2.7,1.3,4.1
			c0.5,1.6,1.3,3.1,2.4,4.3c2.1,2.4,3.9,5.1,5.1,8.2c0.1,0.2,0.2,0.6,0.2,0.8c0.1,0.1,0.2,0.2,0.4,0.2s0.2-0.1,0.2-0.2V162
			c0.1-9.8-3.8-17.5-11.6-23.4C150.3,138.1,149.7,138,149.1,137.8C149.1,137.8,149.1,137.8,149.1,137.8z M83.9,272.8L83.9,272.8
			c-1.7-1.3-3.2-2.9-4.5-4.5c-4.3-5.6-9.9-8.8-16.5-10.7c-1.4-0.2-3-0.4-4.4-0.2c-0.2,0-0.4,0.2-0.6,0.4c0.2,0.2,0.5,0.4,0.7,0.5
			c2.1,0.8,4.2,2,5.8,3.6c1.3,1.2,2.7,2.4,4.1,3.5c2.9,2.5,6.1,4.5,9.5,6.1C79.9,272.1,81.8,273.1,83.9,272.8L83.9,272.8z
			 M74.9,284.5L74.9,284.5c0.2,0.4,0.5,0.6,0.7,1c2.7,2,5.7,3.8,9,5.1c2,0.8,4.2,1.1,6.3,0.7c2.1-0.4,4.3-0.8,6.3-1.2
			c4.5-1.2,9.4-0.8,13.7,0.8c1.1,0.5,2.3,0.8,3.5,1.2c0.7,0.1,1.6,0.2,2.3,0.2l0.2,0.1l-0.2-0.1c-1-1.4-2.4-2.5-4.1-3
			c-2.3-0.8-4.8-1.4-7.2-1.7c-4.3-0.4-8.6-0.5-12.9-0.5C86.6,287.4,80.6,286.4,74.9,284.5L74.9,284.5L74.9,284.5z M160.4,59.8
			c4.8-3.3,7-8.1,7.8-13.7c0.5-2.6,0-5.3-1.2-7.5c-0.6-1.3-1.8-2.3-3.2-2.5c-2.1-0.2-4.2,1-5,3c-1.3,2.5-1.2,4.2,0.4,5.8
			c0.4,0.4,0.8,0.8,1.2,1.3c3.1,3.2,3.6,8.2,1.1,11.9C160.9,58.7,160.7,59.3,160.4,59.8h-0.1l-0.1,0.1L160.4,59.8L160.4,59.8
			L160.4,59.8z M103.7,63.9l-0.1-0.4L103.7,63.9c2,4.9,4.8,9.4,8.1,13.4c3.2,3.7,6.8,7.2,10.4,10.6c1.8,1.8,4.3,1.7,6.6,0.1
			c1.7-1.2,3.3-2.3,5-3.5l0.5-0.4c-0.2-0.1-0.4-0.4-0.6-0.5c-1.7-0.5-3.3-0.8-5-1.4c-5.5-1.8-10.7-4.1-15-8.1
			c-3.2-3.1-6.1-6.6-9.1-9.8C104.2,64.2,104,64,103.7,63.9C103.7,63.9,103.7,63.9,103.7,63.9z M153.5,257.3l0.6,0.1L153.5,257.3
			c-0.6-0.4-1.1-0.6-1.7-0.8c-1.8-0.5-3.7-0.7-5.5-1c-5.5-0.4-11-0.7-16.5-2.1c-9.1-2.4-16-7.5-20.2-16.1c-0.4-0.8-0.7-1.6-1.1-2.4
			c-0.1-0.2-0.4-0.4-0.6-0.5c-0.1,0.1-0.2,0.2-0.4,0.5s-0.2,0.5-0.4,0.8c-1.6,6.3,1.4,13.5,7,15.9c1.9,0.7,3.8,1.4,5.7,1.8
			c5.8,1.3,11.8,2.5,17.7,3.7c0.6,0.1,1.2,0.1,1.7,0c2.7-0.1,5.6-0.4,8.4-0.2C149.8,256.7,151.7,257.1,153.5,257.3L153.5,257.3z
			 M115.8,74.1l0.4,0.2L115.8,74.1c-0.4-1.2-0.8-2.1-1.2-3.3c-2.3-6.2-2.6-12.5,0.2-18.7c0.7-1.7,1.6-3.2,2.3-4.9
			c0.5-1.3,1.1-2.6,1.7-3.9c1-1.4,1.4-3.2,1.1-4.9c-0.4-1.3,0.2-2.7,1.3-3.7c1-0.8,1-1.2-0.2-1.9c-1.6-1-2.1-0.6-2.4,1.2v0.8
			c-0.2,3.1-1.4,6.1-3.6,8.4c-1.4,1.3-2.7,2.7-3.9,4.3C104.2,56.2,107.2,68.1,115.8,74.1C115.8,74.1,115.8,74.1,115.8,74.1z
			 M33.7,243.5v-0.2h-0.1L33.7,243.5c1.2,2.7,2.9,5.3,5,7.5c3,3.5,7.4,5.5,11.9,5.5c7.9,0.1,15.6-0.5,23.4-1.9c4.1-1,8.4-1,12.4,0
			l3.5,1c-0.8-1.1-1.6-2.1-2.4-3.1c-3.6-3.9-7.9-6.6-13.2-6.8c-5-0.2-10-0.1-15-0.1c-0.2,0-0.5,0-0.6,0.1c-0.2,0.1-0.4,0.1-0.6,0.2
			c0.2,0.1,0.4,0.2,0.6,0.2c3.7,0.2,7.3,0.4,11,0.6c4.3,0.2,8.6,0.7,12.7,2.5c1.2,0.6,2.3,1.3,3.3,2c0.1,0.1,0.1,0.4,0.2,0.5
			c-0.1,0-0.2,0.1-0.4,0.1c-0.4,0-0.7-0.1-1.1-0.1c-5.3-1.1-10.6-1-15.8,0.5c-4.1,1.1-8.1,1.8-12.3,2.1c-6.1,0.8-12.2-1.2-16.6-5.5
			C37.7,246.7,35.7,245.1,33.7,243.5L33.7,243.5L33.7,243.5z M248.5,147.6L248.5,147.6c0.2,0.7,0.6,1.4,0.8,2.1
			c1.7,2.5,3.9,4.4,6.7,5.6c2.7,1.2,5.7,2,8.7,2.4c9.2,1.2,17.1-1.2,22.9-8.6c5.4-6.3,8.8-14.1,10.1-22.3c0.1-1.4,0-2.9-0.2-4.3
			c0-0.1-0.1-0.2-0.2-0.2c-0.1,0-0.2,0.1-0.4,0.2c-0.8,1.3-1.6,2.7-2.1,4.2c-1.1,2.9-1.8,5.8-2.7,8.8c-1.9,5.8-4.9,10.7-10.1,14.3
			c-5.8,3.8-12.3,4.7-19,4.1C257.5,153.7,252.3,151.5,248.5,147.6L248.5,147.6z M108,89.8L108,89.8c-0.7,1.3-1.1,1.6-2.3,1.2
			c-1.7-0.4-3.1-1.7-3.6-3.3c-0.1-0.2-0.2-0.4-0.4-0.6l-0.4,0.4c-2.1,3.8-4.3,7.6-4.4,12.3c0,0.4,0,0.6,0.1,1
			c0.2-0.2,0.4-0.4,0.5-0.6c1.1-2.5,3.1-3,5.5-3c1,0,1.1,0.4,0.7,1.2c-0.6,1.1-1.1,2.3-1.6,3.3c-0.6,1.4-2,2.5-3.6,2.7
			c-1.6,0.2-1.6,0.4-1.4,1.8c0.1,0.7,0.2,1.4,0.4,2.1c0,0.1,0.1,0.2,0.1,0.4c0.1-0.1,0.5-0.2,0.5-0.4c1.2-3.1,3.9-4.8,6.4-6.4
			c2.3-1.4,4.5-3.1,6.7-4.8c1.4-1.2,2.6-2.6,3.7-4.2c2.7-4.3-0.2-9.9-3.5-11.6c-1.9-1.1-4.3-1-6.1,0.4c-1.7,1.1-2.5,2.9-2.3,4.8
			c0.1,1.9,1.6,3.3,3.5,3.5C107.2,89.8,107.7,89.8,108,89.8L108,89.8L108,89.8z M159.6,64.7c-0.4,0.1-0.8,0.1-1.2,0.4
			c-3.9,2.3-8.1,4.2-12.4,5.5c-0.5,0.1-1,0.4-1.4,0.6c-1.3,0.5-2.1,1.8-2,3.2c0.1,1.3,0.1,2.7,0,4.1c-0.1,1.8,0.7,3.5,2.1,4.4
			c0.6,0.4,1.3,1.3,1.2,1.8c-0.2,1.6,0.6,2.3,1.6,3.1c1,0.8,1.9,1.7,3,2.5c1,1,2.4,1.3,3.8,1c2.9-0.6,5.8,0.2,8.1,2.1
			c1.2,0.7,1.9,2,2,3.5c0,0.7,0.2,1.4,0.2,2.1c0.5-0.6,1-1.2,1.4-1.9c0.1-0.2,0.2-0.4,0.4-0.6c1.6-2.5,0.4-4.2-1.2-5.5
			c-0.6-0.5-1.3-0.8-2-1.2c-1.6-0.8-3.1-1.6-4.5-2.5c-6.7-4.2-6.9-10.4-4.1-15.8c1.6-2.4,3.2-4.8,5-6.9V64.7
			C159.6,64.7,159.6,64.7,159.6,64.7z M205.3,285.5c0.1,0.1,0.2,0.1,0.4,0.2c0.1,0,0.2,0.1,0.4,0.1c-0.1-0.1-0.2-0.1-0.4-0.1
			L205.3,285.5c-0.2-0.1-0.5-0.2-0.7-0.4c-3.8-1.6-7.6-2.9-11.5-4.4c-5.6-2.3-10.9-5.3-15.8-9c-2.4-1.8-4.9-3.5-7.5-5.1
			c-3.5-2.4-8.1-2.4-11.6,0c-2.3,1.3-4.4,2.7-6.6,4.1c-2.9,2-6.1,3.3-9.5,3.8c-1.9,0.2-3.8,0.4-5.8,0.6c-0.2,0-0.5,0.1-0.6,0.1
			c0.1,0.1,0.4,0.4,0.6,0.4c3.6,1.1,7.3,1.7,11,1.8c4.4,0.4,8.8-0.6,12.8-2.6c2-1.1,4.2-1.9,6.4-2.5c3.5-1.2,7.2-0.6,10.1,1.4
			c1.2,0.7,2.3,1.4,3.3,2.3c3.9,3.1,8.5,5.5,13.4,6.8C197.2,284.1,201.1,285,205.3,285.5L205.3,285.5L205.3,285.5z M47.5,117.8
			c-4.8,3.1-9,7.2-12.3,11.7c-0.1,0.1-0.2,0.4-0.4,0.6c0.2,0,0.5-0.1,0.7-0.1c6.3-3.1,13.2-4.7,20.3-4.3c1.3,0.1,2.5-0.2,3.7-0.8
			c1.3-0.7,2.7-1.3,4.2-1.8c0.7-0.2,1.4-0.4,2-0.6c-0.6-0.4-1.2-0.8-1.9-1.2c-4.1-2.5-4.7-7-1-10c3.7-3.1,7.3-5.4,12.3-4.5
			c0.6,0.1,1.2-0.2,1.3-0.8c0.6-1,0.4-2.1-0.4-3c-0.4-0.4-0.8-0.8-1.2-1.2c-1.2-1.3-1.2-1.6,0-2.7c0.8-1,0.8-1.2-0.1-2v-0.4
			c-2.6-2.4-3.8-2.3-5.6,0.7c-0.8,1.6-1.6,3.1-2.1,4.7c-1.7,4.7-5.1,8.5-9.7,10.5c-1.4,0.6-2.9,1.3-4.3,2c-0.4,0.1-0.8,0.4-1.1,0.6
			s-0.5,0.7-0.4,1.1c0.8,1.9-0.1,3.3-1.4,4.7c-0.7,0.7-1.4,1.4-2.1,2.1c-0.5,0.5-0.8,0.2-0.8-0.4C47.3,120.9,47.5,119.4,47.5,117.8
			C47.5,117.8,47.5,117.8,47.5,117.8z M108.2,67.1L108.2,67.1c-0.2-0.4-0.4-0.8-0.6-1.3c-2.7-6.2-1.8-13.4,2.4-18.6
			c1.2-1.4,2.4-2.9,3.7-4.3c2-2.1,3.3-4.9,3.7-7.9c0-0.6,0-1.2-0.1-1.8c-0.4,0.5-0.7,1.1-1,1.6c-1,3.7-6.1,4.9-9,2.9
			c-0.7-0.7-1.4-1.6-1.9-2.5c-0.1-0.1,0-0.4,0.1-0.6c0.1,0.1,0.4,0.2,0.5,0.4c1,1.2,2.3,2,3.7,2.4c2.4,0.7,3.5,0.2,4.4-2
			c0.4-0.7,0.6-1.4,0.8-2.3c0.4-0.7,0.7-1.4,1.1-2c-0.7,0.2-1.3,0.6-2,0.8c-0.2,0.2-0.6,0.4-0.8,0.4c-1,0.1-1.4-0.6-1.1-1.6
			c0.1-1,1.1-1.6,2-1.3c0.2,0,0.4,0.1,0.5,0.2c1,0.4,1.9,0.4,2.1-0.6c0.1-0.6-0.5-1.3-0.8-2c-0.1-0.1-0.4-0.2-0.5-0.4
			c-3.3-1.6-7.4-1.2-10.4,1.1c-1.9,1.8-3.3,4.1-3.8,6.7c-1.1,4.4-0.8,8.8-0.7,13.4c0,0.2,0.1,0.4,0.1,0.6c0.2-0.1,0.4-0.4,0.5-0.6
			c0.6-1.6,1.8-2.7,3.2-3.3c0.2,0,0.6,0.1,0.8,0.2c0,3,0,6-2.9,8c-0.8,0.5-1.3,1.1-1.1,2C102.2,59.3,104.6,63.7,108.2,67.1
			C108.2,67.1,108.2,67.1,108.2,67.1z M212.6,150.4c5.8-2,8.8-6.3,9.5-12.4c0.5-4.1,0.1-7.8-2.9-10.9c-0.7-0.7-1.4-1.4-2.3-2
			c-1.7-1.4-2.9-3.2-3.6-5.3c-0.4-1.2-1-2.3-1.7-3.2c-7.4-9.2-17.1-12.7-28.5-10.5c-6.9,1.2-12.5,4.9-15.8,11.5
			c-0.2,0.6-0.6,1.2-1,1.7c-3.3,6-7.4,11.3-13.6,14.7l-0.1,0.1v-0.2c1.7,0.2,3.1-0.6,4.4-1.3c4.5-2.5,8.4-6,11.2-10.3
			c1.3-1.8,2.4-3.8,3.6-5.6c1.4-2.3,3.7-4.1,6.2-5.1c2.7-1.2,5.7-1.7,8.7-1.4c9.3,0.6,17.3,4.5,24.3,10.5c1,0.8,1.8,1.7,2.5,2.6
			c3.6,4.4,5.5,9.4,4.7,15.3c-0.7,3.8-2.3,7.3-4.8,10.3C213.4,149.2,213.1,149.8,212.6,150.4L212.6,150.4L212.6,150.4L212.6,150.4z
			 M93.8,117.4l0.2,0.2h0.1L93.8,117.4c-0.4-0.1-0.7-0.4-1.1-0.5c-4.2-1.3-7.8-4.1-9.9-7.9c-0.4-0.5-0.7-1-1.1-1.4
			c-0.6-0.7-1-0.6-1.3,0.1c-1,1.7-1.1,1.7-3,1.3c-2.6-0.6-5.5-0.6-8.1,0c-2.5,0.6-4.7,1.9-6.3,3.9c-1.6,1.6-1.4,4.1,0.1,5.6
			c0.1,0.1,0.2,0.1,0.2,0.1c1,1,2.1,1.7,3.3,2.3c1.4,0.6,2.9,1,4.4,1.1c5,0.5,9.8,1.9,14.1,4.4c6.2,3.5,11.9,7.6,17.1,12.4
			c0.7,0.7,1,0.6,1.3-0.2c1.1-2,1.4-4.4,1.2-6.7c-1-6.8-6.2-10.4-12.4-9.2c-0.6,0.1-1.1,0.2-1.7,0.4h-0.6c0.1-0.2,0.2-0.5,0.4-0.6
			c2-1.4,4.4-2.5,6.8-3.2c0.2-0.1,0.4-0.1,0.6-0.2c-0.2-0.1-0.5-0.2-0.7-0.2h-1.3c-3.7-0.1-7.3-1.2-10.4-3.2c-0.4-0.4-0.7-0.6-1-1.1
			l0,0l1.9,0.7C88.6,116.7,91.2,117.3,93.8,117.4L93.8,117.4L93.8,117.4z M134.9,40.8c-0.5,0.5-1,1-1.6,1.4
			c-1.2,0.8-2.1,2.1-3.7,2.3l0,0c0.2-0.2,0.4-0.6,0.6-1c3.7-4.9,4.8-10.5,4.2-16.6c-0.1-2.1-1-4.1-2.1-5.8c-1.9-2.5-5.4-3.2-8.1-1.9
			c-1.2,0.5-2,1.6-2,2.9c-0.1,1.3,0.6,2.6,1.8,3.2c0.5,0.2,1,0.4,1.4,0.6c0.2,0.1,0.5,0.2,0.7,0.4c-0.2,0.1-0.5,0.4-0.7,0.4
			c-1.8,0.1-3.3-1-4.1-2.6c-0.7-1.6-0.4-3.3,0.8-4.5c0.2-0.2,0.7-0.5,1-0.8c0.1-0.1,0.2-0.2,0.2-0.5c-0.1,0-0.2-0.1-0.4-0.1
			c-5.4,0-10.4,1.2-14.3,5.3c-0.1,0.2-0.2,0.5-0.4,0.7l0.6,0.1c2.3,0.2,4.5,0.6,6.8,0.8c1.1,0.1,2,0.7,2.5,1.8
			c0.2,0.6,0.7,1.1,1.2,1.4c2.9,1.6,4.7,4.4,4.9,7.6c0.1,2.4-0.2,4.9-1.1,7.2c-1,2.3-0.8,4.9,0.4,7.2c2.4,5,6.3,9.2,11.2,11.8
			c1.4,0.6,2.7,1.6,3.7,2.9l0,0c-1.3-0.6-2.6-1.2-3.9-1.7c-3.2-1.2-6.7-0.4-9.1,1.9c-1,0.8-1,1,0.1,1.7c2.1,1.4,4.7,2.3,7.2,2.7
			c1.9,0.2,3.8,0.5,5.7,0.5c1.1,0.1,2-0.4,2.6-1.2c0-0.2,0-0.4-0.1-0.6c-0.9-0.6-1-1.2-0.2-1.9c0.7-0.8,1.8-1.2,2.9-1
			c0.5,0.7,0.4,1.6-0.1,2.3c-0.2,0.4-0.6,0.8-0.7,1.3c-0.1,0.2-0.2,0.5-0.2,0.8h0.8l3.3-0.6c3.5-0.6,6.2-2.5,9.1-4.2
			c0.1,0,0.1-0.2,0.2-0.4c-0.1,0-0.2-0.1-0.4-0.1c-0.5,0.1-1,0.2-1.4,0.4c-3.5,0.8-6.9,1.4-10.4,0.5c-0.6-0.4-1.2-0.7-1.8-1.1
			c-5.3-2.6-8.2-6.8-8.1-12.9v-0.8C133.6,47.4,133.9,44,134.9,40.8L134.9,40.8L134.9,40.8z M237.3,65.9L237.3,65.9
			c0.6-0.5,1.2-1,1.8-1.3c1.2-0.4,2.5-0.6,3.8-0.7c4.3-0.2,9.5,1.4,11.8,7c0.1,0.2,0.1,0.5,0.1,0.8c-0.2-0.1-0.5-0.2-0.7-0.4
			c-2.5-2.6-6.2-3.8-9.9-3.2c-2.7,0.4-5.3,1.4-7.5,3c-2.9,2-5.7,4.2-8.6,6.2c-0.5,0.4-0.8,0.7-1.3,1.1l1.7-0.1
			c0.2,0,0.6-0.1,0.8-0.1c7.6-1.3,15.5-1.3,23.2-0.2c1.1,0.1,2.1,0.4,3.2,0.6c0.8,0.2,0.8-0.1,0.6-0.8c-0.4-1.3-0.6-2.6-0.7-4.1
			c-0.4-2.7,1.3-5.4,3.9-6.3c1-0.2,1.9-0.4,3-0.5c0.8-0.1,1.7-0.2,2.5-0.5c0.7-0.2,0.7-0.8,0-1.3c-0.7-0.4-1.3-0.5-2-0.8
			c-0.6-0.2-0.8-0.8-0.7-1.3c0-0.1,0.1-0.1,0.1-0.2c0.4-0.7,1.2-0.6,1.7-0.2c0.6,0.4,0.7,1,1.1,1.3c0.4,0.4,0.8,0.7,1.3,1
			c0-0.6,0-1.1-0.1-1.7c-1.6-4.4-3.2-8.8-4.9-13.1c-0.4-1-1-1.8-1.6-2.5c-1-1.3-2.3-2.1-3.8-2.5c-0.7-0.1-1.4-0.1-2.1-0.2
			c0.2,0.5,0.5,1.1,0.7,1.6c0.1,0.1,0.1,0.2,0.2,0.4c0.1,0.7,0.2,1.3,0.4,2c-0.5-0.4-1-0.7-1.4-1c-0.5-0.2-1.1-0.5-1.7-0.6
			c-1-0.1-1.8-0.7-2.1-1.6c-0.1-0.6-0.7-0.8-1.3-0.7h-0.1c-3.5,1-6.8,2.3-9.2,5.3c-1,1.3-2.3,2.4-3.8,3.1c-0.4,0.1-0.8,0.4-1.1,0.7
			c-0.2,0.2-0.4,0.6-0.4,1c0.1,1.9-0.4,2.5-2,2.4c-1.1-0.2-2,0.5-2.3,1.4c-0.2,0.7-0.5,1.6-0.7,2.3c-0.2,1.3-1.1,2.4-2.3,3
			c-0.5,0.4-1,0.6-1.6,0.8c-1,0.4-1.2,0.7-0.7,1.7c1,1.8,0.6,3.9-1,5.4c-0.5,0.5-1.1,1-1.6,1.6c-0.6,0.7-1.2,1.6-1.7,2.4
			c-0.6,1.3-1,2.6-1.4,4.1l0,0c2.6-1.2,4.3-3.6,5.7-6c1.2-2,2.1-4.1,3.6-6c3.5-5.1,9.3-8.2,15.5-8.4c3.7-0.1,7.4,0.7,10.6,2.4
			c0.2,0.1,0.5,0.1,0.7,0.1c-0.1-0.2-0.2-0.5-0.4-0.7c-1.1-1.4-2.5-2.5-4.2-2.9c-4.1-1.6-8.5-1.4-12.4,0.4c-0.4,0.1-0.8,0.2-1.2,0.4
			l0,0c1-0.8,2-1.6,3.2-2.1c4.7-1.7,9.8-1,13.7,1.9c1.8,1.2,2.9,3.1,3,5.3c0,0.6-0.1,1.1-0.8,0.6c-0.4-0.2-0.8-0.6-1.2-0.8
			c-5.7-3.3-11.7-4.1-17.9-1.4c-4.1,1.8-7.4,4.9-9.3,8.8c-1.2,2.6-2.9,5.1-4.9,7.4l0,0c1.4,0.1,2.4-1,3.3-1.7
			c2.5-1.7,4.9-3.6,7.3-5.4c3.1-2.3,6.4-4.4,10.4-4.8c2-0.1,4.2,0,6.2,0.1c0,0.1,0,0.1,0.1,0.1h0.1L250,67c-1.4-1.9-3.5-2.3-5.6-2.6
			C242,64.2,239.7,65.3,237.3,65.9L237.3,65.9L237.3,65.9z M242.4,275.5h-4.1c-3.3-0.1-6.7-0.4-10.1-0.4c-1.7,0-3.5,0.2-5.1,0.5
			c-0.2,0-0.5,0.4-0.7,0.5c0.2,0.1,0.4,0.2,0.6,0.4c0.7,0.2,1.6,0.4,2.3,0.4c3.2,0.1,6.3,0.1,9.4,0.4c1.7,0.2,3.2,0.6,4.8,1.1
			c0.2,0.1,0.5,0.4,0.7,0.5h-0.8c-3.1-0.8-6.3-1.2-9.5-0.8c-1.6,0.1-3.2,0.1-4.8-0.1c-1.8-0.2-3.7-0.8-5.5-1
			c-3.7-0.2-7.4-1.2-10.7-3c-1.1-0.5-2.1-1-3.2-1.2c-1-0.2-2-0.2-3-0.4c-0.2,0-0.4,0.1-0.6,0.2c0.1,0.2,0.1,0.5,0.2,0.6
			c1.3,1,2.9,1.7,4.3,2.3c6.2,2.1,12.8,3.3,19.5,3.6c3.6-0.1,7.2,0.5,10.5,1.7h-1.7c-3.7-0.2-7.3-0.6-11-0.8
			c-4.9-0.4-9.9-0.5-14.7-1.9h-0.6c0.1,0.2,0.4,0.4,0.5,0.5c6.1,3.1,12.3,5.5,19.3,5.5l0,0c-1.3,0.8-2.7,1.4-4.2,2
			c-6.4,1.8-12.9,3-19.6,2c-9.2-1.2-17.9-4.7-25.4-10c-1.4-1.1-2.9-2-4.3-3c-2.3-1.6-5.3-1.9-7.9-1.1c-2.1,0.7-4.3,1.6-6.4,2.5
			c-1.9,0.8-3.8,1.6-5.7,2.4c-0.7,0.2-1.4,0.5-2.1,0.6c0.7,0.4,1.3,0.7,2,1.1c0.5,0.2,1,0.4,1.4,0.6c1.6,0.8,3.3,1.1,5,0.5
			c1.1-0.4,2.3-0.6,3.3-1c2.3-0.6,4.5-1.3,6.8-1.9c3.8-1.2,8-0.1,10.7,2.9c5,5.3,11.5,7.8,18.4,9.3c2.5,0.5,5.1,0.5,7.6-0.1
			c6.7-1.3,13.1-3,19.6-5c5.4-1.4,10.5-3.6,15.4-6.1c0.5-0.1,1-0.2,1.4-0.2l0,0c-3.3,2.5-7,4.5-10.9,6.1c-10,4.1-20.6,6.8-31.4,8.2
			c-8.5,1.1-16.6,4.1-23.6,8.8c-5.5,3.8-11.5,7-18.1,8.4c-0.4,0.1-0.6,0.2-1,0.4c0.4,0,0.7,0.1,1.1,0.1c5,0,9.9-0.7,14.7-2.3
			c4.7-1.7,9.1-4.1,13-7.2c2.9-2.3,6-4.2,9.3-5.7c1.6-0.8,3.2-1.2,5-1.2l0,0c-2.3,1.1-4.5,2.1-6.7,3.3c-6.2,3.5-11.8,8.1-18.4,11
			c-0.1,0.1-0.2,0.1-0.4,0.2c0.1,0.1,0.4,0.1,0.5,0.2c0.4,0,0.7,0,1.1-0.1c7.2-1.2,14-3.9,19.8-8.2c2.5-1.8,4.9-3.6,7.4-5.4
			s5.4-3.1,8.4-3.8c0.4,0,0.7,0,1,0.1c-0.2,0.2-0.5,0.4-0.7,0.5c-3.8,1.7-7.5,3.7-10.9,6.2c-3.9,2.7-7.9,5.6-12.3,7.5
			c-0.2,0.1-0.4,0.2-0.5,0.4h0.6c0.8-0.1,1.6-0.2,2.4-0.5c8.5-1.9,16.6-5.5,23.6-10.6c2.1-1.7,4.4-3.3,6.7-4.7
			c1.8-1,3.7-1.8,5.7-2.5c0.5-0.1,1-0.1,1.3,0c-0.4,0.2-0.7,0.5-1.1,0.6c-6,3-11.7,6.6-16.9,10.6c-0.1,0.1-0.2,0.4-0.4,0.6h0.6
			c2-0.8,4.1-1.6,6-2.4c5.5-2,10.9-4.7,15.8-8c1.4-1.1,2.9-2.4,4.2-3.7c3.7-3.9,7-8.2,11.6-11.2c0.5-0.4,0.6-0.6,0-0.8
			c-1-0.4-1.9-0.6-2.9-0.8c-5.1-1-10.4-1.2-15.5-0.8c-1.3,0.2-2.5,0.5-3.7,1c-0.2,0.1-0.4,0.4-0.5,0.6c0.1,0.1,0.4,0.2,0.6,0.4
			c1.4,0.2,2.9,0.5,4.3,0.6c2.4,0.1,4.9,0,7.3,0.1C241.2,275.2,241.7,275.3,242.4,275.5L242.4,275.5L242.4,275.5z M53.7,112.7h-0.6
			c-6,1.3-11.7,3.9-16.6,7.8c-1.9,1.4-3.5,3.3-4.7,5.4c-0.1,0.1-0.2,0.4-0.5,0.5v-0.7c0.5-1.2,1.1-2.3,1.8-3.5
			c1.8-2.4,4.1-4.3,6.7-5.7c5.4-2.9,11.1-4.9,17.1-5.8c1.9-0.2,3.7-1.3,4.9-2.9c1.2-1.6,2.3-3.3,3.2-5c0.8-1.7,1.4-3.3,2-5
			c0.7-1.8,1.3-3.7,3.2-4.7c0.6-0.4,0.4-0.8-0.1-1c-1.1-0.1-2.1-0.2-3.2-0.2c-0.8,0-1.7-0.1-1.9-1.1c-0.1-0.6,0-1.1,0.4-1.6
			c0.7-0.7,1.6-0.5,2.4,0c0.4,0.2,0.7,0.5,1.1,0.7c0.5,0.2,0.8,0.5,1.3,0.7c0.8,0.4,1.4,0,1.3-1c0-0.5-0.2-1-0.2-1.4
			c-0.2-1.2,0-2.5,0.7-3.6c1.2-2.1,3.7-3.3,6.1-2.7c2.4,0.6,4.2,2.5,4.5,4.9c0.2,1.6,0.1,3.2-0.5,4.7C82,91.7,82,91.9,82,92.1
			c0.2-0.1,0.5-0.1,0.7-0.2c1.3-1.2,1.9-3.1,1.4-4.8c-0.4-1.7-1.1-3.1-2.3-4.3c-3.3-3.5-8.6-4.4-12.9-2.4c-0.7,0.2-1.3,0.5-2,0.7
			c0.5-0.6,1.1-1,1.8-1.3c1.3-0.6,2.9-1,4.3-1.2c1.4,0,2.9,0.1,4.3,0.4c0.2,0,0.4,0,0.6-0.1c0-0.2-0.1-0.4-0.2-0.6
			c-1.8-2.6-1.4-5.4-0.2-8c0.7-1.6,1.6-3,2.3-4.4c1.7-2.9,2.5-6.2,2.5-9.5c-0.1-1-0.4-1.8-0.7-2.6c-0.1-0.2-0.5-0.5-0.8-0.7
			c-0.1,0.4-0.1,0.6-0.1,1c0,2.3-0.7,4.5-2.1,6.4c-1.3,1.9-2.4,4.1-3.1,6.4C73.4,73,69,78.2,63,80.8c-0.8,0.4-1.6,0.7-2.3,1.2
			c-2,1.1-3.3,3.1-3.3,5.5c-0.1,2.4,0.2,4.9,1.1,7.2c0.6,1.4,1,2.9,1.3,4.3c1.1,4.8-1.2,10-6.8,11.1c-2.6,0.6-5.4,0.8-8.1,0.8
			c-2.3-0.1-4.4,0.1-6.7,0.5c-5.1,1.1-9.9,3-13.6,6.9c-5.4,5.4-9.8,11.6-13.1,18.4c-1.2,2.5-2,5.1-2.5,7.8c-0.8,3.7-0.1,7.6,2,10.7
			c1,1.8,2.5,3,4.4,3.5c1.7,0.5,3.5-0.4,4.2-1.9c0.7-1.4,1-3.1,0.6-4.7c-0.2-2-1.6-3.7-3.5-4.4c-1.9-0.6-4.1,0.1-5.3,1.7
			c0,0.1-0.1,0.1-0.1,0.1l-0.5,0.2c0-0.2-0.1-0.5,0-0.6c0.6-1.6,2-2.7,3.7-2.9c1.9-0.2,3.8,0.5,5,1.9c0.1,0.1,0.4,0.2,0.5,0.4
			c0-0.2,0.1-0.4,0.1-0.6c0-1.6,0.1-3,0.4-4.5c0.5-1.9,0.7-3.8,0.7-5.7c-0.1-2.6,0.6-5.3,2-7.4c0.5-0.7,0.8-1.6,1.2-2.3
			c0.5-1.6,1.3-3.1-0.6-4.4c-0.2-0.2-0.4-0.7-0.5-1.2s-0.4-1.2,0.4-1.4c0.7-0.2,1,0.4,1.2,0.8c0.2,0.8,0.6,1.7,1,2.4
			c0.7,1,1.1,2.3,0.8,3.5c-0.4,2.3-0.1,4.7,0.8,6.8c0.7,1.4,0.5,3.1-0.5,4.4c-1.6,2.1-2.1,4.8-1.6,7.4c0.1,0.2,0.2,0.4,0.4,0.6
			c0.1-0.1,0.2-0.4,0.4-0.6c0.5-1.7,0.8-3.3,1.3-5c3.9-11.2,11.3-19.6,21.2-25.9c1.6-1,3.2-1.9,4.8-2.9l0.4-0.2L53.7,112.7
			C53.7,112.7,53.7,112.7,53.7,112.7z M194.1,58.1L194.1,58.1c0.4-0.2,0.7-0.4,1.1-0.5c8.5-2.5,16.1-7.3,22.2-13.6
			c4.5-4.3,6.4-10.6,5.1-16.7c-0.6-3.5-2.3-6.2-5.7-7.5c-2.3-0.8-4.7-0.8-7-0.2c-0.2,0.1-0.5,0.2-0.8,0.4c0.2,0.1,0.5,0.2,0.8,0.4
			c5.5,2.1,7.8,6.6,6.6,12.3c-0.7,3.9-2.3,7.6-4.5,10.9c-0.8,1.2,0.1,1.1,0.8,1.1l0,0c-1.7,0.7-3.2,1.9-4.4,3.3
			c-3.9,4.1-9.1,6.8-14.6,7.9c-1.9,0.4-3.8,0.5-5.7,0.2c-4.2-0.6-6.2-3.6-5.6-7.8c0.5-3.8,2.7-7.2,6-9.1c2.4-1.2,4.2-3.5,4.8-6.1
			c0-1,0.7-1.8,1.7-2c1.1-0.2,1.8-1.1,1.9-2.1c0.2-1.4,0.1-2.9-0.6-4.2c-1.2-2.1-2.4-4.3-3.7-6.3c-1.2-1.8-2.7-3.3-4.7-4.3
			c-3.8-2.3-8.1-3.3-12.5-3.2c-3.8,0-7.4,1.6-10,4.3c-3.6,3.9-3.8,10.3,0.5,13.5l0,0c-0.4-1.1-0.8-2-1.2-3.1
			c-1.2-3.2-0.4-6.8,2.3-9.1c4.4-3.7,10.9-3.7,15.3-0.1c1.9,1.7,3.2,3.9,3.6,6.4c0.1,0.5,0.1,1,0.2,1.6c1,4.8,0.2,9.8-2.3,14
			c-2.4,4.3-5.8,8-9.9,10.6c-0.6,0.4-1.1,0.8-1.4,1.4c-0.8,3.2-2.5,6.2-4.8,8.6c-0.1,0.1-0.1,0.2-0.2,0.4h0.6c0.4-0.1,0.7-0.2,1-0.4
			c4.5-1.7,9-2.6,13.5,0.2c0.6,0.4,1.2,0.2,1.2-0.6c0-0.6-0.1-1.3-0.2-1.9c-0.1-0.7-0.1-1.3,0.6-1.7c0.5-0.2,1.6,0.5,1.6,1.2
			c0,0.5-0.2,1-0.5,1.3c-0.8,1.7-0.7,2.4,0.8,3.5c0.4,0.2,0.8,0.6,1.1,1c2,2.4,5.5,2.9,8,1.1c1-0.6,1.9-1.3,2.9-1.9
			c2.1-1.4,4.9-0.8,6.3,1.3c0.1,0.2,0.2,0.5,0.4,0.6c1,1.9,1,4.2,0,6.1c-0.5,1.1-0.1,1.2,0.8,1.2c2.5,0,4.9,0.7,6.8,2.3
			c2.6,1.8,3.6,5.3,2,8c-0.6,1-1.2,1.9-1.9,2.9l-0.1,0.1v0.1l0.1-0.2c1-0.5,2-1,3-1.4c2.6-1.3,3.8-3.2,3.2-6.3
			c-0.5-1.6-0.1-3.1,1-4.3c1.8-1.8,2.1-3.6,0.2-5.6c-1-1.1-0.4-2.1,1.1-2.4h1.1c1.7,0.1,3.2-0.7,3.9-2.1c0.6-1,0.8-2,1.6-2.9
			c0.8-1.2,1.9-2.3,3-3.3c0.8-0.5,1.8-1,2.7-1.2c1.7-0.5,2.9-1.9,3.1-3.6c0.5-3.1-1.3-6-4.2-7c-1.1-0.4-2.3-0.6-3.3-0.7
			c-3.3-0.2-6.7,0-9.4,2c-1.7,1.3-3.2,2.7-4.8,4.4c-0.1,0.1-0.1,0.2-0.2,0.4h0.5l6.7-0.5c0.2,0,0.5,0.1,0.7,0.2
			c-0.1,0.2-0.2,0.5-0.5,0.7c-1.1,1-2.4,1.6-3.8,1.7c-1.3,0.1-2.7,0.2-4.1,0.4c-0.2,0-0.6,0.1-0.8,0.1c0.2,0.1,0.4,0.4,0.6,0.5
			c2,1,3.3,2.9,3.6,5c0.4,2.1-0.6,4.3-2.5,5.3c-1.2,0.6-2.6,0.2-3.2-1v-0.5h0.5c2.5,1,4.1,0,4.2-2.6c0.2-2.9-1.9-5.4-4.8-5.6h-0.5
			c-1.3,0-2.7,0.5-3.8,1.2C202.8,56.3,198.5,57.8,194.1,58.1L194.1,58.1L194.1,58.1z M124.5,122.7L124.5,122.7
			c0.1-0.6,0.2-1.2,0.5-1.8c0.7-2.1-0.5-4.4-2.6-5.3c-2.4-1-5.1,0.1-6.1,2.6c-0.2,0.5-0.4,1-0.4,1.4c-0.1,1.9-0.1,3.7,0,5.6v6
			c0,1.2,0.1,2.3,0.4,3.5c0.5,1.4,1.3,1.8,2.9,1.4c1.4-0.2,2.9-0.6,4.2-1.1c1.2-0.5,2.4-1.1,3.3-1.8c1.4-1.3,3.1-2.3,5-3
			c1.6-0.5,3.3-0.8,4.5-1.9c1.1-1.1,1.4-2.9,2.3-4.3c0.2-0.6,0.7-1.1,1.3-1.3c1.8-0.8,1.8-0.7,1.3-2.6c-0.2-1.1-0.4-2.1-0.4-3.1
			c0-0.8,0.6-1,1.2-0.7c0.8,0,1.4,0.7,1.4,1.6c0,0.2-0.1,0.5-0.1,0.6c-1,2.4-0.7,5,0.7,7.2c0.2,0.7,0.5,1.3,0.5,2
			c0.5,1.9,0.8,3.8,1.4,5.6c0.4,1.1,1,1.2,1.8,0.5c2.7-2.3,5.5-4.5,7.9-7c2.7-2.7,4.3-6.3,4.5-10.3c0.1-1.9,0.5-3.8,1.2-5.7
			c3.2-8.8,9-14.9,18.4-16.8c4.9-1.1,9.8-1.4,14.8-1.2c1.6,0.1,3-0.1,4.4-0.7c15.4-6,31.9-8.2,48.3-6.6c8.5,0.7,16.6,3.6,23.5,8.4
			c7.4,5.3,13,11.8,15.2,20.9c0,0.2,0.1,0.5,0.2,0.6c0.1,0.1,0.1,0.2,0.2,0.4c0.1-0.1,0.2-0.2,0.2-0.5c0-2,0.2-4.2,0-6.2
			c-0.7-9.1-4.7-16.5-12.3-21.6c-5.3-3.5-11.1-5.8-17.3-7.2c-7.9-1.7-15.9-2.1-23.9-1.2c-6,0.6-11.9,2.1-17.4,4.5
			c-2.6,1.2-5.4,2.1-8,3.1c-4.4,1.4-9.1,2-13.6,1.4c-7.9-0.7-15.8,1.2-22.4,5.4c-3.3,2-5.8,4.9-7.4,8.5c-0.6,1.3-1.2,2.6-1.8,3.9
			c-1.2,2.5-2.7,4.8-4.8,6.7c-2.4,2.3-5.3,4.1-8.4,5.1h-0.6c0-0.2,0.1-0.4,0.2-0.5c1.3-1.9,2.3-4.2,2.7-6.6c0.7-2.7,0.6-5.7-0.2-8.4
			c-0.1-0.4-0.2-0.6-0.5-1c0,0.4-0.1,0.6-0.2,1c-0.2,1.6-0.5,3.1-1,4.7c-2,5.1-7.9,5.3-11,2.7c-1.3-1-2.1-2.6-2.1-4.3
			c-0.1-1.4,1-2.6,2.4-2.7h0.5c0.2,0,0.4,0.1,0.6,0.2c-0.1,0.1-0.2,0.2-0.5,0.4c-2.1,1.4-2.4,3.3-0.6,5.1c2.4,2.3,6.2,2.1,8.5-0.4
			c0.6-0.7,1.1-1.4,1.3-2.3c0.5-1.8,0.6-3.6,0.5-5.4c0-2.3-1.2-4.3-3-5.5c-2.9-2.1-6.2-3.5-9.8-3.7c-3.1-0.4-6.2,0.5-8.7,2.4
			c-0.5,0.4-0.6,0.6,0.2,0.8c2.6,0.7,3.2,2,2.4,4.5c-0.2,0.6-0.5,1.2-0.6,1.8c-0.1,0.6-0.4,0.7-0.8,0.4c-1.3-1.1-2.6-2.1-3.8-3.5
			c-0.5-0.5-0.6-0.5-0.8,0c-1,1.8-1.4,3.9-1.4,6c-0.1,2.4,1.7,4.5,4.2,4.8c1.3,0.1,2.6,0.1,3.8,0h0.6c-0.1,0.2-0.1,0.5-0.4,0.7
			c-1.2,1-2.9,1.3-4.3,0.8c-0.8-0.2-1.8-0.7-2.6-1.1c-0.4,0.8-0.6,1.8-1.1,2.7c-0.7,1.6-0.6,2.5,0.8,3.6c2.7,1.9,3,5.6,0.4,7.5v0.1
			L124.5,122.7L124.5,122.7z M38.7,100c0.1,1.7,0.1,2.7,0.2,3.9c0.2,2.9,2.4,5.1,5.3,5.5c1.4,0.1,2.9,0.2,4.3,0.1
			c0.5,0,0.6-0.2,0.4-0.6c-0.2-0.2-0.4-0.4-0.6-0.6c-2.9-3-3.2-7.5-0.8-11c1.6-2.5,4.7-3.2,7.2-1.8c1.6,0.8,2.3,2.6,1.7,4.3
			c-0.1,0.1-0.1,0.2-0.2,0.4c-0.1-0.1-0.1-0.2-0.2-0.2c-0.1-0.4-0.1-0.7-0.2-1.1c-0.5-2-2.5-3.1-4.5-2.6c-0.4,0.1-0.6,0.2-0.8,0.4
			c-1.6,0.6-2.6,2-3,3.8c-0.1,1.1-0.2,2.1-0.1,3.2c-0.1,2.1,1.2,4.1,3.2,4.7c1.9,0.8,4.2,0.5,5.6-1c2.6-2,3.7-5.4,2.7-8.6
			c-0.4-1.4-0.8-2.7-1.3-4.1c-1.2-3-1.4-6.2-0.8-9.3c0.8-4.4,1.8-9,2.5-13.4c0.4-2.4,0.6-4.8,0.6-7c0.1-3.3-2.1-6.2-5.4-6.9
			c-4.1-1.2-7.2,0.5-9.8,3.3c-2,2.3-1.4,4.4,1.3,5.3c1,0.4,1.1,0.7,1,1.6c-0.2,0.8-0.2,1.3-0.4,1.9c-0.1,1,0.1,1.4,1.2,1.6
			c1.8,0.1,3.2,0,4.4-1.7c0.7-1.1,1.9-1.7,3.2-1.4c0.4,0,0.8,0.5,1.2,0.7c-0.2,0.4-0.5,1-0.8,1.1c-0.7,0.4-1.6,0.6-2.4,0.5
			c-0.6-0.1-1.2,0.2-1.3,0.8c-0.1,0.4,0,0.7,0.2,1.1c0.8,0.6,1,1.7,0.4,2.5c-0.2,0.6-0.5,1.2-0.7,1.8c-1.2,3-2.3,3.5-5.4,2.6
			c-0.4-0.1-0.8-0.1-1.2-0.2c0.1,0.4,0.2,0.7,0.5,1.1c0.1,0.2,0.2,0.4,0.4,0.5c1.4,1.8,1.3,4.5-0.4,6.2c-1,1.2-2,2.3-3.2,3.1
			c-1.7,1.2-2.9,3.1-3.1,5.3C39.1,97.4,38.8,98.8,38.7,100C38.7,100,38.7,100,38.7,100z M99.7,75.2c-0.2-2.4-0.8-4.5-2.7-6.1
			c-3.6-2.9-10.7-1.2-12.9,3c-0.2,0.5-0.5,1.1-0.6,1.7c-0.5,2.4,0.7,4.7,2.9,5.7c0.8,0.5,1.8,0.2,2.4-0.6v-0.1
			c0.2-0.4,0.5-0.6,0.7-1c0.1,0.4,0.2,0.8,0.4,1.2c0.4,1.4-0.6,3-2,3.2c-0.2,0.1-0.5,0.1-0.7,0.1c-1.1,0-2.1-0.1-3.1-0.2h-0.8
			c0.1,0.4,0.2,0.6,0.4,0.8c1.2,1.4,1.8,3.2,1.9,5.1c0.2,3.5-1.6,5.5-4.9,5.8h-1.7c0.2-0.5,0.6-1,0.8-1.3c2.1-2.6,2.4-4.9,0.7-7.5
			c-1.1-1.9-3.5-2.6-5.4-1.6c-2,1.1-2.9,3.1-2.3,5.5c0.2,1.2,0.8,1.9,2,1.8c1.8-0.1,2.4,1,3,2.4c1.1,3,2.3,6,3.6,8.7
			c1,2,2.6,3.8,3.1,6.1c0.2,0.6,0.5,1.1,0.8,1.6c3.1,5.3,8.1,6.7,13.7,7.3c0.4,0,0.7-0.1,0.4-0.6c-1.9-2.9-2.6-6.2-3.7-9.4
			c-1.9-5.3-2.1-10.9-0.7-16.2c0.8-3.5,2.1-6.8,3.2-10.3C98.7,78.8,99.2,77,99.7,75.2C99.7,75.2,99.7,75.2,99.7,75.2z M198.5,82.7
			c1.2,0.1,2.3,0.1,3.5,0c1.6-0.1,3.1-0.5,4.5-1.1c2-1.1,2.9-3.5,2-5.5c-0.5-1.4-2-2.3-3.6-1.9c-0.2,0.1-0.7,0.4-0.7,0.6
			c0,0.4,0.1,0.8,0.5,1.1c0.4,0.2,0.8,0.5,1.3,0.7c0.8,0.5,0.8,1.1,0.1,1.7c-1,0.8-2.3,1-3.5,0.5c-1.7-0.7-2.7-2.3-2.9-4.1
			c-0.1-1.1-0.4-1.3-1.4-1.3c-1.8,0.1-3.5-0.8-4.3-2.4c-0.6-0.8-0.7-1.9-0.2-2.9c0.1-0.2,0.5-0.5,0.7-0.7c0,0.2,0.1,0.6,0.1,0.8
			c-0.1,2,1.4,3.7,3.3,3.8h0.2c2.1,0,4.1-1.3,4.9-3.2c1.1-1.9,1-4.3-0.4-6.1c-1-1.4-2.9-1.9-4.3-1h-0.1c-0.7,0.4-1.4,0.8-2.1,1.4
			c-2.4,2.1-6,2.4-8.6,0.6c-1.6-1-2.1-0.7-2.5,1.1c0,0.4-0.1,0.7-0.1,1.1c-0.2,2.9-0.6,5.7-0.8,8.6c-0.6,4.3-1.3,8.4-4.5,11.6
			c-0.1,0.1-0.1,0.2-0.2,0.4c0.1,0.1,0.4,0.1,0.6,0.1c0.4-0.1,0.8-0.4,1.2-0.5C186.6,83.8,192.5,82.6,198.5,82.7
			C198.5,82.7,198.5,82.7,198.5,82.7z M134.7,89.5c11.2-0.2,21.8,9.8,17.8,23.2c-0.2,0.8-0.4,1.6-0.5,2.4c0.8-0.4,1.6-0.6,2.4-1
			c0.2-0.1,0.4-0.2,0.6-0.4c3.9-3.1,6.8-7.4,8-12.3c0.5-1.6,0.5-3.3,0-4.9c-0.6-2.6-3.1-4.3-5.7-3.7c-0.1,0-0.2,0.1-0.4,0.1
			c-2.7,0.7-5.7,0.2-8-1.4c-1.3-1-2.5-2.1-3.8-3.2c-0.6-0.5-1.2-1-1.9-1.3c-1.4-0.6-3-1-4.4-1.4c-0.8-0.4-1.7-0.2-2.5,0.1
			c-1.3,0.6-2.7,1.1-4.2,1.7c-0.8,0.2-1.7,0.6-2.4,1.2c-0.6,0.7-1.4,1.2-2.4,1.2c-1.3,0.1-2.7,0.1-4.1-0.1c-0.7-0.1-1-0.1-1,0.7
			c-0.1,1.3-0.5,2.6-1,3.9c-1,2.7-2.5,5.3-4.5,7.3c-0.1,0.2-0.4,0.5-0.4,0.7l0.8,0.2c1.3,0.2,2.5,0.6,3.7,1c0.8,0.4,0.8,0,0.8-0.6
			c0.4-4.1,2.3-7.8,5.3-10.4C128.9,90.7,131.8,89.5,134.7,89.5L134.7,89.5L134.7,89.5z M158.2,78.8c0-5.5,2.5-9,7.4-10.3
			c1.4-0.4,2.9-0.5,4.3-0.5c4.8-0.1,10.4,5.7,9.2,10.9c-0.7,3.1-1.6,4.3-4.8,4.9c-0.1,0-0.4,0.1-0.5,0.2c0.1,0.1,0.4,0.4,0.5,0.4
			c3.9,0.7,7.5-2,6.8-6.1c-0.7-4.5-0.6-9.1,0.4-13.5c0.8-4.5-0.7-6.7-6-6.4l-0.5,0.1c-4.7,0.5-9.1,2.4-12.8,5.4
			c-3.6,2.7-6.2,6.4-7.8,10.7c-1.4,4.5-0.2,8.2,3.6,11.1c0.8,0.6,1.8,1.2,2.7,1.8c0.5,0.2,0.8,0.4,1.3,0.4c-0.2-0.4-0.5-0.7-0.8-1
			C159.4,84.7,158.2,81.8,158.2,78.8L158.2,78.8L158.2,78.8z M256.9,73.3c0.4,1.4,0.8,2.9,1.2,4.4c0.2,1.1,1.1,1.9,2.1,2.1
			c3.2,1.1,6.3,2.3,9.4,3.6c5.4,2.3,10,6.1,13.2,11c0.5,0.8,1.1,1.6,1.7,2.4c-0.1-1-0.1-2-0.2-3c-0.5-3.6-1.6-7-3.3-10.3
			c-0.4-0.8-1.1-1.3-2-1.3c-1.9,0.1-3.6-1.1-4.2-2.9c-0.5-1.4-1.4-2.6-2.9-3.3c-0.7-0.4-1.3-0.8-1.9-1.3c-0.4-0.4-1-1-1-1.3
			c0.2-1.7-0.8-2.6-1.4-3.9c-0.4-1.1-1.6-1.8-2.6-1.6c-1.3,0.1-2.6,0.2-3.8,0.4C258.8,68.4,256.8,70.7,256.9,73.3
			C256.9,73.3,256.9,73.3,256.9,73.3z M189.9,55.1c0.7,0,1.4-0.1,2.1-0.2c5.5-1.3,10.5-3.9,14.7-7.8c0.1-0.1,0.2-0.4,0.2-0.5h-0.6
			c-2.7,0.8-5.6,0.7-8.2-0.2c-1.4-0.5-2.6-1.4-3.5-2.7c-1.9-2.5-1.4-6,1.1-7.9c0.7-0.6,1.6-1,2.4-1.1c0.5-0.1,1-0.2,1.4-0.4
			c0.2-0.1,0.4-0.4,0.6-0.5c-0.2-0.1-0.4-0.1-0.6-0.2c-2.4-0.4-4.7,0.7-6,2.6c-1.8,2.5-4.1,4.5-6.6,6.1c-0.7,0.5-1.3,1-1.8,1.6
			c-1.9,2-2.4,4.9-1.3,7.4C184.9,54.1,187.2,55.1,189.9,55.1L189.9,55.1z M96.3,291.8l-6.9,0.6c-0.4,0.1-0.6,0.1-1,0.2
			c0.2,0.2,0.5,0.5,0.7,0.7c3.1,1.9,6.3,3.3,9.8,4.4c0.7,0.2,1.6,0.2,2.3,0c1.8-0.4,3.7-0.5,5.6-0.4c3.3,0.6,6.7,1.6,9.9,3
			c5.8,2.4,12.1,4.1,18.3,4.8c6.8,0.6,13.6-0.4,19.9-2.7c0.2-0.1,0.5-0.2,0.7-0.4h-0.8c-3.3,0.7-6.7,1-10,0.8c-2.6,0-5.1,0-7.8-0.1
			c-2.1,0-4.3-0.2-6.4-0.6c-6.2-1.1-12.3-3.2-17.8-6.2C107.8,293.1,102.2,291.7,96.3,291.8L96.3,291.8L96.3,291.8z M104.9,298.3
			c-0.4,0-1,0.1-1.7,0.1c-0.4,0.1-0.6,0.1-1,0.2c0.4,0.2,0.6,0.5,1,0.7c0.1,0.1,0.2,0.1,0.4,0.2c9.3,3.6,19,6.3,28.8,8.4
			c4.8,1.2,9.8,1.2,14.4-0.1c1.2-0.4,2.4-0.6,3.6-0.8c6.1-1.2,11.9-3.6,17.1-6.9c1.6-1.1,3.1-2,4.7-3.1c0.8-0.6,1.6-1.2,2.3-1.7
			c-1-0.2-1.9-0.5-2.9-0.6c-1.2-0.2-2.4,0.1-3.5,0.8c-14.8,11.5-30.9,13.7-48.3,6.9c-2-0.8-3.9-1.7-6-2.4
			C111,298.9,107.9,298.3,104.9,298.3C104.9,298.3,104.9,298.3,104.9,298.3z M121.1,90.8c0-2.4-1-4.1-3.3-5.5
			c-0.2-0.1-0.5-0.2-0.7-0.2c0,0.2,0,0.6,0.1,0.8c1.2,3.6,0.1,7.5-2.7,10c-1.8,1.7-3.7,3.2-5.6,4.7c-1.9,1.6-4.1,3-6,4.7
			c-1.6,1.4-2.6,3.2-3.1,5.4c-0.4,1.3-0.1,2.6,0.7,3.7s1.9,2,2.9,2.9c0.6,0.6,1.2,0.6,1.3-0.4c1.1-5,4.1-9,7.8-12.4
			c1.1-1.1,2.1-2,3.2-3.1c2.3-2.5,4.1-5.4,5-8.7C120.8,92,120.9,91.4,121.1,90.8C121.1,90.8,121.1,90.8,121.1,90.8z M146.8,297.8
			c5.3,0,10.4-0.8,15.4-2.4l0.8-0.2c-0.6-0.1-1.2,0-1.7,0.1c-5.1,1.2-10.5,1.2-15.6,0.2c-8.2-1.8-16-5.6-22.3-11.1
			c-1.9-1.6-3.9-2.9-6.1-4.1c-0.6-0.4-1.2-0.5-1.8-0.5c-1.8,0.4-3.5,1-5.1,1.4c-0.2,0.1-0.5,0.2-0.7,0.5c0.2,0.2,0.5,0.4,0.8,0.6
			c4.2,1.7,8,3.9,11.3,6.9c1.9,1.6,4.1,3,6.2,4.2C133.3,296.5,139.3,297.7,146.8,297.8L146.8,297.8L146.8,297.8z M152.1,295.2h1.9
			c1.6-0.1,3.1-0.2,4.7-0.5c1.6-0.2,2.9-0.5,4.2-0.8c0.2-0.1,0.4-0.1,0.6-0.4c-0.1-0.2-0.4-0.4-0.6-0.5c-0.5-0.2-1.1-0.5-1.7-0.6
			c-1.8-0.2-3.6-0.2-5.4-0.4c-9.4-0.6-18.4-4.1-25.9-9.7c-1.3-1-2.7-1.9-4.1-2.7c-2.1-1.3-4.9-1.6-7.3-0.6c-0.1,0-0.2,0.2-0.5,0.4
			c0.1,0.1,0.2,0.4,0.4,0.5c1.7,1.2,3.5,2.3,5.1,3.5c2.4,1.8,4.8,3.8,7.3,5.4C137.3,292.6,144.6,294.9,152.1,295.2L152.1,295.2
			L152.1,295.2z M165,81.2c0.1,1.4,0.4,2.9,0.7,4.3c0.7,2.3,1.7,4.5,2.6,6.8c0,0.1,0.6,0.1,0.7-0.1c1.7-1.9,3.8-3.6,6.2-4.5
			c0.6-0.4,1.2-0.7,1.8-1.2c0.4-0.2,0.6-0.5,1-0.8l-1.3,0.2h-1.9c-2.1-0.2-3.9-1.8-4.3-3.9c0-0.4,0-0.7,0.1-1.1
			c0.2,0.1,0.5,0.2,0.7,0.5c0.4,0.2,0.7,0.6,1.1,0.7c1.2,0.7,2.7,0.7,3.8-0.1c2.6-1.9,2.6-7-0.1-8.8c-3.2-2.1-9.1-0.4-10,3.2
			C165.6,77.9,165.2,79.7,165,81.2C165,81.2,165,81.2,165,81.2z M150.2,310.7c1.8-0.2,3.6-0.4,5.4-0.6c7-1,14-3.3,20.1-6.9
			c3.9-2.5,7.6-5.4,12.1-7.2c0.1-0.1,0.2-0.2,0.5-0.4c-0.1-0.1-0.4-0.1-0.5-0.2c-2.3,0-4.7,0-6.9-0.1c-1.9-0.1-3.9,0.4-5.6,1.4
			c-2.6,1.6-5.1,3.1-7.8,4.7c-5.3,3.3-11,5.7-17.1,7c-1.7,0.4-3.3,0.8-5,1.2c-0.1,0-0.2,0.2-0.4,0.2c0.1,0,0.2,0.1,0.4,0.1
			L150.2,310.7L150.2,310.7L150.2,310.7z M138.5,83.5v-0.2h0.6c1.7-0.1,1.9-0.2,1.8-1.9c-0.1-1.1-0.4-2.1-0.7-3.1
			c-0.4-1.2-0.8-2.3-1.1-3.5c-0.6-2.6-0.5-2.6-3.1-3c-0.5-0.1-1-0.1-1.6-0.2c-3.3-0.4-6.7-1.4-9.5-3.2c-1.6-1.1-1.9-0.8-2.1,1.1
			c0,0.5,0,1,0.1,1.6c0.4,2.3,1.3,4.3,2.9,6c1.6,1.6,3.2,3,4.9,4.5c0.2,0.2,0.6,0.4,1,0.5C134.1,82.5,136.2,82.9,138.5,83.5
			C138.5,83.5,138.5,83.5,138.5,83.5z M70.6,123.5c-3.5-0.2-6.8,0.5-9.9,2c-0.1,0.1-0.4,0.2-0.5,0.4c0.1,0.1,0.4,0.2,0.5,0.4
			c1.4,0.6,3,1.1,4.4,1.8c1,0.5,2,0.7,3.1,0.4c4.1-1,8.2-0.5,11.9,1.3c3.7,1.8,7,4.2,9.9,7.2c0.8,1.1,2.1,1.8,3.6,1.8
			c2.1-0.1,4.3,0.6,6.1,1.9c0.1,0.1,0.4,0.2,0.5,0.2c0.4-0.1,0.7-0.2,1-0.4c-0.1-0.2-0.2-0.5-0.5-0.6c-0.7-0.6-1.4-1.2-2.1-1.8
			c-5-4.2-9.9-8.2-15.8-11.2C79,124.8,74.9,123.6,70.6,123.5C70.6,123.5,70.6,123.5,70.6,123.5z M216.1,286.1
			c3.1,0.1,6.2-0.4,9.2-1.2c0.4-0.1,0.6-0.4,0.8-0.6c-0.2,0-0.6-0.1-0.8-0.1c-3.7,0-7.5-0.7-10.9-2.3l-12.7-5
			c-3.3-1.3-6.8-2.1-10.4-2.6c-1.4-0.2-2.9-0.1-4.3-0.2c-0.6,0-0.8,0.5-0.4,0.8c0.8,0.8,1.8,1.7,2.9,2.3c3.1,1.6,6.3,3.1,9.5,4.5
			C204.4,284.2,210.2,285.6,216.1,286.1L216.1,286.1L216.1,286.1z M118.3,113.3c1.9,0.1,3.7-1.2,4.2-3.2c0.7-2.3-0.6-4.8-3-5.5
			c-2.9-1-6.1-0.1-8.1,2c-2.6,2.7-4.3,6.3-4.9,10.1c-0.1,0.7,0,1.1,0.7,1.2c2.4,0.5,4.5,1.6,6.3,3c0.6,0.5,0.7,0.1,0.7-0.5
			c0.1-2.3,1.2-4.4,3.1-5.6c0.4-0.2,0.4-0.5,0-0.7c-0.4-0.2-0.8-0.8-1.3-1.3l1.7,0.2C117.7,113.1,118.3,113.3,118.3,113.3z
			 M57.7,142.3c0.1,0.8,0.2,1.7,0.4,2.6c0.8,3.2,3.6,5.6,6.8,6.1c0.8,0.2,1.6-0.1,2.1-0.7c1-1.2,1.9-2.4,2.7-3.6
			c0.1-0.2-0.1-0.7-0.2-1s-0.6-0.2-1-0.5c-2.1-1.2-4.1-2.7-5.5-4.8c-1.3-1.8-0.6-3.5,1.7-3.9c0.5-0.1,1,0,1.4-0.1
			c1.4-0.1,2.6-0.8,3.6-1.9c0.2-0.2,0.2-1,0.1-1.1c-1-1-2.1-1.9-3.2-2.9c-0.2-0.2-0.8,0-1.2,0.1C60.7,132.6,57.7,137.3,57.7,142.3
			L57.7,142.3L57.7,142.3z M121.5,44.5v-2c0-0.2-0.1-0.5-0.2-0.7c-0.1,0.1-0.2,0.4-0.4,0.5c-1.3,2.7-2.7,5.4-4.1,8.1
			c-0.4,0.6-0.5,1.2-0.4,1.9c0.6,4.7,2.7,9.1,6.1,12.4c0.4,0.4,0.7,0.6,1.2,0.1c1.7-1.7,3.9-2.9,6.3-3.1l0.7-0.4
			c-0.1-0.2-0.4-0.5-0.5-0.7c-2.3-1.8-4.2-3.9-5.8-6.3C122.2,51.7,121.2,48.1,121.5,44.5C121.5,44.5,121.5,44.5,121.5,44.5z
			 M91.7,273.4c1.7-0.1,3.1-0.2,4.4-0.4c0.2,0,0.4-0.2,0.5-0.2c-0.1-0.1-0.2-0.4-0.4-0.4c-4.7-2.1-8.5-5.4-12.4-8.5
			c-3.8-3-8.1-5.3-12.7-6.9c-1.4-0.6-3.1-0.7-4.7-0.5c-0.4,0.1-0.7,0.2-1.1,0.5c0.2,0.2,0.6,0.4,1,0.5c5.8,2.1,11,6,14.7,11
			C83.7,272.2,87.4,274,91.7,273.4L91.7,273.4L91.7,273.4z M51.8,140.7c0.2,1.4,0.5,2.9,0.8,4.3c1.2,4.7,5.7,7.8,10.5,6.9l0.6-0.1
			c-0.2-0.1-0.5-0.2-0.7-0.4c-3.3-0.6-5.8-3.2-6.6-6.4c-1.1-4.2,0-8.7,3-11.8c1.3-1.3,2.9-2.4,4.4-3.3c0.5-0.4,0.6-0.7,0-0.8
			c-1.4-0.6-3-1.2-4.4-1.8c-0.8-0.4-1.9-0.1-2.5,0.7C53.9,131.2,52.2,135.3,51.8,140.7C51.8,140.7,51.8,140.7,51.8,140.7z
			 M104.8,271.9c1.7-0.2,3.3-0.5,5-0.7c0.2-0.1,0.6-0.1,0.8-0.2c-0.2-0.1-0.5-0.2-0.7-0.4c-6-2-11.7-4.8-16.9-8.4
			c-2.6-1.9-5.6-3.3-8.7-4.3c-3.3-1-6.8-1.6-10.3-2.4c-0.2,0-0.5,0-0.6,0.1c0.1,0.1,0.4,0.2,0.5,0.4c0.2,0.1,0.4,0.2,0.6,0.2
			c4.5,1.6,8.7,3.8,12.4,6.8c3,2.3,6,4.4,9.2,6.4C98.7,270.9,101.7,271.8,104.8,271.9L104.8,271.9L104.8,271.9z M115.7,54.1
			c-0.1,0.1-0.4,0.1-0.4,0.2c-0.1,0.4-0.2,0.7-0.4,1.1c-1.9,7.6,0.1,14.6,4.1,21c0.4,0.5,0.7,0.8,1.3,1.1c2.1,1.1,4.3,2,6.4,3h0.6
			c-0.1-0.2-0.1-0.4-0.2-0.5c-0.7-0.8-1.6-1.4-2.3-2.3c-2.5-3.1-4.1-6.4-2.6-10.5c0.1-0.5,0-1-0.4-1.3c-2.9-3.1-4.9-6.9-6-11.1
			C115.8,54.4,115.8,54.2,115.7,54.1C115.7,54.1,115.7,54.1,115.7,54.1z M174.9,278.9c-4.8,0.1-9,2.4-13.5,3.5
			c-0.1,0-0.2,0.1-0.4,0.2c0.1,0.1,0.2,0.2,0.4,0.2c1,0.4,2,0.8,3,1.2c1.2,0.6,2.5,0.6,3.7,0.1c1.3-0.5,2.6-0.8,3.9-1.1
			c3.6-1.1,7.5-0.1,10.3,2.4c2.5,2,5.3,3.8,7.9,5.6c1.1,0.8,2.5,1.2,3.8,1.1c1.9-0.1,3.8-0.4,5.8-0.6c0.2,0,0.5-0.2,0.7-0.4
			c-0.2-0.1-0.5-0.2-0.7-0.2c-6.3-1-12.3-3.7-17.1-8c-1.1-0.8-2-1.8-3.1-2.6C178.2,279.4,176.7,278.9,174.9,278.9L174.9,278.9z
			 M128.7,278.9h-1.6l1.6,1.1c0.4,0.2,0.8,0.6,1.2,1c5,4.1,11,7,17.2,8.7c2.6,0.7,5.4,1,8,1.4c0.2,0,0.5-0.1,0.7-0.2
			c-0.1-0.2-0.4-0.5-0.5-0.7c-0.2-0.2-0.5-0.4-0.7-0.5c-3.9-2.3-8-4.7-11.9-6.9C138.4,280.5,133.6,279.2,128.7,278.9L128.7,278.9z
			 M72.2,129.1c-1,0.1-2,0.2-3,0.4c-0.2,0.1-0.5,0.1-0.7,0.2c0.2,0.2,0.4,0.5,0.6,0.6c1.2,1.2,2.4,2.3,3.6,3.5
			c0.6,0.8,1.7,1.1,2.5,0.5l0,0c0.6-0.4,1-0.8,1.6-1.1c0.6-0.2,1.2-0.1,1.8,0.1c0.5,0.5,0.6,1.1,0.6,1.7c0,0.4-0.8,0.8-1.3,0.8
			c-0.7,0-1.4-0.1-2-0.4c-1.2-0.2-1.6,0.2-1.3,1.4c0.5,2.1,1.4,2.9,3.7,2.6c3.5-0.2,7-0.7,10.5-1c0.2-0.1,0.5-0.1,0.7-0.2
			c-0.1-0.2-0.2-0.5-0.4-0.7c-2.3-1.8-4.5-3.8-6.9-5.5C79.2,130.2,75.8,129.1,72.2,129.1C72.2,129.1,72.2,129.1,72.2,129.1z
			 M183.1,293.1h3.6c0.1,0,0.2,0,0.4-0.1c-0.1-0.1-0.2-0.4-0.4-0.5c-0.4-0.1-0.7-0.1-1.1-0.2c-6-1.6-11.9-2.7-17.5-5
			c-6.1-2.5-12.2-5.1-18.3-7.9c-2.1-1-4.4-1.4-6.7-1.3c-0.2,0.1-0.5,0.1-0.8,0.2c0.2,0.2,0.4,0.5,0.7,0.6
			c9.4,4.7,19.2,8.7,29.2,12.2C175.8,292.6,179.4,293.4,183.1,293.1L183.1,293.1L183.1,293.1z M161.6,261.9
			c-0.2-0.1-0.4-0.1-0.6-0.2c-1.1-0.1-2.1-0.4-3.2-0.4c-5.1-0.4-10.4,0.1-15.4,1.4c-7.9,1.9-15.9,3.7-24,4.2c-0.1,0-0.4,0.1-0.5,0.2
			c0.1,0.1,0.4,0.2,0.6,0.2c3.2,1.1,6.7,1.3,10,0.5c3.5-0.7,6.9-1.7,10.5-2.6c4.4-1.3,9.1-1.2,13.4,0.2c0.7,0.2,1.4,0.1,2-0.2
			c2.1-1.1,4.4-2.1,6.7-3.1L161.6,261.9L161.6,261.9L161.6,261.9z M167.8,165.7c-0.2-1.8-0.2-3.6-0.7-5.4c-0.5-1.8-1.1-3.7-1.7-5.6
			c0-0.2-0.2-0.4-0.4-0.5c0,0.2-0.1,0.4-0.1,0.6c0,0.5,0.1,1,0.1,1.6c0.2,5.5-1.1,11-3.8,15.8c-1.6,3.1-4.3,5.5-7.5,6.8
			c-0.2,0.1-0.5,0.2-0.6,0.5c0.2,0.1,0.5,0.2,0.7,0.4c3.3,0.5,6.8-0.6,9.3-3C166.6,173.8,167.7,170,167.8,165.7L167.8,165.7
			L167.8,165.7z M211.8,272.8c2-0.1,4.1-0.7,5.8-1.7c3-1.4,5.7-3.6,9.1-4.4c0.1,0,0.2-0.2,0.4-0.4c-0.1,0-0.2-0.1-0.4-0.1
			c-3-0.5-6-1.2-9-0.5c-2.7,0.7-5.4,1.4-8.1,2.1l-8.5,2.3c-0.2,0-0.4,0.1-0.6,0.1c0.2,0,0.5,0.1,0.7,0.1c2.9,0,5.6,0.6,8.1,1.7
			C210.2,272.6,211,272.7,211.8,272.8L211.8,272.8L211.8,272.8z M201.3,94.9c-1.1,0.2-2.3,0.6-3.3,0.8c-0.2,0.1-0.4,0.2-0.5,0.4
			c0.2,0.1,0.4,0.2,0.6,0.2c0.2,0.1,0.6,0.1,0.8,0.2c2.7,1,3.5,2.3,2.9,5.1c-0.2,1,0.4,0.7,0.8,0.7c4.1,0.4,7.4,1.8,9.4,5.5
			c0.1,0.1,0.2,0.2,0.5,0.4c0.1-0.2,0.1-0.4,0.1-0.6c0.2-0.6,0.4-1.3,0.6-1.9c0.4-1,0.4-2-0.1-3C210.9,98.2,206.4,95.1,201.3,94.9
			L201.3,94.9L201.3,94.9z M233.1,267c-3.7-0.1-7.4,0.8-10.5,2.7c-2.1,1.3-4.4,2.3-6.7,3.5c-0.8,0.4-1.6,0.6-2.4,0.8
			c0.8,0.5,1.8,0.8,2.7,1c1.6,0.1,3.1,0.1,4.7-0.1c1.6-0.4,3.1-0.7,4.5-1.3c4.5-1.4,8.6-4.3,13.5-5c0.1,0,0.2-0.2,0.4-0.5
			c-0.1-0.1-0.2-0.1-0.4-0.2L233.1,267L233.1,267z M104.2,243c0.2,4.2,2.6,7.9,6.2,9.8c2.3,1.1,4.7,2,7,2.7
			c3.9,1.3,7.8,2.4,11.7,3.6c0.7,0.2,1.4,0.2,2,0.1c1.6-0.4,3.1-0.8,4.5-1.2c0.2-0.1,0.4-0.2,0.5-0.4c-0.2-0.1-0.4-0.4-0.6-0.5
			c-2.3-0.5-4.7-0.8-6.9-1.3c-4.2-0.8-8.4-1.6-12.4-2.6c-5.7-1.6-9.1-5.5-10.5-11.2c-0.2-0.6-0.4-1.2-0.7-1.8
			c-0.4,0.7-0.7,1.4-1,2.1C104.1,242.6,104.1,242.9,104.2,243L104.2,243L104.2,243z M102.8,246.5c0.1,3.2,1.7,6.3,4.2,8.4
			c3.7,3.3,8.2,5,12.9,6.2c0.5,0.1,0.8,0.1,1.3,0c2.1-0.2,4.4-0.6,6.6-1c0.2,0,0.5-0.2,0.7-0.5c-0.2-0.1-0.5-0.2-0.7-0.4
			c-2.9-0.8-5.7-1.7-8.7-2.5c-3.3-0.7-6.6-1.8-9.5-3.3c-2.9-1.4-4.9-4.1-5.8-7.2c-0.1-0.2-0.1-0.6-0.2-0.8c-0.1-0.1-0.2-0.4-0.4-0.5
			c0,0.1-0.1,0.2-0.1,0.4C102.9,245.9,102.9,246.1,102.8,246.5L102.8,246.5z M159.5,78.4c-0.2,2.5,0.7,5,2.5,6.9
			c0.7,0.8,1.4,1.6,2.3,2.4c0.2,0.1,0.4,0.2,0.6,0.4c0-0.2,0-0.4-0.1-0.6c-0.8-2.3-1.2-4.8-1.1-7.2c0.2-5.8,3.5-9,9.2-9.1
			c0.4,0,0.6-0.1,0.8-0.2c-0.1-0.2-0.4-0.4-0.6-0.6c-4.7-2.4-10.4-0.6-12.8,4.1C160,75.7,159.6,77,159.5,78.4
			C159.5,78.4,159.5,78.4,159.5,78.4z M103.1,290l-4.3,0.6c-0.2,0-0.4,0.1-0.6,0.1l0.7,0.1c2,0.1,4.1,0.5,6,1c3.2,1,6.3,2,9.3,3.2
			c3.8,1.4,7.5,3.2,11.3,4.7c3,1.2,6.2,1.9,9.4,2c0.2,0,0.5-0.1,0.7-0.2c-0.1-0.1-0.4-0.2-0.5-0.4c-2.9-1.6-5.7-3.1-8.6-4.5
			c-2-1.2-4.3-2-6.6-2.6c-3.8-0.7-7.5-1.8-11.2-3C106.8,290.7,104.8,290.4,103.1,290L103.1,290z M88.6,167.9l0.1,0.7
			c0.1-0.1,0.4-0.1,0.5-0.2c2-3.2,5.1-5.3,8-7.4c1.9-1.4,3.8-2.9,5.5-4.5c1.7-1.3,2.7-3.1,3.3-5.1v-0.8c-0.2,0-0.4,0.1-0.6,0.1
			c-4.2,2.6-8.2,5.3-12.3,8C90,160.8,88.9,164.1,88.6,167.9L88.6,167.9L88.6,167.9z M99.3,275.8c-4.1-0.1-7.8,1-11.5,1.9
			c-0.2,0-0.2,0.2-0.5,0.4c0.2,0.1,0.4,0.1,0.6,0.1c4.9,0.8,9.8,1.7,14.7,2.4c3.2,0.4,6.4-0.1,9.5-1.3c0.2,0,0.2-0.2,0.5-0.5
			c-0.2-0.1-0.4-0.1-0.6-0.2c-1.3-0.5-2.7-1-4.1-1.4C105.2,276.4,102.3,275.8,99.3,275.8L99.3,275.8L99.3,275.8z M115.1,127.7
			c0.1-1.6-0.4-3.1-1.2-4.3c-1.9-2.9-7.6-5.1-11-4.5h-0.5l0.6,0.2c0.4,0.1,0.7,0.2,1,0.4c4.4,1.2,6.9,4.2,7.9,8.5
			c0.6,3.2,0.7,6.4,0.2,9.7c-0.1,1.3-0.4,2.5-0.6,3.8v0.6c0.2,0,0.4,0,0.6-0.1c2-1.2,4.1-2.4,6.1-3.6c0.1-0.1,0.2-0.4,0.4-0.5
			l-0.6-0.2c-1.6-0.4-2.9-1.7-3.1-3.2c-0.2-1.3-0.2-2.7-0.2-4.1C114.7,129.5,114.8,128.5,115.1,127.7z M245.7,268.4
			c-2.6,0.5-5.5,0.8-8.2,1.4c-0.8,0.2-1.8,0.6-2.6,1.1c-0.1,0-0.2,0.2-0.2,0.4c0,0,0.2,0.2,0.4,0.2c2,0,4.2,0,6.2-0.1
			c3.3-0.2,6.8,0.2,9.9,1.4c0.8,0.4,1.7,0.6,2.4,0.8c3.7,1.3,6.3-0.4,8.7-3c0.1-0.1,0.1-0.2,0.2-0.4c-0.1,0-0.2-0.1-0.4-0.1
			c-3.7,1.2-7.2-0.2-10.7-1.1C249.6,268.9,247.7,268.8,245.7,268.4L245.7,268.4L245.7,268.4z M112.8,273.6c-2.7-0.1-5.5,0.2-8.1,1.1
			c-0.1,0.1-0.2,0.2-0.5,0.4c0.1,0.1,0.2,0.2,0.5,0.4c2.3,0.7,4.4,1.7,6.7,2.3c1.6,0.5,3.2,0.6,4.9,0.2c4.8-1.1,9.5-1.2,14.3-0.5
			h0.5c0.1,0,0.2-0.1,0.4-0.1c-0.1-0.1-0.2-0.2-0.4-0.2c-0.2-0.1-0.5-0.2-0.8-0.4C124.8,274.9,118.8,273.8,112.8,273.6L112.8,273.6
			L112.8,273.6z M184.8,268.5c-1,0.1-2.6,0.4-4.3,0.6c-0.6,0.1-0.7,0.4-0.2,0.8c1.3,1.3,3,2,4.8,2.3c3.1,0.4,6.1,0.7,9.2,1.3
			s5.8,1.6,8.7,2.3c0.2,0.1,0.4,0.1,0.6,0.1c-0.1-0.2-0.2-0.5-0.4-0.6C198,271.2,191.6,268.8,184.8,268.5L184.8,268.5z M106.4,135.6
			v2c0.5-0.5,1-1.1,1.3-1.6c0.4-0.6,0.6-1.2,0.7-1.8c0.6-2.1,0.6-4.3,0.1-6.4c-1.3-5.7-6.1-8.6-11.7-6.8c-0.4,0.1-0.6,0.4-0.8,0.6
			c0.2,0.1,0.5,0.1,0.8,0.2c2.4,0.4,4.7,1.7,6.2,3.6C105.3,128.2,106.6,131.8,106.4,135.6z M72.7,275.8c1.8-0.1,3.8-0.2,6-0.5
			c0.2,0,0.4-0.1,0.6-0.2c-0.1-0.1-0.1-0.4-0.2-0.5c-1.9-0.8-3.8-1.9-6.1-1.7c-2.5,0.1-5-0.2-7.4-1.2c-1.7-0.6-3.3-1.4-5-2
			c-1.4-0.5-2.9-0.7-4.4-1.1c-0.1,0-0.4,0.1-0.6,0.1c0,0.2,0.1,0.4,0.2,0.6c1.6,1.9,3.6,3.3,5.7,4.3C65.1,275,68.9,275.7,72.7,275.8
			L72.7,275.8L72.7,275.8z M121.6,208.9c-0.2-3.5-2-6.3-3.5-9.3c0-0.1-0.2-0.2-0.4-0.2c0,0.2,0,0.4,0.1,0.6
			c0.8,4.1,0.7,8.4-0.5,12.4c-1.6,5.8-0.2,11.2,2.9,16.4c0.2,0.4,0.4,0.6,0.6,0.8c0.1,0.1,0.2,0.2,0.5,0.2c0-0.2-0.1-0.4-0.1-0.6
			c-0.4-1-0.8-1.8-1.3-2.7c-1.3-3-1.6-6.3-0.6-9.5c0.4-1.2,0.8-2.3,1.2-3.5C120.9,211.8,121.3,210.3,121.6,208.9L121.6,208.9
			L121.6,208.9z M201.3,103.6c-0.8,0.2-2.4,0.5-3.8,0.8c-0.2,0-0.4,0.2-0.6,0.4c0.1,0.1,0.4,0.2,0.5,0.4c2,0.8,4.2,1.6,6.2,2.5
			c3,1.6,5.7,3.7,7.9,6.2c0.2,0.1,0.4,0.4,0.6,0.5c0.1-0.2,0.1-0.6,0.1-0.8C211.4,107.8,208.9,103.8,201.3,103.6z M53.3,263.9v0.2
			h-1.8c-0.6,0-0.8,0.2-0.5,0.8c0.8,1.6,2.5,2.5,4.2,2.6c1.9,0.1,3.8,0.6,5.7,1.1c1.2,0.4,2.4,1.1,3.6,1.4c2,0.6,4.2,1.2,6.2,1.7
			c0.6,0,1.1,0,1.7-0.1c-0.4-0.5-0.6-1.2-1.2-1.4c-1.7-1-3.3-1.7-5-2.4c-2.7-1.1-5.6-1.9-8.4-2.7C56.2,264.7,54.7,264.4,53.3,263.9
			L53.3,263.9L53.3,263.9z M123.9,215.5c-0.2-1.3-0.5-3.1-0.8-5c0-0.2-0.2-0.4-0.4-0.5c-0.1,0.1-0.2,0.2-0.2,0.5
			c-0.6,1.7-1.2,3.3-1.8,5.1c-0.7,1.8-1,3.8-0.8,5.7c0.5,3,1.4,5.8,2.7,8.6c0.1,0.2,0.2,0.4,0.4,0.5c0-0.2,0.1-0.4,0.1-0.6
			c0-2-0.1-4.1,0-6C123.2,221.2,123.6,218.6,123.9,215.5C123.9,215.5,123.9,215.5,123.9,215.5z M172.6,46.9l0.1,0.6
			c0.2-0.1,0.6-0.2,0.8-0.4c3.8-3.1,7.3-6.4,9.4-11.1c0.7-1.7,1.2-3.3,1.7-5.1c0-0.2-0.1-0.5-0.2-0.7c-0.1,0.1-0.2,0.4-0.4,0.5
			c-2,4.3-5.1,8.1-9,10.9c-1.6,1-2.5,2.7-2.4,4.5C172.6,46.5,172.6,46.7,172.6,46.9L172.6,46.9L172.6,46.9z M135.1,134.9
			c-2.3,0.2-4.8,0.6-7.2,0.8c-0.2,0-0.4,0.2-0.5,0.4c0.2,0,0.4,0.1,0.6,0.1c1.7,0,3.3-0.2,4.9-0.2c3.8,0,7.6,0.8,11,2.7
			c2.5,1.4,4.8,3.3,6.7,5.7c0.1,0.1,0.4,0.2,0.5,0.5v-0.6c-0.8-4.7-4.5-8.2-9.2-8.7C139.7,135.2,137.5,135.1,135.1,134.9
			C135.1,134.9,135.1,134.9,135.1,134.9z M212,264.2V264c-1.9,0.1-3.8,0.4-5.7,0.7c-3.1,0.8-6.2,1.8-9.3,2.7
			c-0.6,0.2-1.2,0.6-1.8,0.8l2.1,0.8h0.5c3.3-0.2,6.6-1,9.7-2c2.4-1,4.9-1.7,7.3-2.5l0.8-0.2c-0.2-0.1-0.5-0.1-0.7-0.1H212z
			 M112.2,158.3c0.2-0.4,0.4-0.5,0.5-0.7c3.3-5,7.8-9.3,12.8-12.7c0.2-0.1,0.4-0.4,0.5-0.6h-0.8c-5.7,1.1-10.5,5.1-12.5,10.6
			c-0.2,0.8-0.5,1.8-0.6,2.7C112.1,157.9,112.1,158,112.2,158.3L112.2,158.3z M41.4,69.7c0,3.3,0.7,5.5,2.3,7c0.5,0.5,0.8,0.6,1.3,0
			c0.5-0.6,1.1-1.3,1.7-2c0.8-1,0.6-1.6-0.7-1.8c-1-0.1-1.3-0.7-1.2-1.7c0-0.4,0.1-0.7,0.1-1.1c0.1-0.7,0.5-1.6,0.2-2
			c-0.2-0.6-1.2-0.7-1.7-1.1s-1-0.7-1.4-1c-0.1,0.7-0.4,1.3-0.5,2C41.4,68.7,41.4,69.2,41.4,69.7C41.4,69.7,41.4,69.7,41.4,69.7z
			 M73.8,278.4c4.7-0.1,9.2-0.6,13.7-1.7c0.2-0.1,0.5-0.1,0.7-0.2c-0.2-0.1-0.5-0.2-0.8-0.2c-2.3-0.1-4.4-0.1-6.7-0.1
			c-4.5,0.4-9,1.1-13.5,0.2c-0.7-0.1-1.6-0.2-2.3-0.4c0.7,0.5,1.3,1.1,2.1,1.6c0.5,0.2,1,0.4,1.4,0.4
			C70.3,278.2,72.4,278.3,73.8,278.4C73.8,278.4,73.8,278.4,73.8,278.4z M54.3,261.5c-1.6,0.1-3.1,0.2-4.7,0.5
			c-0.4,0.1-0.7,0.2-1,0.5c0.4,0.4,0.7,0.6,1.2,0.8c0.5,0,1,0,1.4-0.1c2.6-0.4,5.3,0.1,7.5,1.2c1.1,0.5,2.1,1,3.2,1.2
			c1.1,0.2,2.1,0.4,3.2,0.6c-0.7-0.8-1.4-1.7-2.3-2.5c-0.4-0.4-0.8-0.6-1.3-0.8C59.3,261.9,56.8,261.4,54.3,261.5L54.3,261.5
			L54.3,261.5z M125.2,223.1c-0.1,0.4-0.4,0.8-0.4,1.1c0.1,0.4,0.6,0.6,1,0.7c3.1,1.7,5.7,3.9,7.9,6.7l4.9,6.2
			c0.5,0.6,1.1,1.2,1.6,1.8c0.1,0.1,0.4,0.2,0.5,0.2c0-0.2,0.1-0.4,0-0.6c-0.1-0.2-0.2-0.5-0.5-0.7c-2.3-2.7-4.3-5.6-6-8.7
			c-1.9-3.3-5.1-5.1-8.5-6.6C125.7,223.2,125.6,223.1,125.2,223.1L125.2,223.1z M125,226c-0.1,0.1-0.4,0.4-0.4,0.5
			c-0.2,0.8,0.1,1.8,1,2c2.3,1.3,4.3,2.9,6.1,4.8c1.6,1.4,3.2,2.6,4.9,3.8c0.1,0.1,0.4,0.1,0.6,0.2c-0.1-0.2-0.1-0.4-0.2-0.5
			c-1.9-2.3-3.8-4.5-5.7-6.8c-1.4-1.7-3.3-3-5.4-3.8L125,226L125,226z M144,134.6c0.7,0,0.8-0.1,0.5-1c-0.4-1.1-0.7-2.1-1.1-3.2
			c-0.1-0.6-0.4-1.1-0.6-1.6c-0.2-0.2-0.5-0.4-0.8-0.4c-1.2,0.4-3.6,3.3-3.5,4.7c0.1,0.4,0.4,0.7,0.6,0.8
			C140.7,134.1,142.3,134.4,144,134.6C144,134.6,144,134.6,144,134.6z M192.8,267.3c0.2,0,0.5-0.1,0.6-0.1c2.7-0.2,5.3-1.3,7.8-2.3
			c0.5-0.2,1.1-0.5,1.6-0.7c-0.6,0-1.1-0.1-1.7,0c-0.5,0-1,0-1.6,0.1L188,266c-0.6,0.1-1.1,0.2-1.7,0.4c-0.1,0-0.2,0.1-0.4,0.1
			l0.4,0.1L192.8,267.3L192.8,267.3L192.8,267.3z M137.8,232.7v-0.2c-2.1-5.3-5-9.7-10.5-11.9c-0.6-0.2-1.4-1.1-1.9-0.1
			c-0.6,1.1,0.7,1.2,1.3,1.4c4.4,2.3,8.1,5.3,10.1,9.9c0.2,0.4,0.4,0.7,0.6,1.1c0,0.1,0.2,0.1,0.2,0.2
			C137.8,233,137.8,232.7,137.8,232.7L137.8,232.7L137.8,232.7z M80.7,279v0.2H78c-0.2,0-0.4,0.1-0.5,0.2c0.1,0.1,0.4,0.2,0.5,0.4
			c1.1,0.4,2,0.6,3.1,0.8c3.3,1.1,6.8,1.3,10.3,0.8c0.2-0.1,0.5-0.1,0.6-0.4c-0.2-0.1-0.4-0.1-0.6-0.2L80.7,279L80.7,279L80.7,279z
			 M52.8,260.5h1.9c0.5,0,0.7-0.1,1.1-0.1c-0.4-0.2-0.7-0.4-1.1-0.5c-2.5-0.4-5-0.8-7.6-1.2c-0.6,0-1.2,0.1-1.8,0.2
			c0.2,0.6,0.7,1.2,1.2,1.7c0.6,0.4,1.3,0.5,2,0.4C50,260.9,51.6,260.7,52.8,260.5C52.8,260.5,52.8,260.5,52.8,260.5z M48.2,79.1
			c0.5-0.1,1-0.2,1.4-0.6c1-1.1,1.4-2.5,1.4-3.9c0,0-0.6-0.4-0.7-0.2c-1,0.7-2,1.3-3,2.1c-0.6,0.6-1.2,1.1-1.8,1.7L48.2,79.1
			C48.2,79.1,48.2,79.1,48.2,79.1z M94.1,140.1c-0.8,0.1-1.1,0.5-0.8,1.2c0.4,1.1,0.7,1.7,1.1,2.6l2.3-1.3l0.7-0.5
			c0.5-0.4,0.5-0.7,0-1C96.2,140.8,95.2,140.5,94.1,140.1C94.1,140.1,94.1,140.1,94.1,140.1z M76.4,53.2v2c0.5-0.4,1-0.8,1.4-1.2
			c0.5-0.4,1.2-0.8,1.7-1.3c0.1-0.1,0-0.5-0.1-0.6c-0.2-0.1-0.5-0.2-0.8-0.4C77.3,51.3,76.5,51.7,76.4,53.2
			C76.4,53.2,76.4,53.2,76.4,53.2z M44.1,84.4c-0.1-0.7-0.2-1.3-0.5-2c-0.1-0.4-0.6-0.6-0.8-0.8c-0.1,0.4-0.4,0.7-0.2,1.1
			c0.1,1,0.5,1.8,0.7,2.7l0.4,1.1c0.1-0.4,0.4-0.7,0.5-1.2C44.1,85,44.2,84.6,44.1,84.4L44.1,84.4L44.1,84.4z M274.1,74.1
			c-0.1-0.5-0.2-1.1-0.5-1.6c-0.1-0.6-0.6-0.5-1-0.1c-0.7,0.8-0.6,1.2,0.6,2c0.2,0.1,0.4,0.2,0.6,0.2L274.1,74.1
			C274.1,74.1,274.1,74.1,274.1,74.1z M277,79.1c-0.1,0.1-0.2,0.2-0.2,0.4c0,0.6,1.3,1.7,2,1.6c0.1,0,0.2-0.4,0.2-0.4
			C278.4,80.1,277.6,79.6,277,79.1C277,79.1,277,79.1,277,79.1z M149.2,160.3l-0.7-0.6c0,0.1-0.1,0.2-0.1,0.4s0.1,0.4,0.2,0.5
			C148.7,160.5,149,160.3,149.2,160.3L149.2,160.3z M164.1,294.7L164.1,294.7l0.1,0.1L164.1,294.7z"/>
		<path class="st1" d="M87.6,185.8c0-3,1.2-5.7,3.1-7.9s4.2-3.9,6.7-5.4c2.3-1.4,4.5-2.9,6.6-4.4c2.1-1.4,3.7-3.8,4.1-6.3
			c0-0.2,0.1-0.4,0.2-0.6c0.1,0.1,0.4,0.4,0.4,0.5c0.1,0.8,0.2,1.7,0.1,2.5c-0.4,2.7-1.8,5.3-3.9,7c-3.5,3.3-6.1,7.5-7.6,12.2
			c-1.2,3.2-2.6,6.4-4.4,9.3c-0.8,1.7-1.6,3.3-2.3,5.1c-0.1,0.4-0.4,0.7-0.6,1.1c-0.1-0.4-0.2-0.8-0.4-1.2c-0.1-2.6,0.5-5.4,1.7-7.8
			c1.8-3.7,3.5-7.4,5.1-11.2c0.1-0.2,0.1-0.5,0.1-0.7c-0.2,0.1-0.4,0.1-0.6,0.2c-3.5,2.3-6,5.7-6.9,9.8c-0.1,0.5-0.2,1-0.4,1.4
			c-0.1,0.1-0.1,0.2-0.2,0.4c-0.1-0.1-0.2-0.2-0.2-0.4C88,188.1,87.8,186.9,87.6,185.8L87.6,185.8L87.6,185.8z"/>
		<path class="st1" d="M104.1,183.6c1.9,2.1,3.7,4.4,5.5,6.7c3.8,4.5,5.1,10.5,3.6,16.2c-0.2,1-0.5,1.8-0.7,2.7
			c-0.7,2.1-1.2,4.3,0.2,6.4c0.2,0.4,0.4,0.7,0.4,1.2v2.5c-0.2-0.7-0.6-1.4-0.8-2.1c-1-2.9-2.6-5.5-4.9-7.5c-2.3-2-4.3-4.5-5.7-7.3
			c-2-3.6-2.4-7.9-0.8-11.7c1-2.7,1.9-5.5,2.9-8.1l0.4-0.7c0,0.2,0,0.6,0.1,0.8C104.1,183.1,104.1,183.3,104.1,183.6
			c-1.1,3.5-2.1,7-3,10.6c-0.6,2.4-0.2,5,1.1,7.2c1.6,3,3.6,5.7,6.2,8l1.9,1.7c0.2-0.8,0.4-1.6,0.6-2.4c0.2-0.8,0.4-1.7,0.7-2.5
			c1.4-4.5,0.6-9.5-2.1-13.4c-1.1-1.7-2.3-3.1-3.5-4.8C104.9,186.8,104.3,185.2,104.1,183.6L104.1,183.6L104.1,183.6z"/>
		<path class="st1" d="M271.1,126c0,2-0.6,4.1-1.6,5.7c-0.8,1-1.8,1.9-2.7,2.6c-0.1,0.1-0.4,0.4-0.4,0.5s0.4,0.5,0.6,0.5
			c1.2,0.2,2.4,0.4,3.6,0.5c1.2,0.1,1.4,0.4,1.2,1.6c-0.1,0.5-0.2,0.8-0.5,1.2c-0.5,0.8-1,0.8-1.7,0.2c-0.5-0.4-0.8-0.7-1.3-1.2
			c-0.6-0.6-1.6-0.8-2.4-0.6c-2.1,0.7-4.4,0-5.8-1.8c-0.2-0.2-0.6-0.8-0.6-1c0.4-0.4,0.8-0.7,1.3-1h0.2c0.7,0.2,1.4,0.8,1.9,0
			c0.5-0.7,0.7-1.6,0.7-2.4c0-1-0.4-1.9-0.8-2.7c-1.4-1.8-0.7-3.8-0.7-5.8c0-0.7,0.7-0.5,1.1-0.1c1.4,1.6,2.5,3.3,3,5.4
			c0.2,0.6,0.2,1.3,0.4,1.9c0.1,0.6,0.1,1,0.2,1.4c0.1-0.5,0.2-1,0.4-1.4c0-0.2,0.1-0.4,0.2-0.6c1.3-1.3,2.4-2.9,3.1-4.7
			c0-0.1,0.2-0.1,0.2-0.2c0.1,0.1,0.2,0.4,0.2,0.5C271.2,125.2,271.1,125.6,271.1,126L271.1,126L271.1,126z"/>
		<path class="st1" d="M72,241.4c-2.1,0.2-4.3,0.5-6.4,0.6c-0.2,0-0.5,0-0.7-0.1c0.2-0.2,0.4-0.5,0.6-0.6c1.7-0.6,3.5-1.1,5.1-1.4
			c4.9-0.7,9.5,0.1,14.3,1.1c0.8,0.1,1.6,0.2,2.4,0.4c1.8,0.1,2.3-0.4,2.1-2.1c-0.1-1.2-0.4-2.4-0.6-3.6c-0.4-1.8-1-3.5-1.3-5.3
			c-0.5-1.4-0.2-2.9,0.5-4.2c0.2-0.2,0.6-0.5,0.8-0.6c0.1,0.2,0.2,0.6,0.4,0.8c0.5,2.4,0.8,4.8,1.3,7.2c0.2,1.4,0.7,3,1,4.4
			c0.1,0.8,0.1,1.7-0.1,2.5c-0.1,1.6-1.4,2.6-3,2.6c-1.2,0.1-2.3,0-3.5-0.2C80.7,242.2,76.3,241.6,72,241.4
			C72,241.4,72,241.4,72,241.4z"/>
		<path class="st1" d="M103.7,208.7c-2.3-1.6-4.1-3.7-5.1-6.2c-3.2-5.8-3.5-12.9-0.8-19c1.2-3.2,3.1-6.2,5.5-8.7
			c0.7-0.6,1.4-1.1,2.3-1.4c-0.5,0.6-1.1,1.2-1.6,1.8c-3.5,4.1-5.6,9-6.3,14.2c-0.6,5.7,1,11.5,4.2,16.1
			C102.6,206.7,103.1,207.8,103.7,208.7C103.7,208.7,103.7,208.7,103.7,208.7z"/>
		<path class="st1" d="M89.4,176.3c0.2-0.7,0.6-1.4,1-2.1c1.8-2.5,4.2-4.7,6.9-6.1c1-0.5,1.9-1,2.9-1.4c2.6-1.3,4.8-3.5,6.1-6.1
			c0.1-0.2,0.4-0.5,0.5-0.6l0,0c0.4,1.4-0.1,3-1.2,3.9c-1.4,1.3-3,2.5-4.5,3.5c-3.1,1.8-6.3,3.2-8.8,6c-0.8,1-1.8,2-2.6,3.1
			L89.4,176.3L89.4,176.3L89.4,176.3z"/>
		<path class="st1" d="M102.9,262.9c0.5,0.1,1,0.2,1.4,0.4c0.1,0.1,0.2,0.1,0.4,0.2h-0.6C103.7,263.4,103.3,263,102.9,262.9
			C102.9,262.8,102.9,262.9,102.9,262.9z"/>
		<path class="st1" d="M281.7,250.3l-0.7,1.4l-0.2-0.2L281.7,250.3L281.7,250.3z"/>
		<path class="st1" d="M101.6,262.5l1.3,0.4l0,0L101.6,262.5L101.6,262.5z"/>
		<path class="st1" d="M24.7,228.7l-0.2-0.4l0.1,0.2L24.7,228.7L24.7,228.7z"/>
		<path class="st1" d="M204.8,43.2L204.8,43.2l0.1-0.1v0.1H204.8z"/>
		<path class="st1" d="M206.5,42.5l-0.4,0.4l-0.1-0.2L206.5,42.5L206.5,42.5L206.5,42.5z"/>
		<path class="st1" d="M89.5,176.4l-0.2,0.7l-0.1-0.1C89.3,176.6,89.4,176.5,89.5,176.4C89.5,176.4,89.5,176.4,89.5,176.4z"/>
		<path class="st1" d="M206.6,42.5l0.8-0.5l0,0L206.6,42.5L206.6,42.5z"/>
		<path class="st1" d="M103.7,208.7l0.4,0.5l0,0L103.7,208.7L103.7,208.7z"/>
		<path class="st1" d="M104.7,209.6l-0.5-0.4l0,0L104.7,209.6L104.7,209.6z"/>
		<path class="st1" d="M105.1,210.1l-0.4-0.5l0,0L105.1,210.1L105.1,210.1z"/>
		<path class="st1" d="M105.1,210.1L105.1,210.1z"/>
		<path class="st1" d="M106.8,159.9L106.8,159.9L106.8,159.9z"/>
		<path class="st1" d="M31.2,141.2l-0.1,0.2v-0.1C30.9,141.3,31.1,141.3,31.2,141.2L31.2,141.2z"/>
		<path class="st1" d="M282.3,249.9L282.3,249.9L282.3,249.9z"/>
		<path class="st1" d="M281.8,250.4l0.5-0.4h-0.1L281.8,250.4L281.8,250.4L281.8,250.4z"/>
		<polygon class="st1" points="33.7,104.9 33.8,104.9 33.8,104.8 		"/>
		<path class="st1" d="M256.3,97.5L256.3,97.5z"/>
		<path class="st1" d="M27.7,95.7l-0.4-0.1L27.7,95.7L27.7,95.7z"/>
		<polygon class="st1" points="273.5,63.3 273.5,63.4 273.6,63.3 		"/>
		<path class="st1" d="M80.8,47.7l-0.2-0.2h0.1C80.8,47.6,80.8,47.7,80.8,47.7C80.8,47.7,80.8,47.7,80.8,47.7z"/>
		<path class="st1" d="M81.3,37.7L81.3,37.7z"/>
		<path class="st1" d="M124.5,122.6l-0.1,0.2h-0.1L124.5,122.6L124.5,122.6z"/>
		<path class="st1" d="M194.1,58.1c-0.1,0.1-0.2,0.1-0.4,0.2h-0.4c0.1-0.1,0.2-0.1,0.4-0.1C193.9,58.1,194,58.1,194.1,58.1
			C194.1,58.1,194.1,58.1,194.1,58.1z"/>
		<path class="st1" d="M212.7,44.3L212.7,44.3L212.7,44.3z"/>
		<path class="st1" d="M242.4,275.5h0.8c0.1,0,0.2,0.1,0.4,0.2h-0.4C242.9,275.6,242.7,275.5,242.4,275.5L242.4,275.5z"/>
		<path class="st1" d="M202.7,294.6l0.2-0.2L202.7,294.6L202.7,294.6z"/>
		<polygon class="st1" points="244.7,279 244.7,278.8 244.6,278.9 		"/>
		<path class="st1" d="M236.8,280.6l0.1,0.1L236.8,280.6z"/>
		<path class="st1" d="M228.6,283.7l0.1-0.2L228.6,283.7L228.6,283.7z"/>
		<path class="st1" d="M237.3,65.9c0,0,0,0.1-0.1,0.1h-0.1L237.3,65.9L237.3,65.9L237.3,65.9z"/>
		<polygon class="st1" points="237.2,59.3 237.2,59.4 237.3,59.3 		"/>
		<path class="st1" d="M138.2,65l0.2,0.1L138.2,65L138.2,65z"/>
		<path class="st1" d="M129.6,44.6L129.6,44.6z"/>
		<path class="st1" d="M83.5,114.5l0.8,0.4l0,0L83.5,114.5L83.5,114.5z"/>
		<path class="st1" d="M83.5,114.5l-0.1-0.1L83.5,114.5z"/>
		<path class="st1" d="M108,89.6v-0.1l0.1,0.1H108z"/>
		<path class="st1" d="M104.1,189.4c1.1,0.4,1.2,1.3,1.3,2.3c0.1,1.4,0.7,2.9,1.7,3.9c3.3,3.9,1.8,5.4,0.2,8.6
			c-0.2,0.6-0.6,0.2-0.7,0c-0.2-0.4-0.4-0.6-0.6-0.8c-2.7-2.7-3.3-5.7-1.4-9.2C105.3,192.4,104.6,190.8,104.1,189.4L104.1,189.4z
			 M107.9,199.6c0.1-2.1-1.6-3.3-2.6-4.8c0-0.1-0.4,0-0.5,0.1c-0.8,1.6-0.8,3.3-0.2,5c0,0.2,0.1,0.4,0.2,0.6
			c0.6,0.8,1.2,1.6,1.8,2.4c0.5-1,0.8-1.9,1.3-2.9V199.6L107.9,199.6L107.9,199.6z"/>
	</g>
</g>
</svg>
