<svg version="1.1" id="Layer_1" xmlns="http://www.w3.org/2000/svg" xmlns:xlink="http://www.w3.org/1999/xlink" x="0px" y="0px"
	 viewBox="0 0 1000 258.8" style="enable-background:new 0 0 1000 258.8;" xml:space="preserve">
<style type="text/css">
	.st0{fill:none;stroke:#000000;stroke-width:5;stroke-linecap:round;stroke-linejoin:round;stroke-miterlimit:10;}
	.st1{stroke:#000000;stroke-linecap:round;stroke-linejoin:round;stroke-miterlimit:10;}
	.st2{font-family:'Merriweather-Regular';}
	.st3{font-size:104.12px;}
</style>
<path class="st0" d="M256.9,129.3c0-70.9-57.8-127.9-127.8-127.9C58.8,1.3,1.5,58.5,1.2,128.6C0.9,199,58,256.8,128.6,257.1
	S256.8,200,256.9,129.3L256.9,129.3z"/>
<g>
	<path class="st1" d="M181.5,27.8c2.3-1.1,4.7-2.1,7-3.2c0.9-0.5,1.7-1.1,2.3-1.9c0.6-0.8,0.7-1.9,0.1-2.7c-0.6-0.8-1.7-1.2-2.7-0.9
		c-0.9,0.4-1.2,1-1.1,2.4c0,0.2-0.1,0.4-0.1,0.6c-0.2-0.1-0.4-0.1-0.5-0.2c-0.2-0.5-0.6-1.1-0.5-1.6c0.3-1.1,1.1-2,2.2-2.2
		c0.9-0.4,2-0.1,2.7,0.6c1.7,1.7,1.7,4.5,0,6.2c-0.2,0.2-0.4,0.3-0.6,0.5c-1.2,0.7-2.5,1.2-3.8,1.6c-1.6,0.5-3,1.2-4.3,2.3
		c-0.2,0.2-0.3,0.4-0.4,0.6h0.7c1.3,0,2.6-0.1,4,0c1.8,0,3.5,0.5,4.9,1.6c0.5,0.4,0.6,0.2,0.7-0.4c0.2-1.4,0.5-2.8,1-4.1
		c1.9-3.9,6.8-3.7,9.2-1.4c1.2,1,1.7,2.6,1.3,4.1c-0.2,0.8-0.9,1.4-1.6,1.5c-0.4,0-0.7,0-1.1-0.1c0.2-0.2,0.5-0.4,0.7-0.6
		c1.4-1.1,1.5-2.5,0.2-3.9c-1.9-2-5.1-2-7.1-0.1c-0.2,0.2-0.4,0.4-0.5,0.6c-0.7,1-1.1,2.2-1.1,3.4c0.1,1.7,0.2,3.4,0.4,5
		c0.1,0.3,0.1,0.6,0.1,0.9c0,0.7,0,1.3-0.1,2c0.5-0.5,1-1,1.4-1.5c2.2-2.4,5.2-4,8.4-4.6c1.4-0.3,2.7-0.4,4.1-0.4
		c3-0.1,5.7,1.6,7,4.3c0.7,1.3,1.2,2.6,1.6,4.1c0.9,3.6,2.5,7.1,4.7,10.1c0.6,0.9,1,1.8,1.3,2.8c0.2,0.6,0.4,0.6,0.8,0.2
		c1.4-1.5,2.1-1.3,2.5,0.6c0.3,1.5,0.5,3,0.5,4.5c0,0.7,0.3,1.4,0.9,1.9c0.8,0.7,1.6,1.5,2.3,2.3c0.5,0.6,1,0.5,1.3-0.1
		c0.5-0.8,0.9-1.7,1.1-2.6c0.4-3.7-0.7-7.4-2.9-10.4c-1.3-1.8-2.2-1.9-4.3-0.9l0,0c-0.9-0.6-1.8-1.1-2.7-1.7
		c-0.8-0.5-1.3-1.5-1.3-2.5c0-0.5-0.2-1.1-0.3-1.6c-0.1-0.3-0.3-0.5-0.4-0.8c0.3-0.1,0.7-0.1,1-0.1c2,0.6,3.6,2.2,4.3,4.1
		c0.2,0.7,0.4,1.1,1.3,1c1.1-0.1,2.2,0.5,2.8,1.4c2.2,2.7,3.5,6,3.6,9.5c0,1.8-0.6,3.6-1.7,5c-0.3,0.5-0.3,0.6,0.3,0.8
		c1.6,0.4,3.3,0.8,4.8,1.4c2.3,0.9,4.2,2.4,5.6,4.5c1.1,1.5,1.6,3.4,1.5,5.3c0,1.6-1.3,2.9-2.9,2.8c-0.2,0-0.5,0-0.7-0.1
		c-1.7-0.4-3.2-1.5-4-3.1c-0.4-0.7-0.5-1.7-0.1-2.5c0.3-0.8,1.1-1.3,2-1.2c0.9,0,1.6,0.6,1.8,1.5c0,0.2,0,0.3-0.1,0.5
		c-0.1,0-0.3-0.1-0.4-0.2c-0.2-0.2-0.4-0.3-0.6-0.5c-0.5-0.2-1.1-0.6-1.5-0.1c-0.3,0.4-0.4,1-0.3,1.5c0.2,1.3,2.3,3,3.7,3.1
		c1,0.1,1.9-0.6,2-1.5c0-0.1,0-0.1,0-0.1c0.1-1,0-2-0.3-3c-0.7-1.9-2-3.6-3.7-4.7c-1.8-1.2-3.8-2.1-5.9-2.6c-0.2,0-0.5,0-0.7,0
		c0,0.2,0.1,0.3,0.2,0.5c2.2,3.8,2.6,8,2.9,12.2c0.1,1.1,0.3,2.1,0.7,3.2c1.3,3.7,1.6,7.7,1.1,11.6c-0.6,4.2-0.8,8.5-1.3,12.8
		c-0.4,3.1-1.2,6.1-2.5,8.8c-1.7,3.8-4.7,7-8.5,8.8c-0.2,0.1-0.4,0.2-0.5,0.4c0.2,0,0.5,0,0.7,0c6.4-1.4,11.6-5.9,14.1-11.9
		c0.6-1.4,1-3,1.5-4.5l1.6-4.6c0.2-0.4,0.3-0.8,0.3-1.2c0.1-1.9,0.4-3.8,1-5.7c0.3-1.2,0.1-2.4-0.5-3.5c-0.5-0.9-0.8-1.8-1.1-2.7
		c-0.5-1.8-0.2-3.8,0.8-5.4c0.4-0.6,0.8-1.2,1.3-1.8c1.5-1.7,2-3.6,0.8-5.6c-0.1-0.1-0.1-0.3-0.1-0.5c0.2,0,0.3,0.1,0.5,0.2
		c0.8,0.8,1.2,2,1,3.2c-0.2,1.5-0.9,2.9-2,4c-1.2,1.2-1.7,2.8-1.5,4.5c0,0.2,0.2,0.3,0.4,0.5c0.1-0.2,0.2-0.3,0.2-0.5
		c0-0.5-0.1-1,0.1-1.4c0.2-0.4,0.7-0.5,1.1-0.7c0.1,0.4,0.2,0.7,0.3,1.1c0,0.2-0.1,0.4-0.2,0.5c-0.2,0.3-0.4,0.7-0.6,1
		c0.5,0,0.9,0,1.3-0.1c0.3-0.1,0.7-0.2,1-0.3c2-0.6,2.1-0.7,2.3-2.9c0-0.2,0.1-0.3,0.1-0.5c0.1,0.1,0.2,0.3,0.3,0.4
		c0.7,1.3,0.2,2.9-1.1,3.6c-0.2,0.1-0.5,0.2-0.7,0.3c-0.5,0.1-1,0.2-1.4,0.4c-1.1,0.2-1.8,1.3-1.5,2.4c0.1,0.2,0.1,0.4,0.2,0.6
		c0.1,0.2,0.2,0.4,0.4,0.6c2,1.6,2,3.8,1.9,6.1c-0.2,3.5-1,6.9-2.4,10c-0.9,2-1.9,4-2.8,6.1c-0.7,1.3-1,2.9-1,4.4
		c0,0.2,0.1,0.3,0.2,0.5c0.2-0.1,0.3-0.1,0.4-0.2c1.2-1.4,2.7-2.6,4.3-3.5c1.4-0.9,2.7-1.8,4-2.8c1.8-1.5,2.9-3.6,3.1-6
		c0.2-0.7-0.2-1.4-0.8-1.7c-2.5-1.4-3.2-3.8-3.3-6.5c0-0.1,0.1-0.3,0.2-0.4l0.3,0.2l2.6,1.9c0.4,0.3,0.8,0.6,1.2,0.8
		c0-0.5,0-1.1,0.1-1.6l0.1-2.1c0.3,0.7,0.5,1.3,0.6,2c0.5,2.6,0.5,5.3,0,7.9c-0.4,2.5-1.7,4.7-3.6,6.3c-1.2,1-2.4,1.8-3.7,2.6
		c-1,0.7-2.1,1.4-3.1,2.2c-2.1,1.8-2.3,4-0.7,6.2c2.3,2.9,6.3,3.8,9.6,2.3c3.2-1.9,5-5.5,4.5-9.2c-0.1-1.2-0.9-2.2-2-2.5
		c-1.3-0.3-2.7,0.2-3.5,1.3c-0.1,0.2-0.2,0.3-0.4,0.5c-0.1-0.2-0.3-0.5-0.2-0.7c0.2-0.6,0.5-1.2,1-1.6c1.7-1.2,4-0.9,5.2,0.8
		c0.1,0.2,0.2,0.3,0.3,0.5c0.5,1,0.7,2,0.8,3.1c0.1,4.2-3.2,9.4-8.5,9.6c-5.2,0.1-9.5-3.9-9.9-9c0-0.2,0-0.5,0-0.7
		c0-0.1-0.3-0.2-0.4-0.2c-0.2,0.2-0.4,0.5-0.6,0.7c-5.6,7.9-13.2,10.2-22.4,8.7c-2.5-0.4-4.9-1.2-7.2-2.4c-4.5-2.1-7.5-6.5-7.7-11.5
		c-0.1-2.2,0-4.3,0.3-6.5c0.3-1.9,1.4-3.7,3.1-4.7c0.3-0.2,0.6-0.3,0.9-0.4c-0.2,0.2-0.3,0.5-0.6,0.7c-2.1,2.2-3.1,5.1-2.8,8.1
		c0,0.2,0.1,0.5,0.1,0.7c0.1-0.2,0.2-0.4,0.3-0.6c0.5-1.5,1.7-2.7,3.3-3.1c0.5-0.2,0.9-0.3,0.8,0.6c-0.1,1.1-0.2,2.3-0.2,3.4
		c0.1,1.5-1,2.9-2.5,3c-0.7,0-0.6,0.4-0.3,0.8c1.6,2.5,3.9,4.4,6.6,5.4c8.9,3.5,18.4-0.7,22.2-9.8c1.1-2.7,1.8-5.5,2.1-8.4
		c0.5-3.8,0.4-7.7-0.2-11.6c-0.1-0.4-0.2-0.8-0.3-1.2c-0.1-0.4-0.3-0.7-0.6-0.2c-1.3,2-3.3,1.3-5.1,1.4c-0.1,0-0.4-0.5-0.3-0.6
		c0.3-0.5,0.7-0.9,1.2-1.3c0.5-0.3,1.1-0.5,1.6-0.7c1.7-0.8,2.1-2,1.2-3.7c-2.6-4.8-6.4-8.9-11-11.8c-0.9-0.5-1.9-1-2.9-1.4
		l-0.1-0.1l0.1,0.1c0.8,2.1,0.9,4.4,0.3,6.5c-0.3,1.2-0.3,2.4,0,3.6c0.9,3.3,4.9,5,8.1,3.7c1.3-0.5,2-1.9,1.5-3.2
		c0-0.1,0-0.1-0.1-0.1c-0.1-0.3-0.3-0.7-0.5-1c-1.1-2-2.3-2-3.6-0.2c-0.1,0.1-0.3,0.2-0.5,0.3c-0.1-0.2-0.1-0.3-0.1-0.5
		c0-1.2,1-2.1,2.2-2.1c0.4,0,0.8,0.1,1.1,0.3c1.6,0.8,2.7,2.4,2.8,4.2c0.1,1.5-0.8,2.8-2.2,3.2c-2.4,1.1-5.3,0.7-7.4-0.9
		c-2.2-1.5-3.2-4.1-2.6-6.7c0.1-0.7,0.3-1.4,0.5-2.1c0.3-1.3,0.2-2.7-0.3-3.9c-0.8-2-3.1-3.2-5.2-2.6c-1.8,0.5-2.9,2.4-2.4,4.2
		c0.1,0.3,0.2,0.5,0.3,0.8c0.2,0.3,0.3,0.6,0.4,1l0,0c-1.6-0.6-2.4-2.4-1.8-4c0.1-0.2,0.2-0.4,0.3-0.6c0.5-0.9,1.3-1.6,2.2-2
		c0.2-0.1,0.4-0.3,0.5-0.4c-0.2-0.1-0.4-0.2-0.6-0.3c-3.5-1.1-7.1-1.8-10.8-2c-2.2-0.2-4.5-0.2-6.7-0.2c-0.7,0-0.8,0.3-0.5,0.9
		c1.1,1.6,1,3.8-0.3,5.4c-0.2,0.1-0.4,0.2-0.6,0.2c0-0.2,0-0.3,0-0.5c0.5-2.3,0.4-2.5-1.6-3.7c-0.4-0.2-0.9-0.7-0.9-1
		c0.2-1.4-0.7-1.1-1.5-1c-6.2,0.4-12.4,1.4-18.4,3c-7.1,1.9-13.9,5.1-19.9,9.3c-1.5,1.1-2.9,2.3-4.4,3.5c-0.1,0.2-0.2,0.3-0.3,0.5
		c0.2,0,0.3,0,0.5,0c4.1-1.3,8.3-2,12.6-2.1c1.3-0.1,2.6-0.3,3.9-0.7c0.9-0.2,1.6-0.9,1.7-1.9c0.1-0.9-0.7-1.8-1.9-2.2
		c-1.1-0.5-2.4-0.4-3.5,0.3c-0.4,0.3-0.7,0.8-0.8,1.4c0,0.7,0.7,0.9,1.4,0.9c0.2,0,0.5-0.1,0.7-0.1c0.1,0,0.2,0,0.3,0
		c-0.1,0.2-0.1,0.3-0.2,0.4c-0.8,0.7-2,0.7-2.8-0.1c-0.8-0.8-0.8-2,0-2.8c0.1-0.1,0.1-0.1,0.2-0.2c1.5-1.5,3.4-2.5,5.5-3
		c3.5-0.7,6.5,0.6,9.2,2.8c0.3,0.2,0.5,0.5,0.7,0.8s0.5,0.4,0.7-0.1c0.7-1.4,1.2-2.8,0.2-4.3c-0.4-0.5-0.4-1.2,0.1-1.6
		c0.1-0.1,0.1-0.1,0.2-0.1c0.8-0.4,1.7-0.2,2.2,0.5c0.4,0.7,0.3,1.7-0.2,2.3c-0.6,1-0.6,2.2-0.1,3.2c0.6,0.5,1.4,0.6,2,0.2
		c0.7-0.2,1.1-0.7,0.8-1.4c-0.3-0.5-0.2-1.1,0.3-1.5c0.2-0.1,0.3-0.2,0.5-0.2c0.5,0,1,0.1,1.4,0.4c0.2,0.1,0.1,0.9-0.1,1.1
		c-1.4,1.4-0.9,3-0.8,4.6c0.1,0.8,0.1,1.4-0.7,1.8c-0.3,0.2-0.6,0.5-0.6,0.9c0.5,4.4-1,8.6-1.6,12.9c-0.2,1.6,0,2.2,1.4,2.9
		c1.6,0.9,3.5,1.1,5.2,0.5c1.5-0.5,2.4-2.1,2.1-3.6c-0.3-1.7-1.7-3-3.4-3.3c-0.7-0.1-1.3,0.4-1.5,1c-0.1,0.2-0.2,0.4-0.3,0.6
		c-0.1-0.3-0.4-0.5-0.4-0.8c0-1.1,0.9-1.9,1.9-1.9c0.1,0,0.1,0,0.2,0c2.2,0.2,3.9,1.8,4.4,3.9c0.5,2-0.5,4-2.4,4.8
		c-0.7,0.3-1.4,0.5-2.1,0.6c-0.5,0.1-1,0.2-1.6,0.2c0.3,0.4,0.6,0.9,0.9,1.3c1.6,2.7,1.5,5.6,1.2,8.6c0,0.3-0.1,0.6-0.2,0.9
		c-0.2,1.2-0.2,1.2,1,1.7c1,0.4,1.8,1.3,2,2.4c0.1,0.6,0.2,1.2,0.2,1.8c0,0.3-0.1,0.7-0.2,1c-0.2-0.2-0.5-0.5-0.8-0.7
		c-0.5-0.4-1.1-0.7-1.7-1c-0.3-0.2-0.8-0.4-0.9-0.7c-0.3-1.1-0.5-1-1.1-0.1c-1.6,2.6-4.1,4.5-7,5.4c-0.5,0.1-0.9,0.3-1.4,0.3
		c-0.2,0-0.4,0-0.5-0.1c0-0.2,0.1-0.3,0.1-0.5c0.3-0.4,0.6-0.7,0.9-1.1c2.3-2.6,3.9-5.7,4.6-9.1c0.7-3.8-0.2-7.7-2.5-10.8
		c-2.2-3.2-5.2-5.8-8.6-7.6c-3.5-2.1-7.4-3.6-11.4-4.3c-3.5-0.7-7.2-0.3-10.4,1.2c-1,0.6-1.9,1.3-2.8,2c-0.3,0.2-0.6,0.6,0.1,0.7
		c1.7,0.3,2.2,1.9,3.1,3.1c0.3,0.5,0,0.6-0.4,0.7c-0.6,0.1-1.2,0.1-1.8,0.1c-1.1,0.3-2.2-0.3-2.6-1.4c-0.2-0.6-0.5-0.6-0.8,0
		c-0.5,0.9-1.1,1.8-1.6,2.6c-4,6.1-9.3,10.2-16.7,11.3c-0.2,0-0.3,0.2-0.5,0.3c0.1,0.1,0.3,0.2,0.4,0.3c0.9,0.4,1.9,0.8,2.8,1.3
		c5.8,2.9,9.2,7.8,11.4,13.7c0.2,0.4,0.3,0.8,0.4,1.2c0.2,1.2,1,2.2,2.1,2.5c2.3,1,4,3,4.8,5.4c0,0.2,0,0.3,0,0.5
		c-0.2,0-0.3,0-0.5-0.1c-1.5-0.7-3.1-1.3-4.6-2.1c-0.7-0.3-0.5,0.1-0.5,0.5c-0.1,1.5-0.1,3-0.3,4.5c-1.1,7.4-7.9,11-14.7,9.1
		c-3-0.7-5.5-2.6-7.1-5.2c-2.2-3.3-1.3-7.8,2-10.1c0.4-0.3,0.8-0.5,1.3-0.7c0.4-0.2,0.9-0.2,0.9-0.9c0.1-0.5-0.3-1.1-0.8-1.3
		c-1.6-0.9-2-1.9-1.5-3.8c0.3-1,1.4-2,0.3-3.2c0,0,0.2-0.4,0.2-0.4c0.4,0,0.9-0.1,1.1,0.1c0.3,0.4,0.4,0.9,0.4,1.3
		c-0.3,1.5,0.5,2.2,1.7,2.8c1.5,0.7,2.8,1.7,4.2,2.5c0.1,0.1,0.2,0.3,0.3,0.4c-0.2,0.1-0.3,0.2-0.5,0.2c-1.1,0.1-2.2,0.2-3.2,0.2
		c-0.5,0-0.8,0-0.8,0.7c0,0.7,0.4,0.7,0.8,0.7c0.8,0.1,1.7,0.3,2.5,0.5c1.8,0.6,2.7,2.4,2.2,4.2c-0.2,1.2-1.3,2-2.5,1.8
		c-0.2,0-0.3-0.2-0.4-0.3c0.1-0.1,0.2-0.3,0.3-0.3c1.3-0.2,1.6-1.1,1.6-2.3c0-1.1-0.7-2-1.7-2.3c-3.1-1.3-6.7,0.1-8.1,3.2
		c-0.7,1.7-0.6,3.7,0.3,5.4c1.2,2.3,3.4,4,5.9,4.8c1.5,0.3,3,0,4.1-1c3.8-2.6,6-6.9,4.4-12c-1-2.9-2.6-5.6-4.8-7.8
		c-2.9-3.2-6-6.1-10.1-7.8c-3.8-1.7-8.2-1.4-11.9,0.6c-4.1,2.2-7.2,5.4-10.2,8.9c-1.8,2-3.1,4.4-3.9,7c-0.7,2.7-1.7,5.4-2.6,8.1
		c-0.2,0.5-0.3,1.1-0.3,1.7c0.3,2.4,0.8,4.7,1.4,7c0.5,1.2,1.2,2.4,2.2,3.3c1.5,1.7,2.7,3.6,3.7,5.6c1.2,2.4,2.4,4.7,3.7,7
		c2.1,3.5,3.1,7.5,3,11.6c-0.1,0.7,0.3,1.4,1,1.6c4.4,1.9,7.8,5.5,9.5,10c1,2.6,2.2,5.1,3.3,7.6c0.7,1.4,1.7,2.7,3,3.6
		c3.5,2.6,6.8,5.4,10.3,8c5.7,4.2,12.5,6.7,19.5,7.4c3.6,0.3,7.2,0.5,10.8,0.5c1.8-0.1,3.6-0.2,5.4-0.5c4.2-0.6,8.4-0.4,12.6,0.4
		c2.2,0.5,4.5,0.3,6.6,0.9c6.6,1.8,13.3,2,20,2.9c3.6,0.5,7-0.4,10.3-1.4c4.4-1.5,8.6-3.7,12.2-6.6c2.1-1.6,4-3.3,5.7-5.3l0.2,0.2
		c-1.1,1.6-2.2,3.3-3.4,4.9c-9,11.4-20.1,20.9-32.7,28c-38.1,22.2-84.8,23.6-124.1,3.9c-14.7-7.5-27.8-17.7-38.6-30.1
		c-4.6-4.9-8.6-10.4-11.8-16.4c-1.6-3-2.7-6.3-4.1-9.5l0,0c1.1,1.2,2.2,2.4,3.3,3.5c5.2,5,11.7,8.5,18.7,10c1.3,0.3,2.7,0.2,4-0.2
		c4.7-1.6,9.7-2.3,14.8-2.2c4.7,0.2,9.2,2,12.6,5.2c0.8,0.7,0.8,0.7,1.3-0.3c0.6-1.4,1.3-2.7,2.1-4c1.7-2.7,2-6.1,0.6-9
		c-0.9-2.3-1.9-4.7-2.9-7c-0.7-1.7-0.4-3.6,0.6-5c0.1-0.1,0.3-0.2,0.4-0.3c0.1,0.1,0.2,0.3,0.2,0.4c-0.3,2.9,0.9,5.4,1.9,8
		c0.8,1.9,1.5,3.8,2.1,5.8c0.7,2.3,0.4,4.8-0.8,6.8c-0.5,1-1.1,1.9-1.6,2.9c-0.4,0.8-0.7,1.6-1,2.5c-0.5,1.1-0.3,2.5,0.5,3.4
		c0.9,1.2,1.8,2.5,2.7,3.6c1.1,1.4,2.4,2.5,4,3.4c0.3,0.2,0.6,0.5,0.9,0.8l0,0c-2.3-0.5-4.3-1.9-6.3-3c-1.6-0.9-3.2-1.8-4.8-2.5
		c-2.7-1-5.5-1.4-8.3-1c-0.1,0-0.2,0.1-0.3,0.2c0.1,0.1,0.2,0.2,0.3,0.2c0.8,0.2,1.5,0.4,2.3,0.6c3.7,1,7.3,2.5,10.6,4.5
		c3.3,1.9,6.7,3.8,10.2,5.4c3.1,1.5,6.5,2.4,9.9,2.6c3.7,0.2,7.3,0.8,11,1c2.8,0,5.7-0.1,8.5-0.3c3.6-0.2,6.5-2.2,9.3-4.1
		c0.6-0.4,0.3-0.6-0.2-0.7c-2.4-0.9-5-1-7.5-0.4c-2.8,0.6-5.6,1.4-8.4,2.1c-1.2,0.3-2.3,0.6-3.5,0.8c-2.7,0.7-5.6,0.5-8.2-0.6
		c-3.4-1.3-6.8-2.4-10.3-3.3c-0.2-0.1-0.4-0.2-0.6-0.2c0.2,0,0.5,0,0.7,0c5.4,1.1,10.9,0.8,16.4,0.4c4.7-0.5,9.4-1.3,14-2.4
		c4.3-1,8.7-1.3,13.1-0.7c0.2,0,0.5,0,0.7,0c-0.2-0.2-0.4-0.3-0.7-0.4c-6-2-12-2.7-18.3-0.6c-7,2.4-14.5,3.4-21.9,3
		c-2.7-0.1-5.3-0.7-7.7-1.8c-1.2-0.6-2.3-1.3-3.3-2.1c-2.7-2.5-3-5.7-2.3-9c0.4-1.6,0.9-3.1,1.4-4.7c0.3-0.9,0.7-1.8,1-2.7
		c1.6-3.9,1.2-8.4-0.9-12c-1.4-2.5-2.5-5.1-3.5-7.7c-0.4-1.3-0.6-2.7-0.7-4.1c0-0.2,0.2-0.3,0.3-0.5c0.1,0.1,0.2,0.3,0.2,0.4
		c0.4,2.2,1.1,4.3,2.2,6.3c0.7,1.5,1.6,2.9,2.3,4.3c0.9,1.7,1.6,3.5,2.2,5.4c0.8,2.9,0,5.7-0.9,8.5c-0.9,2.5-1.7,5-2.3,7.6
		c-0.9,4.2,0.9,7.3,4.8,9c2.9,1.1,5.9,1.7,9,1.8h3.1c0.2,0,0.3-0.1,0.5-0.1c-0.1-0.1-0.3-0.2-0.4-0.3c-1-0.3-2.1-0.6-3.1-0.9
		c-2.5-0.7-4.8-1.9-6.9-3.5c-1.6-1.3-2.8-3.2-3.4-5.2c-0.6-2.1-0.4-4.4,0.6-6.3c0.6-1.1,1.2-2.1,1.8-3.1c3.2-5.7,3.2-12-1.9-17.1
		c-2-1.9-4-3.8-6-5.7c-1.8-1.7-2.8-4-2.9-6.4c0-2.9,0.8-5.7,2.5-8c0.1-0.1,0.3-0.2,0.4-0.3c0.1,0.1,0.2,0.3,0.3,0.5
		c0.4,1.5,0.8,2.9,1.1,4.4c0.7,2.8,2.2,5.3,4.2,7.3c2.2,2.2,4.3,4.4,6.6,6.5c2.1,2,3.5,4.5,4,7.4c0.9,5.2,3.1,10,6.5,14
		c1.6,1.9,3.5,3.5,5.7,4.7c0.1,0.1,0.2,0.3,0.4,0.4c4.4,2.8,9.3,4.7,14.4,5.7c5,0.8,9.8,2.6,14,5.5c0.2,0.2,0.5,0.3,0.8,0.4
		c0.8,0.3,1.7,0.6,2.5,0.8c0.2,0,0.5,0,0.7,0c-0.2-0.2-0.3-0.3-0.5-0.5c-2.6-1.7-5.3-3.3-7.8-5.2c-4-3-7.9-6.3-11.9-9.5
		c-4.1-3.3-8.5-6.2-13.2-8.5c-0.4-0.2-0.9-0.3-1.3-0.4c0.1,0.5,0.2,0.9,0.3,1.3c2.3,4.3,5.8,7.8,10,10.1c2.4,1.4,5,2.3,7.6,2.6
		c0.2,0,0.4,0.2,0.6,0.3c-0.2,0.1-0.4,0.1-0.6,0.2c-3.2,0.2-6.4-0.1-9.5-1c-2.2-0.7-4.3-1.7-6.5-2.6c-0.9-0.8-1.8-1.6-2.7-2.4
		c-1.9-1.9-3.2-4.2-3.9-6.8c0-0.2,0-0.3,0.1-0.5c0.1,0.1,0.2,0.2,0.3,0.3c0.2,0.4,0.4,0.9,0.7,1.3c2.3,4,5.8,7.1,10.1,8.8
		c0.2,0.1,0.5,0.1,0.7,0.1c0,0,0,0.1,0.1,0.1h0.1l-0.2-0.1c-1.1-1.1-2.3-2.3-3.3-3.5c-1.5-1.8-2.9-3.6-4.4-5.5
		c-1.4-1.9-2.7-3.7-4.2-5.5c-3.6-4.2-4.8-10-3.2-15.3c1.2-4.5,0.9-9.3-0.7-13.7c-0.8-2-1.9-3.8-3.3-5.3c-2.2-2.9-3.5-6.4-4-10
		c-0.2-1.4,0.1-2.8,0.6-4c1-2.8,1.9-5.7,2.8-8.6c0.2-0.5,0.2-1.1,0.1-1.6c-0.4-1.8-0.2-3.8,0.7-5.5c2.3-4.7,6.2-7.4,11.2-8.7
		c0.7-0.1,1.4-0.1,2.1-0.1c0.3,0,0.6,0.1,0.9,0c0.6-0.2,1.2-0.5,1.8-0.8c-0.5-0.3-1-0.6-1.6-0.8c-2-0.6-4.1-0.7-6.1-0.3
		c-2.4,0.4-4.4,1.8-5.6,3.9c-0.5,0.8-0.9,1.6-1.4,2.3c-0.9,1.5-2.2,2.6-3.8,3.2c-0.6,0.2-1,0.7-1,1.3c-0.3,3.2-2.2,5.3-4.7,7
		c-1.1,0.8-2.3,1.6-3.5,2.3c-5.1,2.8-7.8,7.2-8.7,12.8c-0.1,0.5-0.2,1-0.3,1.5c-0.2-0.5-0.4-1.1-0.5-1.7c-0.1-1.1-0.1-2.3,0.1-3.4
		c0.6-3,0.7-6,0.3-9c-0.7-5.4,0.8-10.8,4.1-15c1-1.2,1.1-2.8,0.4-4.2c-0.6-1.3-1.2-2-2.8-1.9c-3.1,0.3-6.2,0.4-9.4,0.7
		c-0.5,0-1.1,0.1-1.6,0.1c-1.3,0-1.7-0.3-2-1.6c-0.2-0.8-0.6-1.1-1.4-0.9s-1.8,0.2-2.7,0.4c-0.9,0.2-1.2,0.8-0.5,1.5
		c0.7,0.7,1.4,1.3,2.1,2c1.5,1.2,1.7,3.4,0.4,4.9l0,0c-3.5,5.4-10.6,4.7-13.6,1.7c-2.7-2.7-4-6.5-3.3-10.3c0.4-3.3,1.9-6.4,4.2-8.8
		c0.1-0.2,0.3-0.4,0.4-0.6c-0.2-0.1-0.5-0.2-0.7-0.3c-5.6-0.2-11.2,1-16.3,3.5c-1.5,0.7-2.7,1.9-3.4,3.4c-2,3.5-3.4,7.3-4,11.2
		c-0.2,0.7,0.1,1.5,0.6,1.9c1,0.9,2.1,1.7,3.3,2.4c1.9,0.9,4.1,0.5,5.4-1.1c1.5-1.5,2-3.9,1-5.8c-0.9-1.9-3.6-3.9-6.1-3.2
		c-0.3,0-0.6,0-0.9,0l0,0c1.6-1.3,3.8-1.4,5.5-0.2c2,1.3,3.2,3.6,2.9,6c-0.1,2.3-1.5,4.4-3.5,5.3c-2.2,1.1-4.2,0.5-6.1-0.7
		c-0.6-0.5-1.2-1-1.8-1.5c-0.1-0.1-0.3-0.2-0.5-0.2c-0.1,0.2-0.1,0.3-0.1,0.5c0,1.3,0,2.5,0.1,3.8c0.1,0.6,0.4,1.3,0.8,1.8
		c1.7,2.2,1.8,4.7,1.5,7.3c-0.1,0.6-0.4,0.7-0.9,0.4c-2.4-1.2-3.6-4-2.7-6.6c0.4-1.1,0.4-2.4,0.2-3.6c-0.1-0.2-0.1-0.4-0.1-0.5
		c0.1-2.9-0.3-5.9-1.3-8.7c-0.7-2.1-0.4-4.4,0.9-6.2c1.2-1.7,0.7-3.4,0.3-5.1c-0.2-0.7-0.7-0.5-1-0.1c-0.5,0.7-0.9,1.4-1.1,2.2
		c-0.2,1.4-0.3,2.8-0.3,4.1c0,0.9-0.1,1.8-0.2,2.7c-0.7,2.5-0.8,5.2-0.3,7.7c0.4,1.7,0.3,3.4-0.1,5c-0.2,0.6-0.4,1.3-0.7,1.9
		c-1.9,3.7-5.4,4-7.9,0.7c-0.2-0.2-0.3-0.5-0.5-0.8C1.3,122.8,0,117,2.7,110.9c3.2-7.3,7.9-13.8,13.9-19.1c2.2-1.9,4.8-3.2,7.6-3.8
		c0.2-0.1,0.3-0.1,0.4-0.2c-0.1-0.1-0.3-0.2-0.5-0.3c-1.9-0.7-3.8-1.4-5.8-2.1c-2.1-0.8-4.4-0.6-6.3,0.5c-2.5,1.2-3.8,4-3.3,6.7
		c0.1,0.5,0.3,0.9-0.5,0.7c0,0-0.1,0.1-0.1,0.1c-0.7,2.3-3,3.1-4.5,4.7c-0.3,0.3-0.3,0.1-0.4-0.1c-0.6-2.4,0.7-4.8,3.1-5.4
		c0.3-0.1,0.5-0.1,0.8-0.1C7.7,92.3,8,92.3,8,91.7c0.3-5.5,4.8-8.8,10.1-7.4c1.4,0.4,2.7,0.9,4,1.6c1.9,0.8,4,1.3,6.1,1.4
		c0.3,0,0.5-0.1,0.8-0.2c-0.1-0.2-0.2-0.4-0.4-0.5c-1.9-1.6-2.1-3.8-2.3-6.1c-0.2-2-0.5-4-1-6c-1-4.3-6.6-5.8-10-3.7
		c-2.2,1.4-3.2,4-2.5,6.5c0.2,1.5,1.6,2.4,3.1,2.2c1.3-0.2,2.3-1.4,2.2-2.7c0-0.4,0-0.8,0.1-1.3l0,0c0.9,0.5,0.4,1.7,0.9,2.1
		c0.5,0.4,1.6,0.2,2.2,0.5c0.6,0.4,1,0.9,1.1,1.5c0.3,1.1,0.6,2.3,0.8,3.4l0,0c-0.7-0.1-1.3-0.2-2-0.2c-1.5,0.1-2.9-1-3.1-2.5
		c-0.2-0.6-0.4-0.6-0.9-0.4c-2.2,0.8-4.6-0.3-5.4-2.6c-0.1-0.4-0.2-0.8-0.2-1.3c-0.3-2.9,1.3-5.7,4-6.9c0.4-0.2,0.9-0.4,1.4-0.5
		c1-0.1,0.9-0.5,0.6-1.3c-1.1-2.1-1-4.7,0.5-6.7c1.5-2.2,4.6-2.8,6.8-1.3c0.7,0.5,1.2,1.1,1.6,1.8c0.6,1.1,0.5,2.6-0.3,3.6
		c-0.1,0.1-0.3,0.2-0.4,0.4c0-0.2-0.1-0.4-0.1-0.6c0-0.2,0.1-0.3,0.1-0.5c0.3-2.1-1.1-4-3.2-4.3c-1.9-0.3-3.7,1-4.2,2.9
		c-0.2,1.3-0.1,2.5,0.1,3.8c0.2,1.1,1,2,2.1,2.2c2.5,0.4,4.6,2,5.7,4.3c0.2,0.5,0.4,0.2,0.6,0c0.6-0.9,1.2-1.8,1.9-2.6
		c0.6-0.5,0.7-1.3,0.3-1.9c-0.4-0.9-0.8-1.8-1.1-2.7c-0.8-1.5-0.1-3.4,1.4-4.2c0.1,0,0.1-0.1,0.2-0.1l0.6-0.3
		c1.1-0.6,1.1-0.6,0.3-1.6c-1.7-2-1.9-4.4-1.8-6.8c0.1-3.4,1.8-6.6,4.5-8.7c3.7-2.7,8.4-2.4,11.4,1.2h0c0-2.2-0.1-4.3-0.1-6.5
		c0-2,0.2-4,0.6-5.9c0.6-2.8,2.8-5,5.6-5.6c3-0.7,4.6,1.9,4,4.5c0,0.1-0.1,0.2-0.2,0.3c-0.1-0.1-0.2-0.1-0.2-0.2
		c-0.1-0.4-0.1-0.8-0.2-1.2c-0.3-1.3-1.5-2.2-2.8-2.1c-1.4,0.1-2.6,0.7-3.4,1.8c-1.2,1.3-1.9,3-2,4.8c-0.2,1.6-0.1,3.3-0.1,4.9
		c0,0.4,0,0.8,0.6,0.9c0.8,0.1,1.5,0.8,1.6,1.6c0.4,1.3,0.7,2.7,1.1,4c0.1,0.5-0.1,0.7-0.6,0.4s-0.9-0.4-1.3-0.6l-1.2-0.6
		c0,0.4,0,0.8,0,1.3c0.5,4.8-0.5,9.4-1.3,14c-0.1,0.7-0.3,1.5-0.4,2.3c0.7-0.3,1.4-0.6,2.1-0.9c1.9-0.9,3.7-2,5.3-3.4
		c2.5-2.3,4.4-5.3,5.5-8.6c0.3-0.7,0.1-1.5-0.5-2c-0.7-0.6-0.9-1.5-0.4-2.3c0.6-1.7,0.8-3.4,0.6-5.2c0-2.6,0.1-5.3,0.2-8
		c0-0.8,0.1-1.6,0-2.3c0-0.9-0.5-1.7-1.2-2.1c-0.3-0.2-0.6-0.4-0.9-0.6c-0.5-0.4-1-0.9-0.4-1.5c0.6-0.6,1.1-0.3,1.6,0.2
		c0.7,0.8,1.8,1.3,1.5,2.8c-0.1,0.4,0.3,1,0.4,1.5c0.5,1.4,1,2.8,1.4,4.3c0.1,0.8,0.6,1.4,1.3,1.8c0.5,0.3,1,0.6,1.6,0.8
		c1.8,0.7,2.9,2.6,2.7,4.5c-0.1,3.2-1,6.3-2.5,9c-0.6,1-1.1,2-1.6,3c-1.6,3.7-0.4,6.6,3.4,8c1.1,0.3,2.3,0.6,3.5,0.8
		c0.2,0,0.3-0.1,0.5-0.1c-0.2-0.1-0.3-0.2-0.5-0.3c-2.6-0.9-4-2.8-3.7-5.3c0.1-1.7,1-3.3,2.3-4.4c2.3-2,5.4-2.7,8.3-1.9
		c2.8,0.7,4.8,3.1,4.9,6c0.1,1.9-0.2,3.7-0.9,5.5c-0.6,1.7-1.4,3.4-2,5c-1,2.7-1.4,5.5-1.4,8.4c0,0.3,0.1,0.5,0.1,0.8
		c0.1-0.2,0.2-0.4,0.2-0.7c0.5-2.1,1.3-4.1,2.4-6c0.7-1.3,1.3-2.6,2-3.8c2.2-4,2.9-8.6,1.8-13c-0.6-2.8-1.5-5.5-2.1-8.2
		c-1.6-7.3-2.4-14.7-0.8-22.1c0.1-0.3,0.1-0.6,0.1-0.9c0-0.2-0.1-0.3-0.2-0.4c-0.1,0.1-0.2,0.1-0.3,0.2c-3.2,3-5.6,6.9-6.8,11.1
		c-1,3.1,0,6.6,2.4,8.8c1.3,1.3,2.5,2.6,3.6,4c0.3,0.5,0.6,1.1,0.8,1.7l0,0c-0.9-0.9-1.9-1.7-2.8-2.6c-2.4-2.6-5.4-4.5-8.8-5.4
		c-2.2-0.4-3.9-2.1-4.3-4.3l0,0c0.2,0.1,0.4,0.3,0.5,0.4c1.3,1.7,3.1,2.9,5.2,3.4c0.8,0.2,1.6,0.5,2.4,0.7c-0.2-0.8-0.3-1.6-0.5-2.4
		c-0.2-1.8,0-3.7,0.6-5.4c0.3-0.8,0.6-1.7,0.8-2.5l0.1-0.3l-0.1,0.3c-0.5,0.2-1,0.4-1.5,0.6c-1.8,0.6-3.7-0.3-4.3-2.1
		c-0.1-0.2-0.1-0.4-0.2-0.6c-0.1-0.9,0.3-1.8,1.1-2.3c0.1,0,0.2-0.1,0.3-0.1c0,0.1,0.1,0.2,0,0.3c-0.1,0.1-0.2,0.4-0.3,0.6
		c-0.4,0.8-0.2,1.9,0.5,2.5c0.6,0.8,1.7,1,2.6,0.5c2.6-1.6,5.3-4.2,5-8c-0.3-2.8-2.3-4.3-5-3.7c-4.2,1-7.2,4.9-7,8.6
		c0,0.4,0,0.7,0,1.1l0,0c-1-1.5-1.1-3.4-0.2-5c1.3-2.8,3.8-4.8,6.7-5.6c3.7-1,6.5,1.1,6.6,5l0.1,1.4c0.4-0.3,0.8-0.6,1.2-1
		c1.2-1.6,2.4-3.2,3.5-4.8c0.8-1,1.6-2.1,2.4-3.1l0.1-0.1l-0.1,0.1c-1.2,0-2.5-0.1-3.7-0.3c-0.9-0.2-1-0.6-0.3-1.2
		c1.1-1.2,2.7-1.6,4.2-1c1.9,0.8,3.3,0.1,4.8-0.9c2.5-1.7,5.3-2.9,8.3-3.4c2.6-0.5,5.2-0.2,7.6,0.9c3.6,1.6,5.3,4.6,6,8.3
		c0.5,2.9,0.5,5.9-0.2,8.8c0,0.2,0,0.5,0,0.7l0.5-0.5c1.9-2.1,3.8-4.2,5.7-6.3c0.2-0.2,0.5-0.4,0.7-0.5c0.2,0.3,0.3,0.6,0.4,1
		c0.2,1.8,0,3.6-0.5,5.4c-0.8,2.6-1.9,5-3.5,7.2c-1.7,2.2-2.9,4.8-3.4,7.5c-0.6,4.3,2,8.4,6.2,9.6c0.8,0.2,1.5,0.4,2.3,0.5
		c1,0.3,2.1-0.3,2.4-1.4c0.6-1.5,0.7-3.1,0.3-4.6c-0.2-0.9-0.5-1.7-0.7-2.6c-0.6-2.1,0.4-4.2,2.4-5.2c1.9-0.9,4.2-0.4,5.6,1.2
		c1.4,1.7,1.6,4.1,0.4,5.9c-0.5,0.9-1.4,1.4-2.4,1.3c-0.9-0.1-1.6-0.7-1.8-1.6c0-0.2,0-0.5,0.1-0.7c0.2,0.1,0.3,0.2,0.4,0.3
		c0.5,0.7,1.4,0.9,2.1,0.6c0.8-0.4,1.4-1.2,1.4-2.2c0-2.1-1.6-3.9-3.7-4.2c-1.8-0.1-3.4,1.3-3.6,3.1v0c-0.1,0.6,0,1.2,0.2,1.8
		c0.7,2.2,0.8,4.5,0.2,6.8c-0.2,0.9,0,1.1,0.9,0.9c3.9-1.1,6.8-4.3,7.5-8.2c0.3-2.1-0.3-4.3-1.8-5.9c-0.6-0.7-1.3-1.3-1.9-2
		c-2.5-2.9-3.1-6.2-2.5-9.9c0.1-0.3,0.2-0.6,0.2-0.9c0.1-0.5-0.1-0.8-0.7-0.8l-2.3,0.1c0.2,0.7,0.5,1.4,0.7,2.1
		c1.3,2.3,1.8,4.9,1.5,7.5c-0.2,1.8-1,3.5-2.4,4.8c-2,1.9-5.2,2-7.2,0.1c-0.1-0.1-0.2-0.2-0.3-0.4c0.2,0,0.3,0,0.5,0
		c1.2,0.4,2.4,0.6,3.7,0.6c2.7-0.3,4.7-2.9,4.9-5.9c0.1-1.8-0.4-3.6-1.3-5.2c-0.5-1-1.1-1.8-1.7-2.8c-0.4-0.7-0.7-1.4-1-2.1
		c-0.5-1.6,0.1-2.2,1.7-1.8c1,0.2,2,0.4,3,0.6c0.2,0,0.4-0.1,0.6-0.2c-0.1-0.2-0.1-0.3-0.2-0.5c-0.6-0.7-1.3-1.4-1.9-2.2
		c-0.4-0.5-1.1-0.6-1.6-0.2c-1.5,0.8-2.4,0.6-3.3-0.2c-0.9-1-1-2.4-0.3-3.5c0.5-0.6,1.1-1.2,1.7-1.8c0.7-0.6,1.3-1.4,1.8-2.2
		c0.5-0.9,0.2-2.1-0.7-2.6c-0.2-0.1-0.4-0.2-0.7-0.2C118,5,117.1,5,116.3,5.2c-3.3,0.9-5.7,3.7-6.1,7.1v0.5
		c-0.1,0.1-0.1,0.3-0.2,0.4c-0.1-0.1-0.3-0.2-0.3-0.4c-0.7-1.8-0.6-3.9,0.3-5.6c1-1.8,2.5-3.3,4.3-4.3c3.1-1.8,6.8-2.2,10.1-1
		c3.2,1.1,4.7,3.2,4.6,6.5c0,1.2-0.2,2.4-0.4,3.6c-0.1,1.1-0.8,2.1-1.8,2.5c-0.7,0.2-0.7,0.7-0.7,1.3c0,0.1,0,0.1,0,0.2
		c1.1,2.7,0.6,5.4-0.3,8.1c-0.1,0.5-0.2,1.1-0.2,1.6c0,0.6,0,1.2,0.1,1.8l0.6-1.5c0.8-2.5,3.1-4.1,5.7-4.1c2.7-0.2,5.2,1.3,6.3,3.8
		c0.2,0.4,0.4,0.9,0.6,1.3c0.2-0.4,0.4-0.9,0.6-1.3c0.6-1.5,2-2,3.2-2.8c0,0,0.4,0.3,0.3,0.4c-0.2,0.9-0.5,1.8-0.9,2.7
		c-0.6,0.9-1.3,1.6-2.2,2.2c-0.5,0.3-0.7,0.9-0.5,1.4c0.1,0.5,0.3,0.7,0.7,0.4l0.3-0.2c3.6-3,6.6-6.4,8.2-10.9
		c0.4-1.2,0.6-2.5,0.6-3.7c0.3-4.6-3.7-8.4-8.9-8c-0.9,0.1-1.8,0.3-2.6,0.6c-5.7,2.2-5.6,7.6-2.3,11c0.3,0.3,0.7,0.6,1.1,1
		c-0.5,0-1,0-1.5-0.1c-4.3-1-5.9-4.4-4.8-8.8c1.1-4.4,4.5-7,8.8-7.8c5.8-1.1,11.8,0.5,16.2,4.5c1.1,1.1,2,2.2,2.8,3.5
		c0.4,0.6,0.7,1.1,1.6,1.4c0.6,0.3,1.1,0.7,1.5,1.3c0.3,0.5,0.7,1.1-0.4,1.3c-0.7,0.2-0.5,0.7,0,1.1c0.5,0.4,0.8,0.5,1.2,0.7
		c0.6,0.3,0.9,0.9,0.6,1.5c0,0.1-0.1,0.2-0.2,0.3c-0.4,0.7-0.8,1.5-1.2,2.2c0.8,0.2,1.5,0.5,2.3,0.9c0.9,0.5,1.7,1.1,2.4,1.8
		c0.5,0.5,0.3,1-0.3,1.2c-0.8,0.2-1.5,0.3-2.3,0.3c-1.3,0-2.5,0.3-3.6,0.9c-1.5,0.6-2.2,2.3-1.6,3.7c0.1,0.3,0.3,0.7,0.6,0.9
		c1.4,1.7,3.4,2.7,5.5,2.8c0.6,0.1,1.2,0,1.8,0c3.3,0.2,5.3-1.6,6.5-4.4c0.1-0.2,0.1-0.3,0.2-0.5c-0.2,0-0.4,0.1-0.6,0.1
		c-1.1,0.5-2.1,1-3.2,1.5l0,0c0.5-0.4,0.9-0.7,1.4-1.1c2.8-2,4.7-5.1,5.3-8.5c0.5-3.2-1.3-6.2-4.2-7.5c-1.5-0.6-3.2-0.4-4.5,0.5
		c-1,0.7-1.8,1.5-2.8,2.3c-0.2,0.1-0.3,0.2-0.5,0.2c0-0.2,0.1-0.3,0.2-0.5c1.5-1.8,3.3-3.4,5.3-4.7c4.3-2.5,9.9-1.1,12.5,3.3
		c0.7,1.1,1.1,2.4,1.2,3.8C183,21.4,182.6,24.7,181.5,27.8L181.5,27.8L181.5,27.8z M127.9,25.6l0.4-0.3c0.3-0.1,0.6-0.2,0.8-0.3
		c1-0.6,2.3-0.8,3.5-0.6c1.6,0.4,2.9,1.6,3.5,3.1c0.9,2.2,1.2,4.7,0.7,7.1c-0.4,3.1-1.6,6-3.5,8.4c-0.1,0.2-0.2,0.4-0.3,0.6
		c0.2-0.1,0.4-0.2,0.6-0.4c1.4-1.3,2.6-2.8,3.5-4.6c1.9-3.9,2.3-8,0.5-12c-1-2.2-3.2-3.6-5.6-3.5c-1.5,0.1-3,0.6-3.7,2.1L127.9,25.6
		l-0.1,0.2L127.9,25.6L127.9,25.6z M83,15.7l0.3-0.3l0.4-0.3l0.3-0.3l0.4-0.4l0.4-0.4l0.3-0.1l-0.3,0.2l-0.4,0.4L84,14.8l-0.3,0.4
		l-0.4,0.3l-0.4,0.3h-0.1C82.9,15.9,83,15.7,83,15.7z M112.7,5.7l-0.4,0.4h-0.1V6L112.7,5.7l0.3-0.4c0.5-0.2,1-0.4,1.5-0.5
		c1.2-0.4,2.4-0.7,3.7-0.7c3.8,0.3,4,3.4,2.7,5.6c-0.4,0.5-0.9,0.9-1.5,1.3c-0.6,0.4-1.1,0.9-1.6,1.4c-0.4,0.4-0.3,1.1,0.1,1.5
		c0.4,0.4,1,0.6,1.5,0.3c0.1,0,0.2-0.1,0.3-0.2c0.6-0.6,1.6-0.8,2.3-0.3c0.1,0.1,0.2,0.1,0.3,0.1c0.7,0,1-0.4,1.1-1
		c0.2-0.8-0.5-0.4-0.8-0.6c-0.4-0.2-0.7-0.4-1.1-0.6c-0.4-0.3-0.8-0.7-0.4-1.2c0.3-0.5,0.9-0.7,1.4-0.5c1,0.4,2,0.9,2.1,2.2
		c0,0.9,0.4,0.7,1,0.4c2.3-1.3,3.2-4.2,1.9-6.6c-0.3-0.6-0.7-1.1-1.2-1.5c-3.8-3.2-10.5-2.1-13.2,1L112.7,5.7L112.7,5.7z
		 M127.1,102.9l-0.3,0.4l-0.1,0.1v-0.1L127.1,102.9l0.3-0.4c0.5-0.2,1-0.6,1.4-0.9c1.4-1.9,2.8-3.7,4.1-5.7c0.9-1.4,1.5-2.9,2.3-4.3
		c1-2.2,2.7-4.1,4.7-5.3c0.4-0.2,0.7-0.5,1-0.8c4.5-4.4,9.6-8.1,15.3-10.8c0.3-0.1,0.5-0.2,0.8-0.4c0.1-0.1,0.2-0.2,0.2-0.3
		c-0.1-0.1-0.3-0.2-0.4-0.2c-1.2,0-2.4,0-3.6,0.2c-5.6,0.6-10.3,3-13.4,7.9c-1.8,2.9-3.4,6-5,9c-2.2,4.1-4.3,8.3-7.4,11.8
		L127.1,102.9L127.1,102.9z M224.3,212.5l0.3-0.4l0.1-0.1v0.1L224.3,212.5l-0.3,0.4c-0.6,0.3-1.1,0.6-1.6,0.9c-3.7,2.9-8,5-12.6,6
		c-0.6,0.1-1.2,0.3-1.8,0.5c0.6,0.2,1.2,0.5,1.8,0.7c0.5,0.2,1,0.3,1.6,0.3c2.3,0.1,4.5-0.2,6.2-1.9c2.2-2.2,4.2-4.4,6.4-6.7
		L224.3,212.5z M123.5,104.7l-0.3,0.4h-0.1v0.1l0.1-0.2L123.5,104.7l0.4-0.5c1.3-0.5,2.4-1.5,2.9-2.9l0.4-0.3
		c0.6-0.5,1.1-1.1,1.5-1.7c1.5-2.4,2.9-4.7,4.2-7.2c2-3.6,3.9-7.4,6-10.9c1.5-2.6,3.7-4.6,6.4-6c0.2-0.1,0.4-0.3,0.6-0.5
		c-0.2,0-0.5,0-0.7,0.1c-7.7,1.9-13.5,8.2-14.8,16c-0.5,3.6-1,7-3.2,10v0.2l-0.4,0.3l-2.9,2.9L123.5,104.7L123.5,104.7z M22.2,196.5
		l0.4,0.4c2.9,3.1,6.2,5.8,9.8,8.1c2.5,1.4,5.3,2,8.2,1.7c0.2,0,0.3-0.1,0.5-0.2c-0.2-0.1-0.3-0.2-0.5-0.2c-1.9-0.5-3.8-1.1-5.6-1.9
		c-4.1-1.9-8-4.3-11.5-7.1c-0.3-0.2-0.6-0.3-0.9-0.5L22.2,196.5l-0.4-0.4l-1.1-1.1l-0.4-0.4v-0.1h0.1l0.4,0.4c0,0.7,0.4,1,1,1.1
		L22.2,196.5L22.2,196.5z M121.7,118.9l-0.3-0.4c-0.1-0.4-0.3-0.8-0.5-1.1c-2.2-3.2-5.4-5.4-9.1-6.5c-3.8-1.1-7.8-0.9-11.7-0.5
		c-1,0-2,0.2-3,0.6c-2.4,1.1-4.7,2.4-7,3.7c-1,0.7-1.9,1.6-2.7,2.6c-0.7,0.8-1.4,1.7-2,2.5c-0.3,0.3-0.3,2.1,0,2.1
		c0.5-0.1,1-0.3,1.3-0.6c0.8-0.8,1.6-1.7,2.3-2.6c0.8-1,1.4-2.1,2.2-3.1c1.3-1.7,3.2-2.9,5.3-3.2c3-0.6,6.2-0.2,9,1.1
		c0.5,0.3,1.1,0.4,1.7,0.4c4.8-0.6,9,1,12.9,3.7c0.5,0.3,1,0.6,1.5,0.9l0.4,0.3v0.1L121.7,118.9L121.7,118.9z M135.1,242.3l-0.7,0.3
		c-0.6,0.1-1.2,0.2-1.7,0.4c-6.4,2.2-13.2,2.9-19.9,2.1c-6-0.6-11.6-3-16.3-6.8c-3.2-2.7-6.9-4.8-10.9-6.2c-1.1-0.3-2.2-0.5-3.3-0.5
		c-0.2,0-0.5,0.1-0.7,0.2c0.2,0.2,0.4,0.4,0.7,0.5c6.2,2.5,11.9,5.9,17.6,9.2c3.1,1.9,6.3,3.5,9.7,4.8c3.1,1.2,6.4,1.8,9.7,1.6
		c5.3-0.4,10.4-2.1,14.9-5c0.1-0.1,0.2-0.3,0.3-0.4L135.1,242.3l0.1-0.2L135.1,242.3L135.1,242.3z M144.2,69.6l-0.4,0.2h0.1
		C144,69.6,144.1,69.6,144.2,69.6l0.7-0.4c0.4,0,0.8,0,1.2-0.1c3.3-1,6.8-1.3,10.2-1.1c2,0.1,4,0.1,6,0.1c2.5,0,4.9-0.6,7.1-1.7
		c1.7-0.8,3.1-2.2,3.9-3.9c0.6-1.3,0.7-2.9,0.1-4.2c-1.4-3.2-6.6-4-8.7-2.9c-1,0.5-1.5,1.7-1.2,2.8c0.2,1.2,1.2,2.2,2.4,2.3
		c0.2,0,0.3-0.2,0.5-0.2c-0.1-0.1-0.2-0.2-0.3-0.3c-1.1-0.9-1.4-1.5-1-2.4c0.5-1,1.5-1.5,2.5-1.3c1.7,0.2,3.1,1.6,3.4,3.3
		c0.5,2.1-0.6,4.1-2.5,5c-1.9,1-4.1,1-6.2,1.1c-2.5,0.1-4.9,0.2-7.4,0.6c-3.5,0.5-6.9,1.5-10.1,3.2L144.2,69.6L144.2,69.6z
		 M102.9,189.9l0.3,0.1L102.9,189.9c-0.7-1.3-2-1.7-3.2-2.4c0,0-0.4,0.3-0.4,0.3c0.2,0.3,0.3,0.8,0.6,1
		C100.9,189.3,101.9,189.6,102.9,189.9L102.9,189.9L102.9,189.9z M140.9,215.4l-0.5-0.1L140.9,215.4c2.3,1.2,4.9,1.7,7.4,1.4
		c0.2,0,0.4-0.1,0.5-0.1c-0.2-0.1-0.3-0.1-0.5-0.2L140.9,215.4L140.9,215.4z M141.3,217.5c-0.1-0.1-0.2-0.1-0.3-0.2s-0.1,0-0.1,0.1
		L141.3,217.5c1.5,1.8,2.6,2.2,4.6,1.3c0.1,0,0.1-0.2,0.2-0.2c-0.1-0.1-0.2-0.2-0.4-0.2C144.2,218.1,142.8,217.8,141.3,217.5
		L141.3,217.5L141.3,217.5z M10.9,128.6c-1.4,0.7-3.1,0.7-4.5,0c-0.3-0.1-0.6-0.4-0.9-0.5H5.2c0,0.1,0,0.2,0.1,0.3
		c0.6,1,1.6,1.7,2.7,2C9.3,130.7,10.6,129.9,10.9,128.6C10.9,128.6,10.9,128.6,10.9,128.6L10.9,128.6L10.9,128.6L10.9,128.6z
		 M82.6,53.3l-0.2-0.3L82.6,53.3c0.5,2.9,0.9,5.8,0,8.7c-0.1,0.5,0.2,0.5,0.5,0.3c1.3-0.7,2.7-1,4.2-0.8c0.2,0,0.4,0,0.5,0
		c0-0.2-0.1-0.4-0.2-0.6c-1.6-2.5-3.2-5-4.8-7.4C82.8,53.3,82.7,53.3,82.6,53.3L82.6,53.3z M116.6,231c0,0,0-0.1,0-0.2l-0.1-0.1
		L116.6,231c3.3,1.8,6.5,3.8,9.7,5.5c3.1,1.8,6.7,2.7,10.3,2.7c0.1,0.1,0.1,0.2,0.2,0.2h0.1l-0.4-0.2c-0.1-0.1-0.2-0.2-0.4-0.3
		l-18.1-7.6C117.6,231.2,117.1,231.1,116.6,231L116.6,231L116.6,231z M125,113.1l-0.1-0.1L125,113.1c1,1.2,2,2.4,2.8,3.7
		c2.8,4.2,4.3,9.3,4.2,14.4c0,0.2,0,0.4,0.1,0.6c0-0.2,0.1-0.3,0.1-0.5c0.8-4.1,0.3-8.3-1.4-12C129.7,116.6,127.6,114.4,125,113.1
		L125,113.1L125,113.1z M199.2,233.9c3.6-1.5,6.8-3.6,9.5-6.4c0.5-0.5,1-1.1,1.5-1.7c-0.8-0.1-1.6-0.2-2.5-0.2
		c-0.5,0.1-0.9,0.3-1.3,0.6c-0.8,0.6-1.5,1.2-2.2,1.9c-1.6,1.7-3.1,3.4-4.6,5C199.5,233.3,199.4,233.6,199.2,233.9l-0.2,0.2
		L199.2,233.9L199.2,233.9z M70.3,129c1.4-1.1,2.7-2.4,4.2-3.4c2.2-1.5,4.6-2.8,6.9-4.3c1.4-1,2.7-2.1,4.1-3.2
		c0.1-0.1,0.2-0.3,0.3-0.5c-0.2,0-0.4,0.1-0.6,0.1c-1.6,0.9-3.1,1.8-4.7,2.6c-1.9,1-3.9,1.8-5.8,2.9C72.3,124.3,70.7,126.5,70.3,129
		l-0.2,0.2h0.1C70.3,129.2,70.3,129.1,70.3,129L70.3,129z M73.6,122.5c2.8-1.3,5.6-2.6,8.3-4c1.4-0.8,2.8-1.7,4-2.7
		c0.9-0.7,1.5-1.7,1.7-2.9c0-0.2,0-0.5-0.1-0.7c-0.2,0.2-0.4,0.3-0.5,0.5c-0.7,0.8-1.4,1.5-2.2,2.1c-1.4,0.8-2.8,1.5-4.2,2
		c-2.6,0.9-4.9,2.6-6.5,4.9C73.8,121.9,73.7,122.2,73.6,122.5l-0.2,0.1h0.1C73.5,122.6,73.6,122.6,73.6,122.5L73.6,122.5z
		 M84.7,97.9L84.7,97.9c0.3,0.4,0.6,0.9,0.9,1.4c2.5,5,2,10.3-3.3,13.5c-1.3,0.7-2.5,1.3-3.9,1.9c-1.2,0.6-2.6,0.8-3.4,2.1h-0.2
		c0,0,0,0.1-0.1,0.1l0.2-0.2c2.7-0.9,5.4-1.9,8.2-2.8c2.5-0.8,4.4-3,4.8-5.6c0.6-2.8,0.2-5.7-1-8.3c-0.4-0.7-0.8-1.3-1.4-1.9
		C85.4,98,85,98,84.7,97.9z M107.6,27.4c0.5-0.9,1-1.8,1.3-2.7c0.8-3.2,0.8-6.6-0.2-9.8c-1-4.2-4.8-7.1-9.1-7.1
		c-3.3-0.1-6.6,0.8-9.4,2.6l-0.1,0.1v-0.1c0.6-0.1,1.3-0.2,1.9-0.4c2.7-0.7,5.5-1,8.3-0.7c3.8,0.3,7,3,7.9,6.7
		c0.8,3.2,0.7,6.5-0.2,9.7C107.9,26.2,107.8,26.9,107.6,27.4l-0.2,0.2h0.1C107.5,27.6,107.6,27.5,107.6,27.4L107.6,27.4z
		 M79.7,233.5l0.4,0.1L79.7,233.5c-0.5-0.2-1-0.5-1.5-0.7c-2.1-0.7-4.4-0.9-6.6-0.7c-3.7,0.3-7.4-0.1-10.9-1.3
		c-1.2-0.4-2.5-0.8-3.8-1.2c-0.5-0.1-1.1-0.2-1.6-0.2c-0.2,0-0.4,0.2-0.6,0.2c0.1,0.2,0.3,0.3,0.5,0.4c4.3,2.3,9.1,3.5,14,3.6
		C72.8,233.5,76.2,233.5,79.7,233.5L79.7,233.5z M152.1,239c0.1,0.1,0.1,0.1,0.2,0.2h0.1L152.1,239c0,0,0-0.2-0.1-0.2
		c-2.1-1.5-4.2-3.1-6.2-4.6c-1.4-1-3.1-1.4-4.8-1.1c-1.4,0.2-2.8,0.6-4.2,1c-0.2,0.1-0.4,0.3-0.7,0.5c0.2,0.1,0.4,0.2,0.6,0.3
		c3.4,1.1,6.9,2.2,10.3,3.2C148.7,238.3,150.4,238.6,152.1,239L152.1,239z M109.1,43.4l0.1,0.5c0,0,0.1-0.1,0.1-0.1
		C109.3,43.8,109.1,43.5,109.1,43.4c0-0.3,0-0.7,0-1c-0.4-1.8-0.2-3.8,0.6-5.5c0.7-1.7,1.6-3.4,2.5-5c1-2,2.4-3.8,3.2-5.8
		c0.5-1.5,0.8-3.1,0.9-4.7c0-0.2-0.2-0.4-0.3-0.6c-0.2,0.1-0.3,0.2-0.5,0.3c-1.1,1.2-2.3,2.5-3.4,3.8c-2.3,2.5-3.6,5.7-3.9,9
		c-0.1,2.8,0,5.5,0.2,8.3C108.5,42.5,108.9,42.9,109.1,43.4L109.1,43.4L109.1,43.4z M119.9,110.6l-0.1-0.2v0.1L119.9,110.6
		c1.4,1.7,2.4,3.7,2.9,5.9c0.3,1.2,0.8,2.3,1.1,3.4c0.4,1.3,1.1,2.6,2,3.6c1.8,2,3.3,4.3,4.3,6.9c0.1,0.2,0.2,0.5,0.2,0.7
		c0.1,0.1,0.2,0.2,0.3,0.2c0.1,0,0.2-0.1,0.2-0.2c0-0.1,0-0.2,0-0.3c0.1-8.2-3.2-14.7-9.7-19.6C120.9,110.8,120.4,110.7,119.9,110.6
		L119.9,110.6L119.9,110.6z M65.3,223.7v0.1V223.7c-1.4-1.1-2.7-2.4-3.8-3.8c-3.6-4.7-8.3-7.4-13.8-9c-1.2-0.2-2.5-0.3-3.7-0.2
		c-0.2,0-0.3,0.2-0.5,0.3c0.2,0.2,0.4,0.3,0.6,0.4c1.8,0.7,3.5,1.7,4.9,3c1.1,1,2.3,2,3.4,2.9c2.4,2.1,5.1,3.8,8,5.1
		C61.9,223.1,63.5,223.9,65.3,223.7L65.3,223.7z M57.7,233.5L57.7,233.5c0.2,0.3,0.4,0.5,0.6,0.8c2.3,1.7,4.8,3.2,7.5,4.3
		c1.7,0.7,3.5,0.9,5.3,0.6c1.8-0.3,3.6-0.7,5.3-1c3.8-1,7.9-0.7,11.5,0.7c0.9,0.4,1.9,0.7,2.9,1c0.6,0.1,1.3,0.2,1.9,0.2l0.2,0.1
		l-0.2-0.1c-0.8-1.2-2-2.1-3.4-2.5c-1.9-0.7-4-1.2-6-1.4c-3.6-0.3-7.2-0.4-10.8-0.4C67.5,235.9,62.5,235.1,57.7,233.5L57.7,233.5z
		 M129.4,45.2c4-2.8,5.9-6.8,6.5-11.5c0.4-2.2,0-4.4-1-6.3c-0.5-1.1-1.5-1.9-2.7-2.1c-1.8-0.2-3.5,0.8-4.2,2.5
		c-1.1,2.1-1,3.5,0.3,4.9c0.3,0.3,0.7,0.7,1,1.1c2.6,2.7,3,6.9,0.9,10C129.8,44.3,129.6,44.8,129.4,45.2l-0.1,0l-0.1,0.1L129.4,45.2
		L129.4,45.2z M81.9,48.6l-0.1-0.3L81.9,48.6c1.7,4.1,4,7.9,6.8,11.2c2.7,3.1,5.7,6,8.7,8.9c1.5,1.5,3.6,1.4,5.5,0.1
		c1.4-1,2.8-1.9,4.2-2.9l0.4-0.3c-0.2-0.1-0.3-0.3-0.5-0.4c-1.4-0.4-2.8-0.7-4.2-1.2c-4.6-1.5-9-3.4-12.6-6.8
		c-2.7-2.6-5.1-5.5-7.6-8.2C82.3,48.9,82.1,48.7,81.9,48.6L81.9,48.6z M123.6,210.7l0.5,0.1L123.6,210.7c-0.5-0.3-0.9-0.5-1.4-0.7
		c-1.5-0.4-3.1-0.6-4.6-0.8c-4.6-0.3-9.2-0.6-13.8-1.8c-7.6-2-13.4-6.3-16.9-13.5c-0.3-0.7-0.6-1.3-0.9-2c-0.1-0.2-0.3-0.3-0.5-0.4
		c-0.1,0.1-0.2,0.2-0.3,0.4c-0.1,0.2-0.2,0.4-0.3,0.7c-1.3,5.3,1.2,11.3,5.9,13.3c1.6,0.6,3.2,1.2,4.8,1.5c4.9,1.1,9.9,2.1,14.8,3.1
		c0.5,0.1,1,0.1,1.4,0c2.3-0.1,4.7-0.3,7-0.2C120.5,210.2,122.1,210.5,123.6,210.7L123.6,210.7z M92,57.2l0.3,0.2L92,57.2
		c-0.3-1-0.7-1.8-1-2.8c-1.9-5.2-2.2-10.5,0.2-15.7c0.6-1.4,1.3-2.7,1.9-4.1c0.4-1.1,0.9-2.2,1.4-3.3c0.8-1.2,1.2-2.7,0.9-4.1
		c-0.3-1.1,0.2-2.3,1.1-3.1c0.8-0.7,0.8-1-0.2-1.6c-1.3-0.8-1.8-0.5-2,1v0.7c-0.2,2.6-1.2,5.1-3,7c-1.2,1.1-2.3,2.3-3.3,3.6
		C82.3,42.2,84.8,52.2,92,57.2L92,57.2z M23.2,199.1c0,0,0-0.1,0-0.2h-0.1L23.2,199.1c1,2.3,2.4,4.4,4.2,6.3c2.5,2.9,6.2,4.6,10,4.6
		c6.6,0.1,13.1-0.4,19.6-1.6c3.4-0.8,7-0.8,10.4,0l2.9,0.8c-0.7-0.9-1.3-1.8-2-2.6c-3-3.3-6.6-5.5-11.1-5.7
		c-4.2-0.2-8.4-0.1-12.6-0.1c-0.2,0-0.4,0-0.5,0.1c-0.2,0.1-0.3,0.1-0.5,0.2c0.2,0.1,0.3,0.2,0.5,0.2c3.1,0.2,6.1,0.3,9.2,0.5
		c3.6,0.2,7.2,0.6,10.6,2.1c1,0.5,1.9,1.1,2.8,1.7c0.1,0.1,0.1,0.3,0.2,0.4c-0.1,0-0.2,0.1-0.3,0.1c-0.3,0-0.6-0.1-0.9-0.1
		c-4.4-0.9-8.9-0.8-13.2,0.4c-3.4,0.9-6.8,1.5-10.3,1.8c-5.1,0.7-10.2-1-13.9-4.6C26.6,201.8,24.9,200.5,23.2,199.1L23.2,199.1z
		 M203.2,118.8L203.2,118.8c0.2,0.6,0.5,1.2,0.7,1.8c1.4,2.1,3.3,3.7,5.6,4.7c2.3,1,4.8,1.7,7.3,2c7.7,1,14.3-1,19.2-7.2
		c4.5-5.3,7.4-11.8,8.5-18.7c0.1-1.2,0-2.4-0.2-3.6c0-0.1-0.1-0.2-0.2-0.2c-0.1,0-0.2,0.1-0.3,0.2c-0.7,1.1-1.3,2.3-1.8,3.5
		c-0.9,2.4-1.5,4.9-2.3,7.4c-1.6,4.9-4.1,9-8.5,12c-4.9,3.2-10.3,3.9-15.9,3.4C210.7,123.9,206.4,122,203.2,118.8L203.2,118.8
		L203.2,118.8z M85.5,70.3L85.5,70.3c-0.6,1.1-0.9,1.3-1.9,1c-1.4-0.3-2.6-1.4-3-2.8c-0.1-0.2-0.2-0.3-0.3-0.5
		c-0.1,0.1-0.2,0.2-0.3,0.3c-1.8,3.2-3.6,6.4-3.7,10.3c0,0.3,0,0.5,0.1,0.8c0.2-0.2,0.3-0.3,0.4-0.5c0.9-2.1,2.6-2.5,4.6-2.5
		c0.8,0,0.9,0.3,0.6,1c-0.5,0.9-0.9,1.9-1.3,2.8c-0.5,1.2-1.7,2.1-3,2.3c-1.3,0.2-1.3,0.3-1.2,1.5c0.1,0.6,0.2,1.2,0.3,1.8
		c0,0.1,0.1,0.2,0.1,0.3c0.1-0.1,0.4-0.2,0.4-0.3c1-2.6,3.3-4,5.4-5.4c1.9-1.2,3.8-2.6,5.6-4c1.2-1,2.2-2.2,3.1-3.5
		c2.3-3.6-0.2-8.3-2.9-9.7c-1.6-0.9-3.6-0.8-5.1,0.3c-1.4,0.9-2.1,2.4-1.9,4c0.1,1.6,1.3,2.8,2.9,2.9C84.8,70.3,85.2,70.3,85.5,70.3
		L85.5,70.3z M128.7,49.3c-0.3,0.1-0.7,0.1-1,0.3c-3.3,1.9-6.8,3.5-10.4,4.6c-0.4,0.1-0.8,0.3-1.2,0.5c-1.1,0.4-1.8,1.5-1.7,2.7
		c0.1,1.1,0.1,2.3,0,3.4c-0.1,1.5,0.6,2.9,1.8,3.7c0.5,0.3,1.1,1.1,1,1.5c-0.2,1.3,0.5,1.9,1.3,2.6c0.8,0.7,1.6,1.4,2.5,2.1
		c0.8,0.8,2,1.1,3.2,0.8c2.4-0.5,4.9,0.2,6.8,1.8c1,0.6,1.6,1.7,1.7,2.9c0,0.6,0.2,1.2,0.2,1.8c0.4-0.5,0.8-1,1.2-1.6
		c0.1-0.2,0.2-0.3,0.3-0.5c1.3-2.1,0.3-3.5-1-4.6c-0.5-0.4-1.1-0.7-1.7-1c-1.3-0.7-2.6-1.3-3.8-2.1c-5.6-3.5-5.8-8.7-3.4-13.2
		c1.3-2,2.7-4,4.2-5.8v-0.1L128.7,49.3L128.7,49.3z M167,234.3c0.1,0.1,0.2,0.1,0.3,0.2c0.1,0,0.2,0.1,0.3,0.1
		c-0.1-0.1-0.2-0.1-0.3-0.1L167,234.3c-0.2-0.1-0.4-0.2-0.6-0.3c-3.2-1.3-6.4-2.4-9.6-3.7c-4.7-1.9-9.1-4.4-13.2-7.5
		c-2-1.5-4.1-2.9-6.3-4.3c-2.9-2-6.8-2-9.7,0c-1.9,1.1-3.7,2.3-5.5,3.4c-2.4,1.7-5.1,2.8-8,3.2c-1.6,0.2-3.2,0.3-4.9,0.5
		c-0.2,0-0.4,0.1-0.5,0.1c0.1,0.1,0.3,0.3,0.5,0.3c3,0.9,6.1,1.4,9.2,1.5c3.7,0.3,7.4-0.5,10.7-2.2c1.7-0.9,3.5-1.6,5.4-2.1
		c2.9-1,6-0.5,8.5,1.2c1,0.6,1.9,1.2,2.8,1.9c3.3,2.6,7.1,4.6,11.2,5.7C160.2,233.1,163.5,233.9,167,234.3L167,234.3z M34.8,93.8
		c-4,2.6-7.5,6-10.3,9.8c-0.1,0.1-0.2,0.3-0.3,0.5c0.2,0,0.4-0.1,0.6-0.1c5.3-2.6,11.1-3.9,17-3.6c1.1,0.1,2.1-0.2,3.1-0.7
		c1.1-0.6,2.3-1.1,3.5-1.5c0.6-0.2,1.2-0.3,1.7-0.5c-0.5-0.3-1-0.7-1.6-1c-3.4-2.1-3.9-5.9-0.8-8.4c3.1-2.6,6.1-4.5,10.3-3.8
		c0.5,0.1,1-0.2,1.1-0.7c0.5-0.8,0.3-1.8-0.3-2.5c-0.3-0.3-0.7-0.7-1-1c-1-1.1-1-1.3,0-2.3c0.7-0.8,0.7-1-0.1-1.7L57.7,76
		c-2.2-2-3.2-1.9-4.7,0.6c-0.7,1.3-1.3,2.6-1.8,3.9c-1.4,3.9-4.3,7.1-8.1,8.8c-1.2,0.5-2.4,1.1-3.6,1.7c-0.3,0.1-0.7,0.3-0.9,0.5
		c-0.2,0.2-0.4,0.6-0.3,0.9c0.7,1.6-0.1,2.8-1.2,3.9c-0.6,0.6-1.2,1.2-1.8,1.8c-0.4,0.4-0.7,0.2-0.7-0.3
		C34.6,96.4,34.8,95.1,34.8,93.8l0.2,0L34.8,93.8L34.8,93.8z M85.6,51.3L85.6,51.3L85.6,51.3c-0.2-0.3-0.3-0.7-0.5-1.1
		c-2.3-5.2-1.5-11.2,2-15.6c1-1.2,2-2.4,3.1-3.6c1.7-1.8,2.8-4.1,3.1-6.6c0-0.5,0-1-0.1-1.5c-0.3,0.4-0.6,0.9-0.8,1.3
		c-0.8,3.1-5.1,4.1-7.5,2.4c-0.6-0.6-1.2-1.3-1.6-2.1c-0.1-0.1,0-0.3,0.1-0.5c0.1,0.1,0.3,0.2,0.4,0.3c0.8,1,1.9,1.7,3.1,2
		c2,0.6,2.9,0.2,3.7-1.7c0.3-0.6,0.5-1.2,0.7-1.9c0.3-0.6,0.6-1.2,0.9-1.7c-0.6,0.2-1.1,0.5-1.7,0.7C90.3,21.9,90,22,89.8,22
		c-0.8,0.1-1.2-0.5-0.9-1.3c0.1-0.8,0.9-1.3,1.7-1.1c0.2,0,0.3,0.1,0.4,0.2c0.8,0.3,1.6,0.3,1.8-0.5c0.1-0.5-0.4-1.1-0.7-1.7
		c-0.1-0.1-0.3-0.2-0.4-0.3c-2.8-1.3-6.2-1-8.7,0.9c-1.6,1.5-2.8,3.4-3.2,5.6c-0.9,3.7-0.7,7.4-0.6,11.2c0,0.2,0.1,0.3,0.1,0.5
		c0.2-0.1,0.3-0.3,0.4-0.5c0.5-1.3,1.5-2.3,2.7-2.8c0.2,0,0.5,0.1,0.7,0.2c0,2.5,0,5-2.4,6.7c-0.7,0.4-1.1,0.9-0.9,1.7
		C80.6,44.8,82.6,48.5,85.6,51.3L85.6,51.3z M173.1,121.1c4.9-1.7,7.4-5.3,8-10.4c0.4-3.4,0.1-6.5-2.4-9.1c-0.6-0.6-1.2-1.2-1.9-1.7
		c-1.4-1.2-2.4-2.7-3-4.4c-0.3-1-0.8-1.9-1.4-2.7c-6.2-7.7-14.3-10.6-23.9-8.8c-5.8,1-10.5,4.1-13.2,9.6c-0.2,0.5-0.5,1-0.8,1.4
		c-2.8,5-6.2,9.5-11.4,12.3l-0.1,0.1v-0.2c1.4,0.2,2.6-0.5,3.7-1.1c3.8-2.1,7-5,9.4-8.6c1.1-1.5,2-3.2,3-4.7
		c1.2-1.9,3.1-3.4,5.2-4.3c2.3-1,4.8-1.4,7.3-1.2c7.8,0.5,14.5,3.8,20.4,8.8c0.8,0.7,1.5,1.4,2.1,2.2c3,3.7,4.6,7.9,3.9,12.8
		c-0.6,3.2-1.9,6.1-4,8.6C173.8,120.1,173.5,120.6,173.1,121.1l0,0.1L173.1,121.1L173.1,121.1z M73.6,93.5l0.2,0.2h0.1L73.6,93.5
		c-0.3-0.1-0.6-0.3-0.9-0.4c-3.5-1.1-6.5-3.4-8.3-6.6c-0.3-0.4-0.6-0.8-0.9-1.2c-0.5-0.6-0.8-0.5-1.1,0.1c-0.8,1.4-0.9,1.4-2.5,1.1
		c-2.2-0.5-4.6-0.5-6.8,0c-2.1,0.5-3.9,1.6-5.3,3.3c-1.3,1.3-1.2,3.4,0.1,4.7c0.1,0.1,0.1,0.1,0.2,0.1c0.8,0.8,1.8,1.4,2.8,1.9
		c1.2,0.5,2.4,0.8,3.7,0.9c4.2,0.4,8.2,1.6,11.8,3.7c5.2,2.9,10,6.4,14.3,10.4c0.6,0.6,0.8,0.5,1.1-0.2c0.9-1.7,1.2-3.7,1-5.6
		c-0.8-5.7-5.2-8.7-10.4-7.7c-0.5,0.1-0.9,0.2-1.4,0.3c-0.2,0-0.3,0-0.5,0c0.1-0.2,0.2-0.4,0.3-0.5c1.7-1.2,3.7-2.1,5.7-2.7
		c0.2-0.1,0.3-0.1,0.5-0.2c-0.2-0.1-0.4-0.2-0.6-0.2c-0.4,0-0.7,0-1.1,0c-3.1-0.1-6.1-1-8.7-2.7c-0.3-0.3-0.6-0.5-0.8-0.9l0,0
		l1.6,0.6C69.2,92.9,71.4,93.4,73.6,93.5L73.6,93.5z M108,29.3c-0.4,0.4-0.8,0.8-1.3,1.2c-1,0.7-1.8,1.8-3.1,1.9l0,0
		c0.2-0.2,0.3-0.5,0.5-0.8c3.1-4.1,4-8.8,3.5-13.9c-0.1-1.8-0.8-3.4-1.8-4.9c-1.6-2.1-4.5-2.7-6.8-1.6c-1,0.4-1.7,1.3-1.7,2.4
		c-0.1,1.1,0.5,2.2,1.5,2.7c0.4,0.2,0.8,0.3,1.2,0.5c0.2,0.1,0.4,0.2,0.6,0.3c-0.2,0.1-0.4,0.3-0.6,0.3c-1.5,0.1-2.8-0.8-3.4-2.2
		c-0.6-1.3-0.3-2.8,0.7-3.8c0.2-0.2,0.6-0.4,0.8-0.7c0.1-0.1,0.2-0.2,0.2-0.4c-0.1,0-0.2-0.1-0.3-0.1c-4.5,0-8.7,1-12,4.4
		c-0.1,0.2-0.2,0.4-0.3,0.6l0.5,0.1c1.9,0.2,3.8,0.5,5.7,0.7c0.9,0.1,1.7,0.6,2.1,1.5c0.2,0.5,0.6,0.9,1,1.2
		c2.4,1.3,3.9,3.7,4.1,6.4c0.1,2-0.2,4.1-0.9,6c-0.8,1.9-0.7,4.1,0.3,6c2,4.2,5.3,7.7,9.4,9.9c1.2,0.5,2.3,1.3,3.1,2.4l0,0
		c-1.1-0.5-2.2-1-3.3-1.4c-2.7-1-5.6-0.3-7.6,1.6c-0.8,0.7-0.8,0.8,0.1,1.4c1.8,1.2,3.9,1.9,6,2.3c1.6,0.2,3.2,0.4,4.8,0.4
		c0.9,0.1,1.7-0.3,2.2-1c0-0.2,0-0.3-0.1-0.5c-1.1-0.7-1.1-0.7-0.2-1.6c0.6-0.7,1.5-1,2.4-0.8c0.4,0.6,0.3,1.3-0.1,1.9
		c-0.2,0.3-0.5,0.7-0.6,1.1c-0.1,0.2-0.2,0.4-0.2,0.7c0.2,0,0.4,0,0.7,0l2.8-0.5c2.9-0.5,5.2-2.1,7.6-3.5c0.1,0,0.1-0.2,0.2-0.3
		c-0.1,0-0.2-0.1-0.3-0.1c-0.4,0.1-0.8,0.2-1.2,0.3c-2.9,0.7-5.8,1.2-8.7,0.4c-0.5-0.3-1-0.6-1.5-0.9c-4.4-2.2-6.9-5.7-6.8-10.8
		v-0.7C106.9,34.8,107.2,32,108,29.3L108,29.3L108,29.3L108,29.3z M193.8,50.3L193.8,50.3c0.5-0.4,1-0.8,1.5-1.1
		c1-0.3,2.1-0.5,3.2-0.6c3.6-0.2,8,1.2,9.9,5.9c0.1,0.2,0.1,0.4,0.1,0.7c-0.2-0.1-0.4-0.2-0.6-0.3c-2.1-2.2-5.2-3.2-8.3-2.7
		c-2.3,0.3-4.4,1.2-6.3,2.5c-2.4,1.7-4.8,3.5-7.2,5.2c-0.4,0.3-0.7,0.6-1.1,0.9l1.4-0.1c0.2,0,0.5-0.1,0.7-0.1
		c6.4-1.1,13-1.1,19.4-0.2c0.9,0.1,1.8,0.3,2.7,0.5c0.7,0.2,0.7-0.1,0.5-0.7c-0.3-1.1-0.5-2.2-0.6-3.4c-0.3-2.3,1.1-4.5,3.3-5.3
		c0.8-0.2,1.6-0.3,2.5-0.4c0.7-0.1,1.4-0.2,2.1-0.4c0.6-0.2,0.6-0.7,0-1.1c-0.6-0.3-1.1-0.4-1.7-0.7c-0.5-0.2-0.7-0.7-0.6-1.1
		c0-0.1,0.1-0.1,0.1-0.2c0.3-0.6,1-0.5,1.4-0.2c0.5,0.3,0.6,0.8,0.9,1.1c0.3,0.3,0.7,0.6,1.1,0.8c0-0.5,0-0.9-0.1-1.4
		c-1.3-3.7-2.7-7.4-4.1-11c-0.3-0.8-0.8-1.5-1.3-2.1c-0.8-1.1-1.9-1.8-3.2-2.1c-0.6-0.1-1.2-0.1-1.8-0.2c0.2,0.4,0.4,0.9,0.6,1.3
		c0.1,0.1,0.1,0.2,0.2,0.3c0.1,0.6,0.2,1.1,0.3,1.7c-0.4-0.3-0.8-0.6-1.2-0.8c-0.4-0.2-0.9-0.4-1.4-0.5c-0.8-0.1-1.5-0.6-1.8-1.3
		c-0.1-0.5-0.6-0.7-1.1-0.6c0,0-0.1,0-0.1,0c-2.9,0.8-5.7,1.9-7.7,4.4c-0.8,1.1-1.9,2-3.2,2.6c-0.3,0.1-0.7,0.3-0.9,0.6
		c-0.2,0.2-0.3,0.5-0.3,0.8c0.1,1.6-0.3,2.1-1.7,2c-0.9-0.2-1.7,0.4-1.9,1.2c-0.2,0.6-0.4,1.3-0.6,1.9c-0.2,1.1-0.9,2-1.9,2.5
		c-0.4,0.3-0.8,0.5-1.3,0.7c-0.8,0.3-1,0.6-0.6,1.4c0.8,1.5,0.5,3.3-0.8,4.5c-0.4,0.4-0.9,0.8-1.3,1.3c-0.5,0.6-1,1.3-1.4,2
		c-0.5,1.1-0.8,2.2-1.2,3.4l0,0c2.2-1,3.6-3,4.8-5c1-1.7,1.8-3.4,3-5c2.9-4.3,7.8-6.9,13-7c3.1-0.1,6.2,0.6,8.9,2
		c0.2,0.1,0.4,0.1,0.6,0.1c-0.1-0.2-0.2-0.4-0.3-0.6c-0.9-1.2-2.1-2.1-3.5-2.4c-3.4-1.3-7.1-1.2-10.4,0.3c-0.3,0.1-0.7,0.2-1,0.3
		l0,0c0.8-0.7,1.7-1.3,2.7-1.8c3.9-1.4,8.2-0.8,11.5,1.6c1.5,1,2.4,2.6,2.5,4.4c0,0.5-0.1,0.9-0.7,0.5c-0.3-0.2-0.7-0.5-1-0.7
		c-4.8-2.8-9.8-3.4-15-1.2c-3.4,1.5-6.2,4.1-7.8,7.4c-1,2.2-2.4,4.3-4.1,6.2l0,0c1.2,0.1,2-0.8,2.8-1.4c2.1-1.4,4.1-3,6.1-4.5
		c2.6-1.9,5.4-3.7,8.7-4c1.7-0.1,3.5,0,5.2,0.1c0,0.1,0,0.1,0.1,0.1h0.1l-0.2-0.1c-1.2-1.6-2.9-1.9-4.7-2.2
		C197.7,48.9,195.8,49.8,193.8,50.3L193.8,50.3L193.8,50.3z M198.1,225.9h-3.4c-2.8-0.1-5.6-0.3-8.5-0.3c-1.4,0-2.9,0.2-4.3,0.4
		c-0.2,0-0.4,0.3-0.6,0.4c0.2,0.1,0.3,0.2,0.5,0.3c0.6,0.2,1.3,0.3,1.9,0.3c2.7,0.1,5.3,0.1,7.9,0.3c1.4,0.2,2.7,0.5,4,0.9
		c0.2,0.1,0.4,0.3,0.6,0.4c-0.2,0-0.4,0-0.7,0c-2.6-0.7-5.3-1-8-0.7c-1.3,0.1-2.7,0.1-4-0.1c-1.5-0.2-3.1-0.7-4.6-0.8
		c-3.1-0.2-6.2-1-9-2.5c-0.9-0.4-1.8-0.8-2.7-1c-0.8-0.2-1.7-0.2-2.5-0.3c-0.2,0-0.3,0.1-0.5,0.2c0.1,0.2,0.1,0.4,0.2,0.5
		c1.1,0.8,2.4,1.4,3.6,1.9c5.2,1.8,10.7,2.8,16.3,3c3-0.1,6,0.4,8.8,1.4h-1.4c-3.1-0.2-6.1-0.5-9.2-0.7c-4.1-0.3-8.3-0.4-12.3-1.6
		c-0.2,0-0.3,0-0.5,0c0.1,0.2,0.3,0.3,0.4,0.4c5.1,2.6,10.3,4.6,16.2,4.6l0,0c-1.1,0.7-2.3,1.2-3.5,1.7c-5.4,1.5-10.8,2.5-16.4,1.7
		c-7.7-1-15-3.9-21.3-8.4c-1.2-0.9-2.4-1.7-3.6-2.5c-1.9-1.3-4.4-1.6-6.6-0.9c-1.8,0.6-3.6,1.3-5.4,2.1c-1.6,0.7-3.2,1.3-4.8,2
		c-0.6,0.2-1.2,0.4-1.8,0.5c0.6,0.3,1.1,0.6,1.7,0.9c0.4,0.2,0.8,0.3,1.2,0.5c1.3,0.7,2.8,0.9,4.2,0.4c0.9-0.3,1.9-0.5,2.8-0.8
		c1.9-0.5,3.8-1.1,5.7-1.6c3.2-1,6.7-0.1,9,2.4c4.2,4.4,9.6,6.5,15.4,7.8c2.1,0.4,4.3,0.4,6.4-0.1c5.6-1.1,11-2.5,16.4-4.2
		c4.5-1.2,8.8-3,12.9-5.1c0.4-0.1,0.8-0.2,1.2-0.2l0,0c-2.8,2.1-5.9,3.8-9.1,5.1c-8.4,3.4-17.3,5.7-26.3,6.9
		c-7.1,0.9-13.9,3.4-19.8,7.4c-4.6,3.2-9.6,5.9-15.2,7c-0.3,0.1-0.5,0.2-0.8,0.3c0.3,0,0.6,0.1,0.9,0.1c4.2,0,8.3-0.6,12.3-1.9
		c3.9-1.4,7.6-3.4,10.9-6c2.4-1.9,5-3.5,7.8-4.8c1.3-0.7,2.7-1,4.2-1l0,0c-1.9,0.9-3.8,1.8-5.6,2.8c-5.2,2.9-9.9,6.8-15.4,9.2
		c-0.1,0.1-0.2,0.1-0.3,0.2c0.1,0.1,0.3,0.1,0.4,0.2c0.3,0,0.6,0,0.9-0.1c6-1,11.7-3.3,16.6-6.9c2.1-1.5,4.1-3,6.2-4.5
		c2.1-1.5,4.5-2.6,7-3.2c0.3,0,0.6,0,0.8,0.1c-0.2,0.2-0.4,0.3-0.6,0.4c-3.2,1.4-6.3,3.1-9.1,5.2c-3.3,2.3-6.6,4.7-10.3,6.3
		c-0.2,0.1-0.3,0.2-0.4,0.3c0.2,0,0.3,0,0.5,0c0.7-0.1,1.3-0.2,2-0.4c7.1-1.6,13.9-4.6,19.8-8.9c1.8-1.4,3.7-2.8,5.6-3.9
		c1.5-0.8,3.1-1.5,4.8-2.1c0.4-0.1,0.8-0.1,1.1,0c-0.3,0.2-0.6,0.4-0.9,0.5c-5,2.5-9.8,5.5-14.2,8.9c-0.1,0.1-0.2,0.3-0.3,0.5
		c0.2,0,0.3,0,0.5,0c1.7-0.7,3.4-1.3,5-2c4.6-1.7,9.1-3.9,13.2-6.7c1.2-0.9,2.4-2,3.5-3.1c3.1-3.3,5.9-6.9,9.7-9.4
		c0.4-0.3,0.5-0.5,0-0.7c-0.8-0.3-1.6-0.5-2.4-0.7c-4.3-0.8-8.7-1-13-0.7c-1.1,0.2-2.1,0.4-3.1,0.8c-0.2,0.1-0.3,0.3-0.4,0.5
		c0.1,0.1,0.3,0.2,0.5,0.3c1.2,0.2,2.4,0.4,3.6,0.5c2,0.1,4.1,0,6.1,0.1C197.1,225.7,197.5,225.8,198.1,225.9L198.1,225.9
		L198.1,225.9z M40,89.5c-0.2,0-0.4,0-0.5,0c-5,1.1-9.8,3.3-13.9,6.5c-1.6,1.2-2.9,2.8-3.9,4.5c-0.1,0.1-0.2,0.3-0.4,0.4
		c0-0.2,0-0.4,0-0.6c0.4-1,0.9-1.9,1.5-2.9c1.5-2,3.4-3.6,5.6-4.8c4.5-2.4,9.3-4.1,14.3-4.9c1.6-0.2,3.1-1.1,4.1-2.4
		c1-1.3,1.9-2.8,2.7-4.2c0.7-1.4,1.2-2.8,1.7-4.2c0.6-1.5,1.1-3.1,2.7-3.9c0.5-0.3,0.3-0.7-0.1-0.8c-0.9-0.1-1.8-0.2-2.7-0.2
		c-0.7,0-1.4-0.1-1.6-0.9c-0.1-0.5,0-0.9,0.3-1.3c0.6-0.6,1.3-0.4,2,0c0.3,0.2,0.6,0.4,0.9,0.6c0.4,0.2,0.7,0.4,1.1,0.6
		c0.7,0.3,1.2,0,1.1-0.8c0-0.4-0.2-0.8-0.2-1.2c-0.2-1,0-2.1,0.6-3c1-1.8,3.1-2.8,5.1-2.3c2,0.5,3.5,2.1,3.8,4.1
		c0.2,1.3,0.1,2.7-0.4,3.9c-0.1,0.2-0.1,0.4-0.1,0.6c0.2-0.1,0.4-0.1,0.6-0.2c1.1-1,1.6-2.6,1.2-4c-0.3-1.4-0.9-2.6-1.9-3.6
		c-2.8-2.9-7.2-3.7-10.8-2c-0.6,0.2-1.1,0.4-1.7,0.6c0.4-0.5,0.9-0.8,1.5-1.1c1.1-0.5,2.4-0.8,3.6-1c1.2,0,2.4,0.1,3.6,0.3
		c0.2,0,0.3,0,0.5-0.1c0-0.2-0.1-0.3-0.2-0.5c-1.5-2.2-1.2-4.5-0.2-6.7c0.6-1.3,1.3-2.5,1.9-3.7c1.4-2.4,2.1-5.2,2.1-8
		c-0.1-0.8-0.3-1.5-0.6-2.2c-0.1-0.2-0.4-0.4-0.7-0.6c-0.1,0.3-0.1,0.5-0.1,0.8c0,1.9-0.6,3.8-1.8,5.4c-1.1,1.6-2,3.4-2.6,5.4
		c-1.6,5.2-5.3,9.5-10.3,11.7c-0.7,0.3-1.3,0.6-1.9,1c-1.7,0.9-2.8,2.6-2.8,4.6c-0.1,2,0.2,4.1,0.9,6c0.5,1.2,0.8,2.4,1.1,3.6
		c0.9,4-1,8.4-5.7,9.3c-2.2,0.5-4.5,0.7-6.8,0.7c-1.9-0.1-3.7,0.1-5.6,0.4c-4.3,0.9-8.3,2.5-11.4,5.8c-4.5,4.5-8.2,9.7-11,15.4
		c-1,2.1-1.7,4.3-2.1,6.5c-0.7,3.1-0.1,6.4,1.7,9c0.8,1.5,2.1,2.5,3.7,2.9c1.4,0.4,2.9-0.3,3.5-1.6c0.6-1.2,0.8-2.6,0.5-3.9
		c-0.2-1.7-1.3-3.1-2.9-3.7c-1.6-0.5-3.4,0.1-4.4,1.4c0,0.1-0.1,0.1-0.1,0.1l-0.4,0.2c0-0.2-0.1-0.4,0-0.5c0.5-1.3,1.7-2.3,3.1-2.4
		c1.6-0.2,3.2,0.4,4.2,1.6c0.1,0.1,0.3,0.2,0.4,0.3c0-0.2,0.1-0.3,0.1-0.5c0-1.3,0.1-2.5,0.3-3.8c0.4-1.6,0.6-3.2,0.6-4.8
		c-0.1-2.2,0.5-4.4,1.7-6.2c0.4-0.6,0.7-1.3,1-1.9c0.4-1.3,1.1-2.6-0.5-3.7c-0.2-0.2-0.3-0.6-0.4-1c-0.1-0.4-0.3-1,0.3-1.2
		c0.6-0.2,0.8,0.3,1,0.7c0.2,0.7,0.5,1.4,0.8,2c0.6,0.8,0.9,1.9,0.7,2.9c-0.3,1.9-0.1,3.9,0.7,5.7c0.6,1.2,0.4,2.6-0.4,3.7
		c-1.3,1.8-1.8,4-1.3,6.2c0.1,0.2,0.2,0.3,0.3,0.5c0.1-0.1,0.2-0.3,0.3-0.5c0.4-1.4,0.7-2.8,1.1-4.2c3.3-9.4,9.5-16.4,17.8-21.7
		c1.3-0.8,2.7-1.6,4-2.4l0.3-0.2L40,89.5L40,89.5z M157.6,43.8L157.6,43.8c0.3-0.2,0.6-0.3,0.9-0.4c7.1-2.1,13.5-6.1,18.6-11.4
		c3.8-3.6,5.4-8.9,4.3-14c-0.5-2.9-1.9-5.2-4.8-6.3c-1.9-0.7-3.9-0.7-5.9-0.2c-0.2,0.1-0.4,0.2-0.7,0.3c0.2,0.1,0.4,0.2,0.7,0.3
		c4.6,1.8,6.5,5.5,5.5,10.3c-0.6,3.3-1.9,6.4-3.8,9.1c-0.7,1,0.1,0.9,0.7,0.9l0,0c-1.4,0.6-2.7,1.6-3.7,2.8
		c-3.3,3.4-7.6,5.7-12.2,6.6c-1.6,0.3-3.2,0.4-4.8,0.2c-3.5-0.5-5.2-3-4.7-6.5c0.4-3.2,2.3-6,5-7.6c2-1,3.5-2.9,4-5.1
		c0-0.8,0.6-1.5,1.4-1.7c0.9-0.2,1.5-0.9,1.6-1.8c0.2-1.2,0.1-2.4-0.5-3.5c-1-1.8-2-3.6-3.1-5.3c-1-1.5-2.3-2.8-3.9-3.6
		c-3.2-1.9-6.8-2.8-10.5-2.7c-3.2,0-6.2,1.3-8.4,3.6c-3,3.3-3.2,8.6,0.4,11.3l0,0c-0.3-0.9-0.7-1.7-1-2.6c-1-2.7-0.3-5.7,1.9-7.6
		c3.7-3.1,9.1-3.1,12.8-0.1c1.6,1.4,2.7,3.3,3,5.4c0.1,0.4,0.1,0.8,0.2,1.3c0.8,4,0.2,8.2-1.9,11.7c-2,3.6-4.9,6.7-8.3,8.9
		c-0.5,0.3-0.9,0.7-1.2,1.2c-0.7,2.7-2.1,5.2-4,7.2c-0.1,0.1-0.1,0.2-0.2,0.3c0.2,0,0.3,0,0.5,0c0.3-0.1,0.6-0.2,0.8-0.3
		c3.8-1.4,7.5-2.2,11.3,0.2c0.5,0.3,1,0.2,1-0.5c0-0.5-0.1-1.1-0.2-1.6c-0.1-0.6-0.1-1.1,0.5-1.4c0.4-0.2,1.3,0.4,1.3,1
		c0,0.4-0.2,0.8-0.4,1.1c-0.7,1.4-0.6,2,0.7,2.9c0.3,0.2,0.7,0.5,0.9,0.8c1.7,2,4.6,2.4,6.7,0.9c0.8-0.5,1.6-1.1,2.4-1.6
		c1.8-1.2,4.1-0.7,5.3,1.1c0.1,0.2,0.2,0.4,0.3,0.5c0.8,1.6,0.8,3.5,0,5.1c-0.4,0.9-0.1,1,0.7,1c2.1,0,4.1,0.6,5.7,1.9
		c2.2,1.5,3,4.4,1.7,6.7c-0.5,0.8-1,1.6-1.6,2.4c0,0-0.1,0.1-0.1,0.1c0,0.1,0,0.1,0,0.1l0.1-0.2c0.8-0.4,1.7-0.8,2.5-1.2
		c2.2-1.1,3.2-2.7,2.7-5.3c-0.4-1.3-0.1-2.6,0.8-3.6c1.5-1.5,1.8-3,0.2-4.7c-0.8-0.9-0.3-1.8,0.9-2c0.3,0,0.6,0,0.9,0
		c1.4,0.1,2.7-0.6,3.3-1.8c0.5-0.8,0.7-1.7,1.3-2.4c0.7-1,1.6-1.9,2.5-2.8c0.7-0.4,1.5-0.8,2.3-1c1.4-0.4,2.4-1.6,2.6-3
		c0.4-2.6-1.1-5-3.5-5.9c-0.9-0.3-1.9-0.5-2.8-0.6c-2.8-0.2-5.6,0-7.9,1.7c-1.4,1.1-2.7,2.3-4,3.7c-0.1,0.1-0.1,0.2-0.2,0.3
		c0.1,0,0.3,0,0.4,0l5.6-0.4c0.2,0,0.4,0.1,0.6,0.2c-0.1,0.2-0.2,0.4-0.4,0.6c-0.9,0.8-2,1.3-3.2,1.4c-1.1,0.1-2.3,0.2-3.4,0.3
		c-0.2,0-0.5,0.1-0.7,0.1c0.2,0.1,0.3,0.3,0.5,0.4c1.7,0.8,2.8,2.4,3,4.2c0.3,1.8-0.5,3.6-2.1,4.4c-1,0.5-2.2,0.2-2.7-0.8
		c0,0,0,0,0-0.1c0-0.1,0-0.2,0-0.3c0.1,0,0.3,0,0.4,0c2.1,0.8,3.4,0,3.5-2.2c0.2-2.4-1.6-4.5-4-4.7c-0.1,0-0.3,0-0.4,0
		c-1.1,0-2.3,0.4-3.2,1C164.9,42.3,161.3,43.5,157.6,43.8L157.6,43.8z M99.3,97.9L99.3,97.9c0.1-0.5,0.2-1,0.4-1.5
		c0.6-1.8-0.4-3.7-2.2-4.4c-2-0.8-4.3,0.1-5.1,2.2c-0.2,0.4-0.3,0.8-0.3,1.2c-0.1,1.6-0.1,3.1,0,4.7v5c0,1,0.1,1.9,0.3,2.9
		c0.4,1.2,1.1,1.5,2.4,1.2c1.2-0.2,2.4-0.5,3.5-0.9c1-0.4,2-0.9,2.8-1.5c1.2-1.1,2.6-1.9,4.2-2.5c1.3-0.4,2.8-0.7,3.8-1.6
		c0.9-0.9,1.2-2.4,1.9-3.6c0.2-0.5,0.6-0.9,1.1-1.1c1.5-0.7,1.5-0.6,1.1-2.2c-0.2-0.9-0.3-1.8-0.3-2.6c0-0.7,0.5-0.8,1-0.6
		c0.7,0,1.2,0.6,1.2,1.3c0,0.2-0.1,0.4-0.1,0.5c-0.8,2-0.6,4.2,0.6,6c0.2,0.6,0.4,1.1,0.4,1.7c0.4,1.6,0.7,3.2,1.2,4.7
		c0.3,0.9,0.8,1,1.5,0.4c2.3-1.9,4.6-3.8,6.6-5.9c2.3-2.3,3.6-5.3,3.8-8.6c0.1-1.6,0.4-3.2,1-4.8c2.7-7.4,7.5-12.5,15.4-14.1
		c4.1-0.9,8.2-1.2,12.4-1c1.3,0.1,2.5-0.1,3.7-0.6c12.9-5,26.7-6.9,40.5-5.5c7.1,0.6,13.9,3,19.7,7c6.2,4.4,10.9,9.9,12.7,17.5
		c0,0.2,0.1,0.4,0.2,0.5c0.1,0.1,0.1,0.2,0.2,0.3c0.1-0.1,0.2-0.2,0.2-0.4c0-1.7,0.2-3.5,0-5.2c-0.6-7.6-3.9-13.8-10.3-18.1
		c-4.4-2.9-9.3-4.9-14.5-6c-6.6-1.4-13.3-1.8-20-1c-5,0.5-10,1.8-14.6,3.8c-2.2,1-4.5,1.8-6.7,2.6c-3.7,1.2-7.6,1.7-11.4,1.2
		c-6.6-0.6-13.2,1-18.8,4.5c-2.8,1.7-4.9,4.1-6.2,7.1c-0.5,1.1-1,2.2-1.5,3.3c-1,2.1-2.3,4-4,5.6c-2,1.9-4.4,3.4-7,4.3
		c-0.2,0-0.3,0-0.5,0c0-0.2,0.1-0.3,0.2-0.4c1.1-1.6,1.9-3.5,2.3-5.5c0.6-2.3,0.5-4.8-0.2-7c-0.1-0.3-0.2-0.5-0.4-0.8
		c0,0.3-0.1,0.5-0.2,0.8c-0.2,1.3-0.4,2.6-0.8,3.9c-1.7,4.3-6.6,4.4-9.2,2.3c-1.1-0.8-1.8-2.2-1.8-3.6c-0.1-1.2,0.8-2.2,2-2.3
		c0.1,0,0.3,0,0.4,0c0.2,0,0.3,0.1,0.5,0.2c-0.1,0.1-0.2,0.2-0.4,0.3c-1.8,1.2-2,2.8-0.5,4.3c2,1.9,5.2,1.8,7.1-0.3
		c0.5-0.6,0.9-1.2,1.1-1.9c0.4-1.5,0.5-3,0.4-4.5c0-1.9-1-3.6-2.5-4.6c-2.4-1.8-5.2-2.9-8.2-3.1c-2.6-0.3-5.2,0.4-7.3,2
		c-0.4,0.3-0.5,0.5,0.2,0.7c2.2,0.6,2.7,1.7,2,3.8c-0.2,0.5-0.4,1-0.5,1.5c-0.1,0.5-0.3,0.6-0.7,0.3c-1.1-0.9-2.2-1.8-3.2-2.9
		c-0.4-0.4-0.5-0.4-0.7,0c-0.8,1.5-1.2,3.3-1.2,5c-0.1,2,1.4,3.8,3.5,4c1.1,0.1,2.2,0.1,3.2,0h0.5c-0.1,0.2-0.1,0.4-0.3,0.6
		c-1,0.8-2.4,1.1-3.6,0.7c-0.7-0.2-1.5-0.6-2.2-0.9c-0.3,0.7-0.5,1.5-0.9,2.3c-0.6,1.3-0.5,2.1,0.7,3c2.3,1.6,2.5,4.7,0.3,6.3v0.1
		L99.3,97.9z M27.4,78.9c0.1,1.4,0.1,2.3,0.2,3.3c0.2,2.4,2,4.3,4.4,4.6c1.2,0.1,2.4,0.2,3.6,0.1c0.4,0,0.5-0.2,0.3-0.5
		c-0.2-0.2-0.3-0.3-0.5-0.5c-2.4-2.5-2.7-6.3-0.7-9.2c1.3-2.1,3.9-2.7,6-1.5c1.3,0.7,1.9,2.2,1.4,3.6C42,78.9,42,79,41.9,79.1
		c-0.1-0.1-0.1-0.2-0.2-0.2c-0.1-0.3-0.1-0.6-0.2-0.9c-0.4-1.7-2.1-2.6-3.8-2.2c-0.3,0.1-0.5,0.2-0.7,0.3c-1.3,0.5-2.2,1.7-2.5,3.2
		c-0.1,0.9-0.2,1.8-0.1,2.7c-0.1,1.8,1,3.4,2.7,3.9c1.6,0.7,3.5,0.4,4.7-0.8c2.2-1.7,3.1-4.5,2.3-7.2c-0.3-1.2-0.7-2.3-1.1-3.4
		c-1-2.5-1.2-5.2-0.7-7.8c0.7-3.7,1.5-7.5,2.1-11.2c0.3-2,0.5-4,0.5-5.9c0.1-2.8-1.8-5.2-4.5-5.8c-3.4-1-6,0.4-8.2,2.8
		c-1.7,1.9-1.2,3.7,1.1,4.4c0.8,0.3,0.9,0.6,0.8,1.3c-0.2,0.7-0.2,1.1-0.3,1.6c-0.1,0.8,0.1,1.2,1,1.3c1.5,0.1,2.7,0,3.7-1.4
		c0.6-0.9,1.6-1.4,2.7-1.2c0.3,0,0.7,0.4,1,0.6c-0.2,0.3-0.4,0.8-0.7,0.9c-0.6,0.3-1.3,0.5-2,0.4c-0.5-0.1-1,0.2-1.1,0.7
		c-0.1,0.3,0,0.6,0.2,0.9c0.7,0.5,0.8,1.4,0.3,2.1c-0.2,0.5-0.4,1-0.6,1.5c-1,2.5-1.9,2.9-4.5,2.2c-0.3-0.1-0.7-0.1-1-0.2
		c0.1,0.3,0.2,0.6,0.4,0.9c0.1,0.2,0.2,0.3,0.3,0.4c1.2,1.5,1.1,3.8-0.3,5.2c-0.8,1-1.7,1.9-2.7,2.6c-1.4,1-2.4,2.6-2.6,4.4
		C27.7,76.7,27.5,77.9,27.4,78.9L27.4,78.9z M78.5,58.1c-0.2-2-0.7-3.8-2.3-5.1c-3-2.4-9-1-10.8,2.5c-0.2,0.4-0.4,0.9-0.5,1.4
		c-0.4,2,0.6,3.9,2.4,4.8c0.7,0.4,1.5,0.2,2-0.5c0,0,0-0.1,0-0.1c0.2-0.3,0.4-0.5,0.6-0.8c0.1,0.3,0.2,0.7,0.3,1
		c0.3,1.2-0.5,2.5-1.7,2.7c-0.2,0.1-0.4,0.1-0.6,0.1c-0.9,0-1.8-0.1-2.6-0.2h-0.7c0.1,0.3,0.2,0.5,0.3,0.7c1,1.2,1.5,2.7,1.6,4.3
		c0.2,2.9-1.3,4.6-4.1,4.9c-0.5,0-1,0-1.4,0c0.2-0.4,0.5-0.8,0.7-1.1c1.8-2.2,2-4.1,0.6-6.3c-0.9-1.6-2.9-2.2-4.5-1.3
		c-1.7,0.9-2.4,2.6-1.9,4.6c0.2,1,0.7,1.6,1.7,1.5c1.5-0.1,2,0.8,2.5,2c0.9,2.5,1.9,5,3,7.3c0.8,1.7,2.2,3.2,2.6,5.1
		c0.2,0.5,0.4,0.9,0.7,1.3c2.6,4.4,6.8,5.6,11.5,6.1c0.3,0,0.6-0.1,0.3-0.5c-1.6-2.4-2.2-5.2-3.1-7.9c-1.6-4.4-1.8-9.1-0.6-13.6
		c0.7-2.9,1.8-5.7,2.7-8.6C77.7,61.1,78.1,59.6,78.5,58.1L78.5,58.1z M161.3,64.4c1,0.1,1.9,0.1,2.9,0c1.3-0.1,2.6-0.4,3.8-0.9
		c1.7-0.9,2.4-2.9,1.7-4.6c-0.4-1.2-1.7-1.9-3-1.6c-0.2,0.1-0.6,0.3-0.6,0.5c0,0.3,0.1,0.7,0.4,0.9c0.3,0.2,0.7,0.4,1.1,0.6
		c0.7,0.4,0.7,0.9,0.1,1.4c-0.8,0.7-1.9,0.8-2.9,0.4c-1.4-0.6-2.3-1.9-2.4-3.4c-0.1-0.9-0.3-1.1-1.2-1.1c-1.5,0.1-2.9-0.7-3.6-2
		c-0.5-0.7-0.6-1.6-0.2-2.4c0.1-0.2,0.4-0.4,0.6-0.6c0,0.2,0.1,0.5,0.1,0.7c-0.1,1.7,1.2,3.1,2.8,3.2c0.1,0,0.1,0,0.2,0
		c1.8,0,3.4-1.1,4.1-2.7c0.9-1.6,0.8-3.6-0.3-5.1c-0.8-1.2-2.4-1.6-3.6-0.8c0,0,0,0-0.1,0c-0.6,0.3-1.2,0.7-1.8,1.2
		c-2,1.8-5,2-7.2,0.5c-1.3-0.8-1.8-0.6-2.1,0.9c0,0.3-0.1,0.6-0.1,0.9c-0.2,2.4-0.5,4.8-0.7,7.2c-0.5,3.6-1.1,7-3.8,9.7
		c-0.1,0.1-0.1,0.2-0.2,0.3c0.1,0.1,0.3,0.1,0.5,0.1c0.3-0.1,0.7-0.3,1-0.4C151.3,65.3,156.3,64.3,161.3,64.4L161.3,64.4L161.3,64.4
		z M107.8,70.1c9.4-0.2,18.3,8.2,14.9,19.4c-0.2,0.7-0.3,1.3-0.4,2c0.7-0.3,1.3-0.5,2-0.8c0.2-0.1,0.3-0.2,0.5-0.3
		c3.3-2.6,5.7-6.2,6.7-10.3c0.4-1.3,0.4-2.8,0-4.1c-0.5-2.2-2.6-3.6-4.8-3.1c-0.1,0-0.2,0.1-0.3,0.1c-2.3,0.6-4.8,0.2-6.7-1.2
		c-1.1-0.8-2.1-1.8-3.2-2.7c-0.5-0.4-1-0.8-1.6-1.1c-1.2-0.5-2.5-0.8-3.7-1.2c-0.7-0.3-1.4-0.2-2.1,0.1c-1.1,0.5-2.3,0.9-3.5,1.4
		c-0.7,0.2-1.4,0.5-2,1c-0.5,0.6-1.2,1-2,1c-1.1,0.1-2.3,0.1-3.4-0.1c-0.6-0.1-0.8-0.1-0.8,0.6c-0.1,1.1-0.4,2.2-0.8,3.3
		c-0.8,2.3-2.1,4.4-3.8,6.1c-0.1,0.2-0.3,0.4-0.3,0.6l0.7,0.2c1.1,0.2,2.1,0.5,3.1,0.8c0.7,0.3,0.7,0,0.7-0.5
		c0.3-3.4,1.9-6.5,4.4-8.7C103,71.1,105.4,70.1,107.8,70.1L107.8,70.1L107.8,70.1z M127.5,61.1c0-4.6,2.1-7.5,6.2-8.6
		c1.2-0.3,2.4-0.4,3.6-0.4c4-0.1,8.7,4.8,7.7,9.1c-0.6,2.6-1.3,3.6-4,4.1c-0.1,0-0.3,0.1-0.4,0.2c0.1,0.1,0.3,0.3,0.4,0.3
		c3.3,0.6,6.3-1.7,5.7-5.1c-0.6-3.8-0.5-7.6,0.3-11.3c0.7-3.8-0.6-5.6-5-5.4l-0.4,0.1c-3.9,0.4-7.6,2-10.7,4.5c-3,2.3-5.2,5.4-6.5,9
		c-1.2,3.8-0.2,6.9,3,9.3c0.7,0.5,1.5,1,2.3,1.5c0.4,0.2,0.7,0.3,1.1,0.3c-0.2-0.3-0.4-0.6-0.7-0.8
		C128.5,66.1,127.5,63.6,127.5,61.1L127.5,61.1L127.5,61.1z M210.2,56.5c0.3,1.2,0.7,2.4,1,3.7c0.2,0.9,0.9,1.6,1.8,1.8
		c2.7,0.9,5.3,1.9,7.9,3c4.5,1.9,8.4,5.1,11.1,9.2c0.4,0.7,0.9,1.3,1.4,2c-0.1-0.8-0.1-1.7-0.2-2.5c-0.4-3-1.3-5.9-2.8-8.6
		c-0.3-0.7-0.9-1.1-1.7-1.1c-1.6,0.1-3-0.9-3.5-2.4c-0.4-1.2-1.2-2.2-2.4-2.8c-0.6-0.3-1.1-0.7-1.6-1.1c-0.3-0.3-0.8-0.8-0.8-1.1
		c0.2-1.4-0.7-2.2-1.2-3.3c-0.3-0.9-1.3-1.5-2.2-1.3c-1.1,0.1-2.2,0.2-3.2,0.3C211.8,52.4,210.1,54.3,210.2,56.5L210.2,56.5
		L210.2,56.5z M154.1,41.3c0.6,0,1.2-0.1,1.8-0.2c4.6-1.1,8.8-3.3,12.3-6.5c0.1-0.1,0.2-0.3,0.2-0.4c-0.2,0-0.3,0-0.5,0
		c-2.3,0.7-4.7,0.6-6.9-0.2c-1.2-0.4-2.2-1.2-2.9-2.3c-1.6-2.1-1.2-5,0.9-6.6c0.6-0.5,1.3-0.8,2-0.9c0.4-0.1,0.8-0.2,1.2-0.3
		c0.2-0.1,0.3-0.3,0.5-0.4c-0.2-0.1-0.3-0.1-0.5-0.2c-2-0.3-3.9,0.6-5,2.2c-1.5,2.1-3.4,3.8-5.5,5.1c-0.6,0.4-1.1,0.8-1.5,1.3
		c-1.6,1.7-2,4.1-1.1,6.2C149.9,40.4,151.8,41.3,154.1,41.3L154.1,41.3z M75.7,239.6l-5.8,0.5c-0.3,0.1-0.5,0.1-0.8,0.2
		c0.2,0.2,0.4,0.4,0.6,0.6c2.6,1.6,5.3,2.8,8.2,3.7c0.6,0.2,1.3,0.2,1.9,0c1.5-0.3,3.1-0.4,4.7-0.3c2.8,0.5,5.6,1.3,8.3,2.5
		c4.9,2,10.1,3.4,15.3,4c5.7,0.5,11.4-0.3,16.7-2.3c0.2-0.1,0.4-0.2,0.6-0.3c-0.2,0-0.5,0-0.7,0c-2.8,0.6-5.6,0.8-8.4,0.7
		c-2.2,0-4.3,0-6.5-0.1c-1.8,0-3.6-0.2-5.4-0.5c-5.2-0.9-10.3-2.7-14.9-5.2C85.3,240.7,80.6,239.5,75.7,239.6L75.7,239.6z M82.9,245
		c-0.3,0-0.8,0.1-1.4,0.1c-0.3,0.1-0.5,0.1-0.8,0.2c0.3,0.2,0.5,0.4,0.8,0.6c0.1,0.1,0.2,0.1,0.3,0.2c7.8,3,15.9,5.3,24.1,7
		c4,1,8.2,1,12.1-0.1c1-0.3,2-0.5,3-0.7c5.1-1,10-3,14.3-5.8c1.3-0.9,2.6-1.7,3.9-2.6c0.7-0.5,1.3-1,1.9-1.4
		c-0.8-0.2-1.6-0.4-2.4-0.5c-1-0.2-2,0.1-2.9,0.7c-12.4,9.6-25.9,11.5-40.5,5.8c-1.7-0.7-3.3-1.4-5-2C88,245.5,85.4,245,82.9,245
		L82.9,245z M96.4,71.2c0-2-0.8-3.4-2.8-4.6c-0.2-0.1-0.4-0.2-0.6-0.2c0,0.2,0,0.5,0.1,0.7c1,3,0.1,6.3-2.3,8.4
		c-1.5,1.4-3.1,2.7-4.7,3.9c-1.6,1.3-3.4,2.5-5,3.9c-1.3,1.2-2.2,2.7-2.6,4.5c-0.3,1.1-0.1,2.2,0.6,3.1c0.7,0.9,1.6,1.7,2.4,2.4
		c0.5,0.5,1,0.5,1.1-0.3c0.9-4.2,3.4-7.5,6.5-10.4c0.9-0.9,1.8-1.7,2.7-2.6c1.9-2.1,3.4-4.5,4.2-7.3C96.2,72.2,96.3,71.7,96.4,71.2
		L96.4,71.2z M118,244.6c4.4,0,8.7-0.7,12.9-2l0.7-0.2c-0.5-0.1-1,0-1.4,0.1c-4.3,1-8.8,1-13.1,0.2c-6.9-1.5-13.4-4.7-18.7-9.3
		c-1.6-1.3-3.3-2.4-5.1-3.4c-0.5-0.3-1-0.4-1.5-0.4c-1.5,0.3-2.9,0.8-4.3,1.2c-0.2,0.1-0.4,0.2-0.6,0.4c0.2,0.2,0.4,0.3,0.7,0.5
		c3.5,1.4,6.7,3.3,9.5,5.8c1.6,1.3,3.4,2.5,5.2,3.5C106.7,243.5,111.7,244.5,118,244.6L118,244.6z M122.4,242.4h1.6
		c1.3-0.1,2.6-0.2,3.9-0.4c1.3-0.2,2.4-0.4,3.5-0.7c0.2-0.1,0.3-0.1,0.5-0.3c-0.1-0.2-0.3-0.3-0.5-0.4c-0.4-0.2-0.9-0.4-1.4-0.5
		c-1.5-0.2-3-0.2-4.5-0.3c-7.9-0.5-15.4-3.4-21.7-8.1c-1.1-0.8-2.3-1.6-3.4-2.3c-1.8-1.1-4.1-1.3-6.1-0.5c-0.1,0-0.2,0.2-0.4,0.3
		c0.1,0.1,0.2,0.3,0.3,0.4c1.4,1,2.9,1.9,4.3,2.9c2,1.5,4,3.2,6.1,4.5C110,240.3,116.1,242.2,122.4,242.4L122.4,242.4L122.4,242.4z
		 M133.2,63.1c0.1,1.2,0.3,2.4,0.6,3.6c0.6,1.9,1.4,3.8,2.2,5.7c0,0.1,0.5,0.1,0.6-0.1c1.4-1.6,3.2-3,5.2-3.8c0.5-0.3,1-0.6,1.5-1
		c0.3-0.2,0.5-0.4,0.8-0.7L143,67c-0.5,0-1.1,0-1.6,0c-1.8-0.2-3.3-1.5-3.6-3.3c0-0.3,0-0.6,0.1-0.9c0.2,0.1,0.4,0.2,0.6,0.4
		c0.3,0.2,0.6,0.5,0.9,0.6c1,0.6,2.3,0.6,3.2-0.1c2.2-1.6,2.2-5.9-0.1-7.4c-2.7-1.8-7.6-0.3-8.4,2.7
		C133.7,60.4,133.4,61.9,133.2,63.1L133.2,63.1L133.2,63.1z M120.8,255.4c1.5-0.2,3-0.3,4.5-0.5c5.9-0.8,11.7-2.8,16.8-5.8
		c3.3-2.1,6.4-4.5,10.1-6c0.1-0.1,0.2-0.2,0.4-0.3c-0.1-0.1-0.3-0.1-0.4-0.2c-1.9,0-3.9,0-5.8-0.1c-1.6-0.1-3.3,0.3-4.7,1.2
		c-2.2,1.3-4.3,2.6-6.5,3.9c-4.4,2.8-9.2,4.8-14.3,5.9c-1.4,0.3-2.8,0.7-4.2,1c-0.1,0-0.2,0.2-0.3,0.2c0.1,0,0.2,0.1,0.3,0.1
		L120.8,255.4L120.8,255.4z M111,65.1v-0.2h0.5c1.4-0.1,1.6-0.2,1.5-1.6c-0.1-0.9-0.3-1.8-0.6-2.6c-0.3-1-0.7-1.9-0.9-2.9
		c-0.5-2.2-0.4-2.2-2.6-2.5c-0.4-0.1-0.8-0.1-1.3-0.2c-2.8-0.3-5.6-1.2-8-2.7c-1.3-0.9-1.6-0.7-1.8,0.9c0,0.4,0,0.8,0.1,1.3
		c0.3,1.9,1.1,3.6,2.4,5c1.3,1.3,2.7,2.5,4.1,3.8c0.2,0.2,0.5,0.3,0.8,0.4C107.3,64.2,109.1,64.6,111,65.1L111,65.1z M54.1,98.6
		c-2.9-0.2-5.7,0.4-8.3,1.7c-0.1,0.1-0.3,0.2-0.4,0.3c0.1,0.1,0.3,0.2,0.4,0.3c1.2,0.5,2.5,0.9,3.7,1.5c0.8,0.4,1.7,0.6,2.6,0.3
		c3.4-0.8,6.9-0.4,10,1.1c3.1,1.5,5.9,3.5,8.3,6c0.7,0.9,1.8,1.5,3,1.5c1.8-0.1,3.6,0.5,5.1,1.6c0.1,0.1,0.3,0.2,0.4,0.2
		c0.3-0.1,0.6-0.2,0.8-0.3c-0.1-0.2-0.2-0.4-0.4-0.5c-0.6-0.5-1.2-1-1.8-1.5c-4.2-3.5-8.3-6.9-13.2-9.4
		C61.2,99.7,57.7,98.7,54.1,98.6L54.1,98.6z M176,234.8c2.6,0.1,5.2-0.3,7.7-1c0.3-0.1,0.5-0.3,0.7-0.5c-0.2,0-0.5-0.1-0.7-0.1
		c-3.1,0-6.3-0.6-9.1-1.9l-10.6-4.2c-2.8-1.1-5.7-1.8-8.7-2.2c-1.2-0.2-2.4-0.1-3.6-0.2c-0.5,0-0.7,0.4-0.3,0.7
		c0.7,0.7,1.5,1.4,2.4,1.9c2.6,1.3,5.3,2.6,8,3.8C166.2,233.2,171.1,234.4,176,234.8L176,234.8z M94.1,90c1.6,0.1,3.1-1,3.5-2.7
		c0.6-1.9-0.5-4-2.5-4.6c-2.4-0.8-5.1-0.1-6.8,1.7c-2.2,2.3-3.6,5.3-4.1,8.5c-0.1,0.6,0,0.9,0.6,1c2,0.4,3.8,1.3,5.3,2.5
		c0.5,0.4,0.6,0.1,0.6-0.4c0.1-1.9,1-3.7,2.6-4.7c0.3-0.2,0.3-0.4,0-0.6s-0.7-0.7-1.1-1.1l1.4,0.2C93.6,89.9,94.1,90,94.1,90z
		 M43.3,114.3c0.1,0.7,0.2,1.4,0.3,2.2c0.7,2.7,3,4.7,5.7,5.1c0.7,0.2,1.3-0.1,1.8-0.6c0.8-1,1.6-2,2.3-3c0.1-0.2-0.1-0.6-0.2-0.8
		s-0.5-0.2-0.8-0.4c-1.8-1-3.4-2.3-4.6-4c-1.1-1.5-0.5-2.9,1.4-3.3c0.4-0.1,0.8,0,1.2-0.1c1.2-0.1,2.2-0.7,3-1.6
		c0.2-0.2,0.2-0.8,0.1-0.9c-0.8-0.8-1.8-1.6-2.7-2.4c-0.2-0.2-0.7,0-1,0.1C45.8,106.2,43.3,110.1,43.3,114.3L43.3,114.3L43.3,114.3z
		 M96.8,32.4v-1.7c0-0.2-0.1-0.4-0.2-0.6c-0.1,0.1-0.2,0.3-0.3,0.4c-1.1,2.3-2.3,4.5-3.4,6.8c-0.3,0.5-0.4,1-0.3,1.6
		c0.5,3.9,2.3,7.6,5.1,10.4c0.3,0.3,0.6,0.5,1,0.1c1.4-1.4,3.3-2.4,5.3-2.6c0.2-0.1,0.4-0.2,0.6-0.3c-0.1-0.2-0.3-0.4-0.4-0.6
		c-1.9-1.5-3.5-3.3-4.9-5.3C97.4,38.4,96.5,35.4,96.8,32.4L96.8,32.4L96.8,32.4z M71.8,224.2c1.4-0.1,2.6-0.2,3.7-0.3
		c0.2,0,0.3-0.2,0.4-0.2c-0.1-0.1-0.2-0.3-0.3-0.3c-3.9-1.8-7.1-4.5-10.4-7.1c-3.2-2.5-6.8-4.4-10.6-5.8c-1.2-0.5-2.6-0.6-3.9-0.4
		c-0.3,0.1-0.6,0.2-0.9,0.4c0.2,0.2,0.5,0.3,0.8,0.4c4.9,1.8,9.2,5,12.3,9.2C65.1,223.2,68.2,224.7,71.8,224.2L71.8,224.2
		L71.8,224.2z M38.4,113c0.2,1.2,0.4,2.4,0.7,3.6c1,3.9,4.8,6.5,8.8,5.8l0.5-0.1c-0.2-0.1-0.4-0.2-0.6-0.3c-2.8-0.5-4.9-2.7-5.5-5.4
		c-0.9-3.5,0-7.3,2.5-9.9c1.1-1.1,2.4-2,3.7-2.8c0.4-0.3,0.5-0.6,0-0.7c-1.2-0.5-2.5-1-3.7-1.5c-0.7-0.3-1.6-0.1-2.1,0.6
		C40.1,105,38.7,108.5,38.4,113L38.4,113z M82.8,222.9c1.4-0.2,2.8-0.4,4.2-0.6c0.2-0.1,0.5-0.1,0.7-0.2c-0.2-0.1-0.4-0.2-0.6-0.3
		c-5-1.7-9.8-4-14.2-7c-2.2-1.6-4.7-2.8-7.3-3.6c-2.8-0.8-5.7-1.3-8.6-2c-0.2,0-0.4,0-0.5,0.1c0.1,0.1,0.3,0.2,0.4,0.3
		c0.2,0.1,0.3,0.2,0.5,0.2c3.8,1.3,7.3,3.2,10.4,5.7c2.5,1.9,5,3.7,7.7,5.4C77.7,222.1,80.2,222.8,82.8,222.9L82.8,222.9L82.8,222.9
		z M91.9,40.4c-0.1,0.1-0.3,0.1-0.3,0.2c-0.1,0.3-0.2,0.6-0.3,0.9c-1.6,6.4,0.1,12.2,3.4,17.6c0.3,0.4,0.6,0.7,1.1,0.9
		c1.8,0.9,3.6,1.7,5.4,2.5c0.2,0,0.3,0,0.5,0c-0.1-0.2-0.1-0.3-0.2-0.4c-0.6-0.7-1.3-1.2-1.9-1.9c-2.1-2.6-3.4-5.4-2.2-8.8
		c0.1-0.4,0-0.8-0.3-1.1c-2.4-2.6-4.1-5.8-5-9.3C92,40.7,92,40.5,91.9,40.4L91.9,40.4z M141.5,228.8c-4,0.1-7.5,2-11.3,2.9
		c-0.1,0-0.2,0.1-0.3,0.2c0.1,0.1,0.2,0.2,0.3,0.2c0.8,0.3,1.7,0.7,2.5,1c1,0.5,2.1,0.5,3.1,0.1c1.1-0.4,2.2-0.7,3.3-0.9
		c3-0.9,6.3-0.1,8.6,2c2.1,1.7,4.4,3.2,6.6,4.7c0.9,0.7,2.1,1,3.2,0.9c1.6-0.1,3.2-0.3,4.9-0.5c0.2,0,0.4-0.2,0.6-0.3
		c-0.2-0.1-0.4-0.2-0.6-0.2c-5.3-0.8-10.3-3.1-14.3-6.7c-0.9-0.7-1.7-1.5-2.6-2.2C144.3,229.2,143,228.8,141.5,228.8L141.5,228.8z
		 M102.8,228.8h-1.3l1.3,0.9c0.3,0.2,0.7,0.5,1,0.8c4.2,3.4,9.2,5.9,14.4,7.3c2.2,0.6,4.5,0.8,6.7,1.2c0.2,0,0.4-0.1,0.6-0.2
		c-0.1-0.2-0.3-0.4-0.4-0.6c-0.2-0.2-0.4-0.3-0.6-0.4c-3.3-1.9-6.7-3.9-10-5.8C110.9,230.1,106.9,229,102.8,228.8L102.8,228.8
		L102.8,228.8z M55.5,103.3c-0.8,0.1-1.7,0.2-2.5,0.3c-0.2,0.1-0.4,0.1-0.6,0.2c0.2,0.2,0.3,0.4,0.5,0.5c1,1,2,1.9,3,2.9
		c0.5,0.7,1.4,0.9,2.1,0.4l0,0c0.5-0.3,0.8-0.7,1.3-0.9c0.5-0.2,1-0.1,1.5,0.1c0.4,0.4,0.5,0.9,0.5,1.4c0,0.3-0.7,0.7-1.1,0.7
		c-0.6,0-1.2-0.1-1.7-0.3c-1-0.2-1.3,0.2-1.1,1.2c0.4,1.8,1.2,2.4,3.1,2.2c2.9-0.2,5.9-0.6,8.8-0.8c0.2-0.1,0.4-0.1,0.6-0.2
		c-0.1-0.2-0.2-0.4-0.3-0.6c-1.9-1.5-3.8-3.2-5.8-4.6C61.3,104.2,58.5,103.3,55.5,103.3L55.5,103.3z M148.4,240.7h3
		c0.1,0,0.2,0,0.3-0.1c-0.1-0.1-0.2-0.3-0.3-0.4c-0.3-0.1-0.6-0.1-0.9-0.2c-5-1.3-10-2.3-14.7-4.2c-5.1-2.1-10.2-4.3-15.3-6.6
		c-1.8-0.8-3.7-1.2-5.6-1.1c-0.2,0.1-0.4,0.1-0.7,0.2c0.2,0.2,0.3,0.4,0.6,0.5c7.9,3.9,16.1,7.3,24.5,10.2
		C142.3,240.3,145.3,240.9,148.4,240.7L148.4,240.7z M130.4,214.5c-0.2-0.1-0.3-0.1-0.5-0.2c-0.9-0.1-1.8-0.3-2.7-0.3
		c-4.3-0.3-8.7,0.1-12.9,1.2c-6.6,1.6-13.3,3.1-20.1,3.5c-0.1,0-0.3,0.1-0.4,0.2c0.1,0.1,0.3,0.2,0.5,0.2c2.7,0.9,5.6,1.1,8.4,0.4
		c2.9-0.6,5.8-1.4,8.8-2.2c3.7-1.1,7.6-1,11.2,0.2c0.6,0.2,1.2,0.1,1.7-0.2c1.8-0.9,3.7-1.8,5.6-2.6L130.4,214.5L130.4,214.5z
		 M135.6,133.9c-0.2-1.5-0.2-3-0.6-4.5s-0.9-3.1-1.4-4.7c0-0.2-0.2-0.3-0.3-0.4c0,0.2-0.1,0.3-0.1,0.5c0,0.4,0.1,0.8,0.1,1.3
		c0.2,4.6-0.9,9.2-3.2,13.2c-1.3,2.6-3.6,4.6-6.3,5.7c-0.2,0.1-0.4,0.2-0.5,0.4c0.2,0.1,0.4,0.2,0.6,0.3c2.8,0.4,5.7-0.5,7.8-2.5
		C134.6,140.7,135.5,137.5,135.6,133.9L135.6,133.9L135.6,133.9z M172.4,223.7c1.7-0.1,3.4-0.6,4.9-1.4c2.5-1.2,4.8-3,7.6-3.7
		c0.1,0,0.2-0.2,0.3-0.3c-0.1,0-0.2-0.1-0.3-0.1c-2.5-0.4-5-1-7.5-0.4c-2.3,0.6-4.5,1.2-6.8,1.8l-7.1,1.9c-0.2,0-0.3,0.1-0.5,0.1
		c0.2,0,0.4,0.1,0.6,0.1c2.4,0,4.7,0.5,6.8,1.4C171.1,223.5,171.8,223.6,172.4,223.7L172.4,223.7L172.4,223.7z M163.6,74.6
		c-0.9,0.2-1.9,0.5-2.8,0.7c-0.2,0.1-0.3,0.2-0.4,0.3c0.2,0.1,0.3,0.2,0.5,0.2c0.2,0.1,0.5,0.1,0.7,0.2c2.3,0.8,2.9,1.9,2.4,4.3
		c-0.2,0.8,0.3,0.6,0.7,0.6c3.4,0.3,6.2,1.5,7.9,4.6c0.1,0.1,0.2,0.2,0.4,0.3c0.1-0.2,0.1-0.3,0.1-0.5c0.2-0.5,0.3-1.1,0.5-1.6
		c0.3-0.8,0.3-1.7-0.1-2.5C171.7,77.4,167.9,74.8,163.6,74.6L163.6,74.6z M190.3,218.8c-3.1-0.1-6.2,0.7-8.8,2.3
		c-1.8,1.1-3.7,1.9-5.6,2.9c-0.7,0.3-1.3,0.5-2,0.7c0.7,0.4,1.5,0.7,2.3,0.8c1.3,0.1,2.6,0.1,3.9-0.1c1.3-0.3,2.6-0.6,3.8-1.1
		c3.8-1.2,7.2-3.6,11.3-4.2c0.1,0,0.2-0.2,0.3-0.4c-0.1-0.1-0.2-0.1-0.3-0.2L190.3,218.8L190.3,218.8z M82.3,198.7
		c0.2,3.5,2.2,6.6,5.2,8.2c1.9,0.9,3.9,1.7,5.9,2.3c3.3,1.1,6.5,2,9.8,3c0.6,0.2,1.2,0.2,1.7,0.1c1.3-0.3,2.6-0.7,3.8-1
		c0.2-0.1,0.3-0.2,0.4-0.3c-0.2-0.1-0.3-0.3-0.5-0.4c-1.9-0.4-3.9-0.7-5.8-1.1c-3.5-0.7-7-1.3-10.4-2.2c-4.8-1.3-7.6-4.6-8.8-9.4
		c-0.2-0.5-0.3-1-0.6-1.5c-0.3,0.6-0.6,1.2-0.8,1.8C82.2,198.4,82.2,198.6,82.3,198.7L82.3,198.7L82.3,198.7z M81.1,201.6
		c0.1,2.7,1.4,5.3,3.5,7c3.1,2.8,6.9,4.2,10.8,5.2c0.4,0.1,0.7,0.1,1.1,0c1.8-0.2,3.7-0.5,5.5-0.8c0.2,0,0.4-0.2,0.6-0.4
		c-0.2-0.1-0.4-0.2-0.6-0.3c-2.4-0.7-4.8-1.4-7.3-2.1c-2.8-0.6-5.5-1.5-8-2.8c-2.4-1.2-4.1-3.4-4.9-6c-0.1-0.2-0.1-0.5-0.2-0.7
		c-0.1-0.1-0.2-0.3-0.3-0.4c0,0.1-0.1,0.2-0.1,0.3C81.2,201.1,81.2,201.3,81.1,201.6L81.1,201.6L81.1,201.6z M128.6,60.8
		c-0.2,2.1,0.6,4.2,2.1,5.8c0.6,0.7,1.2,1.3,1.9,2c0.2,0.1,0.3,0.2,0.5,0.3c0-0.2,0-0.3-0.1-0.5c-0.7-1.9-1-4-0.9-6
		c0.2-4.9,2.9-7.5,7.7-7.6c0.3,0,0.5-0.1,0.7-0.2c-0.1-0.2-0.3-0.3-0.5-0.5c-3.9-2-8.7-0.5-10.7,3.4C129,58.5,128.7,59.6,128.6,60.8
		L128.6,60.8L128.6,60.8z M81.4,238.1l-3.6,0.5c-0.2,0-0.3,0.1-0.5,0.1l0.6,0.1c1.7,0.1,3.4,0.4,5,0.8c2.7,0.8,5.3,1.7,7.8,2.7
		c3.2,1.2,6.3,2.7,9.5,3.9c2.5,1,5.2,1.6,7.9,1.7c0.2,0,0.4-0.1,0.6-0.2c-0.1-0.1-0.3-0.2-0.4-0.3c-2.4-1.3-4.8-2.6-7.2-3.8
		c-1.7-1-3.6-1.7-5.5-2.2c-3.2-0.6-6.3-1.5-9.4-2.5C84.5,238.7,82.8,238.4,81.4,238.1L81.4,238.1z M69.2,135.8l0.1,0.6
		c0.1-0.1,0.3-0.1,0.4-0.2c1.7-2.7,4.3-4.4,6.7-6.2c1.6-1.2,3.2-2.4,4.6-3.8c1.4-1.1,2.3-2.6,2.8-4.3c0-0.2,0-0.5,0-0.7
		c-0.2,0-0.3,0.1-0.5,0.1c-3.5,2.2-6.9,4.4-10.3,6.7C70.4,129.8,69.5,132.6,69.2,135.8L69.2,135.8L69.2,135.8z M78.2,226.2
		c-3.4-0.1-6.5,0.8-9.6,1.6c-0.2,0-0.2,0.2-0.4,0.3c0.2,0.1,0.3,0.1,0.5,0.1c4.1,0.7,8.2,1.4,12.3,2c2.7,0.3,5.4-0.1,8-1.1
		c0.2,0,0.2-0.2,0.4-0.4c-0.2-0.1-0.3-0.1-0.5-0.2c-1.1-0.4-2.3-0.8-3.4-1.2C83.1,226.7,80.7,226.2,78.2,226.2L78.2,226.2
		L78.2,226.2z M91.4,102.1c0.1-1.3-0.3-2.6-1-3.6c-1.6-2.4-6.4-4.3-9.2-3.8h-0.4l0.5,0.2c0.3,0.1,0.6,0.2,0.8,0.3
		c3.7,1,5.8,3.5,6.6,7.1c0.5,2.7,0.6,5.4,0.2,8.1c-0.1,1.1-0.3,2.1-0.5,3.2c0,0.2,0,0.4,0,0.5c0.2,0,0.3,0,0.5-0.1
		c1.7-1,3.4-2,5.1-3c0.1-0.1,0.2-0.3,0.3-0.4l-0.5-0.2c-1.3-0.3-2.4-1.4-2.6-2.7c-0.2-1.1-0.2-2.3-0.2-3.4
		C91.1,103.6,91.2,102.8,91.4,102.1z M200.8,220c-2.2,0.4-4.6,0.7-6.9,1.2c-0.7,0.2-1.5,0.5-2.2,0.9c-0.1,0-0.2,0.2-0.2,0.3
		c0,0,0.2,0.2,0.3,0.2c1.7,0,3.5,0,5.2-0.1c2.8-0.2,5.7,0.2,8.3,1.2c0.7,0.3,1.4,0.5,2,0.7c3.1,1.1,5.3-0.3,7.3-2.5
		c0.1-0.1,0.1-0.2,0.2-0.3c-0.1,0-0.2-0.1-0.3-0.1c-3.1,1-6-0.2-9-0.9C204.1,220.4,202.5,220.3,200.8,220L200.8,220z M89.5,224.3
		c-2.3-0.1-4.6,0.2-6.8,0.9c-0.1,0.1-0.2,0.2-0.4,0.3c0.1,0.1,0.2,0.2,0.4,0.3c1.9,0.6,3.7,1.4,5.6,1.9c1.3,0.4,2.7,0.5,4.1,0.2
		c4-0.9,8-1,12-0.4c0.1,0,0.2,0,0.4,0c0.1,0,0.2-0.1,0.3-0.1c-0.1-0.1-0.2-0.2-0.3-0.2c-0.2-0.1-0.4-0.2-0.7-0.3
		C99.5,225.4,94.5,224.5,89.5,224.3L89.5,224.3L89.5,224.3z M149.8,220.1c-0.8,0.1-2.2,0.3-3.6,0.5c-0.5,0.1-0.6,0.3-0.2,0.7
		c1.1,1.1,2.5,1.7,4,1.9c2.6,0.3,5.1,0.6,7.7,1.1s4.9,1.3,7.3,1.9c0.2,0.1,0.3,0.1,0.5,0.1c-0.1-0.2-0.2-0.4-0.3-0.5
		C160.9,222.3,155.5,220.3,149.8,220.1L149.8,220.1L149.8,220.1z M84.1,108.7v1.7c0.4-0.4,0.8-0.9,1.1-1.3c0.3-0.5,0.5-1,0.6-1.5
		c0.5-1.8,0.5-3.6,0.1-5.4c-1.1-4.8-5.1-7.2-9.8-5.7c-0.3,0.1-0.5,0.3-0.7,0.5c0.2,0.1,0.4,0.1,0.7,0.2c2,0.3,3.9,1.4,5.2,3
		C83.2,102.5,84.3,105.5,84.1,108.7z M55.9,226.2c1.5-0.1,3.2-0.2,5-0.4c0.2,0,0.3-0.1,0.5-0.2c-0.1-0.1-0.1-0.3-0.2-0.4
		c-1.6-0.7-3.2-1.6-5.1-1.4c-2.1,0.1-4.2-0.2-6.2-1c-1.4-0.5-2.8-1.2-4.2-1.7c-1.2-0.4-2.4-0.6-3.7-0.9c-0.1,0-0.3,0.1-0.5,0.1
		c0,0.2,0.1,0.3,0.2,0.5c1.3,1.6,3,2.8,4.8,3.6C49.5,225.5,52.7,226.1,55.9,226.2L55.9,226.2z M96.9,170.1c-0.2-2.9-1.7-5.3-2.9-7.8
		c0-0.1-0.2-0.2-0.3-0.2c0,0.2,0,0.3,0.1,0.5c0.7,3.4,0.6,7-0.4,10.4c-1.3,4.9-0.2,9.4,2.4,13.7c0.2,0.3,0.3,0.5,0.5,0.7
		c0.1,0.1,0.2,0.2,0.4,0.2c0-0.2-0.1-0.3-0.1-0.5c-0.3-0.8-0.7-1.5-1.1-2.3c-1.1-2.5-1.3-5.3-0.5-8c0.3-1,0.7-1.9,1-2.9
		C96.3,172.6,96.6,171.3,96.9,170.1L96.9,170.1L96.9,170.1z M163.6,81.9c-0.7,0.2-2,0.4-3.2,0.7c-0.2,0-0.3,0.2-0.5,0.3
		c0.1,0.1,0.3,0.2,0.4,0.3c1.7,0.7,3.5,1.3,5.2,2.1c2.5,1.3,4.8,3.1,6.6,5.2c0.2,0.1,0.3,0.3,0.5,0.4c0.1-0.2,0.1-0.5,0.1-0.7
		C172.1,85.4,170,82.1,163.6,81.9z M39.6,216.2v0.2h-1.5c-0.5,0-0.7,0.2-0.4,0.7c0.7,1.3,2.1,2.1,3.5,2.2c1.6,0.1,3.2,0.5,4.8,0.9
		c1,0.3,2,0.9,3,1.2c1.7,0.5,3.5,1,5.2,1.4c0.5,0,0.9,0,1.4-0.1c-0.3-0.4-0.5-1-1-1.2c-1.4-0.8-2.8-1.4-4.2-2
		c-2.3-0.9-4.7-1.6-7-2.3C42.1,216.9,40.8,216.6,39.6,216.2L39.6,216.2z M98.8,175.7c-0.2-1.1-0.4-2.6-0.7-4.2
		c0-0.2-0.2-0.3-0.3-0.4c-0.1,0.1-0.2,0.2-0.2,0.4c-0.5,1.4-1,2.8-1.5,4.3c-0.6,1.5-0.8,3.2-0.7,4.8c0.4,2.5,1.2,4.9,2.3,7.2
		c0.1,0.2,0.2,0.3,0.3,0.4c0-0.2,0.1-0.3,0.1-0.5c0-1.7-0.1-3.4,0-5C98.2,180.4,98.5,178.3,98.8,175.7L98.8,175.7z M139.6,34.4
		l0.1,0.5c0.2-0.1,0.5-0.2,0.7-0.3c3.2-2.6,6.1-5.4,7.9-9.3c0.6-1.4,1-2.8,1.4-4.3c0-0.2-0.1-0.4-0.2-0.6c-0.1,0.1-0.2,0.3-0.3,0.4
		c-1.7,3.6-4.3,6.8-7.5,9.1c-1.3,0.8-2.1,2.3-2,3.8C139.6,34.1,139.6,34.2,139.6,34.4L139.6,34.4z M108.2,108.1
		c-1.9,0.2-4,0.5-6,0.7c-0.2,0-0.3,0.2-0.4,0.3c0.2,0,0.3,0.1,0.5,0.1c1.4,0,2.8-0.2,4.1-0.2c3.2,0,6.4,0.7,9.2,2.3
		c2.1,1.2,4,2.8,5.6,4.8c0.1,0.1,0.3,0.2,0.4,0.4c0-0.2,0-0.3,0-0.5c-0.7-3.9-3.8-6.9-7.7-7.3C112,108.4,110.2,108.3,108.2,108.1
		L108.2,108.1z M172.6,216.5v-0.2c-1.6,0.1-3.2,0.3-4.8,0.6c-2.6,0.7-5.2,1.5-7.8,2.3c-0.5,0.2-1,0.5-1.5,0.7l1.8,0.7
		c0.1,0,0.2,0,0.4,0c2.8-0.2,5.5-0.8,8.1-1.7c2-0.8,4.1-1.4,6.1-2.1l0.7-0.2c-0.2-0.1-0.4-0.1-0.6-0.1
		C174.2,216.5,173.4,216.5,172.6,216.5L172.6,216.5z M89,127.7c0.2-0.3,0.3-0.4,0.4-0.6c2.8-4.2,6.5-7.8,10.7-10.6
		c0.2-0.1,0.3-0.3,0.4-0.5c-0.2,0-0.5,0-0.7,0c-4.8,0.9-8.8,4.3-10.5,8.9c-0.2,0.7-0.4,1.5-0.5,2.3C88.9,127.4,88.9,127.5,89,127.7
		L89,127.7z M29.7,53.5c0,2.8,0.6,4.6,1.9,5.9c0.4,0.4,0.7,0.5,1.1,0c0.4-0.5,0.9-1.1,1.4-1.7c0.7-0.8,0.5-1.3-0.6-1.5
		c-0.8-0.1-1.1-0.6-1-1.4c0-0.3,0.1-0.6,0.1-0.9c0.1-0.6,0.4-1.3,0.2-1.7c-0.2-0.5-1-0.6-1.4-0.9c-0.4-0.3-0.8-0.6-1.2-0.8
		c-0.1,0.6-0.3,1.1-0.4,1.7C29.7,52.7,29.7,53.1,29.7,53.5C29.7,53.5,29.7,53.5,29.7,53.5z M56.8,228.4c3.9-0.1,7.7-0.5,11.5-1.4
		c0.2-0.1,0.4-0.1,0.6-0.2c-0.2-0.1-0.4-0.2-0.7-0.2c-1.9-0.1-3.7-0.1-5.6-0.1c-3.8,0.3-7.5,0.9-11.3,0.2c-0.6-0.1-1.3-0.2-1.9-0.3
		c0.6,0.4,1.1,0.9,1.8,1.3c0.4,0.2,0.8,0.3,1.2,0.3C53.9,228.2,55.6,228.3,56.8,228.4L56.8,228.4z M40.5,214.2
		c-1.3,0.1-2.6,0.2-3.9,0.4c-0.3,0.1-0.6,0.2-0.8,0.4c0.3,0.3,0.6,0.5,1,0.7c0.4,0,0.8,0,1.2-0.1c2.2-0.3,4.4,0.1,6.3,1
		c0.9,0.4,1.8,0.8,2.7,1c0.9,0.2,1.8,0.3,2.7,0.5c-0.6-0.7-1.2-1.4-1.9-2.1c-0.3-0.3-0.7-0.5-1.1-0.7
		C44.7,214.5,42.6,214.1,40.5,214.2L40.5,214.2z M99.9,182c-0.1,0.3-0.3,0.7-0.3,0.9c0.1,0.3,0.5,0.5,0.8,0.6
		c2.6,1.4,4.8,3.3,6.6,5.6l4.1,5.2c0.4,0.5,0.9,1,1.3,1.5c0.1,0.1,0.3,0.2,0.4,0.2c0-0.2,0.1-0.3,0-0.5c-0.1-0.2-0.2-0.4-0.4-0.6
		c-1.9-2.3-3.6-4.7-5-7.3c-1.6-2.8-4.3-4.3-7.1-5.5C100.3,182.1,100.2,182,99.9,182z M99.7,184.5c-0.1,0.1-0.3,0.3-0.3,0.4
		c-0.2,0.7,0.1,1.5,0.8,1.7c1.9,1.1,3.6,2.4,5.1,4c1.3,1.2,2.7,2.2,4.1,3.2c0.1,0.1,0.3,0.1,0.5,0.2c-0.1-0.2-0.1-0.3-0.2-0.4
		c-1.6-1.9-3.2-3.8-4.8-5.7c-1.2-1.4-2.8-2.5-4.5-3.2L99.7,184.5L99.7,184.5z M115.6,107.9c0.6,0,0.7-0.1,0.4-0.8
		c-0.3-0.9-0.6-1.8-0.9-2.7c-0.1-0.5-0.3-0.9-0.5-1.3c-0.2-0.2-0.4-0.3-0.7-0.3c-1,0.3-3,2.8-2.9,3.9c0.1,0.3,0.3,0.6,0.5,0.7
		C112.9,107.5,114.2,107.7,115.6,107.9L115.6,107.9z M156.5,219.1c0.2,0,0.4-0.1,0.5-0.1c2.3-0.2,4.4-1.1,6.5-1.9
		c0.4-0.2,0.9-0.4,1.3-0.6c-0.5,0-0.9-0.1-1.4,0c-0.4,0-0.8,0-1.3,0.1l-9.6,1.4c-0.5,0.1-0.9,0.2-1.4,0.3c-0.1,0-0.2,0.1-0.3,0.1
		l0.3,0.1L156.5,219.1L156.5,219.1z M110.4,190.1v-0.2c-1.8-4.4-4.2-8.1-8.8-10c-0.5-0.2-1.2-0.9-1.6-0.1c-0.5,0.9,0.6,1,1.1,1.2
		c3.7,1.9,6.8,4.4,8.5,8.3c0.2,0.3,0.3,0.6,0.5,0.9c0,0.1,0.2,0.1,0.2,0.2C110.4,190.3,110.4,190.1,110.4,190.1L110.4,190.1
		L110.4,190.1z M62.6,228.9v0.2h-2.3c-0.2,0-0.3,0.1-0.4,0.2c0.1,0.1,0.3,0.2,0.4,0.3c0.9,0.3,1.7,0.5,2.6,0.7
		c2.8,0.9,5.7,1.1,8.6,0.7c0.2-0.1,0.4-0.1,0.5-0.3c-0.2-0.1-0.3-0.1-0.5-0.2L62.6,228.9L62.6,228.9z M39.2,213.4h1.6
		c0.4,0,0.6-0.1,0.9-0.1c-0.3-0.2-0.6-0.3-0.9-0.4c-2.1-0.3-4.2-0.7-6.4-1c-0.5,0-1,0.1-1.5,0.2c0.2,0.5,0.6,1,1,1.4
		c0.5,0.3,1.1,0.4,1.7,0.3C36.9,213.7,38.2,213.5,39.2,213.4L39.2,213.4z M35.4,61.4c0.4-0.1,0.8-0.2,1.2-0.5
		c0.8-0.9,1.2-2.1,1.2-3.3c0,0-0.5-0.3-0.6-0.2c-0.8,0.6-1.7,1.1-2.5,1.8c-0.5,0.5-1,0.9-1.5,1.4L35.4,61.4L35.4,61.4z M73.8,112.5
		c-1,0.1-1,0.1-0.7,1c0.3,0.9,0.6,1.4,0.9,2.2l1.9-1.1l0.6-0.4c0.4-0.3,0.4-0.6,0-0.8C75.6,113.1,74.7,112.8,73.8,112.5L73.8,112.5z
		 M59,39.7v1.7c0.4-0.3,0.8-0.7,1.2-1c0.4-0.3,1-0.7,1.4-1.1c0.1-0.1,0-0.4-0.1-0.5c-0.2-0.1-0.4-0.2-0.7-0.3
		C59.7,38.1,59.1,38.4,59,39.7L59,39.7z M31.9,65.8c-0.1-0.6-0.2-1.1-0.4-1.7c-0.1-0.3-0.5-0.5-0.7-0.7c-0.1,0.3-0.3,0.6-0.2,0.9
		c0.1,0.8,0.4,1.5,0.6,2.3l0.3,0.9c0.1-0.3,0.3-0.6,0.4-1C31.9,66.3,32,66,31.9,65.8L31.9,65.8L31.9,65.8z M224.6,57.2
		c-0.1-0.4-0.2-0.9-0.4-1.3c-0.1-0.5-0.5-0.4-0.8-0.1c-0.6,0.7-0.5,1,0.5,1.7c0.2,0.1,0.3,0.2,0.5,0.2L224.6,57.2L224.6,57.2z
		 M227.1,61.4c-0.1,0.1-0.2,0.2-0.2,0.3c0,0.5,1.1,1.4,1.7,1.3c0.1,0,0.2-0.3,0.2-0.3C228.2,62.2,227.6,61.8,227.1,61.4L227.1,61.4z
		 M120,129.4l-0.6-0.5c0,0.1-0.1,0.2-0.1,0.3c0,0.1,0.1,0.3,0.2,0.4C119.6,129.6,119.8,129.4,120,129.4L120,129.4z M132.5,242
		L132.5,242l0.1,0.1L132.5,242z"/>
	<path class="st1" d="M68.4,150.8c0-2.5,1-4.8,2.6-6.6c1.6-1.8,3.5-3.3,5.6-4.5c1.9-1.2,3.8-2.4,5.5-3.7c1.8-1.2,3.1-3.2,3.4-5.3
		c0-0.2,0.1-0.3,0.2-0.5c0.1,0.1,0.3,0.3,0.3,0.4c0.1,0.7,0.2,1.4,0.1,2.1c-0.3,2.3-1.5,4.4-3.3,5.9c-2.9,2.8-5.1,6.3-6.4,10.2
		c-1,2.7-2.2,5.4-3.7,7.8c-0.7,1.4-1.3,2.8-1.9,4.3c-0.1,0.3-0.3,0.6-0.5,0.9c-0.1-0.3-0.2-0.7-0.3-1c-0.1-2.2,0.4-4.5,1.4-6.5
		c1.5-3.1,2.9-6.2,4.3-9.4c0.1-0.2,0.1-0.4,0.1-0.6c-0.2,0.1-0.3,0.1-0.5,0.2c-2.9,1.9-5,4.8-5.8,8.2c-0.1,0.4-0.2,0.8-0.3,1.2
		c-0.1,0.1-0.1,0.2-0.2,0.3c-0.1-0.1-0.2-0.2-0.2-0.3C68.7,152.7,68.5,151.7,68.4,150.8L68.4,150.8z"/>
	<path class="st1" d="M82.2,148.9c1.6,1.8,3.1,3.7,4.6,5.6c3.2,3.8,4.3,8.8,3,13.6c-0.2,0.8-0.4,1.5-0.6,2.3c-0.6,1.8-1,3.6,0.2,5.4
		c0.2,0.3,0.3,0.6,0.3,1v2.1c-0.2-0.6-0.5-1.2-0.7-1.8c-0.8-2.4-2.2-4.6-4.1-6.3c-1.9-1.7-3.6-3.8-4.8-6.1c-1.7-3-2-6.6-0.7-9.8
		c0.8-2.3,1.6-4.6,2.4-6.8c0.1-0.2,0.2-0.4,0.3-0.6c0,0.2,0,0.5,0.1,0.7C82.2,148.5,82.2,148.7,82.2,148.9c-0.9,2.9-1.8,5.9-2.5,8.9
		c-0.5,2-0.2,4.2,0.9,6c1.3,2.5,3,4.8,5.2,6.7l1.6,1.4c0.2-0.7,0.3-1.3,0.5-2s0.3-1.4,0.6-2.1c1.2-3.8,0.5-8-1.8-11.2
		c-0.9-1.4-1.9-2.6-2.9-4C82.9,151.6,82.4,150.3,82.2,148.9L82.2,148.9z"/>
	<path class="st1" d="M222.1,100.7c0,1.7-0.5,3.4-1.3,4.8c-0.7,0.8-1.5,1.6-2.3,2.2c-0.1,0.1-0.3,0.3-0.3,0.4s0.3,0.4,0.5,0.4
		c1,0.2,2,0.3,3,0.4c1,0.1,1.2,0.3,1,1.3c-0.1,0.4-0.2,0.7-0.4,1c-0.4,0.7-0.8,0.7-1.4,0.2c-0.4-0.3-0.7-0.6-1.1-1
		c-0.5-0.5-1.3-0.7-2-0.5c-1.8,0.6-3.7,0-4.9-1.5c-0.2-0.2-0.5-0.7-0.5-0.8c0.3-0.3,0.7-0.6,1.1-0.8h0.2c0.6,0.2,1.2,0.7,1.6,0
		c0.4-0.6,0.6-1.3,0.6-2c0-0.8-0.3-1.6-0.7-2.3c-1.2-1.5-0.6-3.2-0.6-4.9c0-0.6,0.6-0.4,0.9-0.1c1.2,1.3,2.1,2.8,2.5,4.5
		c0.2,0.5,0.2,1.1,0.3,1.6c0.1,0.5,0.1,0.8,0.2,1.2c0.1-0.4,0.2-0.8,0.3-1.2c0-0.2,0.1-0.3,0.2-0.5c1.1-1.1,2-2.4,2.6-3.9
		c0-0.1,0.2-0.1,0.2-0.2c0.1,0.1,0.2,0.3,0.2,0.4C222.2,100,222.1,100.3,222.1,100.7L222.1,100.7z"/>
	<path class="st1" d="M55.3,197.4c-1.8,0.2-3.6,0.4-5.4,0.5c-0.2,0-0.4,0-0.6-0.1c0.2-0.2,0.3-0.4,0.5-0.5c1.4-0.5,2.9-0.9,4.3-1.2
		c4.1-0.6,8,0.1,12,0.9c0.7,0.1,1.3,0.2,2,0.3c1.5,0.1,1.9-0.3,1.8-1.8c-0.1-1-0.3-2-0.5-3c-0.3-1.5-0.8-2.9-1.1-4.4
		c-0.4-1.2-0.2-2.4,0.4-3.5c0.2-0.2,0.5-0.4,0.7-0.5c0.1,0.2,0.2,0.5,0.3,0.7c0.4,2,0.7,4,1.1,6c0.2,1.2,0.6,2.5,0.8,3.7
		c0.1,0.7,0.1,1.4-0.1,2.1c-0.1,1.3-1.2,2.2-2.5,2.2c-1,0.1-1.9,0-2.9-0.2C62.6,198,58.9,197.5,55.3,197.4L55.3,197.4z"/>
	<path class="st1" d="M81.9,170c-1.9-1.3-3.4-3.1-4.3-5.2c-2.7-4.9-2.9-10.8-0.7-15.9c1-2.7,2.6-5.2,4.6-7.3
		c0.6-0.5,1.2-0.9,1.9-1.2c-0.4,0.5-0.9,1-1.3,1.5c-2.9,3.4-4.7,7.5-5.3,11.9c-0.5,4.8,0.8,9.6,3.5,13.5
		C80.9,168.3,81.4,169.2,81.9,170L81.9,170L81.9,170z"/>
	<path class="st1" d="M69.9,142.8c0.2-0.6,0.5-1.2,0.8-1.8c1.5-2.1,3.5-3.9,5.8-5.1c0.8-0.4,1.6-0.8,2.4-1.2c2.2-1.1,4-2.9,5.1-5.1
		c0.1-0.2,0.3-0.4,0.4-0.5l0,0c0.3,1.2-0.1,2.5-1,3.3c-1.2,1.1-2.5,2.1-3.8,2.9c-2.6,1.5-5.3,2.7-7.4,5c-0.7,0.8-1.5,1.7-2.2,2.6
		L69.9,142.8L69.9,142.8z"/>
	<path class="st1" d="M81.2,215.4c0.4,0.1,0.8,0.2,1.2,0.3c0.1,0.1,0.2,0.1,0.3,0.2c-0.2,0-0.3,0-0.5,0
		C81.9,215.8,81.5,215.5,81.2,215.4C81.2,215.3,81.2,215.4,81.2,215.4z"/>
	<path class="st1" d="M231,204.8l-0.6,1.2l-0.2-0.2L231,204.8L231,204.8L231,204.8z"/>
	<path class="st1" d="M80.1,215l1.1,0.3l0,0L80.1,215L80.1,215L80.1,215z"/>
	<path class="st1" d="M15.7,186.7l-0.2-0.3l0.1,0.2L15.7,186.7L15.7,186.7L15.7,186.7z"/>
	<path class="st1" d="M166.6,31.3L166.6,31.3l0.1-0.1v0.1H166.6z"/>
	<path class="st1" d="M168,30.7l-0.3,0.3l-0.1-0.2L168,30.7L168,30.7L168,30.7z"/>
	<path class="st1" d="M70,142.9l-0.2,0.6c0,0-0.1-0.1-0.1-0.1C69.8,143.1,69.9,143,70,142.9L70,142.9L70,142.9z"/>
	<path class="st1" d="M168.1,30.7l0.7-0.4l0,0L168.1,30.7L168.1,30.7z"/>
	<path class="st1" d="M81.9,170l0.3,0.4l0,0L81.9,170L81.9,170z"/>
	<path class="st1" d="M82.7,170.7l-0.4-0.3l0,0L82.7,170.7L82.7,170.7L82.7,170.7z"/>
	<path class="st1" d="M83,171.1l-0.3-0.4l0,0L83,171.1L83,171.1z"/>
	<polygon class="st1" points="83,171.1 83,171.2 83,171.1 	"/>
	<path class="st1" d="M84.5,129.1V129V129.1L84.5,129.1z"/>
	<path class="st1" d="M21.1,113.4l-0.1,0.2v-0.1C20.9,113.5,21,113.5,21.1,113.4L21.1,113.4z"/>
	<path class="st1" d="M231.5,204.5v-0.1V204.5L231.5,204.5L231.5,204.5z"/>
	<path class="st1" d="M231.1,204.9l0.4-0.3h-0.1L231.1,204.9L231.1,204.9L231.1,204.9z"/>
	<polygon class="st1" points="23.2,83 23.3,83 23.3,82.9 	"/>
	<path class="st1" d="M209.7,76.8h0.2H209.7L209.7,76.8z"/>
	<path class="st1" d="M18.2,75.3l-0.3-0.1L18.2,75.3L18.2,75.3L18.2,75.3z"/>
	<polygon class="st1" points="224.1,48.1 224.1,48.2 224.2,48.1 	"/>
	<path class="st1" d="M62.7,35.1l-0.2-0.2c0,0,0.1,0,0.1,0C62.7,35,62.7,35,62.7,35.1L62.7,35.1L62.7,35.1z"/>
	<polygon class="st1" points="63.1,26.7 63.1,26.8 63.1,26.7 	"/>
	<path class="st1" d="M99.3,97.8L99.2,98h-0.1L99.3,97.8L99.3,97.8z"/>
	<path class="st1" d="M157.6,43.8c-0.1,0.1-0.2,0.1-0.3,0.2c-0.1,0-0.2,0-0.3,0c0.1-0.1,0.2-0.1,0.3-0.1
		C157.4,43.8,157.5,43.8,157.6,43.8L157.6,43.8z"/>
	<path class="st1" d="M173.2,32.2v-0.2V32.2L173.2,32.2z"/>
	<path class="st1" d="M198.1,225.9h0.7c0.1,0,0.2,0.1,0.3,0.2c-0.1,0-0.2,0-0.3,0C198.5,226,198.3,225.9,198.1,225.9L198.1,225.9
		L198.1,225.9z"/>
	<path class="st1" d="M164.8,241.9l0.2-0.2L164.8,241.9L164.8,241.9L164.8,241.9z"/>
	<polygon class="st1" points="200,228.9 200,228.7 199.9,228.8 	"/>
	<polygon class="st1" points="193.4,230.2 193.5,230.3 193.4,230.2 	"/>
	<path class="st1" d="M186.5,232.8l0.1-0.2L186.5,232.8L186.5,232.8L186.5,232.8z"/>
	<path class="st1" d="M193.8,50.3c0,0,0,0.1-0.1,0.1h-0.1L193.8,50.3L193.8,50.3z"/>
	<polygon class="st1" points="193.7,44.8 193.7,44.9 193.8,44.8 	"/>
	<path class="st1" d="M110.8,49.6l0.2,0.1L110.8,49.6L110.8,49.6z"/>
	<polygon class="st1" points="103.6,32.5 103.6,32.6 103.6,32.5 	"/>
	<path class="st1" d="M64.9,91l0.7,0.3l0,0L64.9,91L64.9,91L64.9,91z"/>
	<polygon class="st1" points="64.9,91 64.8,90.9 64.9,91 	"/>
	<path class="st1" d="M85.5,70.2v-0.1l0.1,0.1L85.5,70.2L85.5,70.2z"/>
	<path class="st1" d="M82.2,153.8c0.9,0.3,1,1.1,1.1,1.9c0.1,1.2,0.6,2.4,1.4,3.3c2.8,3.3,1.5,4.5,0.2,7.2c-0.2,0.5-0.5,0.2-0.6,0
		c-0.2-0.3-0.3-0.5-0.5-0.7c-2.3-2.3-2.8-4.8-1.2-7.7C83.2,156.3,82.6,155,82.2,153.8L82.2,153.8L82.2,153.8z M85.4,162.3
		c0.1-1.8-1.3-2.8-2.2-4c0-0.1-0.3,0-0.4,0.1c-0.7,1.3-0.7,2.8-0.2,4.2c0,0.2,0.1,0.3,0.2,0.5c0.5,0.7,1,1.3,1.5,2
		c0.4-0.8,0.7-1.6,1.1-2.4C85.4,162.5,85.4,162.4,85.4,162.3L85.4,162.3z"/>
</g>
<text transform="matrix(1 0 0 1 294.7017 164.5942)" class="st2 st3">Cedar Studios</text>
</svg>
