<svg version="1.1" id="Layer_1" xmlns="http://www.w3.org/2000/svg" xmlns:xlink="http://www.w3.org/1999/xlink" x="0px" y="0px"
	 viewBox="0 0 800 800" style="enable-background:new 0 0 800 800;" xml:space="preserve">
<style type="text/css">
	.st0{stroke:#cdcdcd;stroke-width:20;stroke-miterlimit:10;}
</style>
<path class="st0" d="M394.3,503.2c3.1,2.8,6.9,4.2,10.7,4.2c0.6,0,1.2-0.1,1.8-0.2c0.2,0,0.5,0.1,0.7,0.1c4.4,0,8.7-1.8,11.9-5.3
	l121.8-134.4c5.9-6.5,5.4-16.7-1.1-22.6c-6.5-5.9-16.7-5.4-22.6,1.1L405.2,469.9L281.4,357.6c-6.6-6-16.7-5.4-22.6,1.1
	c-5.9,6.5-5.4,16.7,1.1,22.6L394.3,503.2z"/>
<path class="st0" d="M400,665.7c147.6,0,267.7-120.1,267.7-267.7c0-147.6-120.1-267.7-267.7-267.7c-147.6,0-267.7,120.1-267.7,267.7
	C132.3,545.6,252.4,665.7,400,665.7z M400,162.4c129.9,0,235.7,105.7,235.7,235.7c0,129.9-105.7,235.7-235.7,235.7
	c-129.9,0-235.7-105.7-235.7-235.7C164.3,268.1,270.1,162.4,400,162.4z"/>
</svg>
