<svg version="1.1" id="Layer_1" xmlns="http://www.w3.org/2000/svg" xmlns:xlink="http://www.w3.org/1999/xlink" x="0px" y="0px"
	 viewBox="0 0 800 800" style="enable-background:new 0 0 800 800;" xml:space="preserve">
<style type="text/css">
	.st0{fill:#2f666d;}
	.st1{fill:#FFFFFF;fill-opacity:0;}
	.st2{fill:#FFFFFF;}
</style>
<g>
	<circle class="st0" cx="400" cy="400" r="333.3"/>
	<g>
		<g>
			<rect x="183.4" y="183.4" class="st1" width="433.2" height="433.2"/>
			<path class="st2" d="M544.4,382c-10,0-18,8.1-18,18v108.3c0,10-8.1,18-18,18H291.7c-10,0-18-8.1-18-18V291.7c0-10,8.1-18,18-18
				H400c10,0,18-8.1,18-18c0-10-8.1-18-18-18H291.7c-29.9,0-54.1,24.2-54.1,54.1v216.6c0,29.9,24.2,54.1,54.1,54.1h216.6
				c29.9,0,54.1-24.2,54.1-54.1V400C562.4,390,554.4,382,544.4,382z"/>
			<path class="st2" d="M472.2,273.7h28.5L387.2,387c-7.1,7-7.1,18.4-0.1,25.5c0,0,0.1,0.1,0.1,0.1c7,7.1,18.4,7.1,25.5,0.1
				c0,0,0.1-0.1,0.1-0.1l113.5-113.4v28.5c0,10,8.1,18,18,18s18-8.1,18-18v-72.2c0-10-8.1-18-18-18h-72.2c-10,0-18,8.1-18,18
				C454.1,265.6,462.2,273.7,472.2,273.7z"/>
		</g>
	</g>
</g>
</svg>
