<svg width="34" height="34" viewBox="0 0 34 34" fill="none" xmlns="http://www.w3.org/2000/svg">
<path d="M17 32.9961C25.8366 32.9961 33 25.8327 33 16.9961C33 8.15954 25.8366 0.996094 17 0.996094C8.16344 0.996094 1 8.15954 1 16.9961C1 25.8327 8.16344 32.9961 17 32.9961Z" stroke="white" stroke-width="1.3" stroke-miterlimit="10"/>
<path d="M23 6.99991L19.6662 6.99609C16.4333 6.99609 14.3449 9.02355 14.3449 12.165V14.5465H11V18.8563H14.3449L14.3408 27.9961H19.0208L19.0249 18.8563H22.8629L22.8598 14.5475H19.0249V12.5267C19.0249 11.555 19.2679 11.0634 20.604 11.0634L22.9899 11.0625L23 6.99991Z" fill="white"/>
</svg>
