<svg width="34" height="34" viewBox="0 0 34 34" fill="none" xmlns="http://www.w3.org/2000/svg">
<path d="M24.836 14.9007H16.6745V18.2172H21.4022C21.2189 19.2779 20.5772 20.2452 19.6641 20.8429C19.093 21.2194 18.4338 21.4647 17.7533 21.5822C17.0694 21.6962 16.3643 21.71 15.6839 21.5753C14.9894 21.4405 14.3301 21.1572 13.7519 20.7599C12.8282 20.1243 12.1267 19.1949 11.7636 18.1516C11.3934 17.0875 11.3899 15.906 11.7636 14.842C12.0244 14.0923 12.4545 13.4013 13.0221 12.8382C13.7237 12.1369 14.6333 11.6325 15.6134 11.4287C16.4524 11.2525 17.3373 11.287 18.1588 11.5289C18.8568 11.7361 19.502 12.1127 20.0273 12.6067C20.5596 12.0885 21.092 11.5634 21.6243 11.0452C21.9028 10.7654 22.1954 10.4959 22.4669 10.2091C21.6596 9.47673 20.7112 8.88597 19.6747 8.51286C17.8097 7.83918 15.7086 7.82536 13.833 8.46449C11.7248 9.16926 9.92325 10.7204 8.92554 12.6793C8.57652 13.353 8.32269 14.075 8.17109 14.8143C7.78682 16.6592 8.05475 18.6284 8.92554 20.3108C9.48962 21.4094 10.3005 22.3837 11.2806 23.1506C12.2078 23.8761 13.2866 24.4082 14.4323 24.7087C15.8778 25.0887 17.4149 25.0784 18.8709 24.7571C20.1859 24.46 21.4304 23.845 22.4211 22.9468C23.4717 22.0002 24.2191 20.7565 24.6139 19.4195C25.0476 17.9581 25.1075 16.4001 24.836 14.9076V14.9007Z" fill="white"/>
<path d="M16.6791 32.3542C25.3384 32.3542 32.3581 25.3345 32.3581 16.6751C32.3581 8.01585 25.3384 0.996094 16.6791 0.996094C8.01975 0.996094 1 8.01585 1 16.6751C1 25.3345 8.01975 32.3542 16.6791 32.3542Z" stroke="white" stroke-width="1.3" stroke-miterlimit="10"/>
</svg>
