<?xml version="1.0" encoding="utf-8"?>
<!-- Generator: Adobe Illustrator 26.4.1, SVG Export Plug-In . SVG Version: 6.00 Build 0)  -->
<svg version="1.1" id="Layer_1" xmlns="http://www.w3.org/2000/svg" xmlns:xlink="http://www.w3.org/1999/xlink" x="0px" y="0px"
	 viewBox="0 0 800 800" style="enable-background:new 0 0 800 800;" xml:space="preserve">
<style type="text/css">
	.st0{fill:#FFFFFF;}
</style>
<path class="st0" d="M798.2,400.1c0,220-178.3,398.2-398.2,398.2S1.8,620,1.8,400.1S180,1.7,400,1.7S798.2,180.1,798.2,400.1
	L798.2,400.1z M657.1,602.7c0-11-9-20-20-20H217.3V183.3c0-11-9-20-20-20c-11,0-20,9-20,20l0,0v419.4c0,11,9,20,20,20h439.8
	C648.2,622.7,657.1,613.7,657.1,602.7z M258.2,541.5h63.1V317.3c0-8.7-7.2-15.9-15.9-15.9h-31.3c-8.7,0-15.9,7.2-15.9,15.9V541.5z
	 M359.4,541.5h63.1V194.4c0-8.8-7.2-15.9-15.9-15.9h-31.2c-8.8,0-16,7.2-16,15.9V541.5z M460.6,541.5h63.1V317.3
	c0-8.8-7.2-15.9-15.9-15.9h-31.2c-8.8,0-15.9,7.2-15.9,15.9L460.6,541.5z M561.9,541.5H625V440.1c0-8.8-7.2-15.9-15.9-15.9l0,0
	h-31.2c-8.8,0-15.9,7.2-15.9,15.9l0,0L561.9,541.5z"/>
</svg>
