<?xml version="1.0" encoding="utf-8"?>
<!-- Generator: Adobe Illustrator 26.4.1, SVG Export Plug-In . SVG Version: 6.00 Build 0)  -->
<svg version="1.1" id="_x32_" xmlns="http://www.w3.org/2000/svg" xmlns:xlink="http://www.w3.org/1999/xlink" x="0px" y="0px"
	 viewBox="0 0 800 800" style="enable-background:new 0 0 800 800;" xml:space="preserve">
<style type="text/css">
	.st0{fill:#FFFFFF;}
</style>
<g>
	<path class="st0" d="M400,0C179.1,0,0,179.1,0,400s179.1,400,400,400s400-179.1,400-400S620.9,0,400,0z M292.3,317.4
		c0,0.6-0.2,1.1-0.7,1.4L179,402.5l112.6,83.8c0.4,0.3,0.7,0.8,0.7,1.4v51.7c0,0.6-0.3,1.2-0.8,1.5c-0.2,0.1-0.5,0.2-0.7,0.2
		c-0.3,0-0.6-0.1-0.9-0.3L127.7,420.1c-0.4-0.3-0.7-0.8-0.7-1.4v-32.4c0-0.6,0.3-1.1,0.7-1.4l162.1-120.6c0.3-0.2,0.6-0.3,0.9-0.3
		s0.5,0.1,0.7,0.2c0.5,0.3,0.8,0.9,0.8,1.5v51.7H292.3z M372.7,563.1c-0.2,0.7-0.8,1.2-1.5,1.2h-45.3c-0.5,0-1-0.3-1.3-0.7
		s-0.4-1-0.2-1.5l102.9-325.2c0.2-0.7,0.8-1.1,1.5-1.1h45.3c0.5,0,1,0.3,1.3,0.7s0.4,1,0.2,1.6L372.7,563.1z M673,418.7
		c0,0.6-0.2,1.1-0.7,1.4L510.1,540.7c-0.3,0.2-0.6,0.3-0.9,0.3s-0.5-0.1-0.7-0.2c-0.5-0.3-0.8-0.9-0.8-1.5v-51.7
		c0-0.6,0.2-1.1,0.7-1.4L621,402.5l-112.6-83.7c-0.4-0.3-0.7-0.8-0.7-1.4v-51.7c0-0.7,0.3-1.2,0.8-1.5c0.2-0.1,0.5-0.2,0.7-0.2
		c0.3,0,0.6,0.1,0.9,0.3l162.1,120.6c0.4,0.3,0.7,0.8,0.7,1.4v32.4H673z"/>
</g>
</svg>
