<svg width="34" height="34" viewBox="0 0 34 34" fill="none" xmlns="http://www.w3.org/2000/svg">
<path d="M8.9021 13.8576H12.4189V24.582H8.9021V13.8576ZM10.6819 8.68848C9.47722 8.68848 8.69226 9.48827 8.69226 10.5402C8.69226 11.5922 9.4539 12.392 10.6352 12.392H10.6585C11.8865 12.392 12.6481 11.5685 12.6481 10.5402C12.6248 9.48827 11.8865 8.68848 10.6819 8.68848ZM21.0495 13.6055C19.1843 13.6055 18.3488 14.6456 17.8825 15.3745V13.8576H14.3657C14.4123 14.8623 14.3657 24.582 14.3657 24.582H17.8825V18.5933C17.8825 18.2742 17.9058 17.9511 17.999 17.7226C18.2555 17.0804 18.8306 16.4185 19.8021 16.4185C21.0767 16.4185 21.5858 17.4035 21.5858 18.8455V24.5859H25.1025V18.4358C25.1025 15.142 23.3694 13.6094 21.0534 13.6094L21.0495 13.6055Z" fill="white"/>
<path d="M17 32.9961C25.8366 32.9961 33 25.8327 33 16.9961C33 8.15954 25.8366 0.996094 17 0.996094C8.16344 0.996094 1 8.15954 1 16.9961C1 25.8327 8.16344 32.9961 17 32.9961Z" stroke="white" stroke-width="1.3" stroke-miterlimit="10"/>
</svg>
